<?xml version="1.0" encoding="UTF-8" standalone="no"?>
<svg width="27" xmlns="http://www.w3.org/2000/svg" viewBox="0 0 27 20" height="20">
 <path fill-rule="evenodd" d="m16.875 11.434c2.24 0.11 4.022 1.984 4.022 4.28 0 2.367-1.894 4.286-4.23 4.286-0.354 0-0.641-0.291-0.641-0.649 0-0.359 0.287-0.65 0.641-0.65 1.628 0 2.948-1.337 2.948-2.987 0-1.649-1.32-2.987-2.948-2.987h-16.026c-0.35291 0-0.641-0.29-0.641-0.649 0-0.361 0.28709-0.649 0.64123-0.649h16.154c0.027 0 0.054 0.001 0.08 0.005zm4.661-2.5893c-0.043-0.0089-0.087-0.0135-0.133-0.0135h-20.755c-0.35295 0-0.648 0.2907-0.648 0.6493 0 0.3611 0.29012 0.6495 0.64801 0.6495h20.755c0.045 0 0.089-0.005 0.132-0.014 0.042 0.009 0.087 0.014 0.132 0.014 2.761 0 5-2.2678 5-5.0651s-2.239-5.0649-5-5.0649c-2.762 0-5 2.2676-5 5.0649 0 0.3587 0.287 0.6494 0.641 0.6494s0.641-0.2907 0.641-0.6494c0-2.08 1.664-3.7662 3.718-3.7662 2.053 0 3.718 1.6862 3.718 3.7662 0 2.0801-1.665 3.7663-3.718 3.7663-0.045 0-0.089 0.0046-0.131 0.0135zm-21.536 5.8303c0-0.358 0.28384-0.649 0.65546-0.649h12.279c0.362 0 0.656 0.288 0.656 0.649 0 0.359-0.284 0.65-0.656 0.65h-12.279c-0.36154 0-0.655-0.289-0.655-0.65z" fill="#fff"/>
</svg>
