<svg xmlns="http://www.w3.org/2000/svg" width="27" height="20" viewBox="0 0 27 20">
  <path fill="#FFFFFF" fill-rule="evenodd" d="M16.875432,11.4336979 C19.115046,11.5439375 20.8974359,13.4182586 20.8974359,15.7142857 C20.8974359,18.0812204 19.003256,20 16.6666667,20 C16.312638,20 16.025641,19.7092758 16.025641,19.3506494 C16.025641,18.9920229 16.312638,18.7012987 16.6666667,18.7012987 C18.2951986,18.7012987 19.6153846,17.3639674 19.6153846,15.7142857 C19.6153846,14.064604 18.2951986,12.7272727 16.6666667,12.7272727 L0.641231246,12.7272727 C0.288085341,12.7272727 0,12.4365485 0,12.0779221 C0,11.7167953 0.287089008,11.4285714 0.641231246,11.4285714 L16.7946662,11.4285714 C16.8220128,11.4285714 16.8489692,11.4303148 16.875432,11.4336979 Z M21.5359352,8.84468306 C21.4931116,8.83582074 21.4487383,8.83116883 21.4032713,8.83116883 L0.648010737,8.83116883 C0.295048914,8.83116883 0,9.12189302 0,9.48051948 C0,9.84164622 0.290124289,10.1298701 0.648010737,10.1298701 L21.4032713,10.1298701 C21.4482761,10.1298701 21.4923394,10.1251436 21.5349695,10.1161524 C21.5774748,10.1251436 21.6215258,10.1298701 21.6666667,10.1298701 C24.4280904,10.1298701 26.6666667,7.86222146 26.6666667,5.06493506 C26.6666667,2.26764867 24.4280904,0 21.6666667,0 C18.9052429,0 16.6666667,2.26764867 16.6666667,5.06493506 C16.6666667,5.42356153 16.9536636,5.71428571 17.3076923,5.71428571 C17.661721,5.71428571 17.9487179,5.42356153 17.9487179,5.06493506 C17.9487179,2.98490159 19.6133003,1.2987013 21.6666667,1.2987013 C23.720033,1.2987013 25.3846154,2.98490159 25.3846154,5.06493506 C25.3846154,7.14496854 23.720033,8.83116883 21.6666667,8.83116883 C21.6218676,8.83116883 21.5781419,8.83582407 21.5359352,8.84468306 Z M0,14.6753247 C0,14.3166982 0.283841109,14.025974 0.65546158,14.025974 L12.934282,14.025974 C13.2962834,14.025974 13.5897436,14.3141979 13.5897436,14.6753247 C13.5897436,15.0339511 13.3059025,15.3246753 12.934282,15.3246753 L0.65546158,15.3246753 C0.293460145,15.3246753 0,15.0364514 0,14.6753247 Z"/>
</svg>
