<svg xmlns="http://www.w3.org/2000/svg" width="1100" height="245" viewBox="0 0 1100 245">
  <g fill="none" fill-rule="evenodd">
    <path fill="#D69D4C" d="M652.072361,240.262383 C652.072361,240.262383 663.238036,235.714599 670.449023,222.298259 C677.659497,208.882923 722.322025,120.200213 786.05738,120.200213 C797.9683,120.200213 809.213834,123.299493 819.672912,128.424338 C821.263611,129.203672 822.833618,130.034994 824.388235,130.904264 C867.286664,154.906802 896.007658,211.771572 901.665738,222.298259 C908.877238,235.714599 920.041886,240.262383 920.041886,240.262383 L920.507878,242.536693 L786.05738,242.536693 L651.606369,242.536693 L652.072361,240.262383 Z"/>
    <path fill="#E7AA47" d="M447.529841,240.449194 C447.529841,240.449194 456.151971,236.937011 461.720786,226.576321 C467.289771,216.216467 501.78017,147.730232 551.000696,147.730232 C600.221564,147.730232 634.711792,216.216467 640.280949,226.576321 C645.849763,236.937011 654.472235,240.449194 654.472235,240.449194 L654.831006,242.205453 L551.000696,242.205453 L447.170728,242.205453 L447.529841,240.449194 Z"/>
    <path fill="#E6A645" d="M95.1116586,241.628411 C95.1116586,241.628411 105.429827,237.42566 112.093081,225.02787 C118.756677,212.631084 160.027983,130.680532 218.925575,130.680532 C277.822654,130.680532 319.09413,212.631084 325.757897,225.02787 C332.421322,237.42566 342.739491,241.628411 342.739491,241.628411 L343.168545,243.729703 L218.925575,243.729703 L94.6820912,243.729703 L95.1116586,241.628411 Z"/>
    <g transform="translate(100.656 37.212)">
      <polygon fill="#B55B22" points="36.38 51.54 39.116 157.049 33.666 157.049 33.666 51.54"/>
      <path fill="#B55B22" d="M4.33558393,0.766175773 C5.79546333,-0.151726154 7.28988597,1.43083389 8.18339304,2.37609504 C9.20019553,3.45370643 10.5140357,5.05935082 12.0884892,7.14993744 C15.3304236,11.4549112 19.3523169,17.3769859 23.4121736,23.8257258 C27.4400522,30.223338 31.0239989,36.3742043 33.5030748,41.1444558 C34.7249137,43.495639 35.6187628,45.398302 36.1591422,46.7982392 C36.3414347,47.2708698 36.5702409,47.8657619 36.7000346,48.4715977 C37.1393493,48.3626738 37.576783,48.2920528 37.9446173,48.2335724 C39.4267274,47.9982831 41.5212106,47.8163443 44.1688987,47.6928858 C49.5384914,47.4418649 56.6571349,47.4536636 64.2128701,47.7258879 C71.4325782,47.9859715 78.3036049,48.459628 83.5598205,49.059308 C92.26694,50.0526188 92.9302728,50.9334148 93.3692456,51.5158242 C93.6219927,51.8518297 93.7475112,52.2439215 93.7336597,52.649522 C93.6715845,54.3796509 91.5006615,54.7240351 90.204093,54.9297422 C88.7214698,55.1646896 86.6274996,55.3473124 83.9796406,55.4705999 C78.6093638,55.7217917 71.4905493,55.7098221 63.9353271,55.4374268 C56.716132,55.1780272 49.8451054,54.7043706 44.5883767,54.1046907 C39.8850239,53.5675949 37.5307824,53.0643562 36.2899619,52.6228468 C35.7406901,53.9752474 34.6631805,55.9799944 32.7376514,59.0979198 C29.9287045,63.6472456 25.956916,69.4513338 21.5535079,75.4414646 C17.0750282,81.5335086 12.6646089,87.1207748 9.13401616,91.1742147 C7.39351569,93.1726349 5.9507369,94.7015025 4.84620826,95.7173847 C3.87951056,96.6060464 2.26162149,98.0937042 0.86723744,97.0685883 C0.731629572,96.9692401 0.611070245,96.8503985 0.508979581,96.7149703 C-0.228911904,95.7349972 -0.374267121,94.544187 4.1508973,87.2155062 C6.96018613,82.6661804 10.9314617,76.8619213 15.3350407,70.8714484 C19.8124944,64.7804304 24.2235978,59.1933351 27.7540195,55.1388693 C29.495033,53.1402781 30.9376408,51.6120945 32.0423404,50.5963833 C32.2408785,50.4142735 32.4667776,50.2078824 32.7116584,50.0023462 C32.4908895,49.7882603 32.2880762,49.5746874 32.1104008,49.3862507 C31.0932563,48.3089813 29.7794162,46.7031659 28.2049627,44.6125793 C28.2049627,44.6122373 28.2044496,44.6115533 28.2041076,44.6112113 C24.9625153,40.3069216 20.9409639,34.3858728 16.8816202,27.937133 C12.8533997,21.5395207 9.27030805,15.3888254 6.79123207,10.6184029 C5.5690512,8.26670672 4.67554413,6.36438575 4.13465172,4.96393553 C3.66164874,3.73892633 2.86971931,1.68886556 4.33558393,0.766175773"/>
      <path fill="#D69D4C" d="M27.177592,49.9929757 C27.177592,54.171413 30.5652236,57.5593397 34.7447846,57.5593397 C38.9243456,57.5593397 42.3121482,54.171413 42.3121482,49.9929757 C42.3121482,45.8138544 38.9243456,42.4257566 34.7447846,42.4257566 C30.5652236,42.4257566 27.177592,45.8138544 27.177592,49.9929757"/>
      <path fill="#C46529" d="M30.796783,49.9929757 C30.796783,52.1731637 32.5646444,53.9403985 34.7453147,53.9403985 C36.925472,53.9403985 38.6933334,52.1731637 38.6933334,49.9929757 C38.6933334,47.8119326 36.925472,46.0446978 34.7453147,46.0446978 C32.5646444,46.0446978 30.796783,47.8119326 30.796783,49.9929757"/>
    </g>
    <polygon fill="#377C75" points="727.716 178.542 731.727 178.612 731.525 170.631 728.467 170.701"/>
    <path fill="#59C093" d="M730.066222,146.531039 C730.066222,146.531039 711.066927,167.03216 729.57304,172.330102 L730.066222,146.531039 Z"/>
    <path fill="#5FCCA1" d="M730.066718,146.508331 C730.066718,146.508331 748.295459,167.701982 729.615775,172.34963 L730.066718,146.508331 Z"/>
    <path fill="#D38E45" d="M1056.7573,240.283164 C1056.7573,240.283164 1049.40985,237.449345 1044.66494,229.089814 C1039.91948,220.73045 1010.53041,165.471989 968.589719,165.471989 L968.589719,241.700241 L1057.06287,241.700241 L1056.7573,240.283164 Z"/>
    <path fill="#CB8337" d="M880.683805,240.283164 C880.683805,240.283164 888.030713,237.449345 892.775809,229.089814 C897.521266,220.73045 926.91016,165.471989 968.851029,165.471989 L968.851029,241.700241 L880.377699,241.700241 L880.683805,240.283164 Z"/>
    <g transform="translate(215 90)">
      <polygon fill="#B55B22" points="435.224 149.645 443.611 149.792 443.189 133.102 436.794 133.249"/>
      <path fill="#98B264" d="M441.138719,82.7031812 C441.138719,82.7031812 401.407324,125.575938 440.107552,136.655569 L441.138719,82.7031812 Z"/>
      <path fill="#A3B77B" d="M440.139728,82.6556617 C440.139728,82.6556617 478.26093,126.977261 439.196972,136.695941 L440.139728,82.6556617 Z"/>
      <polygon fill="#B55B22" points="839 149.544 847.388 149.691 846.965 133 840.57 133.147"/>
      <path fill="#98B264" d="M843.96794,83 C843.96794,83 804.236545,125.872757 842.936773,136.952387 L843.96794,83 Z"/>
      <path fill="#A3B77B" d="M843.942757,83 C843.942757,83 882.063958,127.321599 843,137.040279 L843.942757,83 Z"/>
      <polygon fill="#B55B22" points="11.72 54.203 19.074 54.322 18.704 40.819 13.096 40.938"/>
      <path fill="#D37438" d="M16.0758693,0.369224212 C16.0758693,0.369224212 -18.7622819,35.0529641 15.1716989,44.0163022 L16.0758693,0.369224212 Z"/>
      <path fill="#DD8B57" d="M16.0537878,0.369224212 C16.0537878,0.369224212 49.4800537,36.2250664 15.2271391,44.0874057 L16.0537878,0.369224212 Z"/>
    </g>
    <g transform="translate(226.387 157.176)">
      <g transform="translate(299)">
        <polygon fill="#B55B22" points="15 87.442 25.871 87.632 25.324 66 17.034 66.191"/>
        <path fill="#98B264" d="M23.2873379,0 C23.2873379,0 -28.2068854,55.5657266 21.9514379,69.9252148 L23.2873379,0 Z"/>
        <path fill="#A3B77B" d="M23.2216678,2.13162821e-14 C23.2216678,2.13162821e-14 72.6289322,57.4435953 22,70.0394395 L23.2216678,2.13162821e-14 Z"/>
      </g>
      <polygon fill="#B55B22" points="15 87.442 25.871 87.632 25.324 66 17.034 66.191"/>
      <path fill="#98B264" d="M23.2873379,0 C23.2873379,0 -28.2068854,55.5657266 21.9514379,69.9252148 L23.2873379,0 Z"/>
      <path fill="#A3B77B" d="M23.2216678,2.13162821e-14 C23.2216678,2.13162821e-14 72.6289322,57.4435953 22,70.0394395 L23.2216678,2.13162821e-14 Z"/>
    </g>
    <path fill="#98B264" d="M191.068937,243.085092 C191.068937,243.085092 186.484776,241.21867 183.524488,235.710844 C180.563859,230.203019 162.228068,193.794333 136.061906,193.794333 L136.061906,244.019222 L191.259609,244.019222 L191.068937,243.085092 Z"/>
    <path fill="#A3B77B" d="M82.613256,243.085092 C82.613256,243.085092 87.1969045,241.21867 90.1571917,235.710844 C93.117821,230.203019 111.453612,193.794333 137.620116,193.794333 L137.620116,244.019222 L82.4220711,244.019222 L82.613256,243.085092 Z"/>
    <path fill="#D69D4C" d="M1007.28561 31.3023393C1006.88083 29.549439 1006.66118 27.7302923 1006.66118 25.8611511 1006.66118 11.9707515 1018.44019.710553654 1032.96984.710553654 1042.96364.710553654 1051.65549 6.03751307 1056.10837 13.8832315 1058.77775 12.4762679 1061.84479 11.6737259 1065.10857 11.6737259 1075.41861 11.6737259 1083.77626 19.6637007 1083.77626 29.5198757 1083.77626 29.7799086 1083.76713 30.0377746 1083.75567 30.2951762L1083.8165 30.2951762C1092.61795 30.2951762 1099.75321 37.116396 1099.75321 45.5300077 1099.75321 53.9440837 1092.61795 60.7651487 1083.8165 60.7651487L1012.98472 60.7651487C1004.18343 60.7651487 997.048012 53.9440837 997.048012 45.5300077 997.048012 39.036615 1001.29982 33.4952833 1007.28561 31.3023393M8.59207606 35.8431914C8.26545433 34.4282066 8.08829197 32.9595293 8.08829197 31.4506682 8.08829197 20.2369777 17.5969173 11.1467049 29.3270833 11.1467049 37.3949819 11.1467049 44.4115347 15.4472327 48.0069388 21.7808928 50.1612741 20.6451431 52.637443 19.9974135 55.2724765 19.9974135 63.5953453 19.9974135 70.3425635 26.4471793 70.3425635 34.4040963 70.3425635 34.6142493 70.3355522 34.8225214 70.3258049 35.0301095L70.3748836 35.0301095C77.4801886 35.0301095 83.2405304 40.5366661 83.2405304 47.3292771 83.2405304 54.1217172 77.4801886 59.6282738 70.3748836 59.6282738L13.1928252 59.6282738C6.08803318 59.6282738.3270074 54.1217172.3270074 47.3292771.3270074 42.087079 3.75978461 37.6135041 8.59207606 35.8431914"/>
    <g fill="#D69D4C" transform="translate(438.871 30.995)">
      <path d="M66.5505324,26.4241275 C61.5085075,21.2934516 54.5000528,18.1111569 46.7490209,18.1111569 C31.3950752,18.1111569 18.9484977,30.5903481 18.9484977,45.9842802 C18.9484977,58.1812651 26.7651031,68.5413923 37.64738,72.3214106 C37.0690996,71.6891182 36.5195099,71.0300126 36.0006928,70.3461649 C36.3608633,70.7919938 36.7344654,71.2264692 37.1208781,71.6489732 C39.9733973,72.6399483 43.0338043,73.1852117 46.222519,73.1852117 C61.575975,73.1852117 74.0225525,60.7060205 74.0225525,45.3118428 C74.0225525,38.051198 71.2518172,31.4407693 66.7151375,26.4807382 C66.6603455,26.4617033 66.605477,26.4428328 66.5505324,26.4241275 Z"/>
      <path d="M0.0701826975,13.4912557 C0.0701826975,14.760256 1.04101577,15.7889618 2.23818745,15.7889618 C3.43535913,15.7889618 4.4061922,14.760256 4.4061922,13.4912557 L4.4061922,2.37193679 C4.4061922,1.10293651 3.43535913,0.0742306904 2.23818745,0.0742306904 C1.04101577,0.0742306904 0.0701826975,1.10293651 0.0701826975,2.37193679 L0.0701826975,13.4912557 Z" transform="translate(42.919 .076)"/>
      <path d="M40.9300594 88.9467791C40.9300594 90.2157794 41.9008925 91.2444852 43.0980642 91.2444852 44.2952359 91.2444852 45.2660689 90.2157794 45.2660689 88.9467791L45.2660689 77.8275855C45.2660689 76.5584599 44.2952359 75.5297541 43.0980642 75.5297541 41.9008925 75.5297541 40.9300594 76.5584599 40.9300594 77.8275855L40.9300594 88.9467791zM12.8107435 48.0211632C14.0079152 48.0211632 14.9783937 46.9920815 14.9783937 45.7230813 14.9783937 44.454081 14.0079152 43.4249993 12.8107435 43.4249993L2.32080593 43.4249993C1.12363425 43.4249993.153155753 44.454081.153155753 45.7230813.153155753 46.9920815 1.12363425 48.0211632 2.32080593 48.0211632L12.8107435 48.0211632zM88.9277989 48.0211632C90.1250888 48.0211632 91.0955673 46.9920815 91.0955673 45.7230813 91.0955673 44.454081 90.1250888 43.4249993 88.9277989 43.4249993L78.4378613 43.4249993C77.2406896 43.4249993 76.2702111 44.454081 76.2702111 45.7230813 76.2702111 46.9920815 77.2406896 48.0211632 78.4378613 48.0211632L88.9277989 48.0211632zM22.3230845 24.3661524C23.1694609 25.2634354 24.5422666 25.2631849 25.388643 24.3659018 26.2354922 23.4686188 26.2354922 22.013572 25.3891158 21.1161636L17.97171 13.2537241C17.1252154 12.3563158 15.7522915 12.356441 14.9059151 13.2538494 14.0591842 14.1512577 14.0591842 15.6063045 14.9055606 16.5037128L22.3230845 24.3661524zM75.4514209 77.9118263C76.2981519 78.8092347 77.670603 78.8089841 78.5172158 77.9117011 79.3639467 77.0141674 79.3641831 75.5591206 78.5174521 74.6618376L71.1000464 66.7992728C70.25367 65.902115 68.8806279 65.9022403 68.0342515 66.7996486 67.1878751 67.6968064 67.1875205 69.1519785 68.0338969 70.0493868L75.4514209 77.9118263zM23.2146843 70.0493492C24.0610607 69.1519409 24.0610607 67.6968941 23.2143297 66.7997363 22.3679533 65.9022027 20.9951476 65.9020774 20.148653 66.7993605L12.7312473 74.6618C11.8848709 75.5592083 11.8848709 77.0142551 12.7316018 77.9116635 13.5779782 78.8089465 14.9507839 78.8091971 15.7972785 77.9117888L23.2146843 70.0493492zM78.517393 16.7843124C79.364124 15.8869041 79.3638876 14.4318573 78.5171567 13.5345742 77.6706621 12.6370406 76.2982109 12.6369153 75.4513618 13.5343236L68.033956 21.3967632C67.1875796 22.2941715 67.1879342 23.7492183 68.0343106 24.6465014 68.880687 25.5437844 70.2536109 25.544035 71.0999873 24.6467519L78.517393 16.7843124z"/>
    </g>
    <path fill="#D69D4C" d="M254.824315 55.1562269C254.5979 54.1753533 254.474734 53.1573784 254.474734 52.1111922 254.474734 44.3379318 261.06651 38.0363967 269.197912 38.0363967 274.790615 38.0363967 279.654519 41.0177784 282.146869 45.408299 283.640264 44.6208738 285.356755 44.1718649 287.183371 44.1718649 292.952702 44.1718649 297.630021 48.6431076 297.630021 54.1586399 297.630021 54.3043189 297.625161 54.448694 297.618404 54.5927135L297.652426 54.5927135C302.577854 54.5927135 306.570948 58.4098825 306.570948 63.1184314 306.570948 67.8270989 302.577854 71.6443863 297.652426 71.6443863L258.013574 71.6443863C253.088502 71.6443863 249.095052 67.8270989 249.095052 63.1184314 249.095052 59.484754 251.47455 56.3835339 254.824315 55.1562269M869.848024 50.2748123C870.263569 49.8439045 870.913221 49.2758586 871.80878 48.7452607 872.701432 48.2167147 873.847173 47.7227098 875.168196 47.4768187 875.333901 47.4475786 875.500974 47.4183384 875.669244 47.3887562 875.839395 47.3714857 876.011085 47.3543862 876.184143 47.3369447 876.529575 47.2940249 876.884242 47.2996678 877.24079 47.2952219 877.953373 47.3188192 878.683056 47.3906372 879.390508 47.5648812 879.748253 47.6373832 880.089581 47.7642616 880.435527 47.8683976 880.778907 47.9802284 881.103477 48.13686 881.431466 48.2724591 882.072055 48.5778565 882.666473 48.9389982 883.205313 49.3273282 883.465755 49.5335483 883.72825 49.7247209 883.967487 49.932822 884.198175 50.1501568 884.425442 50.3577449 884.637832 50.5682399 885.042774 51.0076974 885.423263 51.4192828 885.714999 51.8447187 885.862064 52.0543587 886.003145 52.255449 886.137213 52.4466216 886.26068 52.6448049 886.371834 52.8358065 886.473411 53.0163774 886.679474 53.3756382 886.845863 53.6928342 886.958727 53.9707013 887.006438 54.0818481 887.047308 54.1811963 887.084929 54.2726787 887.122551 54.1811963 887.163763 54.0818481 887.211474 53.9707013 887.323654 53.6928342 887.490385 53.3756382 887.696789 53.0163774 887.798367 52.8358065 887.909521 52.6448049 888.033158 52.4466216 888.167056 52.255449 888.308136 52.0543587 888.454689 51.8447187 888.746596 51.4192828 889.127256 51.0076974 889.532198 50.5682399 889.744246 50.3577449 889.972026 50.1501568 890.202029 49.932822 890.441609 49.7247209 890.704445 49.5335483 890.964717 49.3273282 891.503728 48.9389982 892.097974 48.5778565 892.738563 48.2724591 893.066553 48.13686 893.390781 47.9802284 893.734674 47.8683976 894.080619 47.7642616 894.422119 47.6373832 894.779693 47.5648812 895.487145 47.3906372 896.216315 47.3188192 896.92924 47.2952219 897.285445 47.2996678 897.640454 47.2940249 897.986058 47.3369447 898.158603 47.3543862 898.330293 47.3714857 898.500957 47.3887562 898.668885 47.4183384 898.835958 47.4475786 899.001492 47.4768187 900.323028 47.7227098 901.468427 48.2167147 902.360908 48.7452607 903.256638 49.2758586 903.906632 49.8439045 904.321835 50.2748123 904.737209 50.706575 904.923777 50.9974377 904.923777 50.9974377 904.923777 50.9974377 904.84272 50.9717885 904.69155 50.9230548 904.54363 50.8719273 904.318928 50.811737 904.044292 50.7293173 903.492284 50.5689239 902.713009 50.3582579 901.797271 50.1761481 901.339488 50.0867176 900.849042 49.9983131 900.333288 49.9400038 899.819927 49.8710927 899.281087 49.8346708 898.733354 49.8192812 898.184083 49.7953419 897.625235 49.8374067 897.063309 49.8743416 896.784569 49.9143545 896.502066 49.9362419 896.223326 49.9904473L895.803506 50.0598714 895.388645 50.1600745C894.830823 50.2748123 894.292496 50.4683788 893.755537 50.6504886 893.49612 50.7669363 893.230377 50.8645745 892.971132 50.9752084 892.714964 51.0969569 892.461704 51.2173375 892.213061 51.3358371 891.965787 51.4671614 891.722787 51.5964337 891.484746 51.7224571 891.250468 51.8604502 891.023714 52.0015212 890.794052 52.1297676 890.564733 52.2602369 890.358842 52.4137905 890.144229 52.5444308 890.037008 52.6112899 889.931669 52.677123 889.82821 52.7415882 889.729026 52.8122092 889.631211 52.8816332 889.535447 52.9496893 889.338448 53.0834075 889.149657 53.2118248 888.96993 53.3339154 888.792255 53.4631877 888.624498 53.5859622 888.466317 53.7012129 888.143799 53.9296624 887.856338 54.1302397 887.628558 54.3073907 887.467983 54.4250354 887.330152 54.5230156 887.216091 54.6028703 887.274062 54.755569 887.302278 54.8388436 887.302278 54.8388436 887.302278 54.8388436 887.223444 54.7884 887.084929 54.6934977 886.946072 54.7884 886.867752 54.8388436 886.867752 54.8388436 886.867752 54.8388436 886.895968 54.755569 886.953939 54.6028703 886.839365 54.5230156 886.701705 54.4250354 886.541643 54.3073907 886.31335 54.1302397 886.02623 53.9296624 885.703542 53.7012129 885.545703 53.5859622 885.377433 53.4631877 885.2001 53.3339154 885.020714 53.2118248 884.831752 53.0834075 884.634753 52.9496893 884.538477 52.8816332 884.441174 52.8122092 884.341478 52.7415882 884.237848 52.677123 884.133192 52.6112899 884.025972 52.5444308 883.811188 52.4137905 883.604783 52.2602369 883.376148 52.1297676 883.146145 52.0015212 882.919391 51.8604502 882.685454 51.7224571 882.447414 51.5964337 882.204414 51.4671614 881.957139 51.3358371 881.707983 51.2173375 881.455236 51.0969569 881.198727 50.9752084 880.939311 50.8645745 880.67408 50.7669363 880.414664 50.6504886 879.877534 50.4683788 879.339548 50.2748123 878.781384 50.1600745L878.366523 50.0598714 877.946361 49.9904473C877.667963 49.9362419 877.385632 49.9143545 877.106208 49.8743416 876.544966 49.8374067 875.986118 49.7953419 875.436846 49.8192812 874.888601 49.8346708 874.350444 49.8710927 873.836913 49.9400038 873.321158 49.9983131 872.8302 50.0867176 872.372416 50.1761481 871.457191 50.3582579 870.677916 50.5689239 870.125909 50.7293173 869.85076 50.811737 869.626742 50.8719273 869.478821 50.9230548 869.326968 50.9717885 869.246253 50.9974377 869.246253 50.9974377 869.246253 50.9974377 869.432821 50.706575 869.848024 50.2748123M791.917172 65.9334702C792.332888 65.5025624 792.98237 64.9345165 793.8781 64.4039186 794.770581 63.8753726 795.916493 63.3813677 797.237344 63.1354766 797.403049 63.1062365 797.570122 63.0769963 797.738392 63.0474141 797.908715 63.0301436 798.080405 63.0130441 798.253463 62.9956026 798.598895 62.9526828 798.953391 62.9583257 799.31011 62.9538798 800.022521 62.9774771 800.752376 63.0492951 801.459828 63.2237101 801.817402 63.2960411 802.158901 63.4229195 802.504847 63.5270555 802.848227 63.6388863 803.172796 63.7956889 803.500786 63.931117 804.141375 64.2365144 804.735622 64.5976561 805.274633 64.9859861 805.534904 65.1922062 805.797399 65.3833788 806.036807 65.5914799 806.267324 65.8088147 806.494762 66.0165738 806.707151 66.2268978 807.111923 66.6663554 807.492412 67.0779407 807.784319 67.5033766 807.931213 67.7130166 808.072293 67.9141069 808.206362 68.1052795 808.329829 68.3034629 808.441154 68.4944644 808.542731 68.6750353 808.748623 69.0342961 808.915183 69.3516631 809.028047 69.6293592 809.075757 69.740506 809.116457 69.8398542 809.154078 69.9313366 809.1917 69.8398542 809.232912 69.740506 809.280623 69.6293592 809.392974 69.3516631 809.559534 69.0342961 809.765938 68.6750353 809.867516 68.4944644 809.978841 68.3034629 810.102307 68.1052795 810.236376 67.9141069 810.377285 67.7130166 810.524008 67.5033766 810.815745 67.0779407 811.196575 66.6663554 811.601518 66.2268978 811.813566 66.0165738 812.041346 65.8088147 812.271349 65.5914799 812.510758 65.3833788 812.773765 65.1922062 813.034036 64.9859861 813.573048 64.5976561 814.167294 64.2365144 814.807883 63.931117 815.135873 63.7956889 815.460101 63.6388863 815.803994 63.5270555 816.149939 63.4229195 816.491268 63.2960411 816.849012 63.2237101 817.556465 63.0492951 818.285464 62.9774771 818.99856 62.9538798 819.354765 62.9583257 819.709603 62.9526828 820.055377 62.9956026 820.227923 63.0130441 820.399613 63.0301436 820.570277 63.0474141 820.738034 63.0769963 820.905107 63.1062365 821.070641 63.1354766 822.392347 63.3813677 823.537575 63.8753726 824.430227 64.4039186 825.325787 64.9345165 825.975781 65.5025624 826.390984 65.9334702 826.806529 66.3652329 826.993096 66.6560956 826.993096 66.6560956 826.993096 66.6560956 826.91204 66.6304464 826.760699 66.5817128 826.612779 66.5307562 826.388248 66.4703949 826.113612 66.3879753 825.561604 66.2275818 824.782329 66.0169158 823.866591 65.834806 823.408637 65.7453755 822.918362 65.656971 822.402608 65.5986617 821.889076 65.5297506 821.350407 65.4933287 820.802503 65.4779391 820.253403 65.4539998 819.694383 65.4960646 819.132628 65.5329995 818.853888 65.5730124 818.571386 65.5948998 818.292475 65.6491052L817.872655 65.7185293 817.457965 65.8187324C816.899972 65.9334702 816.361816 66.1270367 815.824686 66.3091465 815.56544 66.4255942 815.299526 66.5232324 815.04028 66.6338663 814.784284 66.7556148 814.530853 66.8759954 814.28221 66.994495 814.035106 67.1258193 813.791936 67.2549206 813.553895 67.381115 813.319617 67.5191081 813.092863 67.6601791 812.863201 67.7884255 812.634053 67.9188948 812.428162 68.0724484 812.213549 68.2030887 812.106328 68.2699478 812.000988 68.3357809 811.89753 68.4002461 811.798346 68.4708671 811.700531 68.5402911 811.604767 68.6083472 811.407768 68.7420654 811.218806 68.8704827 811.03925 68.9925733 810.861574 69.1220166 810.693817 69.2446201 810.535466 69.3600418 810.213119 69.5884913 809.925658 69.7888977 809.697878 69.9660486 809.537303 70.0836933 809.399472 70.1816735 809.28524 70.2615282 809.343382 70.4142269 809.371598 70.4975015 809.371598 70.4975015 809.371598 70.4975015 809.292764 70.447229 809.154078 70.3521557 809.015392 70.447229 808.9369 70.4975015 808.9369 70.4975015 808.9369 70.4975015 808.965287 70.4142269 809.023258 70.2615282 808.908684 70.1816735 808.771024 70.0836933 808.610963 69.9660486 808.382669 69.7888977 808.09555 69.5884913 807.772691 69.3600418 807.615023 69.2446201 807.446582 69.1220166 807.269249 68.9925733 807.089863 68.8704827 806.901072 68.7420654 806.703902 68.6083472 806.607797 68.5402911 806.510494 68.4708671 806.410798 68.4002461 806.307168 68.3357809 806.202512 68.2699478 806.095291 68.2030887 805.880508 68.0724484 805.674103 67.9188948 805.445297 67.7884255 805.215294 67.6601791 804.98854 67.5191081 804.754603 67.381115 804.516734 67.2549206 804.273734 67.1258193 804.026459 66.994495 803.777132 66.8759954 803.524556 66.7556148 803.267876 66.6338663 803.00846 66.5232324 802.7434 66.4255942 802.483984 66.3091465 801.946682 66.1270367 801.408697 65.9334702 800.850533 65.8187324L800.435843 65.7185293 800.01551 65.6491052C799.737283 65.5948998 799.454781 65.5730124 799.175528 65.5329995 798.614286 65.4960646 798.055438 65.4539998 797.506166 65.4779391 796.95792 65.4933287 796.419593 65.5297506 795.906062 65.5986617 795.390478 65.656971 794.899349 65.7453755 794.441736 65.834806 793.52634 66.0169158 792.747236 66.2275818 792.195057 66.3879753 791.92008 66.4703949 791.695891 66.5307562 791.54797 66.5817128 791.396288 66.6304464 791.315573 66.6560956 791.315573 66.6560956 791.315573 66.6560956 791.50197 66.3652329 791.917172 65.9334702M823.877621 84.0468489C824.293337 83.6159411 824.942818 83.0478952 825.838549 82.5172973 826.73103 81.9887513 827.876942 81.4947463 829.197793 81.2488553 829.363498 81.2196152 829.530571 81.190375 829.698841 81.1607928 829.869163 81.1435223 830.040853 81.1264228 830.213912 81.1089813 830.559344 81.0660615 830.91384 81.0717044 831.270558 81.0672585 831.98297 81.0908558 832.712824 81.1626738 833.420277 81.3369178 833.77785 81.4094198 834.11935 81.5362982 834.465295 81.6404342 834.808675 81.752265 835.133245 81.9088966 835.461235 82.0444957 836.101824 82.3498931 836.69607 82.7110348 837.235082 83.0993648 837.495353 83.3055849 837.757847 83.4967575 837.997256 83.7048586 838.227772 83.9221934 838.45521 84.1297815 838.6676 84.3402765 839.072372 84.779734 839.45286 85.1913193 839.744768 85.6167553 839.891662 85.8263953 840.032742 86.0274856 840.166811 86.2186582 840.290277 86.4168415 840.401602 86.6078431 840.50318 86.788414 840.709071 87.1476748 840.875631 87.4648708 840.988495 87.7427379 841.036206 87.8538847 841.076905 87.9532329 841.114527 88.0447153 841.152148 87.9532329 841.193361 87.8538847 841.241071 87.7427379 841.353422 87.4648708 841.519982 87.1476748 841.726387 86.788414 841.827964 86.6078431 841.939289 86.4168415 842.062756 86.2186582 842.196825 86.0274856 842.337734 85.8263953 842.484457 85.6167553 842.776193 85.1913193 843.157024 84.779734 843.561967 84.3402765 843.774014 84.1297815 844.001794 83.9221934 844.231798 83.7048586 844.471206 83.4967575 844.734214 83.3055849 844.994485 83.0993648 845.533496 82.7110348 846.127743 82.3498931 846.768332 82.0444957 847.096322 81.9088966 847.420549 81.752265 847.764443 81.6404342 848.110388 81.5362982 848.451716 81.4094198 848.809461 81.3369178 849.516913 81.1626738 850.245913 81.0908558 850.959008 81.0672585 851.315214 81.0717044 851.670052 81.0660615 852.015826 81.1089813 852.188371 81.1264228 852.360061 81.1435223 852.530726 81.1607928 852.698483 81.190375 852.865556 81.2196152 853.03109 81.2488553 854.352796 81.4947463 855.498024 81.9887513 856.390676 82.5172973 857.286235 83.0478952 857.93623 83.6159411 858.351433 84.0468489 858.766977 84.4786116 858.953545 84.7694743 858.953545 84.7694743 858.953545 84.7694743 858.872488 84.7438251 858.721148 84.6950914 858.573227 84.6439639 858.348696 84.5837736 858.074061 84.5013539 857.522053 84.3409605 856.742778 84.1302945 855.82704 83.9481847 855.369085 83.8587542 854.878811 83.7703497 854.363056 83.7120404 853.849525 83.6431293 853.310856 83.6067074 852.762952 83.5913178 852.213851 83.5673785 851.654832 83.6094433 851.093077 83.6463782 850.814337 83.6863911 850.531835 83.7082785 850.252924 83.7624839L849.833104 83.831908 849.418414 83.9321111C848.860421 84.0468489 848.322265 84.2404154 847.785134 84.4225252 847.525889 84.5389729 847.259974 84.6366111 847.000729 84.747245 846.744733 84.8689935 846.491302 84.9893741 846.242659 85.1078737 845.995555 85.239198 845.752384 85.3684703 845.514344 85.4944937 845.280065 85.6324868 845.053311 85.7735578 844.82365 85.9018042 844.594502 86.0322735 844.38861 86.1858271 844.173998 86.3164674 844.066777 86.3833265 843.961437 86.4491596 843.857978 86.5136248 843.758795 86.5842458 843.660979 86.6536698 843.565216 86.7217259 843.368217 86.8554441 843.179255 86.9840324 842.999698 87.105952 842.822023 87.2352243 842.654266 87.3579988 842.495914 87.4732495 842.173568 87.701699 841.886107 87.9022763 841.658326 88.0794273 841.497752 88.197072 841.359921 88.2950522 841.245689 88.3749069 841.303831 88.5276056 841.332047 88.6108802 841.332047 88.6108802 841.332047 88.6108802 841.253213 88.5604366 841.114527 88.4655343 840.975841 88.5604366 840.897349 88.6108802 840.897349 88.6108802 840.897349 88.6108802 840.925736 88.5276056 840.983707 88.3749069 840.869133 88.2950522 840.731473 88.197072 840.571411 88.0794273 840.343118 87.9022763 840.055999 87.701699 839.733139 87.4732495 839.575472 87.3579988 839.407031 87.2352243 839.229697 87.105952 839.050312 86.9840324 838.861521 86.8554441 838.664351 86.7217259 838.568245 86.6536698 838.470943 86.5842458 838.371246 86.5136248 838.267617 86.4491596 838.162961 86.3833265 838.05574 86.3164674 837.840956 86.1858271 837.634552 86.0322735 837.405746 85.9018042 837.175742 85.7735578 836.948988 85.6324868 836.715052 85.4944937 836.477182 85.3684703 836.234183 85.239198 835.986908 85.1078737 835.737581 84.9893741 835.485005 84.8689935 835.228325 84.747245 834.968908 84.6366111 834.703849 84.5389729 834.444432 84.4225252 833.907131 84.2404154 833.369146 84.0468489 832.810982 83.9321111L832.396292 83.831908 831.975959 83.7624839C831.697732 83.7082785 831.41523 83.6863911 831.135977 83.6463782 830.574735 83.6094433 830.015886 83.5673785 829.466615 83.5913178 828.918369 83.6067074 828.380042 83.6431293 827.86651 83.7120404 827.350927 83.7703497 826.859797 83.8587542 826.402185 83.9481847 825.486789 84.1302945 824.707685 84.3409605 824.155506 84.5013539 823.880528 84.5837736 823.656339 84.6439639 823.508419 84.6950914 823.356736 84.7438251 823.276022 84.7694743 823.276022 84.7694743 823.276022 84.7694743 823.462418 84.4786116 823.877621 84.0468489M630.802592 33.831168C631.218308 33.4002603 631.867789 32.8322144 632.763861 32.3016165 633.656 31.7730705 634.801742 31.2790655 636.122935 31.0331745 636.28864 31.0039343 636.455713 30.9746942 636.623812 30.945112 636.794305 30.9278415 636.965824 30.910742 637.138711 30.8933005 637.484144 30.8503807 637.838811 30.8560235 638.195358 30.8515777 638.908112 30.875175 639.637624 30.946993 640.345077 31.121408 640.702821 31.193739 641.04415 31.3206174 641.390095 31.4247534 641.733475 31.5365842 642.058045 31.6933868 642.386035 31.8288149 643.026624 32.1342122 643.621041 32.495354 644.159881 32.883684 644.420324 33.0899041 644.682989 33.2810767 644.922227 33.4891778 645.152743 33.7065126 645.380181 33.9142717 645.5924 34.1245957 645.997342 34.5640532 646.378002 34.9756385 646.669739 35.4010744 646.816633 35.6107145 646.957713 35.8118048 647.091782 36.0029773 647.215248 36.2011607 647.326402 36.3921623 647.42798 36.5727332 647.634213 36.931994 647.800602 37.2493609 647.913295 37.5270571 647.961006 37.6382039 648.002047 37.7375521 648.039669 37.8290345 648.07729 37.7375521 648.118332 37.6382039 648.166042 37.5270571 648.278564 37.2493609 648.445124 36.931994 648.651358 36.5727332 648.752935 36.3921623 648.864089 36.2011607 648.987727 36.0029773 649.121625 35.8118048 649.262705 35.6107145 649.409599 35.4010744 649.701335 34.9756385 650.081824 34.5640532 650.486767 34.1245957 650.699156 33.9142717 650.926594 33.7065126 651.15694 33.4891778 651.396348 33.2810767 651.659014 33.0899041 651.919285 32.883684 652.458467 32.495354 653.052543 32.1342122 653.693132 31.8288149 654.021121 31.6933868 654.345691 31.5365842 654.689242 31.4247534 655.035188 31.3206174 655.376687 31.193739 655.734261 31.121408 656.441713 30.946993 657.171054 30.875175 657.883808 30.8515777 658.240356 30.8560235 658.595023 30.8503807 658.940626 30.8933005 659.113513 30.910742 659.285203 30.9278415 659.455525 30.945112 659.623624 30.9746942 659.790697 31.0039343 659.956231 31.0331745 661.277767 31.2790655 662.423166 31.7730705 663.315818 32.3016165 664.211377 32.8322144 664.8612 33.4002603 665.276574 33.831168 665.691777 34.2629308 665.878345 34.5537935 665.878345 34.5537935 665.878345 34.5537935 665.797459 34.5281442 665.646119 34.4794106 665.498198 34.4284541 665.273667 34.3680928 664.99886 34.2856731 664.446853 34.1252797 663.667578 33.9146137 662.752011 33.7325038 662.294227 33.6430734 661.803611 33.5546689 661.287856 33.4963595 660.774496 33.4274485 660.235997 33.3910265 659.687923 33.375637 659.138651 33.3516977 658.579803 33.3937625 658.018219 33.4306974 657.739308 33.4707103 657.456635 33.4925977 657.178066 33.5468031L656.758075 33.6162271 656.343214 33.7164303C655.785392 33.831168 655.247064 34.0247345 654.710105 34.2068444 654.450689 34.3232921 654.185116 34.4209303 653.925871 34.5315641 653.669533 34.6533127 653.416444 34.7736933 653.16763 34.8921929 652.920355 35.0235172 652.677355 35.1527895 652.439315 35.2788129 652.205207 35.416806 651.978453 35.557877 651.748621 35.6861233 651.519644 35.8165926 651.31341 35.9701463 651.098798 36.1007866 650.991577 36.1676457 650.886408 36.2334788 650.78312 36.297944 650.683595 36.368565 650.585779 36.437989 650.490016 36.5060451 650.293017 36.6397633 650.104226 36.7681806 649.924498 36.8902711 649.747165 37.0197145 649.579066 37.142318 649.421056 37.2577397 649.098368 37.4861892 648.810906 37.6865955 648.583126 37.8637465 648.422893 37.9813911 648.284892 38.0793714 648.170659 38.1592261 648.22863 38.3119248 648.256847 38.3951994 648.256847 38.3951994 648.256847 38.3951994 648.178355 38.3449268 648.039669 38.2498535 647.900812 38.3449268 647.82232 38.3951994 647.82232 38.3951994 647.82232 38.3951994 647.850536 38.3119248 647.908507 38.1592261 647.794275 38.0793714 647.656615 37.9813911 647.496211 37.8637465 647.26826 37.6865955 646.980799 37.4861892 646.658281 37.2577397 646.500271 37.142318 646.332172 37.0197145 646.154668 36.8902711 645.975283 36.7681806 645.786321 36.6397633 645.589322 36.5060451 645.493387 36.437989 645.395743 36.368565 645.296388 36.297944 645.192759 36.2334788 645.087761 36.1676457 644.98054 36.1007866 644.765756 35.9701463 644.559523 35.8165926 644.330717 35.6861233 644.100884 35.557877 643.873959 35.416806 643.640023 35.2788129 643.401982 35.1527895 643.158983 35.0235172 642.911708 34.8921929 642.662723 34.7736933 642.409805 34.6533127 642.153466 34.5315641 641.89405 34.4209303 641.628649 34.3232921 641.369232 34.2068444 640.832102 34.0247345 640.294117 33.831168 639.735953 33.7164303L639.321092 33.6162271 638.901101 33.5468031C638.622532 33.4925977 638.340201 33.4707103 638.061119 33.4306974 637.499534 33.3937625 636.940686 33.3516977 636.391415 33.375637 635.84334 33.3910265 635.305013 33.4274485 634.791481 33.4963595 634.275727 33.5546689 633.785281 33.6430734 633.326985 33.7325038 632.41176 33.9146137 631.632485 34.1252797 631.080477 34.2856731 630.805328 34.3680928 630.58131 34.4284541 630.43339 34.4794106 630.282049 34.5281442 630.200821 34.5537935 630.200821 34.5537935 630.200821 34.5537935 630.387389 34.2629308 630.802592 33.831168M562.881336 39.4807439C563.296539 39.0498361 563.946533 38.4817902 564.84175 37.9511923 565.734231 37.4226463 566.880143 36.9286414 568.200995 36.6827503 568.367213 36.6535102 568.534286 36.62427 568.702043 36.5946878 568.872878 36.5774173 569.044397 36.5603178 569.217113 36.5428763 569.562546 36.4999565 569.917554 36.5055994 570.27376 36.5011535 570.986343 36.5249218 571.716026 36.5965688 572.423478 36.7709838 572.781052 36.8433148 573.122552 36.9701932 573.468497 37.0743292 573.811877 37.18616 574.136447 37.3429626 574.464437 37.4783907 575.105026 37.7837881 575.699272 38.1449298 576.238283 38.5332598 576.498555 38.7394799 576.761562 38.9306525 577.0008 39.1387536 577.230974 39.3560884 577.458412 39.5638475 577.670802 39.7741715 578.075915 40.213629 578.456575 40.6252144 578.747969 41.0506503 578.895035 41.2602903 579.035944 41.4613806 579.170013 41.6525532 579.293479 41.8507365 579.404804 42.0417381 579.506382 42.222309 579.712786 42.5815698 579.878833 42.8989368 579.991697 43.1766329 580.039408 43.2877797 580.080107 43.3871279 580.118242 43.4786103 580.15535 43.3871279 580.196562 43.2877797 580.244444 43.1766329 580.356624 42.8989368 580.523697 42.5815698 580.729589 42.222309 580.831166 42.0417381 580.942491 41.8507365 581.065958 41.6525532 581.200026 41.4613806 581.340935 41.2602903 581.487659 41.0506503 581.779908 40.6252144 582.160226 40.213629 582.565168 39.7741715 582.777216 39.5638475 583.004996 39.3560884 583.235512 39.1387536 583.474921 38.9306525 583.737416 38.7394799 583.997687 38.5332598 584.536698 38.1449298 585.130945 37.7837881 585.771534 37.4783907 586.099523 37.3429626 586.424264 37.18616 586.767644 37.0743292 587.11359 36.9701932 587.454918 36.8433148 587.812663 36.7709838 588.520115 36.5965688 589.249114 36.5249218 589.96221 36.5011535 590.318929 36.5055994 590.673424 36.4999565 591.019028 36.5428763 591.192086 36.5603178 591.363776 36.5774173 591.533927 36.5946878 591.702197 36.62427 591.86927 36.6535102 592.034291 36.6827503 593.355998 36.9286414 594.501568 37.4226463 595.394049 37.9511923 596.289779 38.4817902 596.939431 39.0498361 597.354976 39.4807439 597.770179 39.9125066 597.956747 40.2035403 597.956747 40.2035403 597.956747 40.2035403 597.875861 40.1777201 597.72435 40.1289865 597.576429 40.0780299 597.352069 40.0176686 597.077262 39.93542 596.525255 39.7748555 595.74598 39.5641895 594.830413 39.3822507 594.372287 39.2926492 593.882013 39.2042447 593.366258 39.1459354 592.852727 39.0770243 592.31457 39.0406024 591.766154 39.0252128 591.217053 39.0012735 590.658034 39.0433383 590.096279 39.0802732 589.817539 39.1204571 589.535037 39.1421735 589.256639 39.1963789L588.836306 39.265803 588.421787 39.3660061C587.863623 39.4807439 587.325466 39.6744814 586.788336 39.8564202 586.529091 39.9728679 586.263689 40.0705061 586.003931 40.18114 585.747935 40.3028885 585.494504 40.4232691 585.245861 40.5417687 584.998757 40.673093 584.755586 40.8023653 584.517546 40.9283887 584.28378 41.0663818 584.056513 41.2074528 583.826852 41.3356992 583.598217 41.4661685 583.391812 41.6197221 583.177199 41.7503624 583.069979 41.8172215 582.964639 41.8830546 582.861693 41.9475198 582.761997 42.0183118 582.664181 42.0875648 582.568418 42.1556209 582.371418 42.2893391 582.182457 42.4179274 582.0029 42.539847 581.825225 42.6692903 581.657468 42.7918938 581.499629 42.9073155 581.17677 43.135765 580.889308 43.3363423 580.661528 43.5133223 580.501466 43.630967 580.363122 43.7289472 580.249061 43.8088019 580.307032 43.9615006 580.335248 44.0447752 580.335248 44.0447752 580.335248 44.0447752 580.256415 43.9945027 580.118242 43.8994294 579.979043 43.9945027 579.900551 44.0447752 579.900551 44.0447752 579.900551 44.0447752 579.928938 43.9615006 579.986909 43.8088019 579.872335 43.7289472 579.735188 43.630967 579.574613 43.5133223 579.34632 43.3363423 579.059201 43.135765 578.736854 42.9073155 578.578673 42.7918938 578.410403 42.6692903 578.232899 42.539847 578.053514 42.4179274 577.864723 42.2893391 577.667553 42.1556209 577.571447 42.0875648 577.474145 42.0183118 577.374961 41.9475198 577.270818 41.8830546 577.166163 41.8172215 577.058942 41.7503624 576.844158 41.6197221 576.638096 41.4661685 576.408947 41.3356992 576.178944 41.2074528 575.952703 41.0663818 575.718254 40.9283887 575.480384 40.8023653 575.237384 40.673093 574.99011 40.5417687 574.740954 40.4232691 574.488207 40.3028885 574.231526 40.18114 573.972623 40.0705061 573.70705 39.9728679 573.447634 39.8564202 572.910333 39.6744814 572.372348 39.4807439 571.814184 39.3660061L571.399665 39.265803 570.979674 39.1963789C570.701105 39.1421735 570.418431 39.1204571 570.139178 39.0802732 569.577936 39.0433383 569.019088 39.0012735 568.469817 39.0252128 567.921913 39.0406024 567.383244 39.0770243 566.869712 39.1459354 566.354129 39.2042447 565.86317 39.2926492 565.4059 39.3822507 564.489991 39.5641895 563.710887 39.7748555 563.158708 39.93542 562.884243 40.0176686 562.659712 40.0780299 562.511621 40.1289865 562.359938 40.1777201 562.279223 40.2035403 562.279223 40.2035403 562.279223 40.2035403 562.46562 39.9125066 562.881336 39.4807439"/>
    <g transform="translate(262 129)">
      <polygon fill="#F1C753" points="13.757 114.563 158.864 114.563 158.864 29.872 13.757 29.872"/>
      <polygon fill="#DC9A3C" points="158.361 32.044 14.26 32.044 6.292 20.643 166.329 20.643"/>
      <polygon fill="#F1C753" points=".204 22.815 172.416 22.815 172.416 .267 .204 .267"/>
      <polygon fill="#E6A645" points="67.251 111.641 105.369 111.641 105.369 81.433 67.251 81.433"/>
      <polygon fill="#EAB44B" points="23.278 44.404 80.137 44.404 80.137 38.677 23.278 38.677"/>
      <polygon fill="#EAB44B" points="23.278 55.134 80.137 55.134 80.137 49.407 23.278 49.407"/>
      <polygon fill="#EAB44B" points="23.278 65.865 80.137 65.865 80.137 60.138 23.278 60.138"/>
      <polygon fill="#EAB44B" points="92.484 44.404 149.343 44.404 149.343 38.677 92.484 38.677"/>
      <polygon fill="#EAB44B" points="92.484 55.134 149.343 55.134 149.343 49.407 92.484 49.407"/>
      <polygon fill="#EAB44B" points="92.484 65.865 149.343 65.865 149.343 60.138 92.484 60.138"/>
    </g>
    <g transform="translate(883 139)">
      <polygon fill="#C46528" points="0 102.165 76.459 102.165 76.459 0 0 0"/>
      <polygon fill="#B55B21" points="39 102.165 77.224 102.165 77.224 0 39 0"/>
      <polygon fill="#DB7F44" points="10 61.911 36.21 61.911 36.21 47 10 47"/>
      <polygon fill="#DB7F44" points="41 61.911 67.21 61.911 67.21 47 41 47"/>
      <polygon fill="#DB7F44" points="10 41.911 36.21 41.911 36.21 27 10 27"/>
      <polygon fill="#DB7F44" points="41 41.911 67.21 41.911 67.21 27 41 27"/>
      <polygon fill="#DB7F44" points="10 21.911 36.21 21.911 36.21 7 10 7"/>
      <polygon fill="#DB7F44" points="41 21.911 67.21 21.911 67.21 7 41 7"/>
      <polygon fill="#DB7F44" points="11 81.911 21.598 81.911 21.598 67 11 67"/>
      <polygon fill="#DB7F44" points="26 81.911 36.598 81.911 36.598 67 26 67"/>
      <polygon fill="#DB7F44" points="41 81.911 51.598 81.911 51.598 67 41 67"/>
      <polygon fill="#DB7F44" points="55 81.911 65.598 81.911 65.598 67 55 67"/>
      <path fill="#DB7F44" d="M24.41,101.476 L12,101.476 L12,92.205 C12,88.778 14.778,86 18.205,86 C21.632,86 24.41,88.778 24.41,92.205 L24.41,101.476 Z"/>
    </g>
    <polygon fill="#DB7F44" points="694 243.308 784.45 243.308 784.45 150 694 150"/>
    <polygon fill="#C16A32" points="700.348 120 769.798 120 780.146 150.516 690 150.516"/>
    <polygon fill="#B55B22" points="690 241.841 727.283 241.841 727.283 149 690 149"/>
    <polygon fill="#EFC050" points="763 171.307 771.362 171.307 771.362 157 763 157"/>
    <polygon fill="#EFC050" points="749 171.307 757.362 171.307 757.362 157 749 157"/>
    <polygon fill="#EFC050" points="736 171.307 744.362 171.307 744.362 157 736 157"/>
    <polygon fill="#EFC050" points="763 192.307 771.362 192.307 771.362 178 763 178"/>
    <polygon fill="#EFC050" points="749 192.307 757.362 192.307 757.362 178 749 178"/>
    <polygon fill="#EFC050" points="736 192.307 744.362 192.307 744.362 178 736 178"/>
    <polygon fill="#EFC050" points="763 212.307 771.362 212.307 771.362 198 763 198"/>
    <polygon fill="#EFC050" points="749 212.307 757.362 212.307 757.362 198 749 198"/>
    <polygon fill="#EFC050" points="736 212.307 744.362 212.307 744.362 198 736 198"/>
    <polygon fill="#DB7F44" points="711 165.776 720.261 165.776 720.261 158 711 158"/>
    <polygon fill="#DB7F44" points="697 165.776 706.261 165.776 706.261 158 697 158"/>
    <polygon fill="#DB7F44" points="711 176.776 720.261 176.776 720.261 169 711 169"/>
    <polygon fill="#DB7F44" points="697 176.776 706.261 176.776 706.261 169 697 169"/>
    <polygon fill="#DB7F44" points="711 187.776 720.261 187.776 720.261 180 711 180"/>
    <polygon fill="#DB7F44" points="697 187.776 706.261 187.776 706.261 180 697 180"/>
    <polygon fill="#DB7F44" points="711 198.776 720.261 198.776 720.261 191 711 191"/>
    <polygon fill="#DB7F44" points="697 198.776 706.261 198.776 706.261 191 697 191"/>
    <polygon fill="#DB7F44" points="711 209.776 720.261 209.776 720.261 202 711 202"/>
    <polygon fill="#DB7F44" points="697 209.776 706.261 209.776 706.261 202 697 202"/>
    <polygon fill="#EFC050" points="746 241.558 760.567 241.558 760.567 220 746 220"/>
    <g transform="translate(787 82)">
      <polygon fill="#E6A545" points="15 47.182 64.082 47.182 64.082 13 15 13"/>
      <polygon fill="#D37030" points="15 12.842 39.541 0 64.082 12.842"/>
      <polygon fill="#DE8E3C" points="0 161.236 79.177 161.236 79.177 28 0 28"/>
      <polygon fill="#D69D4C" points="10 59.375 20.375 59.375 20.375 49 10 49"/>
      <polygon fill="#D69D4C" points="27 59.375 37.375 59.375 37.375 49 27 49"/>
      <polygon fill="#D69D4C" points="43 59.375 53.375 59.375 53.375 49 43 49"/>
      <polygon fill="#D69D4C" points="60 59.375 70.375 59.375 70.375 49 60 49"/>
      <polygon fill="#D69D4C" points="10 77.375 20.375 77.375 20.375 67 10 67"/>
      <polygon fill="#D69D4C" points="27 77.375 37.375 77.375 37.375 67 27 67"/>
      <polygon fill="#D69D4C" points="43 77.375 53.375 77.375 53.375 67 43 67"/>
      <polygon fill="#D69D4C" points="60 77.375 70.375 77.375 70.375 67 60 67"/>
      <polygon fill="#D69D4C" points="10 119.388 26.654 119.388 26.654 97 10 97"/>
      <polygon fill="#D69D4C" points="33 119.388 49.654 119.388 49.654 97 33 97"/>
      <polygon fill="#D69D4C" points="56 119.388 72.655 119.388 72.655 97 56 97"/>
      <path fill="#D69D4C" d="M50.21,161.471 L24,161.471 L24,140.106 C24,132.868 29.867,127 37.105,127 C44.343,127 50.21,132.868 50.21,140.106 L50.21,161.471 Z"/>
    </g>
    <g transform="translate(427 204)">
      <path fill="#DF864D" d="M81.3879,14.0237 C81.3879,21.2817 75.9919,27.1657 56.8679,27.1657 C37.7449,27.1657 22.2419,14.0237 22.2419,14.0237 C22.2419,14.0237 37.7449,0.8817 56.8679,0.8817 C75.9919,0.8817 81.3879,6.7657 81.3879,14.0237"/>
      <path fill="#DF864D" d="M86.2965,30.6529 L5.2175,30.6529 C2.6225,30.6529 0.4985,28.5299 0.4985,25.9349 C0.4985,19.3389 5.8955,13.9419 12.4915,13.9419 L86.2965,13.9419 C88.8915,13.9419 91.0145,16.0659 91.0145,18.6609 L91.0145,25.9349 C91.0145,28.5299 88.8915,30.6529 86.2965,30.6529"/>
      <path fill="#F6DEA2" d="M31.1831,29.2055 C31.1831,34.4375 26.9421,38.6785 21.7101,38.6785 C16.4781,38.6785 12.2361,34.4375 12.2361,29.2055 C12.2361,23.9735 16.4781,19.7325 21.7101,19.7325 C26.9421,19.7325 31.1831,23.9735 31.1831,29.2055"/>
      <path fill="#F1C853" d="M26.6837,29.2055 C26.6837,31.9525 24.4567,34.1795 21.7097,34.1795 C18.9627,34.1795 16.7357,31.9525 16.7357,29.2055 C16.7357,26.4585 18.9627,24.2315 21.7097,24.2315 C24.4567,24.2315 26.6837,26.4585 26.6837,29.2055"/>
      <path fill="#F6DEA2" d="M85.9175,29.2055 C85.9175,34.4375 81.6765,38.6785 76.4445,38.6785 C71.2125,38.6785 66.9705,34.4375 66.9705,29.2055 C66.9705,23.9735 71.2125,19.7325 76.4445,19.7325 C81.6765,19.7325 85.9175,23.9735 85.9175,29.2055"/>
      <path fill="#F1C853" d="M81.4181,29.2055 C81.4181,31.9525 79.1911,34.1795 76.4441,34.1795 C73.6971,34.1795 71.4701,31.9525 71.4701,29.2055 C71.4701,26.4585 73.6971,24.2315 76.4441,24.2315 C79.1911,24.2315 81.4181,26.4585 81.4181,29.2055"/>
      <path fill="#F6DEA2" d="M33.3489,13.1977 C33.3489,16.4877 42.8059,15.4317 54.4709,15.4317 C66.1359,15.4317 75.5929,16.4877 75.5929,13.1977 C75.5929,9.9077 70.1179,3.5177 58.4529,3.5177 C46.7879,3.5177 33.3489,9.9077 33.3489,13.1977"/>
    </g>
  </g>
</svg>
