<svg width="1100" height="267" viewBox="0 0 1100 267" xmlns="http://www.w3.org/2000/svg"><title>Group 29</title><g fill="none" fill-rule="evenodd"><path d="M108.517 138.34c9.3-4.295 17.576-23.14 17.576-23.14 13.397-7.733 16.127-15.696 16.127-15.696-2.39 4.983-14.676 12.545-14.676 12.545l1.195-3.516c9.244-6.437 11.962-12.326 12.745-14.89-1.956 4.93-12.576 12.676-12.576 12.676 1.62-1.89 2.132-11.226 2.132-11.226 9.045-6.013 8.96-12.316 8.96-12.316-.94 4.24-9.812 10.37-9.812 10.37-1.536-1.606.484-6.6.484-6.6s-3.614.608-1.807 8.188c1.807 7.582-9.034 25.32-9.034 25.32-4.968-3.638-1.13-15.464-1.13-15.464-7.677 7.582-1.128 17.588-1.128 17.588-3.162 7.882-12.258 12.108-12.26 12.11-.198-3.595-.416-16.99 6.162-28.94 8.76-15.913 0-35.478 0-35.478 2.328 5.47 2.702 11.312 2.19 16.628-2.59-.668-4.15-5.69-4.15-5.69 0 3.62 3.08 6.76 3.932 7.56-1.267 9.282-4.972 16.525-4.972 16.525s-4.115 6.186-6.635 14.24c-1.637-1.62-5.315-6.068-5.47-13.43 6.026-4.477 6.574-8.398 6.574-8.398-.478 2.064-5.062 5.888-6.564 7.096.005-.15.007-.296.015-.446.574-10.66-.034-12.09-.034-12.09s-.13 6.32-1.112 11.87c-.443 2.51-.433 5.066.277 7.84-5.292-1.975-8.298-8.226-8.298-8.226.833 2.47 1.947 4.37 3.117 5.823-3.355-.382-6.966-2.03-6.966-2.03 2.916 2 6.714 2.96 8.058 3.252 1.923 1.935 3.806 2.795 4.685 3.12.947 2.608 2.514 5.428 4.89 8.59-1.195 4.903-1.62 10.264-.154 15.237.612 2.077 1.072 4.27 1.412 6.5-12.138-5.49-12.997-19.83-12.997-19.83-1.884-9.34-6.876-11.65-6.876-11.65 3.55 4.868 4.07 7.8 4.496 11.563-1.388-.4-3.804-1.607-5.97-5.242 0 0 .875 5.176 6.12 6.597.24 2.168.554 4.674 1.412 7.965 2.033 7.81 10.67 13.863 14.428 16.176.83 11.626-.896 22.642-.896 22.642h9.938c.2-6.53-.296-12.43-1.093-17.502 1.483-1.285 5.385-5.042 8.15-11.064 4.727-.852 7.943-3.986 7.943-3.986-1.88 1.758-5.91 2.332-7.295 2.482.933-2.328 1.677-4.953 2.056-7.868 0 0-3.22 12.61-11.59 16.36-.324-1.597-.673-3.088-1.028-4.462.24.302.172.15-.08-.31-.198-.754-.398-1.473-.596-2.152-.2-2.315.12-5.22.12-5.22" fill="#AC4C4B"/><path d="M638.517 144.34c9.3-4.295 17.576-23.14 17.576-23.14 13.397-7.733 16.127-15.696 16.127-15.696-2.39 4.983-14.676 12.545-14.676 12.545l1.195-3.516c9.244-6.437 11.962-12.326 12.745-14.89-1.956 4.93-12.576 12.676-12.576 12.676 1.62-1.89 2.132-11.226 2.132-11.226 9.045-6.013 8.96-12.316 8.96-12.316-.94 4.24-9.812 10.37-9.812 10.37-1.536-1.606.484-6.6.484-6.6s-3.614.608-1.807 8.188c1.807 7.582-9.034 25.32-9.034 25.32-4.968-3.638-1.13-15.464-1.13-15.464-7.677 7.582-1.128 17.588-1.128 17.588-3.162 7.882-12.258 12.108-12.26 12.11-.198-3.595-.416-16.99 6.162-28.94 8.76-15.913 0-35.478 0-35.478 2.328 5.47 2.702 11.312 2.19 16.628-2.59-.668-4.15-5.69-4.15-5.69 0 3.62 3.08 6.76 3.932 7.56-1.267 9.282-4.972 16.525-4.972 16.525s-4.115 6.186-6.635 14.24c-1.637-1.62-5.315-6.068-5.47-13.43 6.026-4.477 6.574-8.398 6.574-8.398-.478 2.064-5.062 5.888-6.564 7.096.005-.15.007-.296.015-.446.574-10.66-.034-12.09-.034-12.09s-.13 6.32-1.112 11.87c-.443 2.51-.433 5.066.277 7.84-5.292-1.975-8.298-8.226-8.298-8.226.833 2.47 1.947 4.37 3.117 5.823-3.355-.382-6.966-2.03-6.966-2.03 2.916 2 6.714 2.96 8.058 3.252 1.923 1.935 3.806 2.795 4.685 3.12.947 2.608 2.514 5.428 4.89 8.59-1.195 4.903-1.62 10.264-.154 15.237.612 2.077 1.072 4.27 1.412 6.5-12.138-5.49-12.997-19.83-12.997-19.83-1.884-9.34-6.876-11.65-6.876-11.65 3.55 4.868 4.07 7.8 4.496 11.563-1.388-.4-3.804-1.607-5.97-5.242 0 0 .875 5.176 6.12 6.597.24 2.168.554 4.674 1.412 7.965 2.033 7.81 10.67 13.863 14.428 16.176.83 11.626-.896 22.642-.896 22.642h9.938c.2-6.53-.296-12.43-1.093-17.502 1.483-1.285 5.385-5.042 8.15-11.064 4.727-.852 7.943-3.986 7.943-3.986-1.88 1.758-5.91 2.332-7.295 2.482.933-2.328 1.677-4.953 2.056-7.868 0 0-3.22 12.61-11.59 16.36-.324-1.597-.673-3.088-1.028-4.462.24.302.172.15-.08-.31-.198-.754-.398-1.473-.596-2.152-.2-2.315.12-5.22.12-5.22" fill="#AF4E4C"/><path fill="#813E40" d="M326.904 164.53H194.416v101.397H334V164.53"/><path d="M211.65 263.788s-8.802-3.667-14.486-14.487c-5.685-10.818-40.895-82.338-91.14-82.338v98.66h105.994l-.367-1.834z" fill="#471822"/><path d="M80.634 173.594c-1.254.63-2.492 1.3-3.717 2-33.82 19.358-56.462 65.217-60.923 73.707C10.31 260.12 1.507 263.79 1.507 263.79l-.367 1.834h105.995V166.96c-9.39 0-18.255 2.5-26.5 6.632" fill="#531724"/><path fill="#5C3342" d="M1025.147 194.796l-7.463.13.375-14.853 5.69.13"/><path d="M1020.158 134.914s35.356 38.153.917 48.013l-.917-48.013z" fill="#7B3035"/><path d="M1021.31 134.836s-33.925 39.442.837 48.09l-.838-48.09z" fill="#8B343A"/><path d="M943.09 264.572s6.505-2.71 10.706-10.705c4.2-7.996 30.22-60.847 67.35-60.847v72.907H942.82l.27-1.355z" fill="#531724"/><path d="M1098.876 264.572s-6.504-2.71-10.705-10.705c-4.2-7.996-30.22-60.847-67.35-60.847v72.907h78.327l-.27-1.355z" fill="#471822"/><path fill="#5C3342" d="M939.537 214.783l7.463.13-.375-14.853-5.692.13"/><path d="M945 151.9s-35.356 38.153-.917 48.014L945 151.9z" fill="#7B3035"/><path d="M944.17 151.822s33.922 39.442-.84 48.092l.84-48.092z" fill="#8B343A"/><path d="M996.817 263.035s-4.41-1.785-7.26-7.05c-2.848-5.266-20.49-40.07-45.666-40.07v48.012H997" fill="#471822"/><path d="M891.075 263.035s4.41-1.785 7.258-7.05c2.85-5.266 20.49-40.07 45.667-40.07v48.012h-53.11" fill="#531D29"/><path d="M355.723 263.565s9.873-4.113 16.25-16.25c6.375-12.133 45.865-92.348 102.22-92.348v110.655h-118.88l.41-2.057z" fill="#531724"/><path d="M591.665 263.565s-9.873-4.113-16.25-16.25c-6.374-12.133-45.865-92.348-102.22-92.348v110.655h118.88l-.41-2.057z" fill="#471822"/><path fill="#502836" d="M480.223 157.05l-15.426.27.776-30.7 11.763.27"/><path d="M471.184 33.924s73.072 78.855 1.896 99.234l-1.896-99.234z" fill="#7B3035"/><path d="M472.18 33.837s-70.11 81.52 1.735 99.395l-1.734-99.395z" fill="#8B343A"/><path d="M464.546 201.825v9.633c22.416 5.513 52.596 17.86 55.025 53.815l18.006.453c-2.878-42.597-46.425-58.072-73.03-63.9M452.287 199.34c-2.926-.58-5.45-1.08-7.27-1.534-11.667-2.917-14.56-23.768-14.87-26.444-1.562.92-3.818 3.02-4.72 3.714.57 7.14 3.555 28.1 21.33 32.546 2.086.52 4.736 1.044 7.805 1.65 3.034.6 6.41 1.306 9.984 2.186v-9.633c-4.667-1.022-8.856-1.814-12.26-2.486" fill="#5C3342"/><path d="M674.107 29.233c.39-1.648.604-3.357.604-5.114 0-13.06-11.38-23.642-25.42-23.642-9.657 0-18.056 5.008-22.36 12.382-2.58-1.323-5.543-2.077-8.696-2.077-9.962 0-18.038 7.51-18.038 16.774 0 .245.008.487.02.73h-.058c-8.506 0-15.4 6.41-15.4 14.32 0 7.908 6.894 14.32 15.4 14.32H668.6c8.504 0 15.4-6.412 15.4-14.32 0-6.104-4.11-11.313-9.893-13.374" fill="#8B343A"/><path d="M626.625 40.184c-.32-1.353-.496-2.757-.496-4.2 0-10.722 9.346-19.414 20.876-19.414 7.93 0 14.827 4.112 18.36 10.168 2.12-1.086 4.553-1.705 7.143-1.705 8.18 0 14.81 6.167 14.81 13.775 0 .2-.005.4-.015.6h.048c6.985 0 12.647 5.264 12.647 11.76 0 6.494-5.662 11.76-12.647 11.76h-56.206c-6.984 0-12.647-5.266-12.647-11.76 0-5.013 3.374-9.29 8.125-10.984" fill="#6D2B31"/><path d="M1005.886 32.21c-.408-1.77-.63-3.604-.63-5.49 0-14.01 11.88-25.368 26.535-25.368 10.08 0 18.846 5.374 23.34 13.288 2.69-1.42 5.784-2.23 9.075-2.23 10.4 0 18.828 8.06 18.828 18 0 .263-.008.523-.02.784h.06c8.878 0 16.074 6.88 16.074 15.366s-7.196 15.367-16.074 15.367h-71.44c-8.876 0-16.073-6.88-16.073-15.367 0-6.55 4.29-12.14 10.326-14.35" fill="#8D3840"/><path d="M351.427 32.93c-.4-1.548-.62-3.157-.62-4.81 0-12.285 11.688-22.242 26.106-22.242 9.916 0 18.54 4.712 22.96 11.65 2.648-1.245 5.692-1.955 8.93-1.955 10.23 0 18.523 7.067 18.523 15.782 0 .23-.008.458-.02.686h.06c8.734 0 15.815 6.032 15.815 13.473 0 7.44-7.08 13.473-15.814 13.473h-70.284c-8.733 0-15.814-6.032-15.814-13.473 0-5.742 4.22-10.643 10.16-12.582" fill="#8B343A"/><path d="M592.782 54.52c.403-1.75.624-3.565.624-5.43 0-13.865-11.757-25.103-26.258-25.103-9.974 0-18.648 5.317-23.094 13.148-2.663-1.405-5.724-2.206-8.98-2.206-10.29 0-18.63 7.974-18.63 17.81 0 .26.007.518.02.775h-.062c-8.784 0-15.906 6.808-15.906 15.205 0 8.4 7.122 15.207 15.906 15.207h70.692c8.784 0 15.906-6.808 15.906-15.207 0-6.48-4.244-12.012-10.218-14.2M89.156 31.593c.39-1.685.6-3.435.6-5.233 0-13.358-11.327-24.186-25.298-24.186-9.612 0-17.97 5.122-22.252 12.667-2.567-1.352-5.516-2.124-8.654-2.124-9.915 0-17.952 7.684-17.952 17.163 0 .25.01.497.02.744h-.058c-8.464 0-15.325 6.56-15.325 14.652 0 8.09 6.86 14.65 15.325 14.65h68.113c8.464 0 15.325-6.56 15.325-14.65 0-6.246-4.09-11.574-9.844-13.683" fill="#8D3840"/><path fill="#64202B" d="M251.533 177.032h-39.486v16.233h39.486M311.29 177.032h-39.485v16.233h39.485M282.226 211.022h-43.878v37.07h43.878"/><path d="M549.062 264.256s7.664-3.342 12.612-13.2c4.948-9.858 35.6-75.03 79.34-75.03v89.9h-92.27l.318-1.67z" fill="#531724"/><path d="M727.694 264.256s-7.662-3.342-12.613-13.2c-4.946-9.858-35.598-75.03-79.338-75.03v89.9h92.27l-.318-1.67z" fill="#471822"/><path fill="#79383E" d="M245.25 82.957H222.53v83.782h22.723M278.48 103.12h-22.72v53.762h22.72"/><path d="M284.112 155.972H221.55c-6.908 0-12.51 4.673-12.51 10.437H296.625c0-5.765-5.603-10.438-12.512-10.438" fill="#64202B"/><path d="M935.103 25.077c.328-1.427.508-2.91.508-4.43C935.61 9.33 926.02.16 914.185.16c-8.138 0-15.217 4.34-18.844 10.73-2.173-1.146-4.672-1.8-7.33-1.8-8.397 0-15.204 6.508-15.204 14.535 0 .13.006.26.01.39h-.837c-7.17 0-12.98 5.556-12.98 12.41 0 5.287 3.462 9.8 8.338 11.586-.33 1.43-.51 2.91-.51 4.433 0 11.313 9.594 20.484 21.428 20.484 8.14 0 15.218-4.338 18.844-10.728 2.174 1.145 4.672 1.798 7.33 1.798 8.397 0 15.204-6.507 15.204-14.535 0-.13-.006-.26-.01-.39h.837c7.17 0 12.98-5.554 12.98-12.408 0-5.29-3.462-9.802-8.337-11.588" fill="#8D3840"/><path d="M298.255 13.225c.147-.664.228-1.354.228-2.06 0-5.264-4.308-9.53-9.624-9.53-3.656 0-6.836 2.02-8.464 4.99-.977-.533-2.098-.835-3.293-.835-3.772 0-6.828 3.026-6.828 6.76 0 .06.002.12.004.18h-.377c-3.22 0-5.83 2.585-5.83 5.773 0 2.46 1.555 4.558 3.746 5.39-.15.663-.23 1.353-.23 2.06 0 5.263 4.308 9.53 9.623 9.53 3.656 0 6.836-2.02 8.465-4.992.976.534 2.097.838 3.292.838 3.772 0 6.828-3.026 6.828-6.76 0-.06-.002-.12-.004-.182h.375c3.22 0 5.83-2.583 5.83-5.77 0-2.46-1.555-4.562-3.745-5.39M260.488 38.304c-6.12-1.472-12.273 2.297-13.743 8.416-.467 1.938-.404 3.88.09 5.674-3.56-.347-6.923 1.965-7.784 5.543-.938 3.912 1.47 7.846 5.383 8.787 3.913.94 7.847-1.47 8.788-5.38.118-.49.183-.98.2-1.464.558.234 1.134.437 1.742.584 6.118 1.47 12.272-2.297 13.742-8.417 1.472-6.12-2.296-12.272-8.416-13.743M242 73.427c0 3.038-2.462 5.5-5.5 5.5-3.037 0-5.5-2.462-5.5-5.5 0-3.037 2.463-5.5 5.5-5.5 3.038 0 5.5 2.463 5.5 5.5" fill="#8B343A"/><path fill="#3C1926" d="M245.277 86.94h-22.724v10h22.724M278.278 109.94h-22.722v10h22.722"/><path fill="#812D35" d="M758 265.165h76.46V163H758"/><path fill="#75282F" d="M797 265.165h38.224V163H797"/><path fill="#561926" d="M768 224.91h59.496V210H768M768 204.91h59.496V190H768M768 184.91h59.496V170H768M769 244.91h10.598V230H769M784 244.91h10.598V230H784M782.41 264.476H770v-9.27c0-3.428 2.778-6.206 6.205-6.206s6.205 2.778 6.205 6.205v9.27z"/><g><path fill="#8F373C" d="M835 265.93h76.46V135H835"/><path fill="#561926" d="M845 214.342h59.496v-19.11H845M845 188.71h59.496v-19.108H845M845 163.08h59.496v-19.11H845M881.41 265.833H869v-11.88c0-4.393 2.778-7.953 6.205-7.953s6.205 3.56 6.205 7.952v11.88z"/></g><g><path d="M752.388 242.024c0 7.258-5.396 13.142-24.52 13.142-19.123 0-34.626-13.142-34.626-13.142s15.503-13.142 34.626-13.142c19.124 0 24.52 5.884 24.52 13.142" fill="#93413F"/><path d="M757.297 258.653h-81.08c-2.594 0-4.718-2.123-4.718-4.718 0-6.596 5.396-11.993 11.992-11.993h73.805c2.595 0 4.718 2.124 4.718 4.72v7.273c0 2.595-2.123 4.718-4.718 4.718" fill="#93413F"/><path d="M702.183 257.206c0 5.232-4.24 9.473-9.473 9.473-5.232 0-9.474-4.242-9.474-9.474s4.242-9.473 9.474-9.473 9.473 4.24 9.473 9.473" fill="#33131E"/><path d="M697.684 257.206c0 2.747-2.227 4.974-4.974 4.974-2.747 0-4.974-2.227-4.974-4.974 0-2.747 2.227-4.974 4.974-4.974 2.747 0 4.974 2.227 4.974 4.974" fill="#13062C"/><path d="M756.918 257.206c0 5.232-4.24 9.473-9.473 9.473-5.232 0-9.474-4.242-9.474-9.474s4.242-9.473 9.474-9.473c5.233 0 9.474 4.24 9.474 9.473" fill="#33131E"/><path d="M752.418 257.206c0 2.747-2.227 4.974-4.974 4.974-2.747 0-4.974-2.227-4.974-4.974 0-2.747 2.227-4.974 4.974-4.974 2.747 0 4.974 2.227 4.974 4.974" fill="#13062C"/><path d="M704.35 241.198c0 3.29 9.456 2.234 21.12 2.234 11.666 0 21.123 1.056 21.123-2.234s-5.475-9.68-17.14-9.68c-11.665 0-25.104 6.39-25.104 9.68" fill="#33131E"/></g></g></svg>