<svg xmlns="http://www.w3.org/2000/svg" width="1100" height="267" viewBox="0 0 1100 267">
  <g fill="none" fill-rule="evenodd">
    <path fill="#AC4C4B" d="M114.63165,103.592899 C105.331032,107.889281 97.0551886,126.733424 97.0551886,126.733424 C83.6588727,134.467397 80.9284072,142.430446 80.9284072,142.430446 C83.3179285,137.446837 95.6045378,129.88467 95.6045378,129.88467 L94.4096559,133.400399 C85.1643658,139.836843 82.4470042,145.725835 81.6639246,148.291046 C83.6200463,143.36058 94.2393051,135.613503 94.2393051,135.613503 C92.6178182,137.503377 92.1065233,146.839667 92.1065233,146.839667 C83.0616744,152.853388 83.1468498,159.155639 83.1468498,159.155639 C84.0854776,154.916525 92.9587624,148.787295 92.9587624,148.787295 C94.4948312,150.391796 92.4744033,155.385354 92.4744033,155.385354 C92.4744033,155.385354 96.0884116,154.777721 94.2815288,147.197598 C92.4744033,139.616261 103.315458,121.876728 103.315458,121.876728 C108.284022,125.515731 104.444335,137.342005 104.444335,137.342005 C112.12298,129.760183 105.573212,119.753896 105.573212,119.753896 C108.735621,111.871897 117.831915,107.645645 117.834827,107.644432 C118.031628,111.23927 118.249541,124.63413 111.671624,136.583677 C102.911906,152.497399 111.671624,172.062257 111.671624,172.062257 C109.343739,166.593318 108.969307,160.749947 109.480602,155.433887 L109.480602,155.434615 C112.070322,156.101458 113.632356,161.12535 113.632356,161.12535 C113.632356,157.504789 110.552938,154.36422 109.699971,153.565125 C110.965954,144.282221 114.670477,137.038674 114.670477,137.038674 C114.670477,137.038674 118.785345,130.852903 121.305178,122.798612 C122.942923,124.418886 126.62051,128.866934 126.776543,136.229629 C120.749718,140.706311 120.20178,144.627291 120.20178,144.627291 C120.67983,142.562941 125.263285,138.739027 126.765623,137.530799 C126.760285,137.680523 126.758343,137.826607 126.750335,137.977302 C126.176918,148.638056 126.784551,150.06711 126.784551,150.06711 C126.784551,150.06711 126.914377,143.748359 127.896442,138.197399 C128.340033,135.686545 128.330084,133.130556 127.619804,130.357867 C132.910384,132.332188 135.916759,138.582751 135.916759,138.582751 C135.083933,136.11315 133.969616,134.214055 132.799729,132.760492 C136.154086,133.142932 139.764211,134.791355 139.764211,134.791355 C136.848835,132.790097 133.050644,131.832299 131.707009,131.539402 C129.783647,129.60415 127.900324,128.743902 127.021149,128.420188 C126.074999,125.810569 124.508112,122.99056 122.131937,119.830093 C123.326576,114.925592 123.75124,109.565125 122.286029,104.59195 C121.6733,102.514739 121.213693,100.322504 120.873962,98.0909574 C133.011818,103.582949 133.870609,117.921291 133.870609,117.921291 C135.754174,127.262676 140.746276,129.570662 140.746276,129.570662 C137.196331,124.704017 136.675572,121.770684 136.250424,118.009378 C137.638709,118.409775 140.054681,119.615577 142.220223,123.251182 C142.220223,123.251182 141.345416,118.075383 136.100457,116.654094 C135.85949,114.485884 135.54621,111.980368 134.689118,108.689104 C132.655586,100.878692 124.018657,94.8259012 120.260991,92.5128193 C119.430349,80.8877145 121.156424,69.8716987 121.156424,69.8716987 L111.219054,69.8716987 C111.01837,76.4018112 111.514134,82.3031789 112.311288,87.373662 C110.828848,88.6585727 106.926797,92.415996 104.161388,98.4379682 C99.4342753,99.29045 96.2187227,102.424225 96.2187227,102.424225 C98.099861,100.666117 102.128098,100.091487 103.513715,99.9420053 C102.580911,102.269647 101.836901,104.894796 101.457858,107.810172 C101.457858,107.810172 104.677779,95.1998478 113.047291,91.4492191 C113.372462,93.0474101 113.721414,94.5383433 114.076918,95.9123119 L114.075462,95.9123119 C113.835224,95.6104368 113.904869,95.7633157 114.157726,96.222923 C114.355012,96.9763975 114.554725,97.6946856 114.75274,98.3741474 C114.952938,100.689171 114.63165,103.592899 114.63165,103.592899" transform="rotate(-180 111.574 120.967)"/>
    <path fill="#AF4E4C" d="M644.63165,109.592899 C635.331032,113.889281 627.055189,132.733424 627.055189,132.733424 C613.658873,140.467397 610.928407,148.430446 610.928407,148.430446 C613.317929,143.446837 625.604538,135.88467 625.604538,135.88467 L624.409656,139.400399 C615.164366,145.836843 612.447004,151.725835 611.663925,154.291046 C613.620046,149.36058 624.239305,141.613503 624.239305,141.613503 C622.617818,143.503377 622.106523,152.839667 622.106523,152.839667 C613.061674,158.853388 613.14685,165.155639 613.14685,165.155639 C614.085478,160.916525 622.958762,154.787295 622.958762,154.787295 C624.494831,156.391796 622.474403,161.385354 622.474403,161.385354 C622.474403,161.385354 626.088412,160.777721 624.281529,153.197598 C622.474403,145.616261 633.315458,127.876728 633.315458,127.876728 C638.284022,131.515731 634.444335,143.342005 634.444335,143.342005 C642.12298,135.760183 635.573212,125.753896 635.573212,125.753896 C638.735621,117.871897 647.831915,113.645645 647.834827,113.644432 C648.031628,117.23927 648.249541,130.63413 641.671624,142.583677 C632.911906,158.497399 641.671624,178.062257 641.671624,178.062257 C639.343739,172.593318 638.969307,166.749947 639.480602,161.433887 L639.480602,161.434615 C642.070322,162.101458 643.632356,167.12535 643.632356,167.12535 C643.632356,163.504789 640.552938,160.36422 639.699971,159.565125 C640.965954,150.282221 644.670477,143.038674 644.670477,143.038674 C644.670477,143.038674 648.785345,136.852903 651.305178,128.798612 C652.942923,130.418886 656.62051,134.866934 656.776543,142.229629 C650.749718,146.706311 650.20178,150.627291 650.20178,150.627291 C650.67983,148.562941 655.263285,144.739027 656.765623,143.530799 C656.760285,143.680523 656.758343,143.826607 656.750335,143.977302 C656.176918,154.638056 656.784551,156.06711 656.784551,156.06711 C656.784551,156.06711 656.914377,149.748359 657.896442,144.197399 C658.340033,141.686545 658.330084,139.130556 657.619804,136.357867 C662.910384,138.332188 665.916759,144.582751 665.916759,144.582751 C665.083933,142.11315 663.969616,140.214055 662.799729,138.760492 C666.154086,139.142932 669.764211,140.791355 669.764211,140.791355 C666.848835,138.790097 663.050644,137.832299 661.707009,137.539402 C659.783647,135.60415 657.900324,134.743902 657.021149,134.420188 C656.074999,131.810569 654.508112,128.99056 652.131937,125.830093 C653.326576,120.925592 653.75124,115.565125 652.286029,110.59195 C651.6733,108.514739 651.213693,106.322504 650.873962,104.090957 C663.011818,109.582949 663.870609,123.921291 663.870609,123.921291 C665.754174,133.262676 670.746276,135.570662 670.746276,135.570662 C667.196331,130.704017 666.675572,127.770684 666.250424,124.009378 C667.638709,124.409775 670.054681,125.615577 672.220223,129.251182 C672.220223,129.251182 671.345416,124.075383 666.100457,122.654094 C665.85949,120.485884 665.54621,117.980368 664.689118,114.689104 C662.655586,106.878692 654.018657,100.825901 650.260991,98.5128193 C649.430349,86.8877145 651.156424,75.8716987 651.156424,75.8716987 L641.219054,75.8716987 C641.01837,82.4018112 641.514134,88.3031789 642.311288,93.373662 C640.828848,94.6585727 636.926797,98.415996 634.161388,104.437968 C629.434275,105.29045 626.218723,108.424225 626.218723,108.424225 C628.099861,106.666117 632.128098,106.091487 633.513715,105.942005 C632.580911,108.269647 631.836901,110.894796 631.457858,113.810172 C631.457858,113.810172 634.677779,101.199848 643.047291,97.4492191 C643.372462,99.0474101 643.721414,100.538343 644.076918,101.912312 L644.075462,101.912312 C643.835224,101.610437 643.904869,101.763316 644.157726,102.222923 C644.355012,102.976398 644.554725,103.694686 644.75274,104.374147 C644.952938,106.689171 644.63165,109.592899 644.63165,109.592899" transform="rotate(-180 641.574 126.967)"/>
    <polygon fill="#813E40" points="201.512 265.927 217.512 265.927 239.45 265.927 266.924 265.927 279.63 265.927 307.107 265.927 323.416 265.927 334 265.927 334 164.529 194.416 164.529 194.416 265.927" transform="rotate(-180 264.208 215.228)"/>
    <path fill="#471822" d="M106.390015,168.796676 C106.390015,168.796676 115.192608,172.464189 120.877242,183.283902 C126.562092,194.102967 161.77203,265.622383 212.018315,265.622383 L212.018315,166.962379 L106.022637,166.962379 L106.390015,168.796676 Z" transform="rotate(-180 159.02 216.292)"/>
    <path fill="#531623" d="M27.6410363,258.990502 C28.8952732,258.361328 30.1330668,257.691046 31.3585279,256.990257 C65.1777059,237.632775 87.8203931,191.773615 92.2806474,183.283878 C97.9659302,172.464164 106.767874,168.796652 106.767874,168.796652 L107.135469,166.962355 L1.13957459,166.962355 L1.13957459,227.428821 L1.13957459,234.826157 L1.13957459,265.622358 C10.5300164,265.622358 19.3953534,263.123404 27.6410363,258.990502" transform="rotate(-180 54.138 216.292)"/>
    <polygon fill="#5B3341" points="1017.684 180.204 1025.147 180.073 1024.772 194.927 1019.08 194.796" transform="rotate(-180 1021.416 187.5)"/>
    <path fill="#7B3035" d="M1036.14723,182.927201 C1036.14723,182.927201 1000.79168,144.773726 1035.2302,134.913523 L1036.14723,182.927201 Z" transform="rotate(-180 1028.153 158.92)"/>
    <path fill="#8B343A" d="M1007.31575,182.927201 C1007.31575,182.927201 1041.23885,143.48469 1006.4771,134.835628 L1007.31575,182.927201 Z" transform="rotate(-180 1014.312 158.881)"/>
    <path fill="#531623" d="M1020.8769,194.37527 C1020.8769,194.37527 1014.37178,197.085352 1010.17077,205.080432 C1005.96976,213.075756 979.950496,265.927201 942.819612,265.927201 L942.819612,193.019744 L1021.14723,193.019744 L1020.8769,194.37527 Z" transform="rotate(-180 981.983 229.473)"/>
    <path fill="#471822" d="M1021.09018,194.37527 C1021.09018,194.37527 1027.59457,197.085352 1031.79535,205.080432 C1035.9966,213.075756 1062.01562,265.927201 1099.14723,265.927201 L1099.14723,193.019744 L1020.81888,193.019744 L1021.09018,194.37527 Z" transform="rotate(-180 1059.983 229.473)"/>
    <g transform="rotate(-180 479.5 107.457)">
      <polygon fill="#5B3341" points="12 .131 19.463 0 19.088 14.854 13.396 14.723" transform="matrix(-1 0 0 1 31.463 0)"/>
      <path fill="#7B3035" d="M29.9888546,63.0136775 C29.9888546,63.0136775 -5.36669361,24.860203 29.0718239,15 L29.9888546,63.0136775 Z" transform="matrix(-1 0 0 1 43.989 0)"/>
      <path fill="#8B343A" d="M0.838649901,63.0915729 C0.838649901,63.0915729 34.7617472,23.6490624 0,15 L0.838649901,63.0915729 Z" transform="matrix(-1 0 0 1 15.67 0)"/>
    </g>
    <path fill="#471822" d="M944.074631,216.806214 C944.074631,216.806214 948.485312,218.590955 951.333736,223.856167 C954.18216,229.121539 971.824059,263.927201 997,263.927201 L997,215.913523 L943.89134,215.913523" transform="rotate(-180 970.446 239.92)"/>
    <path fill="#531D28" d="M943.81605,216.806214 C943.81605,216.806214 939.405863,218.590955 936.557604,223.856167 C933.709015,229.121539 916.067281,263.927201 890.890846,263.927201 L890.890846,215.913523 L944,215.913523" transform="rotate(-180 917.445 239.92)"/>
    <path fill="#531623" d="M473.783104,157.0245 C473.783104,157.0245 463.910525,161.137913 457.534505,173.273099 C451.158727,185.407558 411.668169,265.622383 355.312643,265.622383 L355.312643,154.967187 L474.193936,154.967187 L473.783104,157.0245 Z" transform="rotate(-180 414.753 210.295)"/>
    <path fill="#471822" d="M473.604525,157.0245 C473.604525,157.0245 483.477346,161.137913 489.853124,173.273099 C496.228901,185.407558 535.71946,265.622383 592.075471,265.622383 L592.075471,154.967187 L473.193936,154.967187 L473.604525,157.0245 Z" transform="rotate(-180 532.635 210.295)"/>
    <polygon fill="#502736" points="464.797 126.891 480.223 126.621 479.447 157.32 467.684 157.049" transform="rotate(-180 472.51 141.97)"/>
    <path fill="#7B3035" d="M504.229679,133.157633 C504.229679,133.157633 431.157696,54.3024597 502.333981,33.9237039 L504.229679,133.157633 Z" transform="rotate(-180 487.707 83.54)"/>
    <path fill="#8B343A" d="M443.26283,133.232034 C443.26283,133.232034 513.373088,51.7124002 441.528746,33.8369755 L443.26283,133.232034 Z" transform="rotate(-180 457.722 83.535)"/>
    <path fill="#5B3341" d="M537.576358,265.725564 L537.576358,256.092495 C515.161158,250.579634 484.980924,238.233329 482.552091,202.278156 L464.546356,201.8251 C467.424361,244.421527 510.971791,259.896753 537.576358,265.725564" transform="rotate(-180 501.061 233.775)"/>
    <path fill="#5B3341" d="M437.685899,183.480338 C440.611467,184.059821 443.136395,184.558498 444.956625,185.014222 C456.622255,187.930326 459.516762,208.781551 459.825917,211.458145 C461.388193,210.537717 463.644006,208.437937 464.546477,207.744158 C463.975001,200.604957 460.990465,179.642835 443.215261,175.198184 C441.129799,174.67694 438.479656,174.153512 435.410916,173.547335 C432.376391,172.947467 428.999466,172.241313 425.426225,171.361652 L425.426225,180.994721 C430.0934,182.017068 434.282281,182.808398 437.685899,183.480338" transform="rotate(-180 444.986 191.41)"/>
    <path fill="#8B343A" d="M594.650658,28.1718793 C594.260019,29.8196372 594.046545,31.5293618 594.046545,33.2861745 C594.046545,46.343487 605.428875,56.9272005 619.468528,56.9272005 C629.125086,56.9272005 637.523665,51.9193441 641.827925,44.5444911 C644.406414,45.867864 647.370332,46.6219283 650.523685,46.6219283 C660.485662,46.6219283 668.561341,39.1113699 668.561341,29.8475958 C668.561341,29.6031625 668.553608,29.3606913 668.541338,29.1183836 L668.600001,29.1183836 C677.105316,29.1183836 684,22.707366 684,14.7983569 C684,6.88967478 677.105316,0.477676155 668.600001,0.477676155 L600.157429,0.477676155 C591.653627,0.477676155 584.757598,6.88967478 584.757598,14.7983569 C584.757598,20.9016666 588.866371,26.1109556 594.650658,28.1718793" transform="rotate(-180 634.379 28.702)"/>
    <path fill="#6D2B31" d="M691.875575,39.3128251 C692.196458,40.6659551 692.371607,42.0700973 692.371607,43.5128256 C692.371607,54.2355146 683.024333,62.9272005 671.494588,62.9272005 C663.564475,62.9272005 656.667437,58.8148363 653.132857,52.7586147 C651.015269,53.8452389 648.581505,54.4644153 645.991418,54.4644153 C637.810347,54.4644153 631.178891,48.2966864 631.178891,40.6890087 C631.178891,40.4880666 631.18511,40.2890865 631.195364,40.0902699 L631.146954,40.0902699 C624.162342,40.0902699 618.500257,34.8253907 618.500257,28.3303338 C618.500257,21.835277 624.162342,16.5699073 631.146954,16.5699073 L687.353303,16.5699073 C694.336906,16.5699073 700,21.835277 700,28.3303338 C700,33.3426048 696.625777,37.620268 691.875575,39.3128251" transform="rotate(-180 659.25 39.749)"/>
    <path fill="#8D3840" d="M1088.82111,31.0704169 C1089.22927,32.8387161 1089.4518,34.6732627 1089.4518,36.5582837 C1089.4518,50.5702405 1077.57141,61.9272005 1062.91615,61.9272005 C1052.83755,61.9272005 1044.07152,56.5541143 1039.57809,48.6395985 C1036.88694,50.0601588 1033.79321,50.8692036 1030.50194,50.8692036 C1020.10326,50.8692036 1011.6743,42.8093316 1011.6743,32.8688065 C1011.6743,32.6062431 1011.68206,32.346349 1011.69541,32.0859696 L1011.63402,32.0859696 C1002.75612,32.0859696 995.559894,25.2066623 995.559894,16.7194573 C995.559894,8.2334657 1002.75612,1.35245974 1011.63402,1.35245974 L1083.07359,1.35245974 C1091.94979,1.35245974 1099.14723,8.2334657 1099.14723,16.7194573 C1099.14723,23.2692257 1094.85861,28.859497 1088.82111,31.0704169" transform="rotate(-180 1047.354 31.64)"/>
    <path fill="#8B343A" d="M433.021059,31.9331597 C433.422277,33.4828663 433.641808,35.0918986 433.641808,36.7447188 C433.641808,49.029017 421.952984,58.9861951 407.53548,58.9861951 C397.619149,58.9861951 388.994641,54.2745716 384.574306,47.3362932 C381.92686,48.5816026 378.883348,49.2910387 375.645071,49.2910387 C365.414898,49.2910387 357.121866,42.2249276 357.121866,33.509351 C357.121866,33.279464 357.129791,33.0509896 357.142075,32.8235745 L357.082041,32.8235745 C348.347768,32.8235745 341.267505,26.7919548 341.267505,19.3513504 C341.267505,11.910746 348.347768,5.87824342 357.082041,5.87824342 L427.366359,5.87824342 C436.099047,5.87824342 443.180697,11.910746 443.180697,19.3513504 C443.180697,25.0930512 438.960872,29.9941284 433.021059,31.9331597" transform="rotate(-180 392.224 32.432)"/>
    <path fill="#8D3840" d="M510.714295,53.3934039 C510.310743,55.1430179 510.090404,56.9586367 510.090404,58.8242444 C510.090404,72.6886609 521.847033,83.9272005 536.347959,83.9272005 C546.32173,83.9272005 554.995786,78.6096845 559.441893,70.7788882 C562.10514,72.1841606 565.166358,72.9847121 568.423649,72.9847121 C578.712641,72.9847121 587.053519,65.0097728 587.053519,55.1728657 C587.053519,54.9134569 587.045511,54.6559894 587.033135,54.3987646 L587.093801,54.3987646 C595.878028,54.3987646 603,47.5910435 603,39.1933819 C603,30.7952349 595.878028,23.9865431 587.093801,23.9865431 L516.40236,23.9865431 C507.618619,23.9865431 500.496161,30.7952349 500.496161,39.1933819 C500.496161,45.6737481 504.739885,51.2052945 510.714295,53.3934039" transform="rotate(-180 551.748 53.957)"/>
    <path fill="#8D3840" d="M10.0807854,30.5082065 C9.69155085,32.1932716 9.48043238,33.9428855 9.48043238,35.7405471 C9.48043238,49.0987646 20.8077873,59.9272005 34.7789764,59.9272005 C44.3904478,59.9272005 52.7483124,54.8047871 57.0303772,47.2596073 C59.5977719,48.6124642 62.5466358,49.3846239 65.6847783,49.3846239 C75.5993382,49.3846239 83.6361571,41.7006398 83.6361571,32.2221487 C83.6361571,31.9719612 83.6269358,31.7239576 83.6162585,31.4764394 L83.6749835,31.4764394 C92.1388926,31.4764394 99,24.9167218 99,16.8253033 C99,8.73339951 92.1388926,2.17368189 83.6749835,2.17368189 L15.5616148,2.17368189 C7.09770571,2.17368189 0.236598279,8.73339951 0.236598279,16.8253033 C0.236598279,23.0705272 4.32550188,28.3992058 10.0807854,30.5082065" transform="rotate(-180 49.618 31.05)"/>
    <polygon fill="#64202B" points="212.047 193.265 251.533 193.265 251.533 177.032 212.047 177.032" transform="rotate(-180 231.79 185.148)"/>
    <polygon fill="#64202B" points="271.805 193.265 311.29 193.265 311.29 177.032 271.805 177.032" transform="rotate(-180 291.548 185.148)"/>
    <polygon fill="#64202B" points="238.348 248.093 282.226 248.093 282.226 211.022 238.348 211.022" transform="rotate(-180 260.287 229.557)"/>
    <path fill="#531623" d="M640.695477,177.698457 C640.695477,177.698457 633.031668,181.040711 628.08345,190.899092 C623.135683,200.756627 592.484507,265.927201 548.744205,265.927201 L548.744205,176.02733 L641.013393,176.02733 L640.695477,177.698457 Z" transform="rotate(-180 594.879 220.977)"/>
    <path fill="#471822" d="M636.06122,177.698457 C636.06122,177.698457 643.723675,181.040711 648.674599,190.899092 C653.621014,200.756627 684.273542,265.927201 728.013393,265.927201 L728.013393,176.02733 L635.741951,176.02733 L636.06122,177.698457 Z" transform="rotate(-180 681.878 220.977)"/>
    <polygon fill="#79383E" points="222.528 166.739 245.251 166.739 245.251 82.957 222.528 82.957" transform="rotate(-180 233.89 124.848)"/>
    <polygon fill="#79383E" points="255.759 156.882 278.481 156.882 278.481 103.12 255.759 103.12" transform="rotate(-180 267.12 130.001)"/>
    <path fill="#64202B" d="M221.551862,166.408583 L227.182658,166.408583 L249.904829,166.408583 L260.412705,166.408583 L283.135846,166.408583 L284.113058,166.408583 C291.02197,166.408583 296.623161,161.735762 296.623889,155.972171 L283.135846,155.972171 L260.412705,155.972171 L249.904829,155.972171 L227.182658,155.972171 L209.04006,155.972171 C209.040788,161.735762 214.643435,166.408583 221.551862,166.408583" transform="rotate(-180 252.832 161.19)"/>
    <path fill="#8D3840" d="M867.336753,48.0113391 C867.008912,49.4384514 866.829098,50.9213766 866.829098,52.4426428 C866.829098,63.7564086 876.421641,72.9272005 888.256409,72.9272005 C896.394419,72.9272005 903.473439,68.5885947 907.099824,62.1987426 C909.273373,63.3443636 911.772336,63.9978601 914.429517,63.9978601 C922.826693,63.9978601 929.633686,57.4908008 929.633686,49.4632032 C929.633686,49.3328921 929.62762,49.2033091 929.623252,49.074454 L930.461174,49.074454 C937.629009,49.074454 943.440106,43.5171851 943.440106,36.6645709 C943.440106,31.3769027 939.977763,26.8630929 935.101897,25.0778072 C935.432892,23.6494816 935.611493,22.1677697 935.611493,20.6452901 C935.611493,9.3327377 926.018465,0.161217737 914.183697,0.161217737 C906.044717,0.161217737 898.966424,4.49982352 895.339797,10.889433 C893.166248,9.74356938 890.668498,9.09055813 888.010104,9.09055813 C879.613413,9.09055813 872.806177,15.5976175 872.806177,23.6249724 C872.806177,23.7562541 872.812244,23.8851092 872.816854,24.0139643 L871.978932,24.0139643 C864.811096,24.0139643 859,29.5692919 859,36.4231193 C859,41.7122435 862.462343,46.2255681 867.336753,48.0113391" transform="rotate(-180 901.22 36.544)"/>
    <path fill="#8B343A" d="M267.818222,23.8920767 C267.670924,24.5555225 267.589874,25.2461468 267.589874,25.9530297 C267.589874,31.2159461 271.898632,35.4815097 277.213722,35.4815097 C280.869468,35.4815097 284.049107,33.4625377 285.677631,30.490378 C286.654357,31.0244835 287.775469,31.3273293 288.970351,31.3273293 C292.742091,31.3273293 295.797728,28.3010553 295.797728,24.5666851 C295.797728,24.5060189 295.795786,24.4463233 295.793845,24.3856571 L296.169733,24.3856571 C299.389411,24.3856571 302,21.8022465 302,18.6141151 C302,16.1539783 300.445003,14.0556549 298.254467,13.2240423 C298.403221,12.5605964 298.483543,11.8709428 298.483543,11.1633319 C298.483543,5.90090084 294.175028,1.6353372 288.859696,1.6353372 C285.203706,1.6353372 282.024311,3.65309586 280.395544,6.62574091 C279.418818,6.09236345 278.297948,5.78903232 277.103066,5.78903232 C273.331326,5.78903232 270.275447,8.81506365 270.275447,12.5496765 C270.275447,12.6101 270.276903,12.6700383 270.279572,12.7304618 L269.903684,12.7304618 C266.684006,12.7304618 264.073174,15.3141151 264.073174,18.5022465 C264.073174,20.9621406 265.628171,23.062648 267.818222,23.8920767" transform="rotate(-180 283.037 18.558)"/>
    <path fill="#8B343A" d="M247.583038,66.6086697 C253.702319,68.0804323 259.856301,64.312089 261.326365,58.1928082 C261.79301,56.2548863 261.729917,54.3128391 261.236822,52.5183321 C264.795502,52.865343 268.159081,50.5537171 269.01957,46.9758658 C269.959412,43.0633796 267.550962,39.1295389 263.637506,38.188727 C259.724777,37.2488859 255.790936,39.6578203 254.850124,43.5698212 C254.73316,44.0590337 254.667883,44.5482461 254.651624,45.0326053 C254.093252,44.798919 253.51668,44.5955658 252.909048,44.4489962 C246.79098,42.9782042 240.636998,46.7460621 239.166449,52.866071 C237.695172,58.9853518 241.463029,65.1381204 247.583038,66.6086697" transform="rotate(-180 254.035 52.456)"/>
    <path fill="#8B343A" d="M231,73.4272852 C231,70.3893592 233.462159,67.9272005 236.500085,67.9272005 C239.537334,67.9272005 242,70.3893592 242,73.4272852 C242,76.4645342 239.537334,78.9272005 236.500085,78.9272005 C233.462159,78.9272005 231,76.4645342 231,73.4272852" transform="rotate(-180 236.5 73.427)"/>
    <polygon fill="#3C1925" points="222.553 96.941 245.277 96.941 245.277 86.941 222.553 86.941" transform="rotate(-180 233.915 91.941)"/>
    <polygon fill="#3C1925" points="255.556 119.94 278.278 119.94 278.278 109.94 255.556 109.94" transform="rotate(-180 266.917 114.94)"/>
    <g transform="translate(758 163)">
      <polygon fill="#812D35" points="0 102.165 76.459 102.165 76.459 0 0 0"/>
      <polygon fill="#75282F" points="39 102.165 77.224 102.165 77.224 0 39 0"/>
      <polygon fill="#561825" points="10 61.911 69.496 61.911 69.496 47 10 47"/>
      <polygon fill="#561825" points="10 41.911 69.496 41.911 69.496 27 10 27"/>
      <polygon fill="#561825" points="10 21.911 69.496 21.911 69.496 7 10 7"/>
      <polygon fill="#561825" points="11 81.911 21.598 81.911 21.598 67 11 67"/>
      <polygon fill="#561825" points="26 81.911 36.598 81.911 36.598 67 26 67"/>
      <path fill="#561825" d="M24.41,101.476 L12,101.476 L12,92.205 C12,88.778 14.778,86 18.205,86 C21.632,86 24.41,88.778 24.41,92.205 L24.41,101.476 Z"/>
    </g>
    <g transform="translate(835 135)">
      <polygon fill="#8F373C" points="0 130.93 76.459 130.93 76.459 0 0 0"/>
      <polygon fill="#561825" points="10 79.342 69.496 79.342 69.496 60.233 10 60.233"/>
      <polygon fill="#561825" points="10 53.711 69.496 53.711 69.496 34.602 10 34.602"/>
      <polygon fill="#561825" points="10 28.08 69.496 28.08 69.496 8.971 10 8.971"/>
      <path fill="#561825" d="M46.41,130.83332 L34,130.83332 L34,118.952039 C34,114.560155 36.778,111 40.205,111 C43.632,111 46.41,114.560155 46.41,118.952039 L46.41,130.83332 Z"/>
    </g>
    <g transform="translate(671 228)">
      <path fill="#93413E" d="M81.3879,14.0237 C81.3879,21.2817 75.9919,27.1657 56.8679,27.1657 C37.7449,27.1657 22.2419,14.0237 22.2419,14.0237 C22.2419,14.0237 37.7449,0.8817 56.8679,0.8817 C75.9919,0.8817 81.3879,6.7657 81.3879,14.0237"/>
      <path fill="#93413E" d="M86.2965,30.6529 L5.2175,30.6529 C2.6225,30.6529 0.4985,28.5299 0.4985,25.9349 C0.4985,19.3389 5.8955,13.9419 12.4915,13.9419 L86.2965,13.9419 C88.8915,13.9419 91.0145,16.0659 91.0145,18.6609 L91.0145,25.9349 C91.0145,28.5299 88.8915,30.6529 86.2965,30.6529"/>
      <path fill="#32131D" d="M31.1831,29.2055 C31.1831,34.4375 26.9421,38.6785 21.7101,38.6785 C16.4781,38.6785 12.2361,34.4375 12.2361,29.2055 C12.2361,23.9735 16.4781,19.7325 21.7101,19.7325 C26.9421,19.7325 31.1831,23.9735 31.1831,29.2055"/>
      <path fill="#13062C" d="M26.6837,29.2055 C26.6837,31.9525 24.4567,34.1795 21.7097,34.1795 C18.9627,34.1795 16.7357,31.9525 16.7357,29.2055 C16.7357,26.4585 18.9627,24.2315 21.7097,24.2315 C24.4567,24.2315 26.6837,26.4585 26.6837,29.2055"/>
      <path fill="#32131D" d="M85.9175,29.2055 C85.9175,34.4375 81.6765,38.6785 76.4445,38.6785 C71.2125,38.6785 66.9705,34.4375 66.9705,29.2055 C66.9705,23.9735 71.2125,19.7325 76.4445,19.7325 C81.6765,19.7325 85.9175,23.9735 85.9175,29.2055"/>
      <path fill="#13062C" d="M81.4181,29.2055 C81.4181,31.9525 79.1911,34.1795 76.4441,34.1795 C73.6971,34.1795 71.4701,31.9525 71.4701,29.2055 C71.4701,26.4585 73.6971,24.2315 76.4441,24.2315 C79.1911,24.2315 81.4181,26.4585 81.4181,29.2055"/>
      <path fill="#32131D" d="M33.3489,13.1977 C33.3489,16.4877 42.8059,15.4317 54.4709,15.4317 C66.1359,15.4317 75.5929,16.4877 75.5929,13.1977 C75.5929,9.9077 70.1179,3.5177 58.4529,3.5177 C46.7879,3.5177 33.3489,9.9077 33.3489,13.1977"/>
    </g>
  </g>
</svg>
