<svg width="601" height="337" viewBox="0 0 601 337" xmlns="http://www.w3.org/2000/svg"><title>vinotinto-movil</title><g fill="none" fill-rule="evenodd"><path d="M431.618 204.543c10.044-4.64 18.98-24.99 18.98-24.99 14.47-8.35 17.418-16.95 17.418-16.95-2.58 5.382-15.85 13.548-15.85 13.548l1.29-3.796c9.985-6.95 12.92-13.31 13.765-16.08-2.11 5.324-13.58 13.69-13.58 13.69 1.752-2.04 2.304-12.123 2.304-12.123 9.768-6.493 9.676-13.298 9.676-13.298-1.014 4.577-10.597 11.196-10.597 11.196-1.66-1.732.523-7.125.523-7.125s-3.903.656-1.95 8.842c1.95 8.187-9.757 27.343-9.757 27.343-5.367-3.93-1.22-16.7-1.22-16.7-8.293 8.187-1.22 18.993-1.22 18.993-3.415 8.513-13.24 13.076-13.242 13.078-.212-3.882-.448-18.347 6.656-31.25 9.46-17.186 0-38.314 0-38.314 2.514 5.906 2.92 12.216 2.366 17.957-2.796-.72-4.483-6.145-4.483-6.145 0 3.91 3.325 7.3 4.247 8.164-1.368 10.023-5.368 17.845-5.368 17.845s-4.444 6.68-7.166 15.378c-1.768-1.75-5.74-6.553-5.908-14.504 6.508-4.835 7.1-9.07 7.1-9.07-.516 2.23-5.466 6.36-7.09 7.664.007-.162.01-.32.018-.482.62-11.513-.037-13.056-.037-13.056s-.14 6.824-1.2 12.818c-.48 2.712-.47 5.472.298 8.466-5.713-2.132-8.96-8.882-8.96-8.882.9 2.667 2.103 4.718 3.367 6.287-3.623-.413-7.522-2.193-7.522-2.193 3.15 2.16 7.25 3.196 8.702 3.512 2.077 2.09 4.11 3.02 5.06 3.368 1.022 2.818 2.714 5.864 5.28 9.277-1.29 5.295-1.748 11.084-.166 16.454.663 2.243 1.16 4.61 1.526 7.02-13.108-5.93-14.036-21.414-14.036-21.414-2.034-10.088-7.425-12.58-7.425-12.58 3.834 5.255 4.396 8.423 4.855 12.485-1.5-.433-4.108-1.735-6.447-5.66 0 0 .945 5.588 6.61 7.123.26 2.342.598 5.047 1.523 8.602 2.196 8.434 11.524 14.97 15.582 17.468.897 12.554-.967 24.45-.967 24.45h10.733c.217-7.052-.32-13.425-1.18-18.9 1.6-1.388 5.815-5.445 8.802-11.948 5.105-.92 8.578-4.305 8.578-4.305-2.032 1.898-6.382 2.52-7.88 2.68 1.01-2.513 1.812-5.348 2.222-8.496 0 0-3.478 13.616-12.516 17.667-.353-1.726-.73-3.336-1.113-4.82.26.326.185.16-.088-.335-.214-.814-.43-1.59-.643-2.324-.216-2.5.13-5.635.13-5.635" fill="#AF4E4C"/><path fill="#813E40" d="M143.53 226.344H.45v109.498h150.744V226.344"/><path d="M126.212 334.29s10.662-4.44 17.548-17.546c6.886-13.104 49.534-99.726 110.395-99.726v119.494H125.77l.442-2.22z" fill="#531724"/><path d="M381.02 334.29s-10.663-4.44-17.55-17.546c-6.884-13.104-49.532-99.726-110.395-99.726v119.494h128.388l-.444-2.22z" fill="#471822"/><path fill="#502836" d="M260.666 218.266l-16.66.292.84-33.15 12.703.29"/><path d="M250.905 85.305s78.915 85.154 2.047 107.16l-2.047-107.16z" fill="#7B3035"/><path d="M251.982 85.212s-75.716 88.03 1.873 107.334l-1.873-107.334z" fill="#8B343A"/><path d="M253.736 262.62v10.4c24.208 5.955 56.8 19.287 59.424 58.115l19.446.49c-3.108-46-50.138-62.712-78.87-69.006" fill="#5C3342"/><path d="M240.497 258.935c-3.16-.626-5.887-1.165-7.852-1.657-12.6-3.15-15.725-25.666-16.06-28.556-1.686.994-4.122 3.26-5.097 4.01.618 7.71 3.84 30.347 23.037 35.146 2.252.563 5.114 1.128 8.43 1.783 3.276.65 6.923 1.41 10.782 2.36v-10.4c-5.04-1.105-9.565-1.96-13.24-2.685" fill="#5C3342"/><path d="M226.09 31.052c.42-1.78.65-3.625.65-5.522 0-14.1-12.29-25.53-27.454-25.53-10.428 0-19.498 5.408-24.147 13.372-2.786-1.43-5.986-2.244-9.392-2.244-10.758 0-19.48 8.11-19.48 18.115 0 .264.008.526.022.787h-.064c-9.185 0-16.63 6.923-16.63 15.464 0 8.54 7.445 15.465 16.63 15.465h73.916c9.183 0 16.63-6.925 16.63-15.466 0-6.59-4.437-12.216-10.683-14.442" fill="#8B343A"/><path d="M174.008 42.78c-.347-1.462-.536-2.98-.536-4.537 0-11.58 10.095-20.965 22.546-20.965 8.565 0 16.013 4.44 19.83 10.98 2.287-1.172 4.915-1.84 7.713-1.84 8.836 0 15.998 6.66 15.998 14.875 0 .217-.007.432-.018.646h.052c7.543 0 13.658 5.685 13.658 12.7 0 7.013-6.115 12.698-13.658 12.698h-60.7c-7.542 0-13.658-5.685-13.658-12.7 0-5.412 3.644-10.03 8.774-11.86" fill="#6D2B31"/><path d="M587.665 54.973c.436-1.89.674-3.85.674-5.865C588.34 34.136 575.64 22 559.98 22c-10.77 0-20.137 5.742-24.94 14.2-2.875-1.52-6.18-2.383-9.7-2.383-11.11 0-20.118 8.612-20.118 19.234 0 .28.008.56.022.837h-.066c-9.487 0-17.178 7.352-17.178 16.42 0 9.07 7.69 16.422 17.178 16.422h76.344c9.486 0 17.178-7.354 17.178-16.423 0-6.998-4.583-12.97-11.035-15.334" fill="#8D3840"/><path fill="#64202B" d="M62.133 239.845H19.49v17.53h42.643M126.668 239.845H84.026v17.53h42.642M95.28 276.55H47.894v40.032H95.28"/><path d="M335.01 334.037s8.277-3.61 13.62-14.255c5.344-10.645 38.446-81.022 85.684-81.022v97.082h-99.647l.343-1.805z" fill="#531724"/><path d="M527.925 334.037s-8.275-3.61-13.622-14.255c-5.342-10.645-38.445-81.022-85.682-81.022v97.082h99.65l-.345-1.805z" fill="#471822"/><path fill="#79383E" d="M55.35 138.256H30.81v90.474h24.54M91.236 160.03h-24.54v58.056h24.54"/><path d="M97.317 217.103H29.753c-7.462 0-13.51 5.046-13.51 11.27h94.585c0-6.224-6.052-11.27-13.513-11.27" fill="#64202B"/><path d="M399.188 26.906c.355-1.54.55-3.142.55-4.785 0-12.217-10.36-22.12-23.142-22.12-8.79 0-16.434 4.685-20.35 11.585-2.347-1.237-5.046-1.942-7.916-1.942-9.068 0-16.42 7.026-16.42 15.695 0 .14.007.28.012.42h-.905c-7.74 0-14.017 6-14.017 13.4 0 5.71 3.74 10.586 9.005 12.514-.358 1.542-.55 3.142-.55 4.786 0 12.216 10.36 22.12 23.14 22.12 8.79 0 16.435-4.685 20.35-11.585 2.35 1.238 5.046 1.943 7.917 1.943 9.068 0 16.42-7.027 16.42-15.695 0-.14-.007-.28-.012-.42h.905c7.74 0 14.017-6 14.017-13.4 0-5.712-3.74-10.585-9.004-12.514" fill="#8D3840"/><path d="M112.59 62.953c.16-.717.248-1.462.248-2.226 0-5.683-4.654-10.29-10.394-10.29-3.948 0-7.382 2.18-9.14 5.39-1.055-.576-2.266-.903-3.556-.903-4.074 0-7.374 3.268-7.374 7.3 0 .066.002.13.005.196h-.407c-3.478 0-6.297 2.79-6.297 6.232 0 2.657 1.68 4.923 4.045 5.82-.16.717-.246 1.462-.246 2.226 0 5.683 4.653 10.29 10.393 10.29 3.948 0 7.382-2.18 9.14-5.39 1.056.576 2.266.904 3.557.904 4.073 0 7.373-3.268 7.373-7.3 0-.066 0-.13-.004-.196h.406c3.476 0 6.296-2.79 6.296-6.233 0-2.656-1.68-4.925-4.045-5.82M71.804 90.035c-6.608-1.59-13.254 2.48-14.842 9.09-.504 2.09-.436 4.188.097 6.126-3.845-.373-7.477 2.123-8.406 5.987-1.015 4.225 1.586 8.473 5.812 9.49 4.226 1.013 8.474-1.588 9.49-5.812.126-.53.197-1.057.214-1.58.603.252 1.226.472 1.882.63 6.608 1.59 13.254-2.48 14.842-9.09 1.59-6.607-2.48-13.252-9.09-14.84M51.838 127.964c0 3.28-2.66 5.94-5.94 5.94-3.28 0-5.94-2.66-5.94-5.94 0-3.28 2.66-5.94 5.94-5.94 3.28 0 5.94 2.66 5.94 5.94" fill="#8B343A"/><path fill="#3C1926" d="M55.377 142.558h-24.54v10.8h24.54M91.017 167.394h-24.54v10.798h24.54"/><path fill="#8F373C" d="M518 336.39h82.573V195H518"/><path fill="#561926" d="M528.8 280.68h64.253v-20.635H528.8M528.8 253.002h64.253v-20.636H528.8M528.8 225.323h64.253v-20.636H528.8M568.12 336.285h-13.4v-12.83c0-4.744 3-8.588 6.7-8.588s6.7 3.844 6.7 8.587v12.83z"/><g><path d="M524.593 310.03c0 7.836-5.827 14.19-26.48 14.19-20.652 0-37.395-14.19-37.395-14.19s16.743-14.193 37.395-14.193c20.653 0 26.48 6.354 26.48 14.192" fill="#93413F"/><path d="M529.894 327.986h-87.56c-2.804 0-5.098-2.292-5.098-5.095 0-7.122 5.83-12.95 12.952-12.95h79.706c2.803 0 5.096 2.294 5.096 5.096v7.855c0 2.804-2.293 5.096-5.096 5.096" fill="#93413F"/><path d="M470.374 326.423c0 5.65-4.58 10.23-10.23 10.23s-10.232-4.58-10.232-10.23 4.58-10.23 10.232-10.23c5.65 0 10.23 4.58 10.23 10.23" fill="#33131E"/><path d="M465.515 326.423c0 2.967-2.405 5.37-5.372 5.37-2.966 0-5.37-2.403-5.37-5.37 0-2.966 2.404-5.37 5.37-5.37 2.967 0 5.372 2.404 5.372 5.37" fill="#13062C"/><path d="M529.485 326.423c0 5.65-4.58 10.23-10.23 10.23s-10.232-4.58-10.232-10.23 4.58-10.23 10.232-10.23c5.65 0 10.23 4.58 10.23 10.23" fill="#33131E"/><path d="M524.626 326.423c0 2.967-2.405 5.37-5.372 5.37-2.966 0-5.37-2.403-5.37-5.37 0-2.966 2.404-5.37 5.37-5.37 2.967 0 5.372 2.404 5.372 5.37" fill="#13062C"/><path d="M472.713 309.137c0 3.552 10.213 2.412 22.81 2.412 12.6 0 22.812 1.14 22.812-2.413s-5.913-10.454-18.51-10.454c-12.598 0-27.112 6.9-27.112 10.454" fill="#33131E"/></g></g></svg>