<svg xmlns="http://www.w3.org/2000/svg" width="601" height="337" viewBox="0 0 601 337">
  <g fill="none" fill-rule="evenodd">
    <path fill="#AF4E4C" d="M438.221097,167.018959 C428.176816,171.658543 419.239248,192.007987 419.239248,192.007987 C404.771784,200.359763 401.822994,208.958913 401.822994,208.958913 C404.403578,203.577205 417.672606,195.41096 417.672606,195.41096 L416.382183,199.207532 C406.397654,206.158129 403.463016,212.517544 402.617322,215.287668 C404.729853,209.963348 416.198211,201.597422 416.198211,201.597422 C414.447073,203.638263 413.894895,213.72035 413.894895,213.72035 C404.126834,220.214458 404.21882,227.020142 404.21882,227.020142 C405.232499,222.442402 414.815278,215.823559 414.815278,215.823559 C416.474169,217.556229 414.29219,222.948681 414.29219,222.948681 C414.29219,222.948681 418.195169,222.29251 416.243811,214.106873 C414.29219,205.919927 426.000079,186.763331 426.000079,186.763331 C431.365922,190.693023 427.219219,203.464 427.219219,203.464 C435.511838,195.276529 428.43836,184.470923 428.43836,184.470923 C431.85363,175.959297 441.67725,171.395445 441.680394,171.394135 C441.892932,175.276135 442.128269,189.740998 435.024391,202.645095 C425.56426,219.830032 435.024391,240.957763 435.024391,240.957763 C432.510373,235.051956 432.106002,228.741807 432.658179,223.001091 L432.658179,223.001877 C435.454969,223.721989 437.141901,229.147197 437.141901,229.147197 C437.141901,225.23742 433.816258,221.845977 432.895088,220.983049 C434.262297,210.958612 438.263028,203.136438 438.263028,203.136438 C438.263028,203.136438 442.706915,196.456537 445.428229,187.758857 C447.196926,189.50856 451.168567,194.311925 451.337077,202.262765 C444.828355,207.097052 444.236606,211.331246 444.236606,211.331246 C444.75288,209.101992 449.702821,204.972618 451.325284,203.667874 C451.319518,203.829559 451.317422,203.987312 451.308773,204.150045 C450.689507,215.662398 451.345725,217.205607 451.345725,217.205607 C451.345725,217.205607 451.485931,210.382103 452.546521,204.387724 C453.025581,201.676299 453.014836,198.916133 452.247763,195.921957 C457.96137,198.05399 461.208131,204.803858 461.208131,204.803858 C460.308713,202.136982 459.105297,200.086183 457.841867,198.516508 C461.464433,198.929497 465.363219,200.709599 465.363219,200.709599 C462.214734,198.548478 458.112845,197.514169 456.661775,197.197875 C454.584624,195.108031 452.550714,194.179066 451.601241,193.829492 C450.579438,191.011413 448.887265,187.966138 446.321095,184.553207 C447.611256,179.256927 448.069875,173.468256 446.487508,168.097816 C445.825786,165.854673 445.32943,163.487319 444.962534,161.077513 C458.070914,167.008215 458.998373,182.491926 458.998373,182.491926 C461.032545,192.579517 466.423808,195.071869 466.423808,195.071869 C462.590015,189.816468 462.027617,186.648815 461.568474,182.58705 C463.067765,183.019432 465.676914,184.321555 468.015609,188.247579 C468.015609,188.247579 467.070854,182.658328 461.406516,181.123504 C461.146282,178.782093 460.807953,176.076433 459.882328,172.522258 C457.686198,164.087936 448.358674,157.551639 444.300551,155.053784 C443.403492,142.500047 445.267581,130.604053 445.267581,130.604053 L434.535634,130.604053 C434.318904,137.655802 434.854309,144.028581 435.715202,149.504102 C434.114229,150.891654 429.900175,154.949226 426.913648,161.452244 C421.808563,162.372823 418.3359,165.756929 418.3359,165.756929 C420.367451,163.858381 424.71778,163.237848 426.214189,163.076426 C425.206799,165.590003 424.403299,168.424854 423.993948,171.573115 C423.993948,171.573115 427.471329,157.955457 436.510055,153.905222 C436.861226,155.631079 437.23808,157.24111 437.622009,158.724834 L437.620437,158.724834 C437.360989,158.398844 437.436203,158.563936 437.709278,159.060257 C437.922339,159.87392 438.138021,160.649587 438.351869,161.383325 C438.568075,163.883276 438.221097,167.018959 438.221097,167.018959" transform="rotate(-180 434.92 185.78)"/>
    <polygon fill="#813E40" points="8.112 335.842 25.392 335.842 49.084 335.842 78.755 335.842 92.477 335.842 122.151 335.842 139.764 335.842 151.194 335.842 151.194 226.344 .449 226.344 .449 335.842" transform="rotate(-180 75.821 281.093)"/>
    <path fill="#531623" d="M253.711763,219.239475 C253.711763,219.239475 243.049788,223.681474 236.163951,236.786039 C229.278376,249.889818 186.630214,336.512336 125.768586,336.512336 L125.768586,217.017821 L254.155444,217.017821 L253.711763,219.239475 Z" transform="rotate(-180 189.962 276.765)"/>
    <path fill="#471822" d="M253.518905,219.239475 C253.518905,219.239475 264.181142,223.681474 271.066717,236.786039 C277.952292,249.889818 320.600455,336.512336 381.462606,336.512336 L381.462606,217.017821 L253.075486,217.017821 L253.518905,219.239475 Z" transform="rotate(-180 317.269 276.765)"/>
    <polygon fill="#502736" points="244.007 185.699 260.666 185.407 259.828 218.558 247.125 218.266" transform="rotate(-180 252.337 201.983)"/>
    <path fill="#7B3035" d="M286.5928,192.466083 C286.5928,192.466083 207.678093,107.311828 284.545524,85.3051833 L286.5928,192.466083 Z" transform="rotate(-180 268.749 138.886)"/>
    <path fill="#8B343A" d="M220.751135,192.546427 C220.751135,192.546427 296.467301,104.51487 218.878397,85.2115268 L220.751135,192.546427 Z" transform="rotate(-180 236.367 138.879)"/>
    <path fill="#5B3341" d="M332.605828,331.62376 L332.605828,321.221185 C308.398343,315.267948 275.804944,301.9354 273.181905,263.108068 L253.736459,262.618821 C256.844585,308.617921 303.874001,325.329334 332.605828,331.62376" transform="rotate(-180 293.171 297.121)"/>
    <path fill="#5B3341" d="M224.728281,241.808649 C227.887773,242.434422 230.614591,242.972934 232.580363,243.465063 C245.178759,246.61411 248.304706,269.130965 248.638581,272.021369 C250.325775,271.027416 252.761959,268.759903 253.73659,268.010704 C253.11942,260.301211 249.896245,237.6646 230.699763,232.864903 C228.447551,232.302021 225.585506,231.736781 222.271394,231.082181 C218.994233,230.434395 215.347295,229.671832 211.488343,228.721903 L211.488343,239.124477 C216.528697,240.228491 221.052515,241.083034 224.728281,241.808649" transform="rotate(-180 232.612 250.372)"/>
    <path fill="#8B343A" d="M140.279109,29.9064619 C139.857235,31.6858455 139.626692,33.5321457 139.626692,35.4292956 C139.626692,49.5296478 151.919136,60.9588059 167.081378,60.9588059 C177.51006,60.9588059 186.580175,55.5509136 191.228598,47.5869451 C194.013259,49.0160313 197.214167,49.8303314 200.619658,49.8303314 C211.378179,49.8303314 220.099576,41.7198172 220.099576,31.7160374 C220.099576,31.4520785 220.091226,31.1902383 220.077974,30.9285746 L220.141328,30.9285746 C229.326715,30.9285746 236.772687,24.0054343 236.772687,15.4646404 C236.772687,6.9241997 229.326715,-1.56319402e-13 220.141328,-1.56319402e-13 L146.226193,-1.56319402e-13 C137.04244,-1.56319402e-13 129.595016,6.9241997 129.595016,15.4646404 C129.595016,22.0554926 134.03232,27.6809083 140.279109,29.9064619" transform="rotate(-180 183.184 30.48)"/>
    <path fill="#6D2B31" d="M244.475941,41.8377663 C244.822481,43.2989866 245.011634,44.815294 245.011634,46.3732698 C245.011634,57.952505 234.916967,67.3384972 222.465322,67.3384972 C213.901128,67.3384972 206.452615,62.8976304 202.635415,56.3576279 C200.348507,57.5310534 197.720144,58.1996906 194.922957,58.1996906 C186.087741,58.1996906 178.926043,51.5392733 178.926043,43.3238817 C178.926043,43.106888 178.93276,42.8920131 178.943833,42.6773147 L178.891553,42.6773147 C171.348462,42.6773147 165.233645,36.9918682 165.233645,29.9779754 C165.233645,22.9640827 171.348462,17.2781065 178.891553,17.2781065 L239.592074,17.2781065 C247.134076,17.2781065 253.249982,22.9640827 253.249982,29.9779754 C253.249982,35.3906349 249.605961,40.010005 244.475941,41.8377663" transform="rotate(-180 209.242 42.308)"/>
    <path fill="#8D3840" d="M499.03516,53.7559296 C498.599341,55.6453056 498.361383,57.605959 498.361383,59.6205946 C498.361383,74.5925237 511.058054,86.7288164 526.718453,86.7288164 C537.48971,86.7288164 546.857331,80.9865284 551.658941,72.5301951 C554.535138,74.047723 557.841126,74.9122239 561.358865,74.9122239 C572.470549,74.9122239 581.47835,66.3002332 581.47835,55.6775376 C581.47835,55.3974069 581.469702,55.1193725 581.456337,54.8416001 L581.521854,54.8416001 C591.008454,54.8416001 598.699888,47.4900669 598.699888,38.4215862 C598.699888,29.3525814 591.008454,22 581.521854,22 L505.178034,22 C495.691958,22 488,29.3525814 488,38.4215862 C488,45.4196148 492.583045,51.3930303 499.03516,53.7559296" transform="rotate(-180 543.35 54.364)"/>
    <polygon fill="#64202B" points="19.49 257.375 62.133 257.375 62.133 239.845 19.49 239.845" transform="rotate(-180 40.812 248.61)"/>
    <polygon fill="#64202B" points="84.026 257.375 126.668 257.375 126.668 239.845 84.026 239.845" transform="rotate(-180 105.347 248.61)"/>
    <polygon fill="#64202B" points="47.894 316.582 95.28 316.582 95.28 276.55 47.894 276.55" transform="rotate(-180 71.587 296.566)"/>
    <path fill="#531623" d="M433.970193,240.564902 C433.970193,240.564902 425.693598,244.174141 420.349728,254.820026 C415.006345,265.464997 381.904348,335.841504 334.666639,335.841504 L334.666639,238.760282 L434.313529,238.760282 L433.970193,240.564902 Z" transform="rotate(-180 384.49 287.3)"/>
    <path fill="#471822" d="M428.965388,240.564902 C428.965388,240.564902 437.240521,244.174141 442.587314,254.820026 C447.929236,265.464997 481.032693,335.841504 528.269916,335.841504 L528.269916,238.760282 L428.62059,238.760282 L428.965388,240.564902 Z" transform="rotate(-180 478.445 287.3)"/>
    <polygon fill="#79383E" points="30.809 228.73 55.349 228.73 55.349 138.256 30.809 138.256" transform="rotate(-180 43.08 183.493)"/>
    <polygon fill="#79383E" points="66.697 218.086 91.236 218.086 91.236 160.029 66.697 160.029" transform="rotate(-180 78.967 189.057)"/>
    <path fill="#64202B" d="M29.7548664,228.373174 L35.8358926,228.373174 L60.3748932,228.373174 L71.7229624,228.373174 L96.2630113,228.373174 L97.3183592,228.373174 C104.779698,228.373174 110.828752,223.32708 110.829538,217.103084 L96.2630113,217.103084 L71.7229624,217.103084 L60.3748932,217.103084 L35.8358926,217.103084 L16.2426396,217.103084 C16.2434258,223.32708 22.2940521,228.373174 29.7548664,228.373174" transform="rotate(-180 63.536 222.738)"/>
    <path fill="#8D3840" d="M326.003347,51.6724683 C325.649293,53.2135807 325.4551,54.8149644 325.4551,56.457752 C325.4551,68.67528 335.814649,78.5786501 348.595706,78.5786501 C357.384419,78.5786501 365.029467,73.8934693 368.945811,66.9931851 C371.293155,68.2303202 373.991931,68.9360192 376.861576,68.9360192 C385.930177,68.9360192 393.281447,61.9091651 393.281447,53.2403097 C393.281447,53.0995892 393.274896,52.9596548 393.270178,52.8205066 L394.175099,52.8205066 C401.916064,52.8205066 408.191807,46.8193139 408.191807,39.4193015 C408.191807,33.7092456 404.452621,28.8348652 399.186888,26.9069679 C399.544349,25.3645453 399.737231,23.7644718 399.737231,22.120374 C399.737231,9.90415617 389.377158,-1.42108547e-13 376.596101,-1.42108547e-13 C367.80634,-1.42108547e-13 360.162078,4.6851808 356.245471,11.5852029 C353.898128,10.3478058 351.200662,9.6426309 348.329707,9.6426309 C339.26163,9.6426309 331.910098,16.6694849 331.910098,25.3380783 C331.910098,25.479847 331.916649,25.6189952 331.921629,25.7581434 L331.016708,25.7581434 C323.275743,25.7581434 317,31.7572398 317,39.1585624 C317,44.8701906 320.739186,49.7440469 326.003347,51.6724683" transform="rotate(-180 362.596 39.29)"/>
    <path fill="#8B343A" d="M79.7206135,74.472213 C79.5615382,75.188656 79.4740075,75.9344485 79.4740075,76.6977983 C79.4740075,82.3811252 84.1272872,86.9874291 89.8673629,86.9874291 C93.8154175,86.9874291 97.2492947,84.8071783 99.0080332,81.5975976 C100.062857,82.1743682 101.273611,82.5014059 102.564034,82.5014059 C106.637357,82.5014059 109.937318,79.2333881 109.937318,75.2007102 C109.937318,75.1351979 109.935221,75.0707337 109.933125,75.0052214 L110.339068,75.0052214 C113.816186,75.0052214 116.635514,72.2154437 116.635514,68.772639 C116.635514,66.1159825 114.956182,63.8500415 112.590494,62.9519983 C112.751142,62.2355553 112.837886,61.490811 112.837886,60.726675 C112.837886,55.0438722 108.184869,50.4375683 102.444531,50.4375683 C98.4962143,50.4375683 95.0625992,52.6165088 93.3035987,55.8266137 C92.2487749,55.2506292 91.0382828,54.9230675 89.7478599,54.9230675 C85.6745367,54.9230675 82.3743142,58.1908232 82.3743142,62.2237631 C82.3743142,62.2890134 82.3758866,62.3537396 82.3787694,62.4189899 L81.972826,62.4189899 C78.4957076,62.4189899 75.6761178,65.2090296 75.6761178,68.6518343 C75.6761178,71.3082288 77.3554497,73.5765282 79.7206135,74.472213" transform="rotate(-180 96.156 68.712)"/>
    <path fill="#8B343A" d="M57.8674557,120.601078 C64.4760248,122.190408 71.1220696,118.121043 72.7096777,111.512944 C73.2136345,109.420217 73.1454968,107.323036 72.6129746,105.385181 C76.456202,105.759912 80.0887268,103.263629 81.0180199,99.3999734 C82.0330094,95.1749513 79.4319843,90.9268689 75.2056134,89.9109034 C70.9800288,88.8959862 66.7316442,91.4973504 65.7156065,95.7218484 C65.5892897,96.2501399 65.5187934,96.7784315 65.5012349,97.301482 C64.8982164,97.0491285 64.2755428,96.8295311 63.6193245,96.6712533 C57.0120657,95.082972 50.3660208,99.1518127 48.7778887,105.760698 C47.1889703,112.368797 51.2581003,119.013059 57.8674557,120.601078" transform="rotate(-180 64.836 105.318)"/>
    <path fill="#8B343A" d="M39.9584631,127.964376 C39.9584631,124.683775 42.6174922,122.024935 45.8983261,122.024935 C49.1784289,122.024935 51.8380062,124.683775 51.8380062,127.964376 C51.8380062,131.244245 49.1784289,133.903634 45.8983261,133.903634 C42.6174922,133.903634 39.9584631,131.244245 39.9584631,127.964376" transform="rotate(-180 45.898 127.964)"/>
    <polygon fill="#3C1925" points="30.836 153.357 55.377 153.357 55.377 142.558 30.836 142.558" transform="rotate(-180 43.106 147.957)"/>
    <polygon fill="#3C1925" points="66.478 178.192 91.017 178.192 91.017 167.394 66.478 167.394" transform="rotate(-180 78.747 172.793)"/>
    <g transform="translate(518 195)">
      <polygon fill="#8F373C" points="0 141.389 82.573 141.389 82.573 0 0 0"/>
      <polygon fill="#561825" points="10.8 85.68 75.053 85.68 75.053 65.045 10.8 65.045"/>
      <polygon fill="#561825" points="10.8 58.002 75.053 58.002 75.053 37.366 10.8 37.366"/>
      <polygon fill="#561825" points="10.8 30.323 75.053 30.323 75.053 9.687 10.8 9.687"/>
      <path fill="#561825" d="M50.1208723,141.284503 L36.7185877,141.284503 L36.7185877,128.454125 C36.7185877,123.71141 39.7187124,119.866864 43.41973,119.866864 C47.1207477,119.866864 50.1208723,123.71141 50.1208723,128.454125 L50.1208723,141.284503 Z"/>
    </g>
    <g transform="translate(436.698 294.885)">
      <path fill="#93413E" d="M87.8955514,15.1439364 C87.8955514,22.9817175 82.0680955,29.3357411 61.4149699,29.3357411 C40.7629242,29.3357411 24.0203281,15.1439364 24.0203281,15.1439364 C24.0203281,15.1439364 40.7629242,0.952131657 61.4149699,0.952131657 C82.0680955,0.952131657 87.8955514,7.30615533 87.8955514,15.1439364"/>
      <path fill="#93413E" d="M93.1966355,33.1015044 L5.63468328,33.1015044 C2.83219107,33.1015044 0.538359294,30.8089157 0.538359294,28.0066228 C0.538359294,20.8837234 6.36689512,15.0556021 13.4903011,15.0556021 L93.1966355,15.0556021 C95.9991277,15.0556021 98.2918795,17.3492707 98.2918795,20.1515636 L98.2918795,28.0066228 C98.2918795,30.8089157 95.9991277,33.1015044 93.1966355,33.1015044"/>
      <path fill="#32131D" d="M33.6764528,31.5384837 C33.6764528,37.1884246 29.0963489,41.7682027 23.4460062,41.7682027 C17.7956636,41.7682027 13.2144798,37.1884246 13.2144798,31.5384837 C13.2144798,25.8885429 17.7956636,21.3087648 23.4460062,21.3087648 C29.0963489,21.3087648 33.6764528,25.8885429 33.6764528,31.5384837"/>
      <path fill="#13062C" d="M28.8172876,31.5384837 C28.8172876,34.5049186 26.4122201,36.9098151 23.4455742,36.9098151 C20.4789283,36.9098151 18.0738609,34.5049186 18.0738609,31.5384837 C18.0738609,28.5720488 20.4789283,26.1671524 23.4455742,26.1671524 C26.4122201,26.1671524 28.8172876,28.5720488 28.8172876,31.5384837"/>
      <path fill="#32131D" d="M92.7873313,31.5384837 C92.7873313,37.1884246 88.2072274,41.7682027 82.5568847,41.7682027 C76.9065421,41.7682027 72.3253583,37.1884246 72.3253583,31.5384837 C72.3253583,25.8885429 76.9065421,21.3087648 82.5568847,21.3087648 C88.2072274,21.3087648 92.7873313,25.8885429 92.7873313,31.5384837"/>
      <path fill="#13062C" d="M87.9281661,31.5384837 C87.9281661,34.5049186 85.5230987,36.9098151 82.5564528,36.9098151 C79.5898069,36.9098151 77.1847394,34.5049186 77.1847394,31.5384837 C77.1847394,28.5720488 79.5898069,26.1671524 82.5564528,26.1671524 C85.5230987,26.1671524 87.9281661,28.5720488 87.9281661,31.5384837"/>
      <path fill="#32131D" d="M36.0154268,14.2519541 C36.0154268,17.8047648 46.228594,16.6644098 58.8263094,16.6644098 C71.4240249,16.6644098 81.6371921,17.8047648 81.6371921,14.2519541 C81.6371921,10.6991435 75.7244195,3.7986997 63.126704,3.7986997 C50.5289886,3.7986997 36.0154268,10.6991435 36.0154268,14.2519541"/>
    </g>
  </g>
</svg>
