<svg width="600" height="338" viewBox="0 0 600 338" xmlns="http://www.w3.org/2000/svg"><title>unhealthy-movil</title><g fill="none" fill-rule="evenodd"><path d="M482.183 314.453c0 1.134-.92 2.055-2.058 2.055h-23.35c-1.136 0-2.06-.92-2.06-2.055V294.27c0-1.132.924-2.053 2.06-2.053h23.35c1.138 0 2.058.92 2.058 2.054v20.183z" fill="#4A0E23"/><path d="M456.752 293.998c-.138 0-.25.11-.25.25v20.18c0 .14.112.252.25.252h23.35c.137 0 .25-.113.25-.25v-20.183c0-.14-.113-.25-.25-.25h-23.35zm23.35 24.287h-23.35c-2.132 0-3.867-1.73-3.867-3.856v-20.183c0-2.126 1.735-3.856 3.867-3.856h23.35c2.132 0 3.866 1.73 3.866 3.857v20.182c0 2.125-1.734 3.855-3.867 3.855z" fill="#3A1521"/><path d="M475.446 304.078c0 4.197-3.412 7.598-7.622 7.598-4.207 0-7.618-3.404-7.618-7.598 0-4.197 3.41-7.6 7.618-7.6 4.21 0 7.622 3.403 7.622 7.6" fill="#552435"/><path d="M466.964 302.5c.054.095.167.13.266.086.585-.273 1.32-.243 1.89.09.03.018.065.025.102.027.02 0 .037-.002.052-.007.056-.015.1-.047.13-.095l1.843-3.18c.058-.1.023-.224-.072-.283-1.808-1.07-4.155-1.11-5.982-.11-.046.028-.083.073-.098.127-.015.054-.008.11.02.157l1.85 3.19zM467.033 306.4c-.636-.364-1.033-1.047-1.033-1.803 0-.117-.093-.206-.206-.206h-3.55c-.055 0-.11.022-.148.06-.04.043-.06.094-.06.15.05 2.114 1.23 4.07 3.087 5.11.032.018.067.026.1.026.072 0 .142-.035.18-.102l1.707-2.95c.03-.048.037-.104.022-.158-.015-.052-.052-.098-.1-.126M473.603 304.45c-.04-.038-.093-.06-.15-.06h-3.546c-.113 0-.204.115-.204.23 0 .66-.324 1.29-.87 1.674-.084.06-.112.18-.058.27l1.708 2.956c.027.05.074.084.13.097.015.006.033.01.048.01.042 0 .08-.014.11-.032 1.764-1.077 2.846-2.943 2.89-4.994.002-.056-.02-.108-.057-.15" fill="#3F0F20"/><path d="M467.813 303.174c-.83 0-1.506.674-1.506 1.505 0 .83.676 1.505 1.506 1.505.833 0 1.512-.674 1.512-1.506 0-.83-.68-1.506-1.512-1.506" fill="#3F0F20"/><path d="M454.04 303.778c-1.284-9.967-9.684-17.387-19.854-17.387-7.936 0-15.204 4.798-18.358 12.027-1.364-.407-2.76-.613-4.157-.613-8.052 0-14.604 6.533-14.604 14.565 0 1.178.15 2.355.44 3.51-3.563-.307-6.58 2.56-6.58 6.077 0 3.366 2.745 6.102 6.118 6.102 2.295 0 18.38-.084 32.507-.16 11.055-.06 20.91-.11 22.013-.11 6.356 0 13.078-6.553 13.078-12.75 0-5.953-4.638-10.842-10.6-11.262" fill="#49222F"/><path fill="#4A0E23" d="M395.246 269.957L357.1 328.22h77.495"/><path d="M427.932 320.64h-65.594l32.797-50.36 32.797 50.36zm10.506 1.525l-39.957-61.353c-.738-1.136-1.99-1.812-3.345-1.812-1.36 0-2.612.678-3.345 1.812l-40.147 61.638c-.795 1.224-.858 2.783-.16 4.07.698 1.28 2.044 2.08 3.505 2.08h80.316c2.2 0 3.992-1.787 3.992-3.98 0-.928-.328-1.83-.858-2.455z" fill="#380C1B"/><path d="M455.645 285.65c.76.844.69 2.14-.153 2.897l-17.37 15.563c-.844.758-2.144.687-2.907-.155l-13.527-15.013c-.76-.845-.69-2.14.153-2.898l17.374-15.562c.843-.757 2.145-.688 2.904.155l13.527 15.012z" fill="#4A0E23"/><path d="M440.564 271.693l-17.537 15.625c-.102.09-.11.25-.018.355l13.528 15.01c.14.155.268.097.353.02l17.37-15.56c.103-.094.11-.252.016-.356l-13.525-15.01c-.063-.07-.135-.084-.186-.084m-3.84 34.68c-1.097 0-2.145-.467-2.877-1.28L420.32 290.08c-1.425-1.58-1.295-4.02.29-5.442l17.372-15.562c1.52-1.37 4.088-1.233 5.46.29l13.525 15.012c1.425 1.58 1.294 4.023-.29 5.445l-17.37 15.56c-.71.638-1.628.99-2.583.99" fill="#3A1521"/><path d="M409.097 301.973c0 7.934-6.452 14.365-14.41 14.365-7.956 0-14.403-6.43-14.403-14.365 0-7.934 6.447-14.364 14.404-14.364s14.41 6.43 14.41 14.363" fill="#60273B"/><path d="M392.978 298.586c.107.176.322.245.505.162 1.108-.517 2.498-.455 3.57.17.064.034.13.054.198.054.034 0 .07-.007.103-.015.1-.026.187-.092.24-.182l3.486-6.016c.107-.187.043-.422-.14-.532-3.417-2.027-7.852-2.1-11.3-.206-.094.05-.163.137-.19.238-.027.1-.016.21.038.298l3.49 6.028zM392.78 305.41c-1.205-.69-1.954-1.978-1.954-3.41 0-.217-.177-.39-.393-.39h-6.705c-.108 0-.207.04-.283.116-.073.076-.112.174-.11.282.09 3.99 2.325 7.693 5.834 9.657.06.037.126.05.19.05.135 0 .267-.07.34-.193l3.224-5.58c.054-.088.066-.195.04-.294-.028-.102-.094-.187-.185-.237M405.653 301.61h-6.703c-.216 0-.393.22-.393.437 0 1.253-.61 2.432-1.637 3.16-.163.118-.212.343-.11.515l3.227 5.59c.054.09.14.156.244.182.032.01.066.01.1.01.072 0 .14-.018.202-.057 3.334-2.03 5.377-5.56 5.462-9.437.002-.108-.037-.208-.113-.282-.07-.077-.17-.12-.277-.12zM394.728 299.174c-1.575 0-2.852 1.273-2.852 2.846 0 1.568 1.277 2.842 2.852 2.842 1.577 0 2.854-1.274 2.854-2.842 0-1.573-1.277-2.846-2.854-2.846" fill="#3F0F20"/><path d="M443.934 292.667c-2.98 2.968-7.803 2.968-10.78 0-2.976-2.968-2.976-7.778.002-10.746 2.977-2.966 7.8-2.966 10.776 0 2.977 2.97 2.977 7.78.002 10.747" fill="#552435"/><path d="M438.86 285.233c-.03.104.027.21.128.25.61.216 1.106.758 1.273 1.393.01.033.03.067.05.095.016.012.03.023.046.032.05.028.103.034.158.02l3.56-.948c.108-.03.177-.14.147-.252-.515-2.033-2.146-3.713-4.15-4.292-.053-.015-.107-.01-.16.018-.047.028-.08.075-.096.127l-.953 3.558zM436.675 288.208c-.193-.707.012-1.47.546-2.007.083-.08.083-.207 0-.29l-2.51-2.503c-.034-.035-.09-.06-.144-.06-.058 0-.108.027-.15.066-1.464 1.528-2.013 3.744-1.442 5.788.013.036.028.066.054.09.05.05.127.074.2.054l3.298-.882c.054-.015.1-.048.127-.096.03-.05.035-.104.022-.158M442.83 291.526c0-.054-.022-.107-.063-.148l-2.508-2.5c-.082-.08-.226-.062-.31.018-.47.47-1.14.683-1.8.573-.104-.02-.206.046-.232.15l-.89 3.293c-.012.054-.006.11.026.16.005.014.015.03.028.04.03.028.06.045.098.054 2.01.485 4.098-.074 5.585-1.494.04-.037.062-.09.064-.147" fill="#3F0F20"/><path d="M439.596 286.83c-.585-.585-1.54-.585-2.132 0-.588.588-.588 1.542 0 2.127.587.588 1.544.588 2.132 0 .588-.587.588-1.54 0-2.127" fill="#3F0F20"/><g><g fill="#66283E"><path d="M51.74 75.463c-.075.752-.34 1.528-.062 2.27.242.524.732.908 1.143 1.3-.08.154-.254.434-.344.558-.706-.397-1.417-.922-1.613-1.77-.362-.81-.06-1.664.262-2.41.147.003.48.03.616.053M50 78.33c.49.852 1.155 1.65 2.085 2.045.794.37 1.695.354 2.547.334 1.49-.573 2.697-1.866 2.91-3.485-.044-1.832-.148-3.646-.183-5.497-.018-.528-.064-1.098-.1-1.636-.515.272-1.04.562-1.547.864-1.562 1.08-3.258 1.99-4.78 3.088-1.056 1.15-1.408 2.797-.934 4.286M74.086 75.523c-.077.752-.34 1.53-.063 2.27.242.524.733.908 1.143 1.3-.082.154-.254.434-.345.56-.705-.4-1.417-.925-1.612-1.772-.363-.81-.06-1.664.262-2.41.147.003.48.03.616.053m-1.742 2.867c.49.852 1.156 1.65 2.086 2.045.795.372 1.695.354 2.547.334 1.492-.573 2.697-1.866 2.91-3.485-.044-1.832-.15-3.645-.184-5.497-.017-.528-.063-1.098-.098-1.636-.516.272-1.04.562-1.548.864-1.56 1.08-3.257 1.99-4.78 3.088-1.054 1.15-1.407 2.797-.933 4.286M96.947 75.914c-.077.752-.34 1.53-.064 2.27.242.524.733.908 1.144 1.3-.083.154-.255.434-.346.56-.704-.4-1.416-.925-1.612-1.772-.362-.81-.058-1.665.262-2.41.148.003.48.03.617.052m-1.742 2.867c.49.853 1.155 1.652 2.086 2.047.795.37 1.696.353 2.548.333 1.49-.572 2.696-1.865 2.91-3.484-.044-1.832-.15-3.645-.185-5.497-.017-.53-.062-1.1-.097-1.637-.516.272-1.04.563-1.548.864-1.56 1.08-3.257 1.99-4.78 3.088-1.055 1.15-1.407 2.797-.933 4.286M119.29 75.974c-.075.752-.338 1.53-.062 2.27.242.524.732.908 1.144 1.3-.082.154-.255.434-.346.56-.706-.4-1.417-.925-1.612-1.772-.363-.81-.06-1.665.262-2.41.146.003.48.03.615.052m-1.74 2.867c.49.853 1.155 1.652 2.086 2.047.794.37 1.694.353 2.546.333 1.492-.572 2.697-1.865 2.91-3.484-.044-1.832-.148-3.645-.183-5.497-.018-.53-.064-1.1-.1-1.637-.515.272-1.04.563-1.547.864-1.562 1.08-3.258 1.99-4.78 3.088-1.055 1.15-1.407 2.797-.934 4.286M141.85 76.547c-.075.752-.338 1.53-.062 2.27.242.525.733.908 1.144 1.3-.082.154-.255.434-.346.56-.706-.4-1.417-.925-1.613-1.772-.362-.81-.06-1.665.263-2.41.146.003.48.03.615.052m-1.74 2.867c.49.852 1.155 1.652 2.086 2.046.794.37 1.694.353 2.546.333 1.492-.57 2.697-1.865 2.91-3.484-.044-1.833-.148-3.646-.183-5.498-.018-.528-.064-1.097-.1-1.636-.515.272-1.04.563-1.547.864-1.562 1.08-3.258 1.99-4.78 3.088-1.055 1.15-1.407 2.797-.933 4.286M164.197 76.608c-.078.75-.34 1.528-.064 2.27.242.524.733.907 1.144 1.298-.083.155-.255.435-.346.56-.704-.398-1.417-.924-1.612-1.77-.362-.812-.06-1.666.262-2.412.147.004.48.03.617.054m-1.742 2.866c.49.853 1.155 1.652 2.085 2.046.795.37 1.695.353 2.547.333 1.492-.57 2.697-1.865 2.91-3.484-.044-1.833-.15-3.646-.184-5.498-.017-.528-.062-1.097-.098-1.636-.516.273-1.04.563-1.547.864-1.562 1.08-3.258 1.99-4.78 3.088-1.055 1.15-1.408 2.797-.933 4.286M39.832 89.98c-.076.75-.34 1.528-.064 2.27.242.523.733.907 1.144 1.298-.082.155-.255.435-.345.56-.706-.4-1.417-.924-1.613-1.77-.362-.812-.06-1.666.262-2.412.147.004.48.03.616.053m-1.742 2.866c.49.852 1.156 1.65 2.086 2.046.794.37 1.694.353 2.547.333 1.49-.57 2.697-1.865 2.91-3.484-.044-1.83-.148-3.644-.184-5.496-.018-.528-.063-1.097-.1-1.636-.515.272-1.04.563-1.546.864-1.562 1.08-3.258 1.99-4.78 3.088-1.056 1.15-1.408 2.797-.934 4.286M63.498 90.227c-.077.752-.34 1.528-.064 2.27.242.524.733.908 1.144 1.3-.082.154-.255.434-.345.56-.706-.4-1.418-.925-1.614-1.772-.363-.81-.06-1.665.26-2.412.15.004.48.032.618.054m-1.742 2.867c.49.852 1.155 1.65 2.086 2.045.794.37 1.695.353 2.546.333 1.492-.572 2.698-1.865 2.91-3.484-.043-1.833-.148-3.646-.183-5.498-.017-.528-.063-1.098-.098-1.636-.516.272-1.042.562-1.548.864-1.562 1.08-3.258 1.99-4.782 3.088-1.054 1.15-1.407 2.797-.932 4.286M84.956 90.287c-.077.752-.34 1.53-.064 2.27.242.524.733.908 1.144 1.3-.082.154-.255.434-.345.56-.705-.4-1.417-.925-1.613-1.772-.362-.81-.058-1.665.262-2.41.147.002.48.03.616.052m-1.742 2.867c.49.852 1.155 1.65 2.086 2.045.794.37 1.695.353 2.547.333 1.49-.57 2.696-1.865 2.91-3.484-.044-1.833-.15-3.646-.185-5.498-.016-.528-.062-1.097-.097-1.636-.516.272-1.042.562-1.548.864-1.56 1.08-3.257 1.99-4.78 3.088-1.055 1.15-1.407 2.797-.933 4.286M108.703 90.678c-.077.752-.34 1.53-.064 2.27.24.524.732.908 1.143 1.3-.082.154-.255.434-.345.56-.706-.4-1.418-.925-1.613-1.772-.362-.81-.06-1.665.262-2.41.147.003.48.03.616.052m-1.742 2.867c.49.852 1.157 1.65 2.088 2.046.794.372 1.694.354 2.546.334 1.49-.57 2.697-1.865 2.91-3.484-.044-1.832-.148-3.645-.183-5.497-.017-.528-.062-1.098-.098-1.636-.515.272-1.04.562-1.547.864-1.562 1.08-3.258 1.99-4.78 3.09-1.056 1.15-1.408 2.796-.934 4.285M130.16 90.74c-.075.75-.34 1.527-.062 2.268.24.525.732.908 1.143 1.3-.08.154-.254.434-.344.56-.706-.4-1.417-.925-1.613-1.772-.362-.81-.06-1.665.262-2.41.147.003.48.03.616.053m-1.74 2.866c.49.85 1.155 1.65 2.086 2.045.793.372 1.694.354 2.546.334 1.49-.57 2.697-1.865 2.91-3.484-.044-1.832-.148-3.645-.184-5.497-.017-.528-.062-1.097-.098-1.636-.515.272-1.042.563-1.547.864-1.562 1.08-3.258 1.99-4.78 3.09-1.056 1.15-1.407 2.796-.934 4.286M153.608 91.312c-.077.75-.34 1.528-.063 2.27.242.524.732.907 1.143 1.3-.082.153-.254.433-.345.558-.706-.398-1.418-.924-1.613-1.77-.363-.812-.06-1.666.262-2.412.147.004.48.03.616.054m-1.742 2.866c.49.852 1.155 1.652 2.086 2.046.795.37 1.695.353 2.547.333 1.49-.57 2.696-1.865 2.91-3.484-.045-1.832-.15-3.645-.185-5.497-.017-.528-.063-1.097-.098-1.636-.516.273-1.04.563-1.548.864-1.562 1.08-3.258 1.99-4.78 3.088-1.056 1.15-1.408 2.797-.934 4.286M175.066 91.372c-.077.752-.34 1.528-.063 2.27.242.524.732.908 1.143 1.3-.082.153-.255.433-.345.558-.705-.398-1.417-.924-1.612-1.77-.362-.812-.06-1.666.262-2.412.147.004.48.03.616.054m-1.742 2.867c.49.85 1.155 1.65 2.086 2.044.795.37 1.695.353 2.547.333 1.49-.57 2.697-1.865 2.91-3.484-.044-1.832-.15-3.645-.184-5.496-.017-.53-.063-1.098-.098-1.637-.516.273-1.04.563-1.548.864-1.56 1.08-3.257 1.99-4.78 3.088-1.055 1.15-1.407 2.797-.933 4.287M51.234 104.744c-.077.75-.34 1.528-.063 2.27.243.523.734.907 1.145 1.298-.083.156-.255.435-.346.56-.707-.398-1.42-.924-1.614-1.77-.362-.812-.06-1.666.262-2.412.148.004.48.03.616.054m-1.742 2.866c.49.852 1.156 1.65 2.086 2.046.795.37 1.695.353 2.547.333 1.492-.572 2.697-1.866 2.91-3.485-.044-1.832-.15-3.645-.184-5.496-.016-.53-.062-1.1-.097-1.638-.516.272-1.04.563-1.548.864-1.56 1.08-3.256 1.99-4.78 3.088-1.054 1.15-1.407 2.797-.933 4.286M73.58 104.804c-.077.75-.34 1.528-.065 2.27.242.524.733.907 1.144 1.3-.083.153-.256.433-.346.558-.706-.398-1.417-.924-1.613-1.77-.36-.81-.058-1.666.263-2.412.147.004.48.03.616.054m-1.743 2.866c.49.852 1.156 1.65 2.086 2.046.795.37 1.694.353 2.547.333 1.49-.572 2.697-1.866 2.91-3.485-.044-1.832-.148-3.645-.184-5.496-.016-.53-.062-1.1-.098-1.638-.516.272-1.042.563-1.547.864-1.56 1.08-3.257 1.99-4.78 3.088-1.055 1.15-1.407 2.797-.933 4.286M96.44 105.195c-.077.752-.34 1.528-.064 2.27.242.524.733.908 1.144 1.3-.082.153-.255.433-.346.558-.706-.398-1.417-.924-1.612-1.77-.363-.81-.06-1.666.262-2.412.146.005.48.032.615.055m-1.742 2.867c.49.852 1.155 1.65 2.086 2.045.794.37 1.694.353 2.546.333 1.492-.57 2.697-1.865 2.91-3.484-.044-1.832-.148-3.645-.183-5.496-.017-.528-.063-1.098-.098-1.637-.517.273-1.043.563-1.55.864-1.56 1.08-3.256 1.99-4.78 3.088-1.054 1.15-1.406 2.798-.932 4.287M118.785 105.255c-.077.752-.34 1.528-.064 2.27.243.524.734.908 1.145 1.3-.083.154-.255.433-.345.558-.706-.398-1.418-.924-1.614-1.77-.362-.81-.06-1.666.262-2.412.148.005.48.032.617.055m-1.742 2.867c.49.852 1.155 1.65 2.085 2.045.795.37 1.695.353 2.547.333 1.492-.57 2.697-1.865 2.91-3.483-.044-1.833-.148-3.646-.184-5.497-.015-.528-.06-1.098-.096-1.637-.517.273-1.042.563-1.548.864-1.562 1.08-3.257 1.99-4.78 3.088-1.055 1.15-1.408 2.798-.933 4.287M141.345 105.828c-.077.752-.34 1.53-.064 2.27.243.524.734.908 1.145 1.3-.083.154-.255.433-.346.558-.706-.398-1.418-.924-1.614-1.77-.362-.81-.058-1.666.262-2.412.148.004.48.03.617.054m-1.742 2.867c.49.852 1.155 1.65 2.086 2.045.793.37 1.693.353 2.545.334 1.492-.572 2.697-1.865 2.91-3.484-.044-1.833-.148-3.646-.184-5.497-.016-.528-.06-1.098-.096-1.637-.516.273-1.042.563-1.548.864-1.56 1.08-3.257 1.99-4.78 3.088-1.055 1.15-1.407 2.798-.933 4.287M163.69 105.888c-.077.752-.34 1.53-.064 2.27.24.524.732.908 1.144 1.3-.082.154-.255.434-.346.56-.706-.4-1.417-.926-1.612-1.772-.363-.81-.06-1.666.262-2.412.146.004.48.032.615.054m-1.743 2.867c.49.852 1.156 1.65 2.087 2.045.794.372 1.694.354 2.546.334 1.492-.572 2.697-1.866 2.91-3.484-.044-1.832-.148-3.645-.183-5.497-.017-.528-.063-1.098-.1-1.637-.514.273-1.04.563-1.546.864-1.56 1.08-3.257 1.99-4.78 3.088-1.054 1.15-1.406 2.798-.933 4.287M37.552 119.26c-.077.752-.34 1.528-.063 2.27.24.524.732.908 1.143 1.3-.083.154-.255.433-.346.558-.706-.398-1.418-.924-1.613-1.77-.362-.81-.06-1.665.262-2.412.147.004.48.032.616.054m-1.74 2.867c.488.852 1.154 1.65 2.084 2.045.795.37 1.695.353 2.547.334 1.492-.572 2.697-1.866 2.91-3.484-.044-1.833-.15-3.646-.184-5.497-.018-.528-.064-1.098-.1-1.637-.515.273-1.04.563-1.547.864-1.56 1.08-3.257 1.99-4.78 3.088-1.054 1.15-1.407 2.798-.932 4.287M61.217 119.508c-.076.75-.34 1.528-.063 2.27.242.523.733.907 1.144 1.298-.082.155-.255.435-.345.56-.707-.398-1.418-.924-1.613-1.77-.362-.812-.06-1.666.262-2.412.147.004.48.03.615.054m-1.74 2.866c.49.852 1.155 1.65 2.085 2.046.794.37 1.694.353 2.546.333 1.492-.57 2.697-1.865 2.91-3.484-.044-1.833-.148-3.646-.183-5.497-.017-.53-.062-1.098-.098-1.637-.516.272-1.042.563-1.547.864-1.563 1.08-3.258 1.99-4.78 3.088-1.056 1.15-1.408 2.797-.934 4.286M82.675 119.568c-.075.75-.34 1.528-.063 2.27.242.524.733.907 1.144 1.3-.082.154-.255.433-.346.558-.706-.398-1.416-.924-1.612-1.77-.362-.812-.06-1.666.262-2.412.147.004.48.03.615.054m-1.74 2.867c.49.85 1.155 1.65 2.085 2.045.794.37 1.694.353 2.547.333 1.49-.57 2.696-1.865 2.91-3.484-.045-1.833-.15-3.646-.184-5.497-.017-.53-.062-1.098-.098-1.637-.516.272-1.042.563-1.547.864-1.562 1.08-3.258 1.99-4.78 3.088-1.056 1.15-1.408 2.797-.934 4.287M106.423 119.96c-.077.75-.34 1.527-.063 2.27.242.523.733.907 1.144 1.298-.083.154-.255.434-.346.56-.706-.4-1.418-.925-1.613-1.77-.362-.812-.06-1.667.262-2.413.147.004.48.03.616.054m-1.74 2.866c.49.852 1.154 1.65 2.084 2.045.795.372 1.695.354 2.547.334 1.492-.57 2.697-1.865 2.91-3.484-.044-1.832-.15-3.645-.184-5.496-.017-.528-.062-1.098-.098-1.637-.516.273-1.04.563-1.547.864-1.562 1.08-3.258 1.99-4.78 3.09-1.055 1.15-1.408 2.797-.933 4.286M127.88 120.02c-.076.75-.338 1.527-.062 2.27.242.523.733.907 1.144 1.298-.083.155-.255.434-.346.56-.706-.4-1.418-.925-1.613-1.77-.362-.812-.06-1.667.262-2.413.147.004.48.032.616.054m-1.74 2.866c.49.852 1.155 1.65 2.085 2.045.795.372 1.695.354 2.547.335 1.492-.572 2.697-1.866 2.91-3.484-.044-1.83-.15-3.644-.184-5.496-.017-.528-.062-1.098-.098-1.637-.516.273-1.04.563-1.547.864-1.562 1.08-3.258 1.99-4.78 3.09-1.055 1.15-1.408 2.797-.933 4.286M151.328 120.592c-.076.752-.34 1.528-.064 2.27.242.524.733.908 1.144 1.3-.08.154-.255.433-.345.56-.706-.4-1.417-.926-1.613-1.772-.362-.81-.06-1.666.262-2.412.147.004.48.032.616.054m-1.742 2.867c.49.85 1.156 1.65 2.086 2.044.795.37 1.695.354 2.547.334 1.49-.572 2.696-1.865 2.91-3.484-.045-1.832-.15-3.645-.185-5.497-.016-.528-.062-1.098-.098-1.637-.515.273-1.04.563-1.547.864-1.562 1.08-3.258 1.99-4.78 3.088-1.056 1.15-1.407 2.798-.934 4.287M172.786 120.652c-.076.752-.34 1.53-.064 2.27.242.524.733.908 1.144 1.3-.08.154-.255.433-.345.56-.705-.4-1.416-.926-1.612-1.772-.362-.81-.06-1.665.262-2.412.147.005.48.032.616.054m-1.742 2.867c.49.85 1.156 1.65 2.086 2.044.795.372 1.695.354 2.547.334 1.492-.572 2.697-1.865 2.91-3.484-.044-1.832-.148-3.645-.183-5.497-.017-.528-.063-1.098-.1-1.637-.514.273-1.04.563-1.546.865-1.562 1.08-3.258 1.99-4.78 3.087-1.056 1.15-1.407 2.798-.934 4.287M48.954 134.024c-.076.752-.34 1.528-.063 2.27.243.524.733.908 1.144 1.3-.08.154-.254.433-.345.558-.707-.398-1.418-.924-1.614-1.77-.362-.81-.06-1.665.262-2.412.147.004.48.032.616.054m-1.742 2.867c.49.853 1.156 1.652 2.087 2.046.793.37 1.693.354 2.545.334 1.492-.572 2.697-1.866 2.91-3.484-.044-1.833-.148-3.646-.183-5.497-.017-.53-.063-1.1-.1-1.638-.514.273-1.04.563-1.546.864-1.562 1.08-3.258 1.99-4.78 3.088-1.055 1.15-1.407 2.798-.934 4.287M71.3 134.084c-.078.752-.34 1.528-.064 2.27.242.524.733.908 1.144 1.3-.083.154-.255.433-.346.558-.706-.398-1.418-.923-1.613-1.77-.36-.81-.058-1.665.263-2.412.148.004.48.032.616.054m-1.742 2.867c.49.853 1.155 1.652 2.085 2.046.795.37 1.695.354 2.547.334 1.492-.572 2.697-1.865 2.91-3.484-.044-1.832-.15-3.646-.184-5.497-.017-.53-.062-1.1-.097-1.637-.518.272-1.043.562-1.55.863-1.56 1.08-3.256 1.99-4.78 3.09-1.054 1.15-1.407 2.796-.932 4.285M94.16 134.475c-.077.752-.34 1.53-.064 2.27.242.524.733.908 1.144 1.3-.082.154-.255.433-.345.56-.706-.4-1.418-.925-1.614-1.772-.36-.81-.057-1.665.264-2.41.147.003.48.03.616.052m-1.742 2.867c.49.852 1.155 1.65 2.086 2.045.795.372 1.695.354 2.547.334 1.492-.57 2.698-1.864 2.91-3.483-.043-1.832-.148-3.645-.183-5.497-.017-.528-.063-1.098-.098-1.636-.517.272-1.042.562-1.55.864-1.56 1.08-3.256 1.99-4.78 3.088-1.053 1.15-1.406 2.797-.932 4.286M116.504 134.535c-.076.752-.34 1.53-.063 2.27.243.524.734.908 1.145 1.3-.082.154-.255.434-.346.56-.707-.4-1.418-.925-1.613-1.772-.362-.81-.06-1.665.262-2.41.146.003.478.03.614.052m-1.74 2.867c.49.852 1.155 1.65 2.085 2.046.793.37 1.693.353 2.545.333 1.492-.57 2.697-1.864 2.91-3.483-.044-1.832-.148-3.645-.183-5.497-.017-.528-.062-1.098-.1-1.636-.514.272-1.04.563-1.545.864-1.563 1.08-3.258 1.99-4.78 3.088-1.056 1.15-1.408 2.797-.934 4.286M139.064 135.108c-.076.752-.34 1.53-.063 2.27.243.524.734.908 1.145 1.3-.082.154-.255.434-.346.56-.707-.4-1.418-.925-1.613-1.772-.362-.81-.06-1.665.262-2.41.145.003.478.03.614.052m-1.74 2.867c.488.852 1.155 1.65 2.085 2.046.793.372 1.693.354 2.545.334 1.492-.572 2.697-1.865 2.912-3.484-.046-1.832-.15-3.645-.185-5.497-.017-.528-.062-1.098-.098-1.636-.516.272-1.042.563-1.548.864-1.562 1.08-3.258 1.99-4.78 3.09-1.055 1.15-1.407 2.796-.933 4.285M161.41 135.168c-.077.752-.34 1.53-.064 2.27.242.525.733.908 1.144 1.3-.082.154-.255.434-.346.56-.705-.4-1.417-.925-1.613-1.772-.36-.81-.057-1.665.263-2.41.148.003.48.03.617.052m-1.742 2.867c.49.852 1.155 1.652 2.086 2.046.794.372 1.695.354 2.546.334 1.492-.57 2.698-1.865 2.91-3.484-.043-1.832-.148-3.645-.183-5.497-.018-.528-.063-1.098-.098-1.636-.517.272-1.043.562-1.55.864-1.56 1.08-3.256 1.99-4.78 3.09-1.054 1.15-1.406 2.796-.932 4.285M35.708 148.54c-.077.75-.34 1.53-.063 2.27.242.523.733.908 1.143 1.3-.082.153-.254.434-.345.56-.706-.4-1.418-.926-1.613-1.773-.363-.81-.06-1.665.262-2.41.147.003.48.03.616.053m-1.742 2.867c.49.85 1.155 1.65 2.086 2.046.795.37 1.695.352 2.547.333 1.49-.572 2.696-1.866 2.91-3.485-.045-1.83-.15-3.644-.185-5.495-.017-.528-.063-1.098-.098-1.637-.516.273-1.04.563-1.548.864-1.562 1.08-3.258 1.99-4.78 3.09-1.055 1.148-1.408 2.796-.934 4.285M59.373 148.788c-.076.752-.34 1.528-.063 2.27.242.524.733.907 1.144 1.298-.082.156-.255.435-.346.56-.706-.398-1.417-.924-1.612-1.77-.362-.81-.06-1.665.262-2.413.146.005.48.033.615.055m-1.74 2.866c.49.853 1.154 1.65 2.085 2.045.794.37 1.694.354 2.546.333 1.492-.57 2.697-1.864 2.91-3.483-.044-1.833-.148-3.646-.183-5.497-.016-.53-.06-1.098-.098-1.637-.515.273-1.04.563-1.547.865-1.562 1.08-3.257 1.99-4.78 3.088-1.055 1.15-1.407 2.797-.933 4.286M80.83 148.847c-.075.752-.338 1.53-.062 2.27.242.524.733.91 1.144 1.3-.082.154-.255.435-.346.56-.706-.4-1.417-.925-1.612-1.772-.363-.81-.06-1.665.262-2.41.147.003.48.03.615.052m-1.74 2.868c.49.85 1.156 1.65 2.086 2.045.794.37 1.694.353 2.546.334 1.492-.573 2.697-1.866 2.91-3.485-.044-1.833-.148-3.646-.183-5.498-.018-.527-.064-1.098-.1-1.636-.515.272-1.04.563-1.547.864-1.562 1.08-3.257 1.99-4.78 3.09-1.055 1.148-1.407 2.796-.933 4.285M104.58 149.238c-.078.752-.34 1.53-.064 2.27.242.524.732.91 1.143 1.3-.083.154-.255.435-.346.56-.706-.4-1.418-.925-1.613-1.772-.36-.81-.058-1.665.263-2.41.147.003.48.03.616.052m-1.743 2.868c.49.85 1.155 1.65 2.086 2.046.795.37 1.695.352 2.547.333 1.492-.572 2.697-1.866 2.91-3.485-.044-1.832-.15-3.645-.184-5.496-.017-.528-.063-1.1-.098-1.637-.516.272-1.04.563-1.548.864-1.56 1.08-3.257 1.99-4.78 3.09-1.054 1.15-1.407 2.797-.933 4.286M126.037 149.3c-.077.75-.34 1.527-.063 2.27.242.523.732.906 1.143 1.298-.082.155-.254.434-.345.56-.706-.4-1.418-.924-1.613-1.77-.363-.812-.06-1.666.26-2.413.148.005.48.032.617.054m-1.74 2.865c.488.853 1.153 1.65 2.084 2.046.796.373 1.696.355 2.548.334 1.492-.57 2.697-1.864 2.91-3.483-.044-1.83-.15-3.644-.184-5.496-.017-.528-.062-1.098-.098-1.636-.516.272-1.04.562-1.548.864-1.56 1.08-3.257 1.99-4.78 3.087-1.054 1.15-1.407 2.796-.932 4.285M149.484 149.87c-.077.753-.34 1.53-.064 2.27.242.526.733.91 1.144 1.3-.082.155-.255.436-.346.56-.705-.398-1.417-.924-1.612-1.77-.362-.81-.06-1.666.262-2.41.147.002.48.03.616.05m-1.742 2.87c.49.85 1.156 1.65 2.086 2.045.794.37 1.695.352 2.547.333 1.49-.572 2.697-1.866 2.91-3.485-.044-1.832-.148-3.645-.184-5.496-.016-.528-.06-1.098-.097-1.637-.515.272-1.04.563-1.547.864-1.562 1.08-3.258 1.99-4.78 3.09-1.056 1.148-1.408 2.796-.934 4.285M170.942 149.933c-.077.75-.34 1.527-.064 2.27.242.524.733.906 1.144 1.298-.082.156-.255.435-.346.56-.705-.397-1.417-.923-1.612-1.77-.362-.81-.06-1.665.262-2.412.147.005.48.032.616.055M169.2 152.8c.49.85 1.156 1.65 2.086 2.044.794.372 1.695.354 2.546.333 1.492-.57 2.698-1.864 2.912-3.483-.045-1.832-.15-3.645-.185-5.496-.018-.53-.063-1.098-.1-1.637-.515.274-1.04.564-1.546.865-1.562 1.08-3.258 1.99-4.78 3.087-1.056 1.15-1.408 2.798-.934 4.287M47.11 163.304c-.076.75-.34 1.528-.063 2.27.242.523.732.908 1.143 1.298-.082.155-.255.435-.345.56-.706-.398-1.417-.924-1.613-1.77-.362-.812-.06-1.666.262-2.412.147.004.48.03.616.054m-1.742 2.866c.49.853 1.156 1.65 2.087 2.046.794.37 1.694.353 2.546.333 1.492-.572 2.698-1.866 2.912-3.485-.045-1.832-.15-3.645-.184-5.497-.017-.528-.063-1.097-.1-1.636-.514.273-1.04.563-1.546.864-1.562 1.08-3.258 1.99-4.78 3.088-1.056 1.15-1.408 2.797-.934 4.286M69.455 163.364c-.077.752-.34 1.528-.063 2.27.242.523.733.908 1.143 1.298-.082.156-.254.435-.345.56-.706-.398-1.418-.924-1.613-1.77-.363-.812-.06-1.666.262-2.412.146.004.478.03.615.054m-1.742 2.866c.49.853 1.156 1.652 2.086 2.046.794.37 1.694.353 2.546.334 1.492-.572 2.697-1.865 2.91-3.485-.044-1.832-.15-3.645-.184-5.496-.017-.53-.063-1.1-.098-1.638-.516.273-1.04.563-1.548.864-1.56 1.08-3.257 1.99-4.78 3.088-1.054 1.15-1.407 2.797-.933 4.286M92.316 163.755c-.077.752-.34 1.528-.064 2.27.242.524.733.908 1.144 1.3-.083.154-.255.433-.346.558-.705-.398-1.417-.924-1.613-1.77-.362-.81-.058-1.666.262-2.412.147.005.48.032.616.055m-1.742 2.867c.49.852 1.155 1.65 2.086 2.045.794.37 1.695.354 2.547.333 1.49-.57 2.697-1.865 2.91-3.484-.044-1.832-.15-3.645-.184-5.496-.017-.528-.063-1.098-.098-1.637-.516.273-1.04.563-1.548.864-1.56 1.08-3.257 1.99-4.78 3.088-1.055 1.15-1.407 2.798-.933 4.287M114.66 163.815c-.076.752-.34 1.528-.063 2.27.242.524.733.908 1.144 1.3-.08.154-.254.433-.345.558-.706-.398-1.417-.924-1.612-1.77-.363-.81-.06-1.666.262-2.412.146.005.48.032.615.055m-1.742 2.867c.49.852 1.156 1.65 2.087 2.045.794.37 1.694.354 2.546.334 1.493-.57 2.698-1.864 2.912-3.484-.045-1.83-.15-3.645-.184-5.496-.017-.528-.063-1.098-.1-1.637-.514.273-1.04.563-1.546.864-1.562 1.08-3.258 1.99-4.78 3.09-1.055 1.15-1.407 2.796-.934 4.285M137.22 164.388c-.076.752-.34 1.528-.063 2.27.242.524.733.908 1.143 1.3-.08.154-.254.433-.345.56-.706-.4-1.417-.925-1.613-1.772-.362-.81-.06-1.665.263-2.412.146.004.48.032.615.054m-1.74 2.867c.488.852 1.154 1.65 2.085 2.045.794.37 1.694.354 2.546.334 1.493-.572 2.698-1.865 2.912-3.484-.045-1.832-.15-3.645-.184-5.497-.017-.528-.063-1.098-.1-1.636-.514.272-1.04.562-1.546.863-1.562 1.08-3.258 1.99-4.78 3.09-1.055 1.15-1.407 2.796-.933 4.285M159.566 164.448c-.078.752-.34 1.53-.064 2.27.242.524.733.908 1.144 1.3-.083.154-.255.433-.346.56-.705-.4-1.418-.926-1.613-1.772-.362-.81-.06-1.665.262-2.412.146.004.478.032.616.054m-1.742 2.867c.49.852 1.155 1.65 2.085 2.045.794.37 1.694.354 2.546.334 1.492-.572 2.697-1.865 2.91-3.484-.044-1.832-.15-3.645-.184-5.497-.017-.528-.062-1.098-.098-1.637-.516.273-1.04.563-1.547.865-1.562 1.08-3.258 1.99-4.78 3.09-1.055 1.15-1.408 2.796-.933 4.285M34.74 177.82c-.077.752-.34 1.53-.063 2.27.242.524.732.908 1.143 1.3-.082.154-.254.433-.345.56-.706-.4-1.418-.926-1.614-1.772-.36-.81-.057-1.665.263-2.412.148.004.48.032.617.054m-1.742 2.867c.49.852 1.155 1.65 2.086 2.045.795.372 1.695.354 2.547.334 1.492-.572 2.698-1.866 2.91-3.484-.043-1.833-.148-3.645-.183-5.497-.017-.528-.063-1.098-.098-1.637-.517.273-1.042.563-1.55.865-1.56 1.08-3.256 1.99-4.78 3.087-1.054 1.15-1.406 2.798-.932 4.287M58.405 178.068c-.076.752-.34 1.528-.063 2.27.242.524.733.908 1.144 1.3-.082.154-.255.433-.346.558-.706-.398-1.417-.924-1.612-1.77-.363-.812-.06-1.666.262-2.412.146.004.48.03.615.054m-1.742 2.866c.49.853 1.156 1.652 2.087 2.046.794.37 1.694.353 2.546.333 1.492-.57 2.697-1.865 2.91-3.484-.044-1.833-.148-3.646-.183-5.497-.017-.53-.063-1.098-.1-1.637-.514.273-1.04.563-1.546.864-1.562 1.08-3.258 1.99-4.78 3.088-1.055 1.15-1.407 2.797-.934 4.286M79.863 178.128c-.076.752-.34 1.528-.063 2.27.242.524.733.908 1.143 1.3-.08.154-.254.433-.345.558-.706-.398-1.417-.924-1.613-1.77-.362-.81-.06-1.666.263-2.412.146.004.48.03.615.054m-1.742 2.867c.49.852 1.157 1.65 2.088 2.045.794.37 1.694.353 2.546.334 1.492-.572 2.697-1.866 2.91-3.484-.044-1.833-.148-3.646-.183-5.497-.016-.528-.062-1.098-.098-1.637-.515.273-1.04.563-1.547.864-1.562 1.08-3.258 1.99-4.78 3.088-1.055 1.15-1.407 2.797-.934 4.287M103.61 178.52c-.076.75-.34 1.527-.062 2.27.24.523.732.907 1.143 1.298-.08.155-.254.434-.344.56-.706-.4-1.418-.925-1.613-1.77-.363-.812-.06-1.667.262-2.413.147.004.48.03.616.054m-1.74 2.866c.49.852 1.154 1.65 2.085 2.045.795.372 1.695.355 2.547.335 1.49-.572 2.697-1.866 2.91-3.485-.044-1.83-.15-3.645-.184-5.496-.017-.528-.063-1.098-.098-1.637-.516.273-1.04.563-1.548.864-1.56 1.08-3.257 1.99-4.78 3.09-1.055 1.15-1.407 2.797-.933 4.286M125.07 178.58c-.078.75-.34 1.527-.065 2.27.243.523.733.907 1.144 1.298-.083.155-.256.434-.346.56-.706-.4-1.418-.925-1.613-1.77-.362-.812-.058-1.667.263-2.413.147.004.48.03.616.054m-1.743 2.866c.49.852 1.155 1.65 2.086 2.045.795.372 1.695.355 2.547.335 1.492-.572 2.697-1.865 2.91-3.484-.044-1.83-.15-3.645-.184-5.496-.017-.528-.063-1.098-.098-1.637-.516.273-1.04.563-1.548.864-1.56 1.08-3.257 1.99-4.78 3.09-1.054 1.15-1.407 2.797-.933 4.286M148.515 179.152c-.076.752-.34 1.53-.063 2.27.242.524.733.908 1.144 1.3-.082.154-.255.433-.346.558-.706-.398-1.417-.923-1.612-1.77-.362-.81-.06-1.665.262-2.412.147.004.48.032.615.054m-1.74 2.867c.49.85 1.155 1.65 2.085 2.044.794.37 1.694.354 2.546.334 1.492-.572 2.697-1.865 2.912-3.484-.046-1.832-.15-3.646-.185-5.497-.017-.528-.062-1.098-.1-1.636-.514.273-1.04.563-1.546.864-1.562 1.08-3.257 1.99-4.78 3.09-1.055 1.15-1.407 2.796-.933 4.285M169.974 179.212c-.077.752-.34 1.53-.064 2.27.242.524.733.908 1.144 1.3-.082.154-.255.434-.346.56-.705-.4-1.417-.925-1.612-1.772-.362-.81-.06-1.665.262-2.412.146.004.48.032.616.054m-1.742 2.867c.49.85 1.156 1.65 2.086 2.045.794.37 1.694.353 2.546.333 1.492-.572 2.697-1.865 2.912-3.484-.046-1.832-.15-3.645-.185-5.497-.016-.528-.06-1.098-.098-1.636-.515.273-1.04.563-1.547.864-1.562 1.08-3.258 1.99-4.78 3.09-1.055 1.15-1.407 2.796-.933 4.285M46.142 192.584c-.076.752-.34 1.53-.064 2.27.242.524.733.908 1.144 1.3-.082.154-.255.434-.345.56-.706-.4-1.417-.926-1.613-1.772-.362-.81-.06-1.666.262-2.412.147.004.48.032.616.054M44.4 195.45c.49.853 1.156 1.652 2.086 2.046.794.372 1.694.354 2.547.334 1.49-.572 2.696-1.865 2.91-3.484-.045-1.832-.15-3.645-.184-5.497-.018-.53-.063-1.1-.1-1.638-.515.273-1.04.563-1.546.864-1.562 1.08-3.258 1.99-4.78 3.09-1.056 1.15-1.408 2.796-.934 4.285M68.487 192.644c-.077.752-.34 1.53-.063 2.27.24.524.732.908 1.143 1.3-.082.154-.254.434-.345.56-.706-.4-1.418-.926-1.614-1.772-.362-.81-.058-1.665.262-2.412.148.005.48.032.617.054m-1.742 2.867c.49.853 1.155 1.652 2.086 2.046.796.372 1.696.354 2.548.334 1.492-.572 2.697-1.865 2.91-3.484-.044-1.832-.15-3.645-.184-5.497-.017-.53-.063-1.1-.098-1.638-.516.273-1.04.563-1.548.865-1.56 1.08-3.257 1.99-4.78 3.088-1.055 1.15-1.407 2.797-.933 4.286M91.348 193.035c-.077.752-.34 1.53-.064 2.27.242.524.733.908 1.144 1.3-.083.154-.255.434-.346.56-.705-.4-1.417-.925-1.613-1.772-.363-.81-.06-1.665.26-2.412.15.005.48.033.618.055m-1.742 2.867c.49.852 1.155 1.65 2.085 2.046.796.37 1.696.353 2.548.333 1.492-.57 2.697-1.864 2.91-3.483-.044-1.832-.148-3.645-.184-5.497-.017-.528-.062-1.098-.097-1.636-.516.272-1.042.562-1.548.864-1.563 1.08-3.258 1.99-4.782 3.088-1.054 1.15-1.407 2.797-.932 4.286M113.692 193.095c-.076.752-.34 1.53-.063 2.27.24.524.73.908 1.142 1.3-.08.154-.254.434-.345.56-.706-.4-1.417-.925-1.613-1.772-.362-.81-.06-1.665.262-2.41.147.002.48.03.616.052m-1.742 2.867c.49.852 1.156 1.65 2.087 2.046.794.37 1.694.353 2.546.333 1.49-.57 2.697-1.864 2.91-3.483-.044-1.832-.148-3.645-.183-5.497-.017-.528-.063-1.097-.1-1.636-.514.272-1.04.562-1.546.864-1.562 1.08-3.258 1.99-4.78 3.088-1.055 1.15-1.407 2.797-.934 4.286M136.252 193.668c-.076.752-.34 1.53-.063 2.27.24.524.732.908 1.142 1.3-.08.154-.254.434-.345.56-.706-.4-1.417-.925-1.613-1.772-.362-.81-.06-1.665.263-2.41.146.003.48.03.615.052m-1.742 2.867c.49.852 1.156 1.652 2.086 2.046.795.372 1.695.354 2.547.334 1.492-.57 2.697-1.865 2.91-3.484-.044-1.832-.148-3.645-.183-5.497-.017-.528-.063-1.097-.1-1.636-.514.272-1.04.563-1.546.864-1.562 1.08-3.258 1.99-4.78 3.09-1.055 1.15-1.407 2.796-.934 4.285M158.597 193.73c-.077.75-.34 1.527-.063 2.268.242.524.733.908 1.143 1.3-.082.154-.254.434-.345.56-.706-.4-1.418-.925-1.613-1.77-.363-.813-.06-1.667.26-2.413.148.004.48.03.617.054m-1.74 2.866c.488.85 1.154 1.65 2.084 2.045.796.372 1.696.354 2.548.334 1.492-.57 2.697-1.865 2.91-3.484-.044-1.832-.15-3.645-.184-5.496-.017-.53-.062-1.098-.098-1.637-.516.273-1.04.563-1.547.864-1.563 1.08-3.26 1.99-4.782 3.09-1.054 1.15-1.407 2.796-.932 4.286M34.233 207.1c-.077.752-.34 1.53-.064 2.27.24.524.732.91 1.143 1.3-.082.154-.255.434-.346.56-.706-.4-1.417-.925-1.612-1.772-.362-.81-.06-1.665.262-2.41.147.003.48.03.616.053m-1.742 2.867c.49.852 1.157 1.65 2.087 2.046.794.37 1.694.353 2.547.333 1.49-.57 2.696-1.865 2.91-3.484-.045-1.832-.148-3.645-.184-5.497-.017-.528-.063-1.097-.098-1.636-.516.272-1.042.562-1.548.863-1.562 1.08-3.257 1.99-4.78 3.088-1.055 1.15-1.407 2.798-.933 4.287M57.9 207.348c-.078.752-.34 1.53-.065 2.27.242.524.733.908 1.144 1.3-.084.154-.256.433-.347.56-.705-.4-1.417-.925-1.613-1.772-.362-.81-.06-1.665.262-2.412.148.005.48.032.617.054m-1.743 2.867c.49.852 1.155 1.65 2.085 2.045.795.372 1.695.354 2.547.334 1.49-.572 2.696-1.865 2.91-3.484-.045-1.832-.15-3.645-.185-5.497-.016-.528-.062-1.098-.097-1.636-.517.272-1.042.563-1.548.864-1.562 1.08-3.257 1.99-4.78 3.088-1.055 1.15-1.408 2.798-.933 4.287M79.356 207.408c-.076.752-.34 1.53-.063 2.27.242.524.733.908 1.144 1.3-.083.154-.255.434-.345.56-.707-.4-1.418-.925-1.614-1.772-.362-.81-.058-1.665.262-2.412.148.005.48.032.616.054m-1.74 2.867c.49.852 1.154 1.65 2.084 2.046.795.372 1.695.354 2.548.334 1.49-.572 2.696-1.865 2.91-3.484-.045-1.832-.15-3.645-.185-5.497-.016-.528-.062-1.098-.097-1.636-.517.272-1.042.562-1.548.864-1.562 1.08-3.257 1.99-4.78 3.09-1.055 1.15-1.408 2.796-.933 4.285M103.104 207.8c-.077.75-.34 1.528-.064 2.27.242.523.733.907 1.144 1.298-.082.155-.255.435-.346.56-.705-.398-1.417-.924-1.612-1.77-.362-.812-.06-1.666.262-2.412.147.004.48.03.616.053m-1.742 2.866c.49.852 1.156 1.65 2.086 2.045.794.373 1.695.355 2.546.335 1.492-.57 2.697-1.865 2.912-3.484-.045-1.83-.15-3.644-.185-5.495-.016-.53-.06-1.098-.097-1.637-.516.272-1.042.563-1.547.864-1.562 1.08-3.258 1.99-4.78 3.088-1.056 1.15-1.408 2.797-.934 4.286M124.562 207.86c-.077.75-.34 1.528-.064 2.27.242.524.733.907 1.144 1.3-.082.153-.255.433-.345.558-.706-.398-1.417-.924-1.613-1.77-.362-.812-.06-1.666.262-2.412.147.004.48.03.616.053m-1.742 2.866c.49.852 1.156 1.65 2.086 2.046.794.37 1.694.353 2.546.333 1.492-.57 2.697-1.865 2.912-3.484-.046-1.83-.15-3.644-.185-5.495-.018-.53-.063-1.098-.1-1.637-.515.272-1.04.563-1.546.864-1.563 1.08-3.258 1.99-4.78 3.088-1.056 1.15-1.408 2.797-.934 4.286M148.01 208.432c-.078.752-.34 1.53-.064 2.27.24.525.732.908 1.143 1.3-.083.154-.256.434-.346.56-.706-.4-1.418-.925-1.614-1.772-.362-.81-.058-1.665.263-2.41.147.003.48.03.616.052m-1.743 2.867c.49.85 1.155 1.65 2.086 2.045.795.37 1.695.353 2.547.333 1.49-.57 2.697-1.865 2.91-3.484-.044-1.832-.15-3.645-.184-5.496-.017-.53-.063-1.1-.098-1.637-.516.273-1.04.564-1.548.865-1.56 1.08-3.257 1.99-4.78 3.088-1.055 1.15-1.407 2.797-.933 4.286M169.467 208.492c-.077.752-.34 1.53-.064 2.27.243.525.733.908 1.144 1.3-.082.154-.255.434-.345.56-.706-.4-1.418-.925-1.613-1.77-.364-.812-.06-1.667.26-2.413.148.003.48.03.617.052m-1.742 2.867c.49.852 1.155 1.65 2.086 2.045.796.37 1.696.353 2.548.333 1.49-.57 2.697-1.865 2.91-3.484-.044-1.832-.15-3.645-.184-5.496-.017-.528-.063-1.098-.098-1.637-.516.273-1.04.564-1.548.865-1.56 1.08-3.257 1.99-4.78 3.088-1.055 1.15-1.407 2.798-.933 4.286M45.635 221.864c-.077.752-.34 1.53-.063 2.27.242.524.732.908 1.144 1.3-.083.154-.255.434-.346.56-.706-.4-1.418-.925-1.613-1.772-.363-.81-.06-1.665.262-2.41.146.003.478.03.615.052m-1.742 2.867c.49.854 1.156 1.653 2.086 2.047.794.37 1.694.353 2.546.333 1.492-.57 2.697-1.865 2.91-3.484-.044-1.832-.15-3.645-.184-5.497-.017-.53-.063-1.098-.098-1.637-.516.272-1.04.563-1.548.864-1.56 1.08-3.257 1.99-4.78 3.088-1.054 1.15-1.407 2.797-.933 4.286M67.98 221.925c-.077.75-.34 1.528-.064 2.27.242.524.733.907 1.144 1.298-.082.155-.255.435-.345.56-.707-.398-1.418-.924-1.613-1.77-.362-.812-.06-1.666.262-2.412.147.005.48.032.615.055m-1.742 2.866c.49.854 1.156 1.653 2.086 2.047.794.37 1.694.353 2.547.334 1.492-.57 2.698-1.865 2.91-3.484-.043-1.832-.147-3.645-.183-5.497-.017-.53-.062-1.098-.098-1.637-.517.273-1.043.563-1.548.864-1.562 1.08-3.258 1.99-4.78 3.088-1.056 1.15-1.408 2.797-.934 4.286M90.84 222.316c-.076.752-.34 1.528-.063 2.27.242.524.733.908 1.144 1.3-.08.154-.254.433-.345.558-.706-.398-1.417-.924-1.612-1.77-.363-.81-.06-1.666.262-2.412.146.004.48.03.615.054m-1.742 2.866c.49.853 1.157 1.65 2.087 2.046.794.37 1.694.353 2.546.333 1.493-.57 2.698-1.864 2.912-3.483-.045-1.832-.15-3.645-.184-5.496-.017-.527-.063-1.097-.1-1.636-.514.273-1.04.563-1.546.864-1.562 1.08-3.258 1.99-4.78 3.088-1.055 1.15-1.407 2.798-.934 4.286M113.185 222.376c-.076.752-.34 1.528-.063 2.27.242.524.733.908 1.144 1.3-.083.154-.255.433-.346.558-.706-.398-1.417-.924-1.613-1.77-.362-.81-.06-1.666.262-2.412.146.004.478.03.615.054m-1.74 2.867c.49.852 1.154 1.65 2.084 2.045.794.37 1.694.353 2.546.333 1.492-.57 2.697-1.863 2.91-3.483-.044-1.832-.148-3.645-.184-5.496-.017-.527-.062-1.097-.097-1.636-.517.273-1.042.563-1.548.864-1.562 1.08-3.257 1.99-4.78 3.09-1.055 1.15-1.408 2.796-.933 4.285M135.745 222.95c-.077.75-.34 1.527-.063 2.27.242.523.733.907 1.144 1.298-.083.155-.255.434-.346.56-.706-.4-1.417-.925-1.613-1.77-.362-.812-.06-1.667.262-2.413.147.004.48.03.615.054m-1.74 2.866c.49.852 1.154 1.65 2.084 2.045.794.372 1.694.355 2.546.335 1.492-.572 2.697-1.865 2.91-3.485-.044-1.832-.15-3.645-.184-5.496-.017-.528-.062-1.098-.098-1.637-.516.273-1.04.563-1.547.864-1.562 1.08-3.257 1.99-4.78 3.09-1.055 1.15-1.408 2.797-.933 4.286M158.09 223.01c-.076.75-.34 1.527-.064 2.27.242.523.733.907 1.144 1.298-.08.155-.254.434-.345.56-.706-.4-1.417-.925-1.613-1.77-.362-.812-.06-1.666.262-2.413.147.004.48.032.616.054m-1.742 2.866c.49.852 1.156 1.65 2.087 2.045.794.372 1.694.355 2.546.335 1.492-.572 2.698-1.865 2.912-3.485-.045-1.83-.15-3.644-.184-5.496-.017-.528-.063-1.098-.1-1.637-.514.273-1.04.563-1.546.864-1.562 1.08-3.258 1.99-4.78 3.09-1.055 1.15-1.407 2.797-.934 4.286M148.09 240.01c-.076.75-.34 1.527-.063 2.27.242.523.733.907 1.144 1.298-.08.155-.254.434-.345.56-.706-.4-1.417-.925-1.612-1.77-.363-.812-.06-1.666.262-2.413.146.004.48.03.615.054m-1.742 2.866c.49.852 1.156 1.65 2.087 2.045.794.372 1.694.355 2.546.335 1.493-.572 2.698-1.865 2.912-3.485-.045-1.832-.15-3.645-.184-5.496-.017-.528-.063-1.098-.1-1.637-.514.273-1.04.563-1.546.864-1.562 1.08-3.258 1.99-4.78 3.09-1.055 1.15-1.407 2.797-.934 4.286M125.23 239.618c-.077.752-.34 1.53-.064 2.27.242.524.733.908 1.144 1.3-.082.154-.255.434-.345.558-.707-.398-1.418-.924-1.613-1.77-.362-.81-.06-1.666.262-2.412.147.004.48.03.615.054m-1.742 2.867c.49.852 1.156 1.65 2.086 2.046.794.372 1.694.354 2.546.334 1.492-.572 2.697-1.865 2.91-3.484-.044-1.832-.148-3.646-.183-5.497-.017-.528-.062-1.098-.098-1.637-.517.273-1.043.563-1.548.864-1.563 1.08-3.258 1.99-4.78 3.09-1.056 1.15-1.408 2.796-.934 4.285M112.23 255.618c-.077.752-.34 1.53-.064 2.27.242.524.733.908 1.144 1.3-.082.154-.255.434-.345.558-.707-.398-1.418-.924-1.613-1.77-.362-.81-.06-1.666.262-2.412.147.004.48.03.615.054m-1.742 2.867c.49.852 1.156 1.65 2.086 2.046.794.372 1.694.354 2.546.334 1.492-.572 2.697-1.865 2.91-3.484-.044-1.832-.148-3.646-.183-5.497-.017-.528-.062-1.098-.098-1.637-.517.273-1.043.563-1.548.864-1.563 1.08-3.258 1.99-4.78 3.09-1.056 1.15-1.408 2.796-.934 4.285M102.885 239.558c-.076.752-.34 1.53-.063 2.27.242.524.733.908 1.144 1.3-.083.154-.255.434-.346.56-.706-.4-1.417-.926-1.613-1.772-.362-.81-.06-1.665.262-2.412.146.004.478.032.615.054m-1.74 2.867c.488.852 1.154 1.65 2.084 2.046.794.372 1.694.354 2.546.334 1.492-.572 2.697-1.865 2.91-3.484-.044-1.832-.15-3.645-.184-5.497-.017-.528-.062-1.098-.097-1.637-.517.273-1.042.563-1.548.864-1.562 1.08-3.258 1.99-4.78 3.09-1.055 1.15-1.408 2.796-.933 4.285M80.325 238.985c-.076.75-.34 1.528-.063 2.27.242.524.733.907 1.144 1.3-.083.153-.255.433-.345.558-.706-.398-1.417-.924-1.613-1.77-.362-.812-.06-1.666.262-2.412.147.005.48.032.615.055m-1.74 2.866c.49.854 1.154 1.653 2.084 2.047.794.37 1.694.353 2.546.334 1.492-.57 2.697-1.865 2.91-3.484-.044-1.832-.148-3.645-.184-5.497-.016-.53-.062-1.098-.097-1.637-.517.273-1.042.563-1.548.864-1.562 1.08-3.257 1.99-4.78 3.088-1.055 1.15-1.408 2.797-.933 4.286M57.98 238.925c-.077.752-.34 1.528-.064 2.27.242.524.733.908 1.144 1.298-.082.155-.255.435-.346.56-.706-.398-1.417-.924-1.612-1.77-.363-.812-.06-1.666.262-2.412.147.005.48.032.616.055m-1.742 2.867c.49.852 1.156 1.65 2.086 2.045.794.37 1.694.353 2.546.334 1.492-.57 2.697-1.865 2.91-3.484-.044-1.832-.148-3.645-.183-5.496-.017-.53-.063-1.098-.1-1.637-.514.273-1.04.563-1.546.864-1.56 1.08-3.256 1.99-4.78 3.088-1.054 1.15-1.406 2.797-.932 4.287M67.98 255.925c-.077.75-.34 1.528-.063 2.27.242.524.732.907 1.143 1.298-.082.155-.254.435-.345.56-.706-.398-1.418-.924-1.614-1.77-.36-.812-.057-1.666.263-2.412.148.005.48.032.617.055m-1.742 2.866c.49.854 1.155 1.653 2.086 2.047.795.37 1.695.353 2.547.334 1.492-.57 2.698-1.865 2.91-3.484-.043-1.832-.148-3.645-.183-5.497-.017-.53-.063-1.098-.098-1.637-.517.273-1.042.563-1.55.864-1.56 1.08-3.256 1.99-4.78 3.088-1.054 1.15-1.406 2.797-.932 4.286M90.324 255.985c-.076.752-.34 1.528-.063 2.27.243.524.734.908 1.145 1.3-.082.153-.255.433-.346.558-.707-.398-1.418-.924-1.613-1.77-.363-.812-.06-1.666.262-2.412.146.005.478.032.614.055m-1.74 2.867c.49.852 1.155 1.65 2.085 2.045.793.37 1.693.353 2.545.334 1.492-.57 2.697-1.865 2.91-3.484-.044-1.832-.148-3.645-.183-5.496-.017-.53-.063-1.098-.1-1.637-.514.273-1.04.563-1.546.864-1.562 1.08-3.257 1.99-4.78 3.088-1.055 1.15-1.407 2.797-.933 4.287"/></g><path d="M29.5 306.287c16.118 17.83 13.55 30.765 70.182 30.765 18.125 0 35.356-1.327 50.942-3.713-20.167-3.01-32.343-18.078-32.58-27.053H29.5z" fill="#532937"/><path d="M246.05 304.81s8.464-1.657 13.93-6.547c5.466-4.89 39.32-37.217 87.632-37.217v44.593H245.7l.35-.83z" fill="#2E1B35"/><path fill="#3C1926" d="M345.984 235.53H236.415v98.66h115.437v-98.66"/><path fill="#552435" d="M599.646 252.53H476.854v83.78h122.793"/><path d="M72.023 335.428s-5.985-1.785-9.85-7.05c-3.867-5.266-27.81-40.07-61.978-40.07v48.013h72.077l-.25-.892z" fill="#3A1521"/><path d="M90.107 30.233c.39-1.648.604-3.357.604-5.114 0-13.06-11.38-23.642-25.42-23.642-9.657 0-18.056 5.008-22.36 12.382-2.58-1.323-5.543-2.077-8.696-2.077-9.962 0-18.038 7.51-18.038 16.774 0 .245.008.487.02.73h-.058c-8.506 0-15.4 6.41-15.4 14.32 0 7.908 6.894 14.32 15.4 14.32H84.6c8.504 0 15.4-6.412 15.4-14.32 0-6.104-4.11-11.313-9.893-13.374M215.107 29.233c.39-1.648.604-3.357.604-5.114 0-13.06-11.38-23.642-25.42-23.642-9.657 0-18.056 5.008-22.36 12.382-2.58-1.323-5.543-2.077-8.696-2.077-9.962 0-18.038 7.51-18.038 16.774 0 .245.008.487.02.73h-.058c-8.506 0-15.4 6.41-15.4 14.32 0 7.908 6.894 14.32 15.4 14.32H209.6c8.504 0 15.4-6.412 15.4-14.32 0-6.104-4.11-11.313-9.893-13.374" fill="#532937"/><path d="M82.625 38.184c-.32-1.353-.496-2.757-.496-4.2 0-10.722 9.346-19.414 20.876-19.414 7.93 0 14.827 4.112 18.36 10.168 2.12-1.086 4.553-1.705 7.143-1.705 8.18 0 14.81 6.167 14.81 13.775 0 .2-.005.4-.015.6h.048c6.985 0 12.647 5.264 12.647 11.76 0 6.494-5.662 11.76-12.647 11.76H87.147c-6.984 0-12.647-5.266-12.647-11.76 0-5.013 3.374-9.29 8.125-10.984" fill="#4F1A2C"/><path d="M505.886 91.21c-.408-1.77-.63-3.604-.63-5.49 0-14.01 11.88-25.368 26.535-25.368 10.08 0 18.846 5.374 23.34 13.288 2.69-1.42 5.784-2.23 9.075-2.23 10.4 0 18.828 8.06 18.828 18 0 .263-.008.523-.02.784h.06c8.878 0 16.074 6.88 16.074 15.366s-7.196 15.367-16.074 15.367h-71.44c-8.876 0-16.073-6.88-16.073-15.367 0-6.55 4.29-12.14 10.326-14.35" fill="#552736"/><path fill="#471325" d="M571.002 226.158H507.57v15.475h63.432"/><path fill="#501A2D" d="M283.533 248.032h-25.406v16.233h25.406M321.98 248.032h-25.404v16.233h25.405M304.29 282.022h-28.233v37.07h28.232"/><path fill="#471325" d="M549.566 277.263h-53.158v24.83h53.158"/><path d="M198.297 312.482s30.916 1.824 67.512 0c36.595-1.823 164.69 19.562 164.69 22.562S99.783 336.5 122 336.5c22.217 0 76.297-24.018 76.297-24.018z" fill="#481E2D"/><path d="M403.77 336.05s6.507-.72 10.707-2.844c4.202-2.124 30.22-16.164 67.352-16.164v19.368H403.5l.27-.36z" fill="#461D2B"/><path d="M559.886 336.05s-6.504-.72-10.705-2.844c-4.2-2.124-30.22-16.164-67.35-16.164v19.368h78.327l-.27-.36z" fill="#3A1521"/><path d="M175.52 320.448s4.123-.96 6.786-3.786c2.662-2.827 19.156-21.517 42.694-21.517v25.782h-49.652l.17-.48z" fill="#532937"/><path d="M271.828 320.448s-4.123-.96-6.787-3.786c-2.66-2.827-19.156-21.517-42.694-21.517v25.782H272l-.172-.48z" fill="#39111F"/><path fill="#471325" d="M589.55 239.502H489.02v14.794h100.53"/><path fill="#62283C" d="M287.25 153.957H264.53v83.782h22.723M320.48 174.12h-22.72v53.762h22.72"/><path d="M326.112 226.972H263.55c-6.908 0-12.51 4.673-12.51 10.437H338.625c0-5.765-5.603-10.438-12.512-10.438" fill="#512837"/><path d="M24.35 271.264c6.802-3.143 12.855-16.925 12.855-16.925C47.003 248.68 49 242.857 49 242.857c-1.747 3.645-10.734 9.176-10.734 9.176l.874-2.57c6.762-4.71 8.75-9.016 9.322-10.893-1.43 3.608-9.197 9.274-9.197 9.274 1.186-1.382 1.56-8.21 1.56-8.21 6.615-4.4 6.552-9.01 6.552-9.01-.686 3.102-7.176 7.585-7.176 7.585-1.122-1.175.355-4.827.355-4.827s-2.643.445-1.32 5.988c1.32 5.546-6.61 18.52-6.61 18.52-3.632-2.66-.824-11.31-.824-11.31-5.616 5.545-.825 12.864-.825 12.864-2.313 5.764-8.966 8.856-8.968 8.856-.144-2.63-.303-12.426 4.508-21.166 6.406-11.64 0-25.95 0-25.95 1.702 4 1.976 8.275 1.602 12.164-1.894-.49-3.036-4.163-3.036-4.163 0 2.648 2.253 4.945 2.877 5.53-.926 6.79-3.635 12.086-3.635 12.086s-3.01 4.526-4.853 10.417c-1.2-1.186-3.89-4.44-4.003-9.824 4.408-3.274 4.81-6.142 4.81-6.142-.35 1.512-3.703 4.308-4.802 5.192.004-.11.005-.217.012-.327.42-7.797-.026-8.842-.026-8.842s-.093 4.622-.812 8.68c-.325 1.838-.317 3.707.202 5.735-3.87-1.444-6.068-6.016-6.068-6.016.61 1.806 1.424 3.196 2.28 4.26-2.454-.28-5.094-1.486-5.094-1.486 2.132 1.463 4.91 2.164 5.893 2.378 1.407 1.415 2.785 2.044 3.428 2.282.692 1.908 1.838 3.97 3.576 6.282-.873 3.587-1.184 7.508-.112 11.145.448 1.52.784 3.123 1.032 4.755-8.877-4.017-9.506-14.504-9.506-14.504-1.377-6.833-5.028-8.52-5.028-8.52 2.596 3.56 2.976 5.704 3.288 8.456-1.015-.293-2.782-1.175-4.366-3.834 0 0 .64 3.785 4.476 4.825.176 1.587.405 3.42 1.032 5.827 1.487 5.712 7.804 10.14 10.553 11.83.607 8.503-.655 16.56-.655 16.56h7.267c.147-4.776-.216-9.092-.798-12.8 1.084-.94 3.938-3.69 5.96-8.093 3.458-.624 5.81-2.916 5.81-2.916-1.376 1.286-4.322 1.707-5.335 1.816.68-1.703 1.225-3.623 1.503-5.755 0 0-2.355 9.222-8.477 11.966-.237-1.17-.493-2.26-.752-3.265.176.222.125.11-.06-.226-.144-.552-.29-1.077-.435-1.573-.146-1.693.09-3.816.09-3.816" fill="#5C3342"/><path d="M447.103 25.077c.328-1.427.508-2.91.508-4.43C447.61 9.33 438.02.16 426.185.16c-8.138 0-15.217 4.34-18.844 10.73-2.173-1.146-4.672-1.8-7.33-1.8-8.397 0-15.204 6.508-15.204 14.535 0 .13.006.26.01.39h-.837c-7.17 0-12.98 5.556-12.98 12.41 0 5.287 3.462 9.8 8.338 11.586-.33 1.43-.51 2.91-.51 4.433 0 11.313 9.594 20.484 21.428 20.484 8.14 0 15.218-4.338 18.844-10.728 2.174 1.145 4.672 1.798 7.33 1.798 8.397 0 15.204-6.507 15.204-14.535 0-.13-.006-.26-.01-.39h.837c7.17 0 12.98-5.554 12.98-12.408 0-5.29-3.462-9.802-8.337-11.588M340.255 64.225c.147-.664.228-1.354.228-2.06 0-5.264-4.308-9.53-9.624-9.53-3.656 0-6.836 2.02-8.464 4.99-.977-.533-2.098-.835-3.293-.835-3.772 0-6.828 3.026-6.828 6.76 0 .06.002.12.004.18h-.377c-3.22 0-5.83 2.585-5.83 5.773 0 2.46 1.555 4.558 3.746 5.39-.15.663-.23 1.353-.23 2.06 0 5.263 4.308 9.53 9.623 9.53 3.656 0 6.836-2.02 8.465-4.992.976.534 2.097.838 3.292.838 3.772 0 6.828-3.026 6.828-6.76 0-.06-.002-.12-.004-.182h.375c3.22 0 5.83-2.583 5.83-5.77 0-2.46-1.555-4.562-3.745-5.39M318.604 134.54c-6.294 0-11.396 5.104-11.396 11.397 0 1.994.515 3.867 1.415 5.497-3.543.494-6.273 3.528-6.273 7.207 0 4.026 3.262 7.287 7.286 7.287 4.025 0 7.286-3.26 7.286-7.286 0-.5-.05-.992-.148-1.467.597.097 1.206.16 1.83.16 6.294 0 11.396-5.102 11.396-11.396 0-6.293-5.102-11.396-11.396-11.396" fill="#502131"/><path d="M302.488 89.304c-6.12-1.472-12.273 2.297-13.743 8.416-.467 1.938-.404 3.88.09 5.674-3.56-.347-6.923 1.965-7.784 5.543-.938 3.912 1.47 7.846 5.383 8.787 3.913.94 7.847-1.47 8.788-5.38.118-.49.183-.98.2-1.464.558.234 1.134.437 1.742.584 6.118 1.47 12.272-2.297 13.742-8.417 1.472-6.12-2.296-12.272-8.416-13.743" fill="#4F1A2C"/><path d="M375.86 118.448c2.556 6.176-5.474 12.128-15.96 11.26-14.485.916-21.835-.446-23.015-16.06-1.28-3.018 11.393-17.99 23.793-18.612 11.185.37 19.44 11.563 15.183 23.412" fill="#502131"/><path d="M393.86 101.448c2.556 6.175-5.474 12.128-15.96 11.26-14.484.916-21.835-.445-23.015-16.06-1.28-3.018 11.393-17.99 23.793-18.612 11.185.37 19.44 11.563 15.183 23.412M284 124.427c0 3.038-2.462 5.5-5.5 5.5-3.037 0-5.5-2.462-5.5-5.5 0-3.037 2.463-5.5 5.5-5.5 3.038 0 5.5 2.463 5.5 5.5" fill="#4F1A2C"/><g><path d="M196.413 306.287h-89.37c.238 8.975 12.414 24.043 32.58 27.052 16.574-2.538 31.283-6.275 43.216-10.896 8.064-5.36 13.373-11.558 13.573-16.157" fill="#502131"/><path d="M155.467 309.546l-13.442-1.582c4.716-12.193 15.104-19.016 27.303-23.528 9.115-3.37 16.85-3.14 17.174-3.125l-.288 8.085.144-4.042-.133 4.042c-1.057-.033-24.236-3.174-30.758 20.15z" fill="#39111F"/><path fill="#4F2735" d="M240.08 285.635l-60.808 9.518-3.032-19.367 60.808-9.52"/><path d="M134.785 306.016c0 3.53 7.098 6.392 15.85 6.392 8.754 0 15.85-2.86 15.852-6.392h-31.702z" fill="#39111F"/></g><path fill="#3C1926" d="M287.277 159.94h-22.724v10h22.724M320.278 182.94h-22.722v10h22.722"/></g></g></svg>