<svg width="1100" height="267" viewBox="0 0 1100 267" xmlns="http://www.w3.org/2000/svg"><title>Page 1</title><g fill="none" fill-rule="evenodd"><g fill="#66283E"><path d="M157.027 72.298c-.063.618-.28 1.255-.052 1.864.198.43.6.746.94 1.067-.068.126-.21.356-.285.46-.58-.328-1.164-.76-1.324-1.456-.298-.666-.05-1.367.215-1.98.12.003.395.026.507.044m-1.43 2.355c.4.7.95 1.356 1.712 1.68.652.304 1.39.29 2.09.273 1.226-.47 2.216-1.53 2.392-2.86-.037-1.506-.123-2.995-.15-4.516-.016-.433-.053-.9-.083-1.344-.424.224-.856.463-1.27.71-1.284.887-2.677 1.634-3.927 2.536-.867.945-1.156 2.298-.767 3.52M175.38 72.347c-.064.618-.28 1.256-.053 1.865.2.43.602.745.94 1.067-.07.126-.21.355-.284.458-.58-.327-1.165-.76-1.325-1.454-.298-.666-.048-1.368.215-1.98.12.002.393.025.506.043m-1.432 2.355c.403.7.95 1.356 1.713 1.68.654.305 1.394.29 2.093.274 1.225-.47 2.215-1.532 2.39-2.862-.036-1.504-.122-2.993-.15-4.514-.015-.434-.052-.902-.08-1.344-.425.223-.856.462-1.272.71-1.282.886-2.674 1.633-3.926 2.535-.865.946-1.155 2.3-.766 3.522M194.155 72.67c-.063.616-.28 1.254-.052 1.863.2.43.602.746.94 1.067-.07.127-.21.357-.285.46-.58-.328-1.164-.76-1.325-1.455-.297-.666-.048-1.368.216-1.98.12.003.392.025.505.044m-1.43 2.353c.402.7.948 1.356 1.712 1.68.653.305 1.392.29 2.092.274 1.224-.47 2.214-1.532 2.39-2.86-.037-1.506-.123-2.995-.152-4.516-.014-.433-.05-.9-.08-1.343-.424.224-.855.462-1.272.71-1.282.886-2.675 1.633-3.926 2.536-.866.945-1.155 2.297-.766 3.52M212.506 72.718c-.062.617-.278 1.255-.05 1.864.197.43.6.746.938 1.067-.067.126-.21.356-.284.46-.58-.328-1.164-.76-1.324-1.456-.298-.665-.05-1.367.215-1.98.12.003.395.025.506.044m-1.43 2.354c.402.7.95 1.356 1.714 1.68.652.305 1.39.29 2.09.274 1.226-.47 2.216-1.532 2.392-2.86-.037-1.506-.123-2.995-.152-4.516-.014-.433-.05-.9-.08-1.344-.424.224-.856.463-1.27.71-1.284.887-2.677 1.634-3.928 2.536-.866.945-1.155 2.297-.766 3.52M231.036 73.19c-.063.616-.28 1.254-.053 1.863.2.43.602.746.94 1.067-.068.127-.21.357-.284.46-.58-.328-1.165-.76-1.325-1.455-.298-.666-.05-1.368.215-1.98.12.003.393.025.506.044m-1.43 2.353c.4.7.948 1.356 1.712 1.68.653.305 1.392.29 2.092.274 1.225-.47 2.215-1.532 2.39-2.86-.036-1.506-.122-2.995-.15-4.516-.015-.433-.052-.9-.082-1.343-.423.224-.855.462-1.27.71-1.283.886-2.676 1.634-3.927 2.536-.865.944-1.154 2.297-.765 3.52M249.388 73.238c-.063.617-.28 1.255-.052 1.864.2.43.602.746.94 1.067-.07.126-.21.356-.284.46-.58-.33-1.165-.76-1.326-1.455-.297-.667-.048-1.368.216-1.98.12.002.393.025.506.043m-1.43 2.355c.402.7.948 1.356 1.712 1.68.653.304 1.392.29 2.092.273 1.225-.47 2.215-1.532 2.39-2.86-.036-1.506-.122-2.995-.15-4.516-.015-.433-.052-.9-.08-1.344-.425.224-.856.462-1.273.71-1.283.887-2.676 1.634-3.927 2.536-.866.945-1.155 2.298-.766 3.52M147.245 84.22c-.062.618-.28 1.256-.052 1.865.2.43.602.746.94 1.067-.068.127-.21.357-.284.46-.58-.328-1.165-.76-1.325-1.455-.298-.666-.05-1.368.215-1.98.12.003.393.025.505.044m-1.43 2.355c.402.7.95 1.356 1.713 1.68.653.305 1.392.29 2.092.274 1.225-.47 2.215-1.533 2.39-2.863-.036-1.504-.122-2.993-.15-4.514-.015-.434-.052-.902-.082-1.344-.423.223-.855.46-1.27.708-1.283.887-2.676 1.634-3.927 2.537-.865.944-1.154 2.297-.765 3.52M166.683 84.424c-.064.617-.28 1.255-.052 1.864.2.43.602.746.94 1.067-.068.127-.21.357-.284.46-.58-.327-1.164-.76-1.325-1.454-.296-.666-.047-1.367.216-1.98.122.003.394.026.507.044m-1.43 2.354c.4.7.948 1.357 1.712 1.68.653.305 1.392.29 2.092.274 1.225-.47 2.215-1.532 2.39-2.86-.036-1.506-.122-2.995-.15-4.516-.015-.434-.053-.9-.08-1.344-.425.224-.857.462-1.273.71-1.282.887-2.675 1.634-3.926 2.536-.866.945-1.156 2.297-.766 3.52M184.306 84.473c-.063.618-.28 1.256-.052 1.865.2.43.602.745.94 1.067-.068.127-.21.356-.284.46-.58-.328-1.165-.76-1.325-1.455-.298-.666-.048-1.368.215-1.98.12.002.394.025.506.043m-1.43 2.355c.402.7.95 1.356 1.713 1.68.652.304 1.39.29 2.09.274 1.226-.47 2.216-1.532 2.39-2.862-.035-1.505-.12-2.994-.15-4.514-.014-.434-.052-.902-.08-1.344-.425.223-.856.462-1.272.71-1.282.886-2.675 1.633-3.926 2.535-.866.945-1.156 2.298-.766 3.52M203.81 84.795c-.062.617-.28 1.255-.052 1.864.2.43.602.745.94 1.066-.068.127-.21.357-.284.46-.58-.328-1.164-.76-1.325-1.455-.298-.665-.05-1.367.215-1.98.12.004.393.026.505.045m-1.43 2.354c.402.7.95 1.355 1.713 1.68.653.304 1.392.29 2.092.273 1.225-.47 2.215-1.532 2.39-2.862-.037-1.503-.122-2.992-.15-4.513-.015-.434-.052-.902-.082-1.344-.423.224-.855.462-1.27.71-1.283.886-2.676 1.633-3.927 2.536-.866.943-1.155 2.296-.766 3.52M221.434 84.844c-.063.617-.28 1.255-.052 1.864.198.43.602.746.94 1.067-.068.127-.21.357-.285.46-.58-.328-1.163-.76-1.324-1.454-.297-.666-.05-1.367.215-1.98.12.003.394.026.506.044m-1.43 2.355c.402.698.95 1.355 1.713 1.678.652.305 1.392.29 2.09.274 1.226-.47 2.216-1.532 2.392-2.86-.038-1.506-.123-2.995-.152-4.516-.014-.434-.052-.9-.08-1.344-.424.224-.857.462-1.272.71-1.283.886-2.676 1.634-3.926 2.536-.867.945-1.155 2.297-.767 3.52M240.69 85.315c-.062.617-.277 1.255-.05 1.864.198.43.6.745.94 1.066-.07.127-.21.357-.285.46-.58-.328-1.164-.76-1.325-1.455-.298-.665-.048-1.367.215-1.98.122.004.394.026.506.045m-1.43 2.354c.403.7.95 1.355 1.714 1.68.653.304 1.392.29 2.092.273 1.225-.47 2.215-1.532 2.39-2.862-.036-1.503-.122-2.992-.15-4.513-.015-.434-.053-.902-.082-1.344-.424.224-.855.462-1.27.71-1.283.886-2.676 1.633-3.927 2.536-.866.943-1.156 2.296-.766 3.52M258.315 85.364c-.063.618-.28 1.255-.052 1.864.2.43.602.746.94 1.067-.068.127-.21.357-.284.46-.58-.327-1.166-.76-1.326-1.455-.298-.666-.048-1.367.215-1.98.12.003.393.026.505.044m-1.43 2.355c.402.698.948 1.355 1.713 1.678.653.305 1.392.29 2.092.274 1.225-.47 2.215-1.532 2.39-2.86-.037-1.506-.123-2.995-.152-4.516-.013-.433-.05-.9-.08-1.344-.424.224-.855.462-1.27.71-1.283.887-2.676 1.634-3.927 2.536-.865.945-1.155 2.298-.765 3.52M156.61 96.346c-.063.618-.278 1.256-.052 1.865.2.43.602.747.94 1.068-.068.127-.21.357-.284.46-.58-.328-1.164-.76-1.325-1.455-.298-.666-.05-1.368.214-1.98.122.003.394.025.506.043m-1.43 2.355c.402.7.95 1.357 1.713 1.68.653.306 1.392.29 2.092.275 1.225-.47 2.215-1.532 2.39-2.862-.036-1.504-.122-2.994-.15-4.514-.015-.435-.053-.903-.082-1.345-.424.224-.855.462-1.27.71-1.283.886-2.676 1.633-3.927 2.535-.866.945-1.156 2.298-.766 3.52M174.962 96.396c-.062.617-.28 1.255-.052 1.864.2.43.602.746.94 1.067-.067.127-.21.357-.284.46-.58-.328-1.164-.76-1.325-1.455-.296-.666-.047-1.367.217-1.98.12.003.394.025.505.044m-1.43 2.354c.402.7.95 1.356 1.713 1.68.653.305 1.392.29 2.092.274 1.225-.47 2.215-1.53 2.39-2.86-.037-1.506-.122-2.995-.15-4.516-.015-.433-.052-.902-.082-1.344-.423.224-.855.462-1.27.71-1.283.886-2.676 1.633-3.927 2.536-.866.945-1.155 2.297-.766 3.52M193.738 96.717c-.063.618-.28 1.255-.052 1.864.2.432.602.747.94 1.068-.068.127-.21.357-.284.46-.58-.327-1.164-.76-1.325-1.454-.297-.667-.05-1.368.215-1.98.12.002.394.025.506.043m-1.43 2.355c.402.7.95 1.356 1.713 1.68.653.304 1.392.29 2.092.273 1.225-.47 2.215-1.532 2.39-2.86-.036-1.506-.12-2.995-.15-4.515-.014-.434-.052-.902-.08-1.345-.424.224-.856.462-1.272.71-1.283.887-2.675 1.634-3.926 2.536-.866.946-1.155 2.3-.766 3.522M212.09 96.766c-.063.618-.278 1.256-.052 1.865.2.43.602.746.94 1.068-.068.127-.21.356-.284.46-.58-.328-1.164-.76-1.325-1.455-.298-.666-.05-1.368.214-1.98.12.003.394.025.507.043m-1.43 2.355c.402.7.95 1.357 1.713 1.68.653.306 1.392.29 2.092.275 1.225-.47 2.215-1.532 2.39-2.862-.036-1.504-.122-2.994-.15-4.514-.015-.435-.053-.903-.082-1.345-.424.223-.855.462-1.27.71-1.283.886-2.676 1.633-3.927 2.536-.866.945-1.156 2.298-.766 3.52M230.62 97.237c-.064.618-.28 1.256-.053 1.864.2.432.602.747.94 1.068-.068.128-.21.357-.284.46-.58-.327-1.165-.76-1.325-1.455-.298-.666-.048-1.367.215-1.98.12.003.394.026.506.044m-1.43 2.355c.4.7.948 1.356 1.712 1.68.653.304 1.392.29 2.092.274 1.225-.47 2.215-1.532 2.39-2.862-.037-1.505-.122-2.994-.152-4.515-.013-.434-.05-.902-.08-1.345-.424.224-.855.463-1.27.71-1.283.887-2.676 1.634-3.928 2.536-.865.946-1.155 2.3-.765 3.522M248.97 97.286c-.06.618-.278 1.256-.05 1.865.198.43.6.746.94 1.068-.07.127-.21.357-.285.46-.58-.328-1.164-.76-1.325-1.455-.297-.666-.048-1.368.216-1.98.12.003.393.025.505.043m-1.43 2.355c.403.7.95 1.357 1.714 1.68.652.306 1.392.29 2.09.275 1.227-.47 2.217-1.532 2.392-2.862-.037-1.504-.122-2.993-.15-4.514-.015-.435-.052-.903-.082-1.345-.423.223-.855.462-1.27.71-1.283.886-2.676 1.633-3.927 2.536-.866.945-1.155 2.298-.766 3.52M145.373 108.27c-.063.616-.28 1.254-.052 1.863.2.43.603.746.94 1.067-.067.127-.21.357-.283.46-.58-.328-1.165-.76-1.325-1.454-.298-.667-.048-1.368.215-1.98.12.002.394.025.506.043m-1.43 2.354c.402.7.948 1.356 1.713 1.68.653.304 1.392.29 2.092.273 1.225-.47 2.215-1.532 2.39-2.86-.037-1.506-.123-2.995-.152-4.516-.013-.432-.05-.9-.08-1.343-.424.224-.855.462-1.27.71-1.283.886-2.676 1.634-3.928 2.536-.865.945-1.155 2.298-.765 3.52M164.81 108.472c-.063.618-.28 1.256-.052 1.865.2.43.602.745.94 1.066-.068.128-.21.357-.284.46-.58-.327-1.165-.76-1.325-1.454-.298-.667-.05-1.37.214-1.982.12.004.394.026.506.044m-1.43 2.355c.402.7.95 1.356 1.713 1.68.652.305 1.39.29 2.09.274 1.226-.47 2.216-1.53 2.392-2.86-.037-1.506-.122-2.995-.15-4.515-.015-.434-.053-.902-.082-1.345-.423.224-.855.463-1.27.71-1.284.887-2.677 1.634-3.927 2.537-.867.944-1.155 2.297-.767 3.52M182.434 108.522c-.063.617-.28 1.255-.052 1.864.198.43.6.746.94 1.067-.068.127-.21.357-.285.46-.58-.328-1.163-.76-1.324-1.455-.298-.666-.05-1.368.215-1.98.12.003.394.025.506.044m-1.43 2.354c.4.7.95 1.356 1.713 1.68.652.305 1.39.29 2.09.274 1.226-.47 2.216-1.532 2.392-2.86-.038-1.506-.124-2.995-.153-4.516-.013-.434-.05-.9-.08-1.344-.424.224-.856.462-1.27.71-1.284.886-2.677 1.634-3.928 2.536-.867.945-1.156 2.297-.767 3.52M201.938 108.843c-.063.617-.28 1.255-.052 1.864.2.43.602.746.94 1.067-.07.127-.21.357-.284.46-.58-.328-1.165-.76-1.325-1.455-.298-.667-.048-1.368.215-1.98.12.002.393.025.506.043m-1.43 2.355c.402.7.948 1.356 1.712 1.68.653.304 1.393.29 2.092.273 1.225-.468 2.216-1.53 2.39-2.86-.036-1.505-.122-2.994-.15-4.515-.015-.433-.052-.9-.08-1.344-.425.225-.856.463-1.272.71-1.283.887-2.675 1.635-3.927 2.537-.865.945-1.155 2.298-.765 3.52M219.562 108.892c-.064.618-.28 1.256-.052 1.865.2.43.6.745.94 1.066-.07.128-.21.357-.285.46-.58-.327-1.164-.76-1.325-1.454-.297-.667-.048-1.37.216-1.982.12.003.393.026.506.044m-1.43 2.355c.402.7.948 1.356 1.712 1.68.653.305 1.392.29 2.092.274 1.225-.47 2.215-1.53 2.39-2.86-.036-1.505-.122-2.994-.15-4.515-.015-.434-.052-.902-.08-1.344-.425.224-.857.463-1.273.71-1.282.887-2.675 1.634-3.926 2.536-.866.945-1.155 2.298-.766 3.52M238.82 109.363c-.064.617-.28 1.255-.053 1.864.198.43.6.746.94 1.067-.068.127-.21.357-.285.46-.58-.327-1.164-.76-1.324-1.454-.298-.667-.05-1.368.215-1.98.12.002.394.025.506.043m-1.432 2.355c.403.7.95 1.356 1.714 1.68.652.304 1.39.29 2.09.273 1.226-.468 2.216-1.53 2.392-2.86-.037-1.505-.123-2.994-.15-4.515-.015-.434-.053-.9-.082-1.344-.424.225-.856.464-1.27.71-1.284.888-2.677 1.635-3.927 2.537-.867.945-1.156 2.297-.767 3.52M256.443 109.412c-.063.618-.28 1.256-.053 1.865.2.43.602.746.94 1.067-.067.127-.21.356-.284.46-.58-.328-1.164-.76-1.324-1.455-.298-.667-.05-1.37.215-1.982.12.004.393.026.506.044m-1.43 2.355c.4.7.948 1.356 1.713 1.68.652.305 1.39.29 2.09.274 1.226-.47 2.216-1.53 2.392-2.86-.037-1.506-.123-2.995-.152-4.515-.013-.434-.05-.902-.08-1.344-.424.225-.856.463-1.27.71-1.284.887-2.677 1.634-3.928 2.536-.866.945-1.155 2.298-.766 3.52M154.738 120.395c-.063.617-.28 1.255-.052 1.864.198.43.6.745.94 1.066-.068.127-.21.357-.285.46-.578-.327-1.163-.76-1.323-1.455-.297-.665-.05-1.366.215-1.98.12.004.394.026.506.045m-1.43 2.354c.402.7.95 1.356 1.713 1.68.653.304 1.392.29 2.092.273 1.225-.47 2.215-1.532 2.39-2.86-.036-1.506-.12-2.995-.15-4.516-.014-.433-.052-.9-.08-1.344-.424.224-.857.462-1.272.71-1.283.886-2.676 1.634-3.926 2.536-.867.944-1.156 2.296-.767 3.52M173.09 120.444c-.063.618-.28 1.256-.052 1.865.2.43.602.744.94 1.066-.068.127-.21.356-.284.46-.58-.328-1.165-.76-1.325-1.455-.3-.665-.05-1.367.214-1.98.12.003.394.026.506.044m-1.43 2.355c.402.7.948 1.355 1.713 1.68.653.304 1.392.29 2.092.272 1.224-.47 2.215-1.53 2.39-2.86-.037-1.506-.123-2.995-.152-4.515-.013-.434-.05-.902-.08-1.344-.424.223-.855.462-1.27.71-1.284.886-2.676 1.633-3.928 2.535-.865.945-1.155 2.298-.765 3.52M191.866 120.766c-.063.617-.28 1.255-.052 1.864.2.43.602.746.94 1.067-.07.127-.21.356-.285.46-.58-.328-1.165-.76-1.326-1.455-.297-.666-.048-1.368.216-1.98.12.003.393.025.506.044m-1.43 2.354c.402.7.948 1.356 1.712 1.68.653.305 1.392.29 2.092.274 1.225-.47 2.215-1.532 2.39-2.862-.036-1.504-.122-2.993-.15-4.514-.015-.434-.052-.902-.08-1.344-.425.224-.856.462-1.272.71-1.283.886-2.675 1.633-3.927 2.536-.865.944-1.154 2.297-.765 3.52M210.218 120.815c-.063.617-.28 1.255-.052 1.864.198.43.6.745.94 1.066-.068.127-.21.357-.285.46-.578-.328-1.163-.76-1.323-1.454-.297-.667-.05-1.368.215-1.98.12.002.394.024.506.043m-1.43 2.354c.402.7.95 1.355 1.713 1.68.653.304 1.392.29 2.092.273 1.225-.47 2.215-1.532 2.39-2.86-.036-1.506-.122-2.995-.15-4.516-.014-.434-.052-.9-.08-1.344-.425.224-.857.462-1.272.71-1.283.886-2.676 1.634-3.926 2.536-.867.944-1.156 2.296-.767 3.52M228.747 121.285c-.063.618-.28 1.256-.052 1.865.198.43.6.746.94 1.067-.068.127-.21.357-.285.46-.58-.328-1.164-.76-1.324-1.455-.298-.666-.05-1.368.215-1.98.12.003.395.025.507.043m-1.43 2.355c.4.7.95 1.356 1.713 1.68.652.305 1.39.29 2.09.274 1.226-.47 2.216-1.532 2.392-2.862-.037-1.504-.123-2.994-.152-4.514-.014-.434-.05-.902-.08-1.344-.424.224-.856.462-1.27.71-1.284.886-2.677 1.633-3.928 2.536-.866.944-1.155 2.297-.766 3.52M247.1 121.335c-.064.617-.28 1.255-.053 1.864.2.43.602.745.94 1.066-.068.127-.21.357-.284.46-.58-.328-1.165-.76-1.325-1.455-.298-.665-.048-1.366.215-1.98.12.004.393.027.506.045m-1.43 2.354c.4.7.947 1.356 1.712 1.68.652.304 1.392.29 2.09.273 1.226-.47 2.217-1.532 2.392-2.86-.037-1.506-.123-2.995-.152-4.516-.014-.433-.05-.902-.08-1.344-.424.224-.855.462-1.27.71-1.284.886-2.676 1.634-3.928 2.536-.865.944-1.155 2.297-.765 3.52M143.86 132.317c-.065.617-.28 1.256-.054 1.864.2.43.602.747.94 1.07-.068.125-.21.356-.284.458-.58-.328-1.164-.76-1.325-1.455-.297-.666-.048-1.367.215-1.98.122.003.394.025.507.044m-1.432 2.355c.402.7.95 1.356 1.713 1.68.654.304 1.393.29 2.093.274 1.225-.47 2.215-1.533 2.39-2.862-.036-1.505-.122-2.994-.15-4.515-.015-.434-.053-.902-.08-1.345-.425.224-.857.462-1.273.71-1.282.887-2.675 1.634-3.926 2.536-.866.945-1.155 2.3-.766 3.522M163.295 132.52c-.062.618-.28 1.255-.052 1.865.2.43.602.745.94 1.066-.068.13-.21.358-.284.46-.58-.326-1.165-.757-1.326-1.453-.297-.666-.048-1.367.216-1.98.12.003.393.025.505.044m-1.43 2.355c.402.7.95 1.356 1.713 1.68.653.305 1.392.29 2.092.273 1.225-.468 2.215-1.53 2.39-2.86-.036-1.505-.122-2.994-.15-4.515-.015-.434-.052-.9-.082-1.344-.423.223-.855.46-1.27.71-1.283.885-2.676 1.633-3.927 2.534-.865.946-1.154 2.298-.765 3.52M180.92 132.57c-.064.617-.28 1.255-.053 1.864.2.43.602.746.94 1.067-.068.128-.21.358-.284.46-.58-.327-1.164-.76-1.325-1.454-.297-.666-.05-1.368.215-1.98.12.003.394.025.506.043m-1.43 2.355c.4.7.948 1.356 1.712 1.68.652.304 1.39.29 2.09.274 1.226-.472 2.216-1.534 2.392-2.864-.037-1.504-.122-2.993-.15-4.514-.015-.433-.053-.902-.082-1.344-.423.223-.855.462-1.27.71-1.284.887-2.676 1.633-3.927 2.536-.866.944-1.155 2.298-.766 3.52M200.423 132.89c-.063.618-.28 1.257-.052 1.865.2.43.603.746.94 1.068-.067.126-.21.357-.283.46-.58-.33-1.165-.76-1.325-1.456-.297-.666-.048-1.367.215-1.98.12.003.394.025.506.044m-1.43 2.356c.402.7.95 1.356 1.713 1.68.653.304 1.392.29 2.092.274 1.225-.47 2.215-1.533 2.39-2.862-.036-1.505-.122-2.994-.15-4.515-.015-.433-.053-.902-.082-1.344-.423.223-.855.46-1.27.71-1.283.886-2.676 1.632-3.927 2.535-.867.945-1.157 2.298-.767 3.52M218.047 132.94c-.063.618-.28 1.256-.052 1.865.2.43.602.745.94 1.066-.068.13-.21.358-.284.46-.58-.326-1.164-.758-1.324-1.453-.298-.666-.048-1.367.215-1.98.122.003.394.025.507.044m-1.43 2.355c.402.7.948 1.356 1.712 1.68.652.305 1.392.29 2.09.274 1.226-.47 2.217-1.533 2.392-2.862-.037-1.505-.123-2.994-.152-4.515-.014-.434-.05-.902-.08-1.344-.424.223-.855.46-1.27.71-1.284.885-2.676 1.633-3.928 2.534-.865.946-1.155 2.298-.765 3.52M237.304 133.41c-.063.618-.28 1.257-.052 1.865.2.43.602.746.94 1.068-.068.126-.21.356-.284.46-.58-.33-1.164-.76-1.325-1.456-.297-.666-.048-1.368.216-1.98.12.003.392.025.504.044m-1.43 2.356c.402.7.95 1.356 1.713 1.68.652.304 1.392.29 2.092.274 1.223-.47 2.214-1.533 2.39-2.862-.038-1.505-.123-2.994-.152-4.515-.014-.433-.05-.902-.08-1.344-.424.223-.856.46-1.272.71-1.283.886-2.675 1.633-3.926 2.536-.866.944-1.155 2.297-.766 3.52M254.928 133.46c-.063.618-.28 1.256-.052 1.865.198.43.6.745.94 1.066-.068.13-.21.358-.285.46-.578-.326-1.162-.757-1.323-1.453-.297-.666-.05-1.367.215-1.98.12.003.394.025.506.044m-1.43 2.355c.402.7.95 1.356 1.713 1.68.653.305 1.392.29 2.092.273 1.225-.468 2.215-1.53 2.39-2.86-.036-1.505-.122-2.994-.15-4.515-.014-.434-.052-.902-.08-1.344-.425.223-.857.46-1.272.71-1.283.885-2.676 1.632-3.926 2.534-.867.946-1.156 2.298-.767 3.52M153.223 144.443c-.063.617-.28 1.255-.052 1.864.2.43.603.746.94 1.067-.067.127-.21.357-.283.46-.58-.328-1.164-.76-1.325-1.455-.297-.667-.048-1.37.216-1.982.12.004.393.026.505.045m-1.43 2.354c.402.7.95 1.356 1.713 1.68.653.305 1.392.29 2.092.274 1.224-.468 2.215-1.53 2.39-2.86-.037-1.505-.122-2.994-.15-4.515-.015-.434-.052-.902-.082-1.344-.423.225-.855.463-1.27.71-1.284.887-2.676 1.634-3.927 2.537-.867.945-1.156 2.297-.767 3.52M171.576 144.492c-.064.618-.28 1.255-.052 1.864.198.43.6.746.94 1.067-.07.127-.21.357-.285.46-.58-.327-1.165-.76-1.326-1.454-.297-.668-.048-1.37.215-1.982.12.003.393.026.506.044m-1.43 2.355c.4.7.948 1.356 1.712 1.68.653.304 1.392.29 2.092.273 1.225-.47 2.215-1.53 2.39-2.86-.036-1.506-.122-2.995-.15-4.516-.015-.433-.053-.9-.082-1.344-.423.224-.855.463-1.27.71-1.283.887-2.676 1.634-3.927 2.536-.865.945-1.154 2.297-.765 3.52M190.35 144.813c-.062.618-.278 1.256-.05 1.864.198.43.6.746.938 1.067-.067.128-.21.357-.283.46-.58-.327-1.165-.76-1.325-1.454-.298-.666-.048-1.368.215-1.98.12.002.394.025.506.043m-1.43 2.355c.403.7.95 1.356 1.714 1.68.652.305 1.392.29 2.092.274 1.225-.47 2.215-1.532 2.39-2.862-.036-1.505-.123-2.994-.15-4.514-.016-.434-.053-.902-.082-1.345-.424.225-.855.464-1.27.71-1.283.888-2.676 1.635-3.927 2.537-.866.945-1.156 2.298-.766 3.52M208.703 144.863c-.062.617-.28 1.255-.052 1.864.2.43.603.746.94 1.067-.067.127-.21.357-.283.46-.58-.328-1.164-.76-1.325-1.455-.297-.667-.048-1.37.216-1.982.12.004.393.026.505.045m-1.43 2.354c.402.7.95 1.356 1.713 1.68.652.305 1.392.29 2.09.274 1.226-.468 2.217-1.53 2.392-2.86-.037-1.505-.122-2.994-.15-4.515-.015-.434-.052-.902-.082-1.344-.423.225-.855.463-1.27.71-1.284.887-2.676 1.635-3.927 2.537-.867.945-1.156 2.297-.768 3.52M227.232 145.333c-.063.618-.28 1.256-.052 1.864.2.43.602.746.94 1.067-.068.128-.21.357-.284.46-.58-.327-1.164-.76-1.325-1.454-.296-.666-.048-1.368.216-1.98.12.003.394.025.506.043m-1.43 2.355c.402.7.95 1.356 1.713 1.68.652.305 1.39.29 2.09.274 1.226-.47 2.216-1.532 2.392-2.862-.037-1.504-.122-2.993-.15-4.514-.015-.434-.053-.902-.082-1.344-.423.223-.855.462-1.27.71-1.284.886-2.677 1.633-3.927 2.536-.867.944-1.155 2.297-.766 3.52M245.584 145.383c-.063.617-.28 1.255-.052 1.864.2.43.602.746.94 1.067-.068.127-.21.357-.284.46-.58-.328-1.165-.76-1.325-1.455-.297-.667-.048-1.368.215-1.98.12.002.394.024.506.043m-1.43 2.354c.402.7.95 1.356 1.713 1.68.653.305 1.392.29 2.092.274 1.224-.468 2.214-1.53 2.39-2.86-.037-1.505-.124-2.994-.152-4.515-.014-.434-.052-.902-.08-1.344-.425.225-.856.463-1.272.71-1.282.887-2.675 1.635-3.926 2.537-.866.944-1.156 2.297-.766 3.52M143.063 156.365c-.063.618-.28 1.256-.052 1.864.2.43.603.745.94 1.066-.067.128-.208.357-.283.46-.58-.327-1.164-.76-1.325-1.454-.298-.666-.048-1.368.215-1.98.12.002.394.025.506.043m-1.43 2.355c.402.7.95 1.356 1.713 1.68.653.305 1.392.29 2.092.274 1.225-.47 2.215-1.532 2.39-2.862-.036-1.505-.122-2.994-.15-4.515-.015-.433-.053-.9-.082-1.344-.424.224-.855.463-1.27.71-1.283.887-2.676 1.634-3.927 2.536-.867.944-1.157 2.297-.767 3.52M162.5 156.57c-.063.616-.28 1.254-.052 1.863.2.43.602.746.94 1.067-.068.127-.21.357-.285.46-.58-.328-1.163-.76-1.324-1.455-.298-.666-.05-1.368.215-1.98.12.003.393.025.505.044m-1.43 2.353c.402.7.95 1.356 1.713 1.68.652.305 1.392.29 2.09.274 1.226-.47 2.217-1.532 2.392-2.86-.037-1.506-.122-2.995-.15-4.516-.015-.433-.052-.9-.082-1.343-.423.224-.855.462-1.27.71-1.284.886-2.676 1.633-3.927 2.536-.866.944-1.155 2.297-.767 3.52M180.124 156.618c-.063.617-.28 1.255-.052 1.864.2.43.602.746.94 1.067-.068.126-.21.356-.285.46-.58-.328-1.164-.76-1.324-1.455-.297-.667-.05-1.368.215-1.98.12.002.394.024.506.043m-1.43 2.354c.402.7.95 1.356 1.713 1.68.652.305 1.39.29 2.09.274 1.226-.47 2.216-1.532 2.392-2.86-.038-1.506-.123-2.995-.152-4.516-.014-.433-.052-.9-.08-1.344-.424.224-.856.462-1.272.71-1.283.886-2.676 1.634-3.926 2.536-.867.945-1.156 2.297-.767 3.52M199.628 156.94c-.063.617-.28 1.255-.052 1.863.2.43.602.746.94 1.067-.068.128-.21.357-.284.46-.58-.327-1.165-.76-1.325-1.454-.298-.666-.048-1.368.215-1.98.12.002.394.025.506.043m-1.43 2.354c.402.7.948 1.356 1.713 1.68.653.305 1.393.29 2.092.273 1.226-.47 2.216-1.53 2.39-2.86-.035-1.506-.122-2.995-.15-4.515-.015-.434-.052-.902-.08-1.345-.425.224-.856.463-1.272.71-1.282.887-2.675 1.634-3.926 2.536-.866.945-1.156 2.298-.766 3.52M217.252 156.988c-.063.618-.28 1.256-.052 1.865.2.43.602.746.94 1.067-.07.127-.21.357-.285.46-.58-.328-1.164-.76-1.324-1.455-.297-.666-.048-1.368.216-1.98.12.003.393.025.506.043m-1.43 2.355c.402.7.948 1.356 1.712 1.68.653.305 1.393.29 2.092.274 1.225-.47 2.215-1.532 2.39-2.862-.036-1.504-.122-2.993-.15-4.514-.015-.433-.052-.9-.08-1.343-.425.224-.856.462-1.272.71-1.283.886-2.676 1.633-3.927 2.536-.866.944-1.155 2.297-.766 3.52M236.51 157.46c-.064.617-.28 1.255-.053 1.864.2.43.602.745.94 1.067-.068.128-.21.357-.284.46-.58-.327-1.164-.76-1.325-1.454-.297-.667-.048-1.368.215-1.98.12.002.394.025.506.043m-1.432 2.354c.403.7.95 1.356 1.714 1.68.652.304 1.39.29 2.09.274 1.226-.47 2.216-1.532 2.392-2.862-.037-1.505-.122-2.994-.15-4.514-.015-.434-.053-.902-.082-1.345-.423.224-.855.463-1.27.71-1.284.887-2.676 1.634-3.927 2.536-.867.945-1.156 2.298-.767 3.52M254.133 157.508c-.063.618-.28 1.256-.052 1.865.2.43.602.746.94 1.067-.067.127-.21.357-.284.46-.58-.328-1.164-.76-1.324-1.455-.298-.666-.05-1.368.215-1.98.12.003.394.025.506.043m-1.43 2.355c.402.7.95 1.356 1.713 1.68.652.305 1.39.29 2.09.274 1.226-.47 2.216-1.532 2.392-2.862-.037-1.504-.123-2.993-.15-4.514-.016-.433-.053-.9-.083-1.343-.423.224-.855.462-1.27.71-1.283.886-2.676 1.633-3.926 2.536-.868.944-1.157 2.297-.768 3.52M152.428 168.49c-.063.618-.28 1.256-.052 1.866.2.43.602.745.94 1.066-.068.127-.21.357-.285.46-.578-.327-1.162-.76-1.323-1.454-.297-.667-.05-1.368.215-1.98.12.002.394.025.506.043m-1.43 2.356c.402.7.95 1.356 1.713 1.68.653.304 1.392.29 2.092.273 1.225-.47 2.215-1.532 2.39-2.862-.036-1.505-.12-2.994-.15-4.515-.014-.433-.052-.9-.08-1.344-.425.223-.856.462-1.272.71-1.283.886-2.676 1.633-3.926 2.535-.867.945-1.156 2.298-.767 3.52M170.78 168.54c-.063.618-.28 1.256-.052 1.865.2.43.602.746.94 1.067-.068.127-.21.357-.284.46-.58-.328-1.165-.76-1.325-1.455-.3-.666-.05-1.368.214-1.98.12.003.394.025.506.043m-1.43 2.355c.402.7.95 1.356 1.713 1.68.653.305 1.392.29 2.092.274 1.225-.47 2.215-1.533 2.39-2.863-.036-1.505-.122-2.993-.15-4.514-.015-.434-.053-.902-.082-1.344-.424.223-.855.46-1.27.708-1.283.887-2.676 1.634-3.927 2.537-.866.944-1.156 2.297-.766 3.52M189.556 168.862c-.063.617-.28 1.255-.052 1.864.2.43.602.746.94 1.067-.068.127-.21.357-.284.46-.58-.328-1.165-.76-1.326-1.455-.297-.666-.047-1.368.216-1.98.12.003.394.025.506.044m-1.43 2.354c.402.7.948 1.356 1.712 1.68.653.305 1.393.29 2.092.274 1.226-.47 2.215-1.532 2.39-2.86-.036-1.506-.122-2.995-.15-4.516-.015-.434-.052-.902-.08-1.344-.425.224-.856.462-1.272.71-1.283.886-2.675 1.634-3.927 2.536-.865.945-1.154 2.297-.765 3.52M207.908 168.91c-.063.618-.28 1.256-.052 1.865.2.43.602.746.94 1.067-.068.127-.21.357-.285.46-.578-.328-1.162-.76-1.323-1.454-.298-.667-.05-1.368.215-1.98.12.002.394.025.506.043m-1.43 2.356c.402.7.95 1.356 1.713 1.68.653.304 1.392.29 2.092.274 1.225-.47 2.215-1.532 2.39-2.862-.036-1.505-.12-2.994-.15-4.515-.014-.433-.052-.9-.08-1.344-.425.223-.856.46-1.272.71-1.283.885-2.676 1.633-3.926 2.535-.867.945-1.156 2.298-.767 3.52M226.437 169.382c-.063.617-.28 1.255-.052 1.864.2.43.602.746.94 1.067-.068.127-.21.357-.285.46-.58-.328-1.164-.76-1.324-1.455-.297-.666-.05-1.367.215-1.98.122.003.395.026.507.044m-1.43 2.354c.402.7.95 1.357 1.713 1.68.652.305 1.39.29 2.09.274 1.226-.47 2.216-1.532 2.392-2.862-.037-1.504-.122-2.993-.15-4.514-.015-.434-.053-.902-.082-1.344-.423.224-.855.462-1.27.71-1.284.886-2.677 1.634-3.927 2.536-.867.945-1.156 2.297-.767 3.52M244.79 169.43c-.064.62-.28 1.256-.053 1.865.2.43.602.746.94 1.067-.068.128-.21.357-.284.46-.58-.327-1.165-.76-1.325-1.454-.298-.667-.048-1.368.215-1.98.12.002.394.025.506.043m-1.43 2.356c.4.7.948 1.356 1.712 1.68.652.304 1.392.29 2.092.274 1.225-.47 2.214-1.532 2.39-2.862-.036-1.505-.123-2.994-.152-4.515-.014-.433-.05-.9-.08-1.344-.424.223-.855.462-1.27.71-1.283.886-2.676 1.633-3.928 2.535-.865.945-1.155 2.298-.765 3.52M142.647 180.414c-.063.617-.28 1.255-.052 1.864.2.43.602.746.94 1.067-.068.127-.21.357-.285.46-.58-.328-1.164-.76-1.324-1.455-.297-.666-.05-1.367.215-1.98.122.003.395.025.507.044m-1.43 2.354c.402.7.95 1.356 1.713 1.68.652.305 1.39.29 2.09.274 1.226-.47 2.216-1.532 2.392-2.862-.037-1.504-.122-2.993-.15-4.514-.015-.434-.053-.902-.082-1.344-.424.224-.855.462-1.27.71-1.284.886-2.677 1.633-3.927 2.536-.867.944-1.156 2.297-.767 3.52M162.084 180.617c-.063.618-.28 1.255-.052 1.864.2.432.602.747.94 1.068-.068.128-.21.357-.284.46-.58-.327-1.165-.76-1.326-1.454-.297-.667-.048-1.368.216-1.98.12.002.393.025.506.043m-1.43 2.355c.402.7.948 1.356 1.712 1.68.653.304 1.392.29 2.092.273 1.225-.47 2.215-1.532 2.39-2.86-.036-1.506-.122-2.995-.15-4.515-.015-.434-.052-.902-.08-1.345-.425.224-.856.463-1.272.71-1.283.887-2.675 1.634-3.927 2.536-.866.946-1.156 2.3-.766 3.522M179.708 180.666c-.063.618-.28 1.256-.052 1.865.198.43.602.746.94 1.068-.07.127-.21.356-.285.46-.58-.328-1.163-.76-1.324-1.455-.297-.666-.048-1.368.215-1.98.123.003.395.025.508.043m-1.43 2.355c.402.7.948 1.357 1.712 1.68.653.306 1.392.29 2.092.275 1.225-.47 2.215-1.532 2.39-2.862-.036-1.504-.122-2.994-.15-4.514-.015-.435-.053-.903-.08-1.345-.425.223-.857.462-1.273.71-1.283.886-2.676 1.633-3.927 2.535-.866.945-1.155 2.298-.766 3.52M199.212 180.988c-.063.617-.28 1.255-.053 1.864.198.43.6.746.94 1.067-.068.126-.21.356-.285.458-.58-.327-1.164-.76-1.324-1.454-.297-.666-.048-1.368.216-1.98.12.003.393.025.506.044m-1.43 2.354c.4.7.948 1.356 1.713 1.68.652.305 1.39.29 2.09.274 1.226-.47 2.216-1.532 2.392-2.862-.037-1.504-.123-2.993-.152-4.514-.013-.434-.05-.902-.08-1.344-.424.224-.856.462-1.27.71-1.284.886-2.677 1.633-3.928 2.536-.866.944-1.155 2.297-.766 3.52M216.835 181.037c-.062.618-.28 1.255-.052 1.864.2.432.602.747.94 1.068-.067.128-.21.357-.284.46-.58-.327-1.165-.76-1.326-1.455-.297-.666-.048-1.367.216-1.98.12.003.393.026.505.044m-1.43 2.355c.402.7.95 1.356 1.713 1.68.653.304 1.392.29 2.092.273 1.225-.47 2.215-1.532 2.39-2.86-.037-1.506-.122-2.995-.15-4.516-.015-.434-.052-.902-.082-1.345-.423.224-.855.463-1.27.71-1.283.887-2.676 1.634-3.927 2.536-.865.946-1.154 2.3-.765 3.522M236.093 181.508c-.063.617-.28 1.255-.052 1.864.2.43.602.746.94 1.067-.068.126-.21.356-.284.458-.58-.327-1.164-.758-1.325-1.454-.296-.666-.047-1.368.217-1.98.12.003.393.025.506.044m-1.43 2.354c.402.7.948 1.356 1.712 1.68.653.305 1.392.29 2.092.274 1.225-.47 2.215-1.532 2.39-2.86-.036-1.506-.122-2.995-.15-4.516-.015-.434-.052-.902-.08-1.344-.425.224-.857.462-1.272.71-1.283.886-2.676 1.633-3.927 2.536-.866.945-1.155 2.297-.766 3.52M253.717 181.557c-.064.617-.28 1.255-.053 1.864.2.432.603.747.94 1.068-.068.127-.21.357-.284.46-.58-.327-1.164-.76-1.325-1.454-.297-.667-.048-1.368.215-1.98.122.002.394.024.507.043m-1.43 2.354c.4.702.948 1.357 1.712 1.682.652.304 1.39.29 2.09.273 1.226-.47 2.216-1.53 2.39-2.86-.035-1.506-.12-2.995-.15-4.516-.014-.434-.052-.902-.08-1.345-.424.224-.856.463-1.272.71-1.282.887-2.675 1.634-3.926 2.536-.866.946-1.155 2.3-.766 3.52M152.012 192.54c-.063.617-.28 1.255-.052 1.864.2.43.6.745.94 1.067-.068.128-.21.358-.285.46-.58-.327-1.164-.76-1.325-1.454-.297-.666-.048-1.368.216-1.98.12.003.393.025.506.043m-1.43 2.354c.402.7.948 1.356 1.712 1.68.653.305 1.392.29 2.092.274 1.225-.47 2.215-1.532 2.39-2.862-.036-1.504-.122-2.993-.15-4.514-.015-.434-.052-.902-.08-1.344-.425.223-.857.462-1.272.71-1.283.886-2.676 1.633-3.927 2.536-.866.944-1.155 2.297-.766 3.52M170.364 192.59c-.063.616-.28 1.254-.052 1.863.198.43.6.746.94 1.067-.068.127-.21.357-.285.46-.58-.328-1.164-.76-1.324-1.454-.298-.667-.05-1.368.215-1.98.12.002.394.024.506.043m-1.43 2.353c.402.7.95 1.356 1.713 1.68.652.305 1.39.29 2.09.274 1.226-.47 2.216-1.532 2.392-2.86-.038-1.506-.123-2.995-.152-4.516-.014-.433-.052-.9-.08-1.343-.425.224-.857.462-1.272.71-1.283.887-2.676 1.634-3.926 2.536-.867.945-1.156 2.297-.767 3.52M189.14 192.91c-.063.618-.28 1.256-.053 1.864.2.43.602.746.94 1.067-.067.13-.21.358-.284.46-.58-.326-1.164-.758-1.324-1.454-.3-.665-.05-1.367.214-1.98.12.003.393.026.505.044m-1.43 2.355c.4.7.948 1.356 1.713 1.68.652.305 1.39.29 2.09.274 1.226-.47 2.216-1.533 2.392-2.863-.037-1.505-.123-2.994-.152-4.515-.014-.433-.05-.9-.08-1.344-.424.224-.856.463-1.27.71-1.284.887-2.677 1.634-3.928 2.536-.866.945-1.155 2.298-.766 3.52M207.492 192.96c-.063.617-.28 1.255-.052 1.864.2.43.602.745.94 1.067-.07.128-.21.358-.284.46-.58-.327-1.165-.76-1.326-1.454-.297-.666-.048-1.368.216-1.98.12.003.393.025.506.044m-1.43 2.354c.402.7.948 1.356 1.712 1.68.653.305 1.392.29 2.092.274 1.225-.47 2.215-1.532 2.39-2.862-.036-1.504-.122-2.993-.15-4.514-.015-.434-.052-.902-.08-1.344-.425.223-.856.462-1.273.71-1.282.886-2.675 1.633-3.926 2.536-.866.944-1.155 2.297-.766 3.52M196.49 207.96c-.062.616-.278 1.254-.05 1.864.198.43.6.745.938 1.066-.066.127-.21.357-.283.46-.58-.327-1.164-.76-1.325-1.454-.297-.667-.048-1.368.216-1.98.12.002.393.025.505.043m-1.43 2.354c.403.7.95 1.356 1.714 1.68.653.304 1.392.29 2.092.274 1.225-.47 2.215-1.532 2.39-2.862-.037-1.505-.122-2.994-.15-4.515-.015-.432-.052-.9-.082-1.343-.423.224-.855.462-1.27.71-1.284.887-2.676 1.634-3.927 2.536-.866.945-1.155 2.298-.766 3.52M177.715 207.638c-.062.618-.28 1.256-.052 1.864.2.43.602.746.94 1.067-.067.127-.21.356-.284.46-.58-.328-1.165-.76-1.325-1.456-.298-.665-.05-1.367.215-1.98.12.003.393.026.505.044m-1.43 2.355c.402.7.95 1.356 1.714 1.68.65.305 1.39.29 2.09.273 1.225-.47 2.215-1.53 2.39-2.86-.036-1.506-.122-2.995-.15-4.516-.015-.433-.052-.9-.082-1.344-.423.224-.855.463-1.27.71-1.283.887-2.676 1.634-3.927 2.536-.865.945-1.154 2.298-.765 3.52M159.364 207.59c-.063.616-.28 1.254-.052 1.863.2.43.602.746.94 1.067-.07.127-.21.357-.284.46-.58-.328-1.165-.76-1.326-1.455-.297-.666-.048-1.367.216-1.98.12.003.393.025.506.044m-1.43 2.353c.402.7.948 1.356 1.712 1.68.653.305 1.392.29 2.092.274 1.225-.47 2.215-1.532 2.39-2.86-.036-1.506-.122-2.995-.15-4.516-.015-.433-.052-.9-.08-1.343-.425.224-.856.462-1.273.71-1.282.886-2.675 1.634-3.926 2.536-.867.945-1.156 2.297-.767 3.52M226.02 193.43c-.063.618-.278 1.255-.05 1.865.197.43.6.745.938 1.066-.068.128-.21.358-.284.46-.58-.326-1.164-.758-1.325-1.453-.298-.666-.05-1.368.214-1.98.122.002.394.025.507.043m-1.43 2.355c.403.7.95 1.356 1.713 1.68.653.305 1.392.29 2.092.274 1.225-.47 2.215-1.533 2.39-2.863-.036-1.505-.122-2.994-.15-4.515-.015-.433-.053-.9-.08-1.344-.425.224-.857.463-1.273.71-1.282.887-2.675 1.634-3.926 2.536-.866.945-1.155 2.298-.766 3.52M244.373 193.48c-.063.617-.28 1.255-.053 1.864.2.43.602.746.94 1.067-.067.128-.21.358-.284.46-.58-.327-1.164-.76-1.324-1.454-.298-.666-.05-1.368.215-1.98.12.003.394.025.506.043m-1.43 2.354c.4.7.948 1.356 1.713 1.68.652.305 1.39.29 2.09.274 1.226-.47 2.216-1.532 2.392-2.862-.037-1.504-.123-2.993-.152-4.514-.013-.434-.05-.902-.08-1.344-.424.224-.856.462-1.27.71-1.284.886-2.677 1.633-3.928 2.536-.866.944-1.155 2.297-.766 3.52"/></g><path d="M108.517 138.34c9.3-4.295 17.576-23.14 17.576-23.14 13.397-7.733 16.127-15.696 16.127-15.696-2.39 4.983-14.676 12.545-14.676 12.545l1.195-3.516c9.244-6.437 11.962-12.326 12.745-14.89-1.956 4.93-12.576 12.676-12.576 12.676 1.62-1.89 2.132-11.226 2.132-11.226 9.045-6.013 8.96-12.316 8.96-12.316-.94 4.24-9.812 10.37-9.812 10.37-1.536-1.606.484-6.6.484-6.6s-3.614.608-1.807 8.188c1.807 7.582-9.034 25.32-9.034 25.32-4.968-3.638-1.13-15.464-1.13-15.464-7.677 7.582-1.128 17.588-1.128 17.588-3.162 7.882-12.258 12.108-12.26 12.11-.198-3.595-.416-16.99 6.162-28.94 8.76-15.913 0-35.478 0-35.478 2.328 5.47 2.702 11.312 2.19 16.628-2.59-.668-4.15-5.69-4.15-5.69 0 3.62 3.08 6.76 3.932 7.56-1.267 9.282-4.972 16.525-4.972 16.525s-4.115 6.186-6.635 14.24c-1.637-1.62-5.315-6.068-5.47-13.43 6.026-4.477 6.574-8.398 6.574-8.398-.478 2.064-5.062 5.888-6.564 7.096.005-.15.007-.296.015-.446.574-10.66-.034-12.09-.034-12.09s-.13 6.32-1.112 11.87c-.443 2.51-.433 5.066.277 7.84-5.292-1.975-8.298-8.226-8.298-8.226.833 2.47 1.947 4.37 3.117 5.823-3.355-.382-6.966-2.03-6.966-2.03 2.916 2 6.714 2.96 8.058 3.252 1.923 1.935 3.806 2.795 4.685 3.12.947 2.608 2.514 5.428 4.89 8.59-1.195 4.903-1.62 10.264-.154 15.237.612 2.077 1.072 4.27 1.412 6.5-12.138-5.49-12.997-19.83-12.997-19.83-1.884-9.34-6.876-11.65-6.876-11.65 3.55 4.868 4.07 7.8 4.496 11.563-1.388-.4-3.804-1.607-5.97-5.242 0 0 .875 5.176 6.12 6.597.24 2.168.554 4.674 1.412 7.965 2.033 7.81 10.67 13.863 14.428 16.176.83 11.626-.896 22.642-.896 22.642h9.938c.2-6.53-.296-12.43-1.093-17.502 1.483-1.285 5.385-5.042 8.15-11.064 4.727-.852 7.943-3.986 7.943-3.986-1.88 1.758-5.91 2.332-7.295 2.482.933-2.328 1.677-4.953 2.056-7.868 0 0-3.22 12.61-11.59 16.36-.324-1.597-.673-3.088-1.028-4.462.24.302.172.15-.08-.31-.198-.754-.398-1.473-.596-2.152-.2-2.315.12-5.22.12-5.22" fill="#5C3342"/><path d="M611.043 235.287H471.996c16.118 17.83 64.054 30.765 120.686 30.765 18.125 0 35.356-1.327 50.942-3.713-20.167-3.01-32.343-18.078-32.58-27.053" fill="#532937"/><path d="M744.05 233.81s8.464-1.657 13.93-6.547c5.466-4.89 39.32-37.217 87.632-37.217v44.593H743.7l.35-.83z" fill="#2E1B35"/><path fill="#3C1926" d="M843.984 164.53H734.415v98.66h115.437v-98.66"/><path fill="#552435" d="M1097.646 181.53H974.854v83.78h122.793"/><path d="M211.65 263.788s-8.802-3.667-14.486-14.487c-5.685-10.818-40.895-82.338-91.14-82.338v98.66h105.994l-.367-1.834z" fill="#491E2C"/><path d="M80.634 173.594c-1.254.63-2.492 1.3-3.717 2-33.82 19.358-56.462 65.217-60.923 73.707C10.31 260.12 1.507 263.79 1.507 263.79l-.367 1.834h105.995V166.96c-9.39 0-18.255 2.5-26.5 6.632" fill="#532937"/><path fill="#5C3342" d="M248.715 194.566l-7.463.13.375-14.852 5.692.13"/><path d="M244.342 134.993s35.356 38.153.917 48.013l-.918-48.013z" fill="#632B36"/><path d="M245.34 134.95s-33.922 39.443.84 48.092l-.84-48.09z" fill="#732A38"/><path d="M206.526 263.78s9.873-4.113 16.25-16.248c6.375-12.135 45.866-92.35 102.222-92.35v110.656H206.116l.41-2.058z" fill="#502131"/><path d="M443.468 263.78s-9.872-4.113-16.248-16.248c-6.376-12.135-45.867-92.35-102.222-92.35v110.656h118.88l-.41-2.058z" fill="#5E2739"/><path d="M166.442 264.267s6.505-2.71 10.706-10.705c4.2-7.996 30.22-60.847 67.352-60.847v72.907h-78.328l.27-1.355z" fill="#532937"/><path d="M322.557 264.267s-6.505-2.71-10.705-10.705c-4.202-7.996-30.22-60.847-67.352-60.847v72.907h78.328l-.27-1.355z" fill="#491E2C"/><path d="M321.723 263.565s9.873-4.113 16.25-16.25c6.375-12.133 45.865-92.348 102.22-92.348v110.655h-118.88l.41-2.057z" fill="#532937"/><path d="M557.665 263.565s-9.873-4.113-16.25-16.25c-6.374-12.133-45.865-92.348-102.22-92.348v110.655h118.88l-.41-2.057z" fill="#3A1521"/><path d="M430.546 201.825v9.633c22.416 5.513 52.596 17.86 55.025 53.815l18.006.453c-2.878-42.597-46.425-58.072-73.03-63.9M418.287 199.34c-2.926-.58-5.45-1.08-7.27-1.534-11.667-2.917-14.56-23.768-14.87-26.444-1.562.92-3.818 3.02-4.72 3.714.57 7.14 3.555 28.1 21.33 32.546 2.086.52 4.736 1.044 7.805 1.65 3.034.6 6.41 1.306 9.984 2.186v-9.633c-4.667-1.022-8.856-1.814-12.26-2.486" fill="#5C3342"/><path d="M257.92 32.577c.507-1.865.78-3.8.78-5.79 0-14.78-14.71-26.76-32.853-26.76-12.48 0-23.335 5.668-28.895 14.016-3.334-1.497-7.163-2.35-11.24-2.35-12.874 0-23.31 8.5-23.31 18.988 0 .278.01.552.024.826h-.075c-10.99 0-19.9 7.258-19.9 16.21 0 8.953 8.91 16.21 19.9 16.21h88.454c10.99 0 19.9-7.257 19.9-16.21 0-6.91-5.308-12.805-12.783-15.14M674.107 29.233c.39-1.648.604-3.357.604-5.114 0-13.06-11.38-23.642-25.42-23.642-9.657 0-18.056 5.008-22.36 12.382-2.58-1.323-5.543-2.077-8.696-2.077-9.962 0-18.038 7.51-18.038 16.774 0 .245.008.487.02.73h-.058c-8.506 0-15.4 6.41-15.4 14.32 0 7.908 6.894 14.32 15.4 14.32H668.6c8.504 0 15.4-6.412 15.4-14.32 0-6.104-4.11-11.313-9.893-13.374" fill="#532937"/><path d="M626.625 40.184c-.32-1.353-.496-2.757-.496-4.2 0-10.722 9.346-19.414 20.876-19.414 7.93 0 14.827 4.112 18.36 10.168 2.12-1.086 4.553-1.705 7.143-1.705 8.18 0 14.81 6.167 14.81 13.775 0 .2-.005.4-.015.6h.048c6.985 0 12.647 5.264 12.647 11.76 0 6.494-5.662 11.76-12.647 11.76h-56.206c-6.984 0-12.647-5.266-12.647-11.76 0-5.013 3.374-9.29 8.125-10.984" fill="#4F1A2C"/><path d="M1005.886 32.21c-.408-1.77-.63-3.604-.63-5.49 0-14.01 11.88-25.368 26.535-25.368 10.08 0 18.846 5.374 23.34 13.288 2.69-1.42 5.784-2.23 9.075-2.23 10.4 0 18.828 8.06 18.828 18 0 .263-.008.523-.02.784h.06c8.878 0 16.074 6.88 16.074 15.366s-7.196 15.367-16.074 15.367h-71.44c-8.876 0-16.073-6.88-16.073-15.367 0-6.55 4.29-12.14 10.326-14.35" fill="#502131"/><path d="M351.427 32.93c-.4-1.548-.62-3.157-.62-4.81 0-12.285 11.688-22.242 26.106-22.242 9.916 0 18.54 4.712 22.96 11.65 2.648-1.245 5.692-1.955 8.93-1.955 10.23 0 18.523 7.067 18.523 15.782 0 .23-.008.458-.02.686h.06c8.734 0 15.815 6.032 15.815 13.473 0 7.44-7.08 13.473-15.814 13.473h-70.284c-8.733 0-15.814-6.032-15.814-13.473 0-5.742 4.22-10.643 10.16-12.582M592.782 54.52c.403-1.75.624-3.565.624-5.43 0-13.865-11.757-25.103-26.258-25.103-9.974 0-18.648 5.317-23.094 13.148-2.663-1.405-5.724-2.206-8.98-2.206-10.29 0-18.63 7.974-18.63 17.81 0 .26.007.518.02.775h-.062c-8.784 0-15.906 6.808-15.906 15.205 0 8.4 7.122 15.207 15.906 15.207h70.692c8.784 0 15.906-6.808 15.906-15.207 0-6.48-4.244-12.012-10.218-14.2M89.156 31.593c.39-1.685.6-3.435.6-5.233 0-13.358-11.327-24.186-25.298-24.186-9.612 0-17.97 5.122-22.252 12.667-2.567-1.352-5.516-2.124-8.654-2.124-9.915 0-17.952 7.684-17.952 17.163 0 .25.01.497.02.744h-.058c-8.464 0-15.325 6.56-15.325 14.652 0 8.09 6.86 14.65 15.325 14.65h68.113c8.464 0 15.325-6.56 15.325-14.65 0-6.246-4.09-11.574-9.844-13.683" fill="#4F1A2C"/><path fill="#471325" d="M1069.002 155.158h-63.432v15.475h63.432"/><path fill="#501A2D" d="M781.533 177.032h-25.406v16.233h25.406M819.98 177.032h-25.404v16.233h25.405M802.29 211.022h-28.233v37.07h28.232"/><path fill="#471325" d="M1047.566 206.263h-53.158v24.83h53.158"/><path d="M696.297 241.482s30.916 1.824 67.512 0c36.595-1.823 164.69 19.562 164.69 22.562S597.783 265.5 620 265.5c22.217 0 76.297-24.018 76.297-24.018z" fill="#481E2D"/><path d="M901.77 265.05s6.507-.72 10.707-2.844c4.202-2.124 30.22-16.164 67.352-16.164v19.368H901.5l.27-.36z" fill="#461D2B"/><path d="M1057.886 265.05s-6.504-.72-10.705-2.844c-4.2-2.124-30.22-16.164-67.35-16.164v19.368h78.327l-.27-.36z" fill="#3A1521"/><path d="M683.52 248.448s4.123-.96 6.786-3.786c2.662-2.827 19.156-21.517 42.694-21.517v25.782h-49.652l.17-.48z" fill="#532937"/><path d="M779.64 248.017s-4.125-.958-6.79-3.786c-2.66-2.826-19.155-21.516-42.693-21.516v25.783h49.654l-.17-.48z" fill="#39111F"/><path fill="#471325" d="M1087.55 168.502H987.02v14.794h100.53"/><path fill="#62283C" d="M785.25 82.957H762.53v83.782h22.723M818.48 103.12h-22.72v53.762h22.72"/><path d="M824.112 155.972H761.55c-6.908 0-12.51 4.673-12.51 10.437H836.625c0-5.765-5.603-10.438-12.512-10.438" fill="#512837"/><path d="M609.507 246.96c1.337 2.082-2.64 5.012-6.947 3.86-4.468 1.33-6.167-.49-6.67-2.595.24-1.992 3.923-4.76 7.372-4.034 3.683-.367 6.15 1.533 6.245 2.77M615.268 253.42c.64.997-1.264 2.4-3.327 1.847-2.138.638-2.952-.233-3.193-1.242.116-.954 1.88-2.28 3.53-1.93 1.764-.178 2.946.732 2.99 1.325M576.727 254.688c-.286-.84 1.35-1.517 2.748-.746 1.668-.08 2.103.7 2.097 1.476-.255.672-1.774 1.318-2.91.77-1.313-.19-2.01-1.063-1.935-1.5M567.325 243.93c.85.996-1.677 2.4-4.415 1.847-2.84.637-3.92-.233-4.238-1.242.152-.954 2.493-2.28 4.684-1.93 2.34-.178 3.91.732 3.97 1.324" fill="#481B2A"/><path d="M324.33 128.753c6.802-3.142 12.855-16.925 12.855-16.925 9.798-5.657 11.795-11.48 11.795-11.48-1.747 3.645-10.733 9.175-10.733 9.175l.873-2.57c6.762-4.71 8.75-9.016 9.322-10.892-1.43 3.607-9.197 9.274-9.197 9.274 1.186-1.383 1.56-8.21 1.56-8.21 6.615-4.4 6.552-9.01 6.552-9.01-.686 3.102-7.176 7.585-7.176 7.585-1.122-1.175.355-4.827.355-4.827s-2.642.444-1.32 5.988c1.32 5.546-6.61 18.52-6.61 18.52-3.632-2.66-.824-11.31-.824-11.31-5.615 5.545-.825 12.864-.825 12.864-2.313 5.764-8.966 8.855-8.968 8.856-.144-2.63-.303-12.426 4.508-21.166 6.406-11.64 0-25.95 0-25.95 1.702 4 1.976 8.275 1.602 12.163-1.893-.488-3.036-4.162-3.036-4.162 0 2.648 2.253 4.944 2.877 5.53-.926 6.788-3.635 12.086-3.635 12.086s-3.01 4.526-4.853 10.416c-1.2-1.185-3.89-4.438-4.003-9.823 4.408-3.274 4.81-6.142 4.81-6.142-.35 1.51-3.703 4.307-4.802 5.192.004-.11.006-.217.012-.327.42-7.797-.026-8.842-.026-8.842s-.093 4.62-.812 8.68c-.324 1.837-.317 3.707.203 5.735-3.87-1.444-6.068-6.016-6.068-6.016.61 1.806 1.424 3.195 2.28 4.258-2.454-.28-5.094-1.485-5.094-1.485 2.132 1.464 4.91 2.164 5.893 2.38 1.407 1.414 2.785 2.043 3.428 2.28.692 1.91 1.838 3.97 3.576 6.283-.873 3.587-1.184 7.507-.112 11.145.448 1.52.784 3.123 1.032 4.754-8.877-4.016-9.505-14.503-9.505-14.503-1.38-6.833-5.03-8.52-5.03-8.52 2.596 3.558 2.977 5.704 3.288 8.455-1.015-.294-2.782-1.176-4.366-3.834 0 0 .64 3.785 4.476 4.825.176 1.586.405 3.418 1.032 5.827 1.487 5.712 7.805 10.14 10.553 11.83.607 8.503-.655 16.56-.655 16.56h7.268c.147-4.776-.216-9.092-.8-12.8 1.085-.94 3.94-3.69 5.962-8.093 3.457-.624 5.81-2.916 5.81-2.916-1.377 1.286-4.323 1.706-5.336 1.815.682-1.702 1.225-3.622 1.503-5.754 0 0-2.355 9.222-8.477 11.966-.237-1.17-.492-2.26-.752-3.265.176.222.125.11-.06-.226-.144-.552-.29-1.077-.435-1.574-.146-1.693.09-3.817.09-3.817M444.33 128.753c6.802-3.142 12.855-16.925 12.855-16.925 9.798-5.657 11.795-11.48 11.795-11.48-1.747 3.645-10.733 9.175-10.733 9.175l.873-2.57c6.762-4.71 8.75-9.016 9.322-10.892-1.43 3.607-9.197 9.274-9.197 9.274 1.186-1.383 1.56-8.21 1.56-8.21 6.615-4.4 6.552-9.01 6.552-9.01-.686 3.102-7.176 7.585-7.176 7.585-1.122-1.175.355-4.827.355-4.827s-2.642.444-1.32 5.988c1.32 5.546-6.61 18.52-6.61 18.52-3.632-2.66-.824-11.31-.824-11.31-5.615 5.545-.825 12.864-.825 12.864-2.313 5.764-8.966 8.855-8.968 8.856-.144-2.63-.303-12.426 4.508-21.166 6.406-11.64 0-25.95 0-25.95 1.702 4 1.976 8.275 1.602 12.163-1.893-.488-3.036-4.162-3.036-4.162 0 2.648 2.253 4.944 2.877 5.53-.926 6.788-3.635 12.086-3.635 12.086s-3.01 4.526-4.853 10.416c-1.2-1.185-3.89-4.438-4.003-9.823 4.408-3.274 4.81-6.142 4.81-6.142-.35 1.51-3.703 4.307-4.802 5.192.004-.11.006-.217.012-.327.42-7.797-.026-8.842-.026-8.842s-.093 4.62-.812 8.68c-.324 1.837-.317 3.707.203 5.735-3.87-1.444-6.068-6.016-6.068-6.016.61 1.806 1.424 3.195 2.28 4.258-2.454-.28-5.094-1.485-5.094-1.485 2.132 1.464 4.91 2.164 5.893 2.38 1.407 1.414 2.785 2.043 3.428 2.28.692 1.91 1.838 3.97 3.576 6.283-.873 3.587-1.184 7.507-.112 11.145.448 1.52.784 3.123 1.032 4.754-8.877-4.016-9.505-14.503-9.505-14.503-1.38-6.833-5.03-8.52-5.03-8.52 2.596 3.558 2.977 5.704 3.288 8.455-1.015-.294-2.782-1.176-4.366-3.834 0 0 .64 3.785 4.476 4.825.176 1.586.405 3.418 1.032 5.827 1.487 5.712 7.805 10.14 10.553 11.83.607 8.503-.655 16.56-.655 16.56h7.268c.147-4.776-.216-9.092-.8-12.8 1.085-.94 3.94-3.69 5.962-8.093 3.457-.624 5.81-2.916 5.81-2.916-1.377 1.286-4.323 1.706-5.336 1.815.682-1.702 1.225-3.622 1.503-5.754 0 0-2.355 9.222-8.477 11.966-.237-1.17-.492-2.26-.752-3.265.176.222.125.11-.06-.226-.144-.552-.29-1.077-.435-1.574-.146-1.693.09-3.817.09-3.817" fill="#5C3342"/><path d="M975.103 25.077c.328-1.427.508-2.91.508-4.43C975.61 9.33 966.02.16 954.185.16c-8.138 0-15.217 4.34-18.844 10.73-2.173-1.146-4.672-1.8-7.33-1.8-8.397 0-15.204 6.508-15.204 14.535 0 .13.006.26.01.39h-.837c-7.17 0-12.98 5.556-12.98 12.41 0 5.287 3.462 9.8 8.338 11.586-.33 1.43-.51 2.91-.51 4.433 0 11.313 9.594 20.484 21.428 20.484 8.14 0 15.218-4.338 18.844-10.728 2.174 1.145 4.672 1.798 7.33 1.798 8.397 0 15.204-6.507 15.204-14.535 0-.13-.006-.26-.01-.39h.837c7.17 0 12.98-5.554 12.98-12.408 0-5.29-3.462-9.802-8.337-11.588M838.255 13.225c.147-.664.228-1.354.228-2.06 0-5.264-4.308-9.53-9.624-9.53-3.656 0-6.836 2.02-8.464 4.99-.977-.533-2.098-.835-3.293-.835-3.772 0-6.828 3.026-6.828 6.76 0 .06.002.12.004.18h-.377c-3.22 0-5.83 2.585-5.83 5.773 0 2.46 1.555 4.558 3.746 5.39-.15.663-.23 1.353-.23 2.06 0 5.263 4.308 9.53 9.623 9.53 3.656 0 6.836-2.02 8.465-4.992.976.534 2.097.838 3.292.838 3.772 0 6.828-3.026 6.828-6.76 0-.06-.002-.12-.004-.182h.375c3.22 0 5.83-2.583 5.83-5.77 0-2.46-1.555-4.562-3.745-5.39M816.604 63.54c-6.294 0-11.396 5.104-11.396 11.397 0 1.994.515 3.867 1.415 5.497-3.543.494-6.273 3.528-6.273 7.207 0 4.026 3.262 7.287 7.286 7.287 4.025 0 7.286-3.26 7.286-7.286 0-.5-.05-.992-.148-1.467.597.097 1.206.16 1.83.16 6.294 0 11.396-5.102 11.396-11.396 0-6.293-5.102-11.396-11.396-11.396" fill="#502131"/><path d="M800.488 38.304c-6.12-1.472-12.273 2.297-13.743 8.416-.467 1.938-.404 3.88.09 5.674-3.56-.347-6.923 1.965-7.784 5.543-.938 3.912 1.47 7.846 5.383 8.787 3.913.94 7.847-1.47 8.788-5.38.118-.49.183-.98.2-1.464.558.234 1.134.437 1.742.584 6.118 1.47 12.272-2.297 13.742-8.417 1.472-6.12-2.296-12.272-8.416-13.743" fill="#4F1A2C"/><path d="M873.86 64.448c2.556 6.176-5.474 12.128-15.96 11.26-14.485.916-21.835-.446-23.015-16.06-1.28-3.018 11.393-17.99 23.793-18.612 11.185.37 19.44 11.563 15.183 23.412" fill="#502131"/><path d="M891.86 47.448c2.556 6.175-5.474 12.128-15.96 11.26-14.484.916-21.835-.445-23.015-16.06-1.28-3.018 11.393-17.99 23.793-18.612 11.185.37 19.44 11.563 15.183 23.412M782 73.427c0 3.038-2.462 5.5-5.5 5.5-3.037 0-5.5-2.462-5.5-5.5 0-3.037 2.463-5.5 5.5-5.5 3.038 0 5.5 2.463 5.5 5.5" fill="#4F1A2C"/><g><path d="M700.413 235.287h-89.37c.238 8.975 12.414 24.043 32.58 27.052 16.574-2.538 31.283-6.275 43.216-10.896 8.064-5.36 13.373-11.558 13.573-16.157" fill="#502131"/><path d="M659.467 238.546l-13.442-1.582c4.716-12.193 15.104-19.016 27.303-23.528 9.115-3.37 16.85-3.14 17.174-3.125l-.288 8.085.144-4.042-.133 4.042c-1.057-.033-24.236-3.174-30.758 20.15z" fill="#39111F"/><path fill="#4F2735" d="M744.08 214.635l-60.808 9.518-3.032-19.367 60.808-9.52"/><path d="M638.785 235.016c0 3.53 7.098 6.392 15.85 6.392 8.754 0 15.85-2.86 15.852-6.392h-31.702z" fill="#39111F"/></g><path fill="#3C1926" d="M785.277 86.94h-22.724v10h22.724M818.278 109.94h-22.722v10h22.722"/></g></svg>