<svg width="600" height="337" viewBox="0 0 600 337" xmlns="http://www.w3.org/2000/svg"><title>danger-movil</title><g fill="none" fill-rule="evenodd"><path d="M199.59 206.47c9.3-4.297 17.575-23.14 17.575-23.14 13.396-7.735 16.127-15.698 16.127-15.698-2.39 4.983-14.676 12.546-14.676 12.546l1.195-3.516c9.246-6.437 11.963-12.326 12.746-14.89-1.956 4.93-12.575 12.677-12.575 12.677 1.622-1.89 2.134-11.227 2.134-11.227 9.045-6.014 8.96-12.316 8.96-12.316-.94 4.24-9.813 10.368-9.813 10.368-1.535-1.605.486-6.598.486-6.598s-3.614.608-1.807 8.188c1.806 7.58-9.035 25.32-9.035 25.32-4.97-3.638-1.13-15.465-1.13-15.465-7.678 7.582-1.128 17.588-1.128 17.588-3.162 7.882-12.26 12.11-12.262 12.11-.196-3.595-.414-16.99 6.164-28.94 8.758-15.913 0-35.478 0-35.478 2.326 5.47 2.7 11.312 2.19 16.628-2.59-.667-4.152-5.69-4.152-5.69 0 3.62 3.08 6.76 3.932 7.56-1.266 9.282-4.97 16.526-4.97 16.526s-4.115 6.185-6.635 14.24c-1.638-1.62-5.315-6.07-5.47-13.43 6.026-4.478 6.573-8.4 6.573-8.4-.478 2.065-5.06 5.89-6.563 7.097.005-.148.007-.294.015-.445.573-10.66-.034-12.09-.034-12.09s-.13 6.32-1.112 11.87c-.444 2.51-.434 5.067.276 7.84-5.29-1.975-8.297-8.225-8.297-8.225.833 2.47 1.948 4.368 3.117 5.822-3.354-.383-6.964-2.03-6.964-2.03 2.915 2 6.714 2.958 8.057 3.25 1.924 1.936 3.807 2.796 4.686 3.12.945 2.61 2.512 5.43 4.888 8.59-1.194 4.905-1.62 10.265-.154 15.238.613 2.078 1.073 4.27 1.412 6.5-12.138-5.49-12.996-19.83-12.996-19.83-1.884-9.34-6.876-11.648-6.876-11.648 3.55 4.866 4.07 7.8 4.496 11.56-1.388-.4-3.804-1.605-5.97-5.24 0 0 .875 5.175 6.12 6.596.24 2.168.554 4.674 1.41 7.965 2.035 7.81 10.672 13.863 14.43 16.176.83 11.625-.896 22.64-.896 22.64H203c.202-6.53-.294-12.43-1.09-17.5 1.48-1.286 5.383-5.044 8.15-11.066 4.726-.852 7.942-3.986 7.942-3.986-1.882 1.758-5.91 2.333-7.295 2.482.932-2.327 1.676-4.953 2.055-7.868 0 0-3.22 12.61-11.59 16.36-.324-1.597-.673-3.088-1.03-4.462h.003c.24.302.17.15-.083-.31-.197-.754-.397-1.472-.595-2.152-.2-2.315.122-5.22.122-5.22" fill="#37243E"/><path d="M297.628 334.826s-8.802-3.668-14.487-14.488C277.457 309.518 242.247 238 192 238v98.66h105.996l-.368-1.834z" fill="#30113E"/><path d="M166.494 244.632c-1.254.63-2.492 1.3-3.717 2-33.82 19.358-56.462 65.217-60.922 73.706-5.685 10.82-14.487 14.488-14.487 14.488L87 336.66h105.996V238c-9.39 0-18.256 2.5-26.502 6.632" fill="#351842"/><path d="M176.35 48.755c.39-1.647.603-3.357.603-5.114 0-13.056-11.382-23.64-25.422-23.64-9.655 0-18.054 5.008-22.358 12.383-2.578-1.324-5.542-2.078-8.696-2.078-9.962 0-18.037 7.51-18.037 16.775 0 .244.006.487.02.73h-.06c-8.505 0-15.4 6.41-15.4 14.32 0 7.908 6.895 14.32 15.4 14.32h68.443c8.503 0 15.4-6.412 15.4-14.32 0-6.104-4.11-11.314-9.894-13.375" fill="#2B193F"/><path d="M151.124 59.614c-.32-1.353-.496-2.757-.496-4.2 0-10.722 9.348-19.414 20.877-19.414 7.93 0 14.828 4.112 18.362 10.17 2.118-1.088 4.55-1.707 7.142-1.707 8.18 0 14.81 6.168 14.81 13.775 0 .2-.005.4-.015.6h.048c6.985 0 12.647 5.264 12.647 11.76 0 6.494-5.662 11.76-12.647 11.76h-56.206c-6.984 0-12.647-5.266-12.647-11.76 0-5.013 3.374-9.29 8.124-10.984M41.124 79.614c-.32-1.353-.496-2.757-.496-4.2C40.628 64.692 49.976 56 61.505 56c7.93 0 14.828 4.112 18.362 10.17 2.118-1.088 4.55-1.707 7.142-1.707 8.18 0 14.81 6.168 14.81 13.775 0 .2-.005.4-.015.6h.048c6.985 0 12.647 5.264 12.647 11.76 0 6.494-5.662 11.76-12.647 11.76H45.647C38.663 102.357 33 97.09 33 90.597c0-5.013 3.374-9.29 8.124-10.984M506.326 127.857c-.408-1.77-.63-3.603-.63-5.488 0-14.013 11.88-25.37 26.535-25.37 10.08 0 18.846 5.373 23.34 13.288 2.69-1.42 5.784-2.23 9.075-2.23 10.4 0 18.828 8.06 18.828 18 0 .263-.008.523-.02.783h.06c8.878 0 16.074 6.88 16.074 15.368 0 8.486-7.196 15.367-16.074 15.367h-71.44c-8.876 0-16.073-6.88-16.073-15.367 0-6.55 4.29-12.14 10.326-14.35" fill="#442751"/><path d="M148.178 235.62c6.802-3.614 12.856-19.473 12.856-19.473 9.798-6.51 11.794-13.21 11.794-13.21-1.747 4.194-10.733 10.558-10.733 10.558l.873-2.958c6.762-5.417 8.75-10.373 9.323-12.532-1.43 4.15-9.197 10.67-9.197 10.67 1.186-1.59 1.56-9.448 1.56-9.448 6.615-5.06 6.553-10.365 6.553-10.365-.687 3.568-7.177 8.726-7.177 8.726-1.124-1.35.353-5.553.353-5.553s-2.642.51-1.32 6.89c1.32 6.38-6.608 21.31-6.608 21.31-3.634-3.063-.826-13.016-.826-13.016-5.617 6.38-.827 14.8-.827 14.8-2.312 6.634-8.966 10.19-8.968 10.192-.144-3.026-.303-14.298 4.51-24.354 6.405-13.393 0-29.858 0-29.858 1.7 4.602 1.974 9.52 1.6 13.994-1.893-.562-3.036-4.79-3.036-4.79 0 3.047 2.25 5.69 2.875 6.363-.925 7.812-3.635 13.907-3.635 13.907s-3.01 5.207-4.853 11.985c-1.198-1.365-3.887-5.108-4.002-11.305 4.41-3.767 4.81-7.067 4.81-7.067-.35 1.738-3.703 4.955-4.8 5.973.002-.126.004-.248.01-.375.42-8.972-.026-10.174-.026-10.174s-.095 5.32-.814 9.99c-.324 2.113-.317 4.264.203 6.597-3.87-1.66-6.07-6.922-6.07-6.922.61 2.078 1.424 3.677 2.28 4.9-2.453-.322-5.094-1.71-5.094-1.71 2.133 1.685 4.91 2.49 5.893 2.738 1.406 1.628 2.784 2.352 3.427 2.625.692 2.196 1.837 4.57 3.576 7.23-.874 4.126-1.185 8.637-.113 12.823.448 1.75.785 3.594 1.033 5.472-8.878-4.622-9.506-16.69-9.506-16.69-1.378-7.86-5.03-9.803-5.03-9.803 2.597 4.095 2.978 6.563 3.29 9.73-1.016-.338-2.783-1.353-4.367-4.412 0 0 .64 4.355 4.476 5.552.176 1.825.406 3.932 1.032 6.703 1.488 6.573 7.805 11.667 10.553 13.613.61 9.783-.654 19.054-.654 19.054h7.268c.147-5.495-.216-10.462-.798-14.73 1.084-1.08 3.937-4.243 5.96-9.31 3.457-.718 5.81-3.355 5.81-3.355-1.376 1.48-4.322 1.963-5.336 2.09.682-1.96 1.226-4.17 1.504-6.623 0 0-2.356 10.613-8.477 13.77-.238-1.346-.493-2.6-.753-3.757.176.254.126.125-.06-.26-.144-.636-.29-1.24-.434-1.812-.147-1.948.088-4.392.088-4.392" fill="#2E1B35"/><path d="M536.103 24.916c.328-1.427.508-2.91.508-4.43C536.61 9.17 527.02 0 515.185 0c-8.138 0-15.217 4.34-18.844 10.728-2.173-1.145-4.672-1.8-7.33-1.8-8.397 0-15.204 6.508-15.204 14.536 0 .13.006.26.01.39h-.837c-7.17 0-12.98 5.556-12.98 12.41 0 5.286 3.462 9.8 8.338 11.585-.33 1.428-.51 2.91-.51 4.432 0 11.312 9.594 20.484 21.428 20.484 8.14 0 15.218-4.34 18.844-10.728 2.174 1.146 4.672 1.8 7.33 1.8 8.397 0 15.204-6.508 15.204-14.536 0-.13-.006-.26-.01-.39h.837c7.17 0 12.98-5.554 12.98-12.408 0-5.29-3.462-9.802-8.337-11.588M279.182 11.59c.147-.664.228-1.355.228-2.062 0-5.262-4.31-9.528-9.624-9.528-3.655 0-6.835 2.02-8.464 4.99-.976-.533-2.097-.836-3.292-.836-3.772 0-6.828 3.026-6.828 6.76 0 .06.002.12.004.182h-.376c-3.22 0-5.83 2.583-5.83 5.77 0 2.462 1.555 4.56 3.746 5.39-.15.665-.23 1.355-.23 2.062 0 5.263 4.31 9.528 9.624 9.528 3.656 0 6.836-2.018 8.464-4.99.977.533 2.098.836 3.293.836 3.772 0 6.828-3.026 6.828-6.76 0-.06-.002-.12-.005-.18h.376c3.22 0 5.83-2.585 5.83-5.773 0-2.46-1.554-4.56-3.744-5.39" fill="#2B193F"/><path fill="#2C1C44" d="M259.03 336.603h202.83v-78.95H259.03"/><path fill="#221639" d="M294.213 258.263H259.03v-20.7"/><path fill="#23143E" d="M365.5 258.437l9.854-109.874h27.084l9.857 109.874"/><path fill="#23143E" d="M412.143 258.437l9.854-109.874h27.087l9.852 109.874"/><path fill="#221639" d="M329.394 258.263h-35.182v-20.7"/><path fill="#221639" d="M364.575 258.263h-35.182v-20.7"/><path fill="#13062C" d="M371.68 180.08h34.433l-1.144-10.354h-32.143M418.32 180.08h34.436l-1.146-10.354h-32.142"/><path d="M444.33 80.508c2.838-18.317-24.84-18.71-25.762-2.586-3.695-11.175-18.914-9.89-21.282.06-.407-20.655-34.45-19.378-37.343-2.294-.558-2.743-5.892-3.688-7.844-.25-4.438-9-18.825-7.64-23.793.282.234-7.212-11.133-11.354-14.69-2.566-10.65-18.146-44.427-6.66-38.106 17.887-8.76-2.796-16.65 12.044-3.61 16.31-1.808 8.905 15.59 17.194 22.305 4.733-.445 21.48 30.48 20.6 34.413 4.422 7.05 9.312 23.68 4.578 23.762-7.577 4.023 8.206 30.54 11.208 33.226-13.834 5.05 12.256 24.307 10.2 29.384-.985 1.714 8.66 8.658 12.927 16.866 8.03-5.523 6.473-3.1 15.943 5.363 15.943 6.012 0 7.582-7.102 5.84-9.944 13.732-.95 17.19-21.95 1.27-27.632" fill="#442751"/><path fill="#221639" d="M.562 336.603H114.67v-78.268H.562"/><path d="M45.156 186.116c.33 0 .63.12.94.196-1.725-1.026-2.94-2.832-2.94-4.984 0-3.247 2.625-5.88 5.874-5.88.684 0 1.318.173 1.925.39 1.138-2.76 3.834-4.7 6.992-4.7 1.77 0 3.326.7 4.612 1.714 1.303-3.323 4.5-5.698 8.288-5.698 3.33 0 6.12 1.902 7.657 4.6.566-.393 1.066-.878 1.704-1.15-.145-.69-.42-1.336-.42-2.074 0-5.725 4.645-10.38 10.377-10.38 5.725 0 10.376 4.655 10.376 10.38 0 .643-.255 1.203-.365 1.813.91-.223 1.85-.376 2.83-.376 1.62 0 3.165.333 4.575.922-.033-.38-.112-.74-.112-1.123 0-7.78 6.3-14.087 14.08-14.087 7.79 0 14.09 6.308 14.09 14.087 0 7.783-6.3 14.09-14.09 14.09-2.433 0-4.68-.674-6.674-1.755-.135 6.452-5.383 11.66-11.87 11.66-4.728 0-8.773-2.782-10.694-6.77-1.938 2.313-4.74 3.867-7.99 3.867-1.803 0-3.418-.572-4.9-1.366-.872 4.027-4.284 7.106-8.574 7.106-4.94 0-8.94-4.005-8.94-8.946 0-1.086.262-2.096.615-3.063-1.282 1.01-2.82 1.697-4.576 1.697-1.633 0-3.056-.625-4.29-1.502-1.076 1.432-2.702 2.422-4.627 2.422-.57 0-1.097-.174-1.62-.326 1.11.747 1.89 1.95 1.89 3.392 0 2.29-1.864 4.15-4.144 4.15-2.294 0-4.156-1.86-4.156-4.15 0-2.294 1.862-4.156 4.156-4.156" fill="#442751"/><path d="M387.176 128.116c-.355 0-.676.12-1.01.196 1.853-1.026 3.157-2.832 3.157-4.984 0-3.247-2.82-5.88-6.308-5.88-.735 0-1.416.173-2.068.39-1.222-2.76-4.117-4.7-7.508-4.7-1.902 0-3.573.7-4.955 1.714-1.4-3.323-4.832-5.698-8.902-5.698-3.576 0-6.57 1.902-8.223 4.6-.608-.393-1.145-.878-1.83-1.15.154-.69.45-1.336.45-2.074 0-5.725-4.988-10.38-11.145-10.38-6.148 0-11.143 4.655-11.143 10.38 0 .643.273 1.203.392 1.813-.98-.223-1.986-.376-3.04-.376-1.74 0-3.4.333-4.913.922.037-.38.12-.74.12-1.123 0-7.78-6.763-14.087-15.12-14.087-8.365 0-15.13 6.308-15.13 14.087 0 7.783 6.765 14.09 15.13 14.09 2.614 0 5.03-.674 7.168-1.755.145 6.452 5.782 11.66 12.747 11.66 5.08 0 9.424-2.782 11.486-6.77 2.083 2.313 5.092 3.867 8.582 3.867 1.937 0 3.67-.572 5.263-1.366.937 4.027 4.6 7.106 9.208 7.106 5.306 0 9.603-4.005 9.603-8.946 0-1.086-.283-2.096-.662-3.063 1.377 1.01 3.03 1.697 4.915 1.697 1.752 0 3.28-.625 4.607-1.502 1.154 1.432 2.9 2.422 4.968 2.422.613 0 1.178-.174 1.74-.326-1.192.747-2.03 1.95-2.03 3.392 0 2.29 2.002 4.15 4.45 4.15 2.464 0 4.464-1.86 4.464-4.15 0-2.294-2-4.156-4.464-4.156" fill="#2B193F"/><path fill="#24183A" d="M18.496 258.31h78.24v-5.927h-78.24"/><path fill="#241A36" d="M29.482 252.382h52.786l-6.513-49.148h-39.76"/><g><path d="M597.773 320.414c0 1.393-1.127 2.524-2.52 2.524h-28.62c-1.39 0-2.523-1.13-2.523-2.524v-24.796c0-1.39 1.132-2.522 2.524-2.522h28.618c1.394 0 2.52 1.13 2.52 2.522v24.796z" fill="#2E1B36"/><path d="M566.606 292.998c-.17 0-.308.134-.308.305V318.1c0 .168.14.307.308.307h28.616c.168 0 .308-.14.308-.308v-24.797c0-.17-.14-.305-.308-.305h-28.616zm28.616 29.838h-28.616c-2.613 0-4.74-2.126-4.74-4.737v-24.797c0-2.61 2.127-4.737 4.74-4.737h28.616c2.614 0 4.738 2.126 4.738 4.737V318.1c0 2.61-2.124 4.736-4.738 4.736z" fill="#442751"/><path d="M591.517 305.382c0 5.156-4.183 9.335-9.34 9.335-5.158 0-9.338-4.183-9.338-9.335 0-5.157 4.18-9.337 9.336-9.337 5.158 0 9.34 4.18 9.34 9.337" fill="#502836"/><path d="M581.12 303.444c.067.116.206.16.327.105.717-.337 1.618-.3 2.316.108.037.023.08.032.126.034.02 0 .044-.002.062-.01.07-.017.124-.056.158-.115l2.26-3.91c.072-.12.028-.273-.088-.346-2.215-1.315-5.093-1.363-7.33-.133-.058.034-.103.09-.122.155-.018.066-.01.137.025.194l2.266 3.918zM581.206 308.234c-.78-.447-1.266-1.286-1.266-2.214 0-.144-.114-.254-.253-.254h-4.35c-.067 0-.134.026-.18.073-.05.052-.074.113-.074.184.06 2.596 1.508 5 3.782 6.277.04.023.083.033.124.033.085 0 .172-.044.22-.126l2.09-3.624c.036-.06.046-.128.027-.194-.018-.065-.064-.122-.12-.156M589.257 305.84c-.047-.048-.114-.074-.182-.074h-4.347c-.14 0-.25.14-.25.28 0 .813-.397 1.586-1.066 2.058-.103.073-.137.22-.07.33l2.092 3.634c.034.06.09.103.16.12.017.005.04.01.06.01.05 0 .094-.016.133-.04 2.16-1.322 3.486-3.614 3.54-6.134.003-.07-.024-.134-.07-.185" fill="#1D0E3A"/><path d="M582.162 304.27c-1.017 0-1.845.83-1.845 1.85 0 1.022.828 1.85 1.845 1.85 1.02 0 1.853-.828 1.853-1.85 0-1.02-.833-1.85-1.853-1.85" fill="#1D0E3A"/><path d="M565.28 305.013c-1.57-12.245-11.866-21.36-24.33-21.36-9.727 0-18.634 5.892-22.5 14.773-1.67-.5-3.38-.752-5.094-.752-9.87 0-17.9 8.025-17.9 17.894 0 1.448.184 2.894.54 4.313-4.367-.376-8.063 3.148-8.063 7.468 0 4.134 3.363 7.496 7.497 7.496 2.813 0 22.526-.102 39.84-.196 13.547-.073 25.626-.135 26.976-.135 7.79 0 16.028-8.05 16.028-15.663 0-7.314-5.685-13.322-12.993-13.837" fill="#201634"/><path fill="#2E1B36" d="M493.227 263.46l-46.75 71.582h94.974"/><path d="M533.285 326.73h-80.39l40.196-61.87 40.195 61.87zm12.875 1.872l-48.97-75.376c-.905-1.396-2.438-2.226-4.1-2.226-1.665 0-3.2.832-4.1 2.226l-49.202 75.727c-.974 1.503-1.052 3.42-.196 5 .856 1.573 2.505 2.554 4.296 2.554h98.432c2.697 0 4.892-2.194 4.892-4.89 0-1.138-.4-2.246-1.052-3.015z" fill="#3A2543"/><path d="M567.25 282.74c.932 1.038.846 2.632-.188 3.56l-21.287 19.12c-1.036.932-2.63.845-3.564-.19l-16.577-18.444c-.93-1.038-.847-2.63.187-3.56l21.292-19.12c1.033-.93 2.628-.845 3.56.19l16.577 18.444z" fill="#2E1B36"/><path d="M548.767 265.595l-21.493 19.196c-.125.113-.137.31-.023.437l16.582 18.44c.17.19.328.12.433.024l21.287-19.115c.126-.115.135-.308.02-.436l-16.577-18.443c-.078-.084-.167-.102-.228-.102M544.06 308.2c-1.344 0-2.628-.572-3.525-1.57l-16.58-18.445c-1.746-1.94-1.586-4.94.355-6.687l21.292-19.12c1.864-1.682 5.01-1.513 6.69.36l16.578 18.44c1.745 1.94 1.586 4.943-.356 6.69l-21.29 19.116c-.87.785-1.994 1.216-3.164 1.216" fill="#442751"/><path d="M510.202 302.796c0 9.747-7.908 17.648-17.66 17.648-9.75 0-17.652-7.9-17.652-17.648s7.9-17.648 17.653-17.648c9.75 0 17.66 7.9 17.66 17.648" fill="#502836"/><path d="M490.447 298.634c.13.217.395.3.62.2 1.356-.635 3.06-.56 4.375.21.077.04.157.065.24.065.043 0 .086-.01.127-.02.12-.03.227-.114.29-.223l4.274-7.392c.133-.228.055-.517-.17-.652-4.187-2.49-9.622-2.582-13.85-.253-.114.06-.198.17-.23.292-.035.123-.02.257.045.367l4.277 7.404zM490.203 307.02c-1.476-.85-2.393-2.433-2.393-4.19 0-.268-.217-.482-.482-.482h-8.218c-.132 0-.253.05-.347.144-.09.093-.137.214-.134.346.108 4.904 2.848 9.45 7.15 11.864.072.046.154.062.232.062.166 0 .328-.085.417-.237l3.95-6.854c.067-.11.08-.242.05-.362-.035-.125-.115-.23-.227-.29M505.98 302.348h-8.215c-.264 0-.48.27-.48.538 0 1.54-.747 2.988-2.007 3.884-.2.144-.26.42-.134.632l3.954 6.867c.066.108.173.19.3.222.037.012.078.014.12.014.088 0 .173-.023.248-.07 4.087-2.493 6.59-6.83 6.694-11.596.003-.132-.045-.255-.14-.346-.085-.094-.21-.146-.34-.146zM492.592 299.357c-1.93 0-3.496 1.564-3.496 3.496 0 1.927 1.566 3.492 3.496 3.492 1.932 0 3.497-1.565 3.497-3.492 0-1.932-1.566-3.496-3.498-3.496" fill="#1D0E3A"/><path d="M552.896 291.362c-3.65 3.647-9.562 3.647-13.213 0-3.646-3.647-3.646-9.556.005-13.203 3.648-3.645 9.558-3.645 13.206 0 3.648 3.646 3.648 9.558.002 13.202" fill="#502836"/><path d="M546.68 282.23c-.037.127.03.257.155.305.746.267 1.355.933 1.56 1.713.01.04.035.082.062.116l.055.04c.06.033.125.04.194.024l4.362-1.166c.132-.036.217-.173.18-.31-.632-2.497-2.63-4.56-5.085-5.273-.067-.02-.133-.012-.197.022-.06.034-.1.09-.118.155l-1.168 4.372zM544 285.884c-.237-.87.014-1.806.67-2.466.1-.098.1-.255 0-.355l-3.076-3.077c-.044-.043-.112-.073-.178-.073-.07 0-.133.032-.183.08-1.796 1.877-2.47 4.6-1.768 7.11.016.044.034.08.066.11.063.062.156.092.245.067l4.043-1.084c.066-.018.123-.06.155-.118.037-.06.044-.128.028-.194M551.542 289.96c0-.065-.025-.132-.076-.182l-3.073-3.07c-.1-.1-.276-.077-.38.02-.574.578-1.397.84-2.205.706-.128-.023-.253.057-.285.184l-1.088 4.046c-.016.067-.01.137.03.197.006.02.018.037.034.048.035.037.074.057.12.07 2.46.594 5.02-.092 6.844-1.837.048-.045.076-.11.078-.18" fill="#1D0E3A"/><path d="M547.58 284.19c-.716-.718-1.89-.718-2.612.003-.72.72-.72 1.893-.003 2.61.72.724 1.894.724 2.615 0 .72-.72.72-1.892 0-2.612" fill="#1D0E3A"/></g></g></svg>