<?xml version="1.0" encoding="UTF-8" standalone="no"?>
<svg width="600" xmlns="http://www.w3.org/2000/svg" viewBox="0 0 600 337" height="337">
 <g fill-rule="evenodd" fill="none">
  <path d="m215.65 302.55s14.75-6.49 24.28-25.64c9.52-19.15 68.52-145.76 152.71-145.76 15.73 0 30.59 4.42 44.4 11.74 2.1 1.11 4.18 2.3 6.23 3.54 56.67 34.27 94.6 115.45 102.08 130.48 9.52 19.15 24.27 25.64 24.27 25.64l0.62 3.25h-177.6-177.6l0.61-3.25z" fill="#459F96"/>
  <path d="m2.8654 329.11s11.631-5.45 19.143-21.53c7.512-16.09 54.037-122.42 120.43-122.42 66.39 0 112.92 106.33 120.43 122.42 7.51 16.08 19.14 21.53 19.14 21.53l0.49 2.73h-140.06-140.06l0.4854-2.73z" fill="#459F96"/>
  <g transform="translate(334.52 .659)">
   <path d="m54.867 47.353h-2.779l-2.426 98.637h5.205v-98.637 98.637h5.203l-2.612-98.637h-2.591z" fill="#A1DDB8"/>
   <path d="m0.0067586 38.816c0.13762-1.644 2.2039-1.875 3.4376-2.013 1.4061-0.158 3.3852-0.238 5.8844-0.238 5.1462 0 11.972 0.335 19.223 0.943 7.193 0.604 13.943 1.405 19.006 2.255 2.495 0.42 4.46 0.831 5.838 1.224 0.465 0.132 1.051 0.3 1.587 0.549 0.169-0.398 0.367-0.773 0.533-1.087 0.672-1.268 1.736-2.972 3.163-5.066 2.892-4.246 6.99-9.677 11.537-15.292 4.345-5.365 8.653-10.341 12.129-14.012 5.759-6.079 6.812-6.079 7.508-6.079 0.402 0 0.773 0.12941 1.075 0.37365 1.283 1.0428 0.299 2.899-0.289 4.0082-0.672 1.2674-1.735 2.972-3.162 5.0656-2.893 4.2466-6.991 9.6776-11.538 15.292-4.344 5.365-8.652 10.341-12.129 14.012-3.111 3.284-4.846 4.792-5.896 5.487 0.716 1.197 1.626 3.174 2.899 6.438 1.857 4.762 4.002 11.135 6.042 17.945 2.075 6.925 3.804 13.508 4.867 18.537 0.525 2.479 0.863 4.46 1.003 5.889 0.123 1.249 0.328 3.34-1.254 3.817-0.154 0.046-0.314 0.069-0.476 0.069-1.171 0-2.163-0.574-5.154-8.246-1.856-4.763-4.003-11.136-6.043-17.945-2.075-6.924-3.803-13.508-4.868-18.537-0.524-2.479-0.861-4.461-1.002-5.889-0.024-0.256-0.052-0.547-0.068-0.853-0.29 0.046-0.57 0.078-0.816 0.105-1.405 0.157-3.385 0.237-5.883 0.237h-0.002c-5.145 0-11.971-0.334-19.221-0.943-7.194-0.603-13.944-1.404-19.006-2.255-2.4958-0.419-4.4604-0.831-5.8392-1.223-1.2059-0.343-3.2244-0.918-3.086-2.568" fill="#3B948C"/>
   <path d="m48.507 44.194c0 3.996 3.235 7.236 7.226 7.236 3.99 0 7.225-3.24 7.225-7.236s-3.235-7.236-7.225-7.236c-3.991 0-7.226 3.24-7.226 7.236" fill="#AFD7E1"/>
   <path d="m51.972 44.198c0 2.085 1.688 3.775 3.77 3.775s3.77-1.69 3.77-3.775-1.688-3.775-3.77-3.775-3.77 1.69-3.77 3.775" fill="#449E96"/>
  </g>
  <path d="m102.52 335.23s-4.377-1.78-7.204-7.05c-2.826-5.27-20.333-40.08-45.316-40.08v48.02h52.7l-0.18-0.89z" fill="#70D295"/>
  <path d="m0.18243 335.23s4.3762-1.78 7.2033-7.05c2.8263-5.27 20.333-40.08 45.317-40.08v48.02h-52.703l0.18243-0.89z" fill="#7ADDA0"/>
  <g transform="translate(384.3 218.53)">
   <polygon points="9.665 46.433 15.408 46.534 15.12 35.097 10.74 35.198" fill="#377C75"/>
   <path d="m13.03 0.56178s-27.206 29.378-0.705 36.97l0.705-36.97z" fill="#65D5A4"/>
   <path d="m13.031 0.52928s26.104 30.371-0.645 37.031l0.645-37.031z" fill="#8AEDAF"/>
  </g>
  <polygon points="333.43 236.91 337.81 236.99 337.59 228.26 334.25 228.34" fill="#377C75"/>
  <path d="m336 201.9s-20.75 22.42-0.54 28.22l0.54-28.22z" fill="#59C093"/>
  <path d="m336 201.88s19.9 23.18-0.5 28.26l0.5-28.26z" fill="#5FCCA1"/>
  <path d="m391.89 304.25s-7.6-3.1-12.5-12.24c-4.91-9.14-35.3-69.58-78.66-69.58v83.37h91.48l-0.32-1.55z" fill="#459F6D"/>
  <path d="m210.75 304.25s7.6-3.1 12.51-12.24c4.9-9.14 35.29-69.58 78.66-69.58v83.37h-91.48l0.31-1.55z" fill="#4EB37B"/>
  <path d="m592.88 333.81s-8.02-3.1-13.2-12.24c-5.19-9.14-37.28-69.58-83.07-69.58v83.37h96.6l-0.33-1.55z" fill="#459F6D"/>
  <path d="m401.08 333.81s8.02-3.1 13.2-12.24c5.19-9.14 37.28-69.58 83.07-69.58v83.37h-96.6l0.33-1.55z" fill="#4EB37B"/>
  <g transform="translate(282.5 147.34)">
   <polygon points="14.44 73.981 23.598 74.142 23.137 55.888 16.154 56.049" fill="#377C75"/>
   <path d="m19.806 0.76904s-43.384 46.888-1.126 59.005l1.126-59.005z" fill="#59C093"/>
   <path d="m19.808 0.71707s41.626 48.473-1.03 59.102l1.03-59.102z" fill="#65D6A5"/>
  </g>
  <path d="m456.79 329.08s-5-2.49-8.24-9.82c-3.23-7.32-23.25-55.76-51.82-55.76v66.82h60.27l-0.21-1.24z" fill="#70D295"/>
  <path d="m337.48 329.08s5-2.49 8.23-9.82c3.24-7.32 23.26-55.76 51.83-55.76v66.82h-60.27l0.21-1.24z" fill="#79DEA0"/>
  <path d="m303.85 330.55s-7.6-3.1-12.51-12.25c-4.9-9.14-35.29-69.57-78.66-69.57v83.37h91.48l-0.31-1.55z" fill="#70D295"/>
  <path d="m121.59 330.55s7.6-3.1 12.5-12.25c4.91-9.14 35.3-69.57 78.66-69.57v83.37h-91.47l0.31-1.55z" fill="#7ADDA0"/>
  <g transform="translate(190.2 152.71)">
   <polygon points="16.892 95.008 28.762 95.216 28.165 71.558 19.113 71.767" fill="#377C75"/>
   <path d="m25.428 0s-56.228 60.77-1.458 76.474l1.458-76.474z" fill="#59C093"/>
   <path d="m25.295 4.4334e-14s53.95 62.824-1.334 76.599l1.334-76.599z" fill="#65D6A5"/>
  </g>
  <g transform="translate(23.81 240.48)">
   <polygon points="16.862 95.446 28.732 95.654 28.135 71.996 19.083 72.205" fill="#377C75"/>
   <path d="m25.428 0s-56.228 60.77-1.458 76.474l1.458-76.474z" fill="#65D5A4"/>
   <path d="m25.295-2.1316e-14s53.95 62.824-1.334 76.599l1.334-76.599z" fill="#8AEDAF"/>
  </g>
  <polygon points="533.56 282.97 539.31 283.07 539.02 271.62 534.64 271.73" fill="#377C75"/>
  <path d="m537.47 236.98c0.73 0.5-27 29.54-0.5 37.14l0.5-37.14z" fill="#65D5A4"/>
  <path d="m537.53 236.98s26.25 30.39-0.5 37.06l0.5-37.06z" fill="#8AEDAF"/>
  <g transform="translate(231.03 284.03)">
   <polygon points="7.766 45.541 13.509 45.642 13.22 34.195 8.84 34.296" fill="#377C75"/>
   <path d="m12.303 0s-27.206 29.403-0.705 37.001l0.705-37.001z" fill="#459F96"/>
   <path d="m12.182 0s26.104 30.397-0.645 37.062l0.645-37.062z" fill="#58B6AD"/>
  </g>
  <polygon points="493.14 252.51 503.34 252.69 502.83 232.36 495.05 232.54" fill="#377C75"/>
  <path d="m499.98 174.61s-48.32 52.22-1.25 65.72l1.25-65.72z" fill="#59C093"/>
  <path d="m498.91 174.61s46.36 53.99-1.15 65.83l1.15-65.83z" fill="#65D6A5"/>
  <path d="m220.7 282.14v7.26c-17.25 4.15-40.47 13.45-42.34 40.54l-13.86 0.34c2.22-32.09 35.73-43.75 56.2-48.14" fill="#51CABF"/>
  <path d="m230.13 280.26c2.25-0.43 4.19-0.81 5.6-1.15 8.97-2.2 11.2-17.91 11.44-19.92 1.2 0.69 2.94 2.27 3.63 2.8-0.44 5.37-2.74 21.17-16.41 24.51-1.61 0.4-3.65 0.79-6.01 1.25-2.33 0.45-4.93 0.98-7.68 1.65v-7.26c3.59-0.77 6.81-1.37 9.43-1.88" fill="#51CABF"/>
  <path d="m498.08 115.6c-0.44-1.92-0.68-3.91-0.68-5.95 0-15.192 12.86-27.507 28.73-27.507 10.91 0 20.4 5.826 25.27 14.406 2.91-1.538 6.26-2.416 9.82-2.416 11.26 0 20.39 8.737 20.39 19.517 0 0.28-0.01 0.57-0.03 0.85h0.07c9.61 0 17.4 7.46 17.4 16.66s-7.79 16.66-17.4 16.66h-77.34c-9.61 0-17.41-7.46-17.41-16.66 0-7.1 4.65-13.16 11.18-15.56" fill="#A1DEB8"/>
  <g transform="translate(122.02 35.454)">
   <path d="m72.669 28.899c-5.505-5.611-13.158-9.092-21.622-9.092-16.765 0-30.356 13.648-30.356 30.484 0 13.339 8.535 24.67 20.418 28.804-0.632-0.692-1.232-1.413-1.798-2.16 0.393 0.487 0.801 0.962 1.223 1.424 3.115 1.084 6.456 1.681 9.938 1.681 16.765 0 30.356-13.648 30.356-30.484 0-7.941-3.025-15.171-7.979-20.595-0.06-0.021-0.12-0.042-0.18-0.062z" fill="#B9BB75"/>
   <path transform="translate(46.865 .083)" d="m0.076635 14.755c0 1.388 1.0601 2.513 2.3674 2.513 1.3072 0 2.3673-1.125 2.3673-2.513v-12.161c0-1.3878-1.0601-2.5128-2.3673-2.5128-1.3073-0.000017-2.3674 1.125-2.3674 2.5129l0.000035 12.161z" fill="#9ABB75"/>
   <path d="m44.693 97.277c0 1.388 1.06 2.513 2.368 2.513 1.307 0 2.367-1.125 2.367-2.513v-12.16c0-1.388-1.06-2.513-2.367-2.513-1.308 0-2.368 1.125-2.368 2.513v12.16zm-30.704-44.758c1.307 0 2.367-1.126 2.367-2.514 0-1.387-1.06-2.513-2.367-2.513h-11.455c-1.3071 0-2.3668 1.126-2.3668 2.513 0.00004 1.388 1.0597 2.514 2.367 2.514h11.455zm83.115 0c1.307 0 2.367-1.126 2.367-2.514 0-1.387-1.06-2.513-2.367-2.513h-11.454c-1.308 0-2.367 1.126-2.367 2.513 0 1.388 1.059 2.514 2.367 2.514h11.454zm-72.728-25.871c0.924 0.982 2.423 0.981 3.347 0 0.925-0.981 0.925-2.573 0-3.554l-8.099-8.599c-0.924-0.981-2.423-0.981-3.348 0-0.924 0.982-0.924 2.573 0 3.554l8.1 8.599zm58.013 58.561c0.924 0.981 2.423 0.981 3.347 0 0.925-0.982 0.925-2.573 0.001-3.555l-8.1-8.599c-0.924-0.981-2.423-0.981-3.347 0.001-0.925 0.981-0.925 2.573-0.001 3.554l8.1 8.599zm-57.04-8.599c0.924-0.981 0.924-2.573 0-3.554-0.924-0.982-2.423-0.982-3.348 0l-8.099 8.598c-0.924 0.982-0.924 2.573 0 3.555 0.924 0.981 2.423 0.981 3.348 0l8.099-8.599zm60.388-58.254c0.924-0.981 0.924-2.572-0.001-3.554-0.924-0.981-2.423-0.982-3.347 0l-8.1 8.599c-0.924 0.981-0.924 2.573 0.001 3.554 0.924 0.981 2.423 0.981 3.347 0l8.1-8.599z" fill="#B9BB75"/>
  </g>
  <path d="m462.26 12.569c0.45-0.471 1.16-1.092 2.14-1.673 0.98-0.578 2.23-1.1179 3.67-1.3868 0.18-0.032 0.36-0.064 0.55-0.0963 0.18-0.0189 0.37-0.0376 0.56-0.0567 0.38-0.0469 0.76-0.0407 1.15-0.0456 0.78 0.0258 1.58 0.1043 2.35 0.2949 0.39 0.0793 0.76 0.2181 1.14 0.3319 0.38 0.1226 0.73 0.2936 1.09 0.4416 0.7 0.334 1.35 0.729 1.94 1.154 0.28 0.226 0.57 0.435 0.83 0.662 0.25 0.238 0.5 0.465 0.73 0.695 0.44 0.481 0.86 0.931 1.18 1.396 0.16 0.229 0.31 0.449 0.46 0.658 0.13 0.217 0.25 0.426 0.36 0.624 0.23 0.392 0.41 0.739 0.53 1.043 0.06 0.122 0.1 0.23 0.14 0.331 0.04-0.101 0.09-0.209 0.14-0.331 0.12-0.304 0.3-0.651 0.53-1.043 0.11-0.198 0.23-0.407 0.37-0.624 0.14-0.209 0.3-0.429 0.46-0.658 0.32-0.465 0.73-0.915 1.17-1.396 0.24-0.23 0.48-0.457 0.74-0.695 0.26-0.227 0.54-0.436 0.83-0.662 0.59-0.425 1.24-0.82 1.93-1.154 0.36-0.148 0.72-0.319 1.09-0.4416 0.38-0.1138 0.75-0.2526 1.14-0.3319 0.78-0.1906 1.57-0.2691 2.35-0.2949 0.39 0.0049 0.78-0.0013 1.15 0.0456 0.19 0.0191 0.38 0.0378 0.57 0.0567 0.18 0.0323 0.36 0.0643 0.54 0.0963 1.45 0.2689 2.7 0.8088 3.67 1.3868 0.98 0.581 1.69 1.202 2.14 1.673 0.46 0.472 0.66 0.791 0.66 0.791s-0.09-0.029-0.25-0.082c-0.16-0.056-0.41-0.122-0.71-0.212-0.6-0.175-1.45-0.405-2.45-0.605-0.5-0.097-1.04-0.194-1.6-0.258-0.56-0.075-1.15-0.115-1.75-0.132-0.6-0.026-1.21 0.02-1.82 0.06-0.31 0.044-0.62 0.068-0.92 0.127l-0.46 0.076-0.45 0.11c-0.61 0.125-1.2 0.337-1.78 0.536-0.29 0.127-0.58 0.234-0.86 0.355-0.28 0.133-0.56 0.265-0.83 0.395-0.27 0.143-0.53 0.285-0.79 0.422-0.26 0.151-0.51 0.306-0.76 0.446-0.25 0.143-0.47 0.311-0.71 0.453-0.11 0.074-0.23 0.146-0.34 0.216-0.11 0.077-0.22 0.153-0.32 0.228-0.22 0.146-0.42 0.286-0.62 0.42-0.19 0.141-0.38 0.276-0.55 0.402-0.35 0.249-0.67 0.469-0.91 0.662-0.18 0.129-0.33 0.236-0.46 0.324 0.07 0.167 0.1 0.258 0.1 0.258s-0.09-0.055-0.24-0.159c-0.15 0.104-0.24 0.159-0.24 0.159s0.04-0.091 0.1-0.258c-0.13-0.088-0.28-0.195-0.45-0.324-0.25-0.193-0.56-0.413-0.92-0.662-0.17-0.126-0.35-0.261-0.55-0.402-0.19-0.134-0.4-0.274-0.61-0.42-0.11-0.075-0.22-0.151-0.32-0.228-0.12-0.07-0.23-0.142-0.35-0.216-0.23-0.142-0.46-0.31-0.71-0.453-0.25-0.14-0.5-0.295-0.75-0.446-0.26-0.137-0.53-0.279-0.8-0.422-0.27-0.13-0.55-0.262-0.83-0.395-0.28-0.121-0.57-0.228-0.85-0.355-0.59-0.199-1.18-0.411-1.79-0.536l-0.45-0.11-0.46-0.076c-0.3-0.059-0.61-0.083-0.91-0.127-0.62-0.04-1.23-0.086-1.83-0.06-0.6 0.017-1.18 0.057-1.74 0.132-0.57 0.064-1.1 0.161-1.6 0.258-1 0.2-1.85 0.43-2.46 0.605-0.3 0.09-0.54 0.156-0.7 0.212-0.17 0.053-0.26 0.082-0.26 0.082s0.21-0.319 0.66-0.791m-39.27 26.564c0.46-0.471 1.16-1.093 2.14-1.673 0.98-0.578 2.23-1.118 3.67-1.387 0.18-0.032 0.36-0.064 0.55-0.097l0.56-0.056c0.38-0.047 0.76-0.041 1.15-0.046 0.78 0.026 1.58 0.105 2.35 0.295 0.39 0.079 0.77 0.218 1.14 0.332 0.38 0.122 0.73 0.294 1.09 0.442 0.7 0.334 1.35 0.729 1.94 1.154 0.28 0.225 0.57 0.434 0.83 0.662 0.25 0.238 0.5 0.465 0.73 0.695 0.44 0.48 0.86 0.931 1.18 1.396 0.16 0.229 0.31 0.449 0.46 0.658 0.13 0.217 0.25 0.426 0.37 0.623 0.22 0.393 0.4 0.74 0.53 1.044 0.05 0.121 0.09 0.23 0.13 0.33 0.04-0.1 0.09-0.209 0.14-0.33 0.12-0.304 0.31-0.651 0.53-1.044 0.11-0.197 0.23-0.406 0.37-0.623 0.15-0.209 0.3-0.429 0.46-0.658 0.32-0.465 0.73-0.916 1.18-1.396 0.23-0.23 0.48-0.457 0.73-0.695 0.26-0.228 0.55-0.437 0.83-0.662 0.59-0.425 1.24-0.82 1.94-1.154 0.36-0.148 0.71-0.32 1.08-0.442 0.38-0.114 0.76-0.253 1.15-0.332 0.77-0.19 1.56-0.269 2.34-0.295 0.39 0.005 0.78-0.001 1.16 0.046 0.19 0.019 0.37 0.038 0.56 0.056 0.18 0.033 0.36 0.065 0.55 0.097 1.44 0.269 2.69 0.809 3.66 1.387 0.98 0.58 1.69 1.202 2.15 1.673 0.45 0.472 0.65 0.79 0.65 0.79s-0.09-0.028-0.25-0.081c-0.16-0.056-0.41-0.122-0.71-0.212-0.6-0.175-1.45-0.406-2.45-0.605-0.5-0.098-1.04-0.195-1.6-0.258-0.56-0.076-1.15-0.116-1.75-0.132-0.6-0.027-1.21 0.019-1.82 0.06-0.3 0.044-0.61 0.068-0.92 0.127l-0.46 0.076-0.45 0.109c-0.61 0.126-1.2 0.338-1.78 0.537-0.29 0.127-0.58 0.234-0.86 0.355-0.28 0.133-0.56 0.265-0.83 0.394-0.27 0.144-0.53 0.285-0.79 0.423-0.26 0.151-0.51 0.305-0.76 0.446-0.25 0.142-0.47 0.31-0.71 0.453-0.11 0.073-0.23 0.145-0.34 0.216-0.11 0.077-0.22 0.153-0.32 0.227-0.22 0.146-0.42 0.287-0.62 0.42-0.19 0.142-0.38 0.276-0.55 0.402-0.35 0.25-0.66 0.469-0.91 0.663-0.18 0.129-0.33 0.236-0.45 0.323 0.06 0.167 0.09 0.258 0.09 0.258s-0.09-0.055-0.24-0.159c-0.15 0.104-0.23 0.159-0.23 0.159s0.03-0.091 0.09-0.258c-0.12-0.087-0.27-0.194-0.45-0.323-0.25-0.194-0.56-0.413-0.92-0.663-0.17-0.126-0.35-0.26-0.54-0.402-0.2-0.133-0.41-0.274-0.62-0.42-0.11-0.074-0.21-0.15-0.32-0.227-0.12-0.071-0.23-0.143-0.35-0.216-0.23-0.143-0.46-0.311-0.71-0.453-0.25-0.141-0.5-0.295-0.75-0.446-0.26-0.138-0.53-0.279-0.8-0.423-0.27-0.129-0.54-0.261-0.82-0.394-0.29-0.121-0.58-0.228-0.86-0.355-0.59-0.199-1.17-0.411-1.78-0.537l-0.46-0.109-0.46-0.076c-0.3-0.059-0.61-0.083-0.91-0.127-0.62-0.041-1.23-0.087-1.83-0.06-0.59 0.016-1.18 0.056-1.74 0.132-0.57 0.063-1.1 0.16-1.6 0.258-1 0.199-1.85 0.43-2.45 0.605-0.31 0.09-0.55 0.156-0.71 0.212-0.17 0.053-0.26 0.081-0.26 0.081s0.21-0.318 0.66-0.79m78.54 0c0.45-0.471 1.16-1.093 2.14-1.673 0.97-0.578 2.22-1.118 3.67-1.387 0.18-0.032 0.36-0.064 0.54-0.097 0.19-0.018 0.38-0.037 0.57-0.056 0.37-0.047 0.76-0.041 1.15-0.046 0.78 0.026 1.58 0.105 2.35 0.295 0.39 0.079 0.76 0.218 1.14 0.332 0.37 0.122 0.73 0.294 1.09 0.442 0.7 0.334 1.34 0.729 1.93 1.154 0.29 0.225 0.57 0.434 0.84 0.662 0.25 0.238 0.5 0.465 0.73 0.695 0.44 0.48 0.85 0.931 1.17 1.396 0.16 0.229 0.32 0.449 0.46 0.658 0.14 0.217 0.26 0.426 0.37 0.623 0.23 0.393 0.41 0.74 0.53 1.044 0.05 0.121 0.1 0.23 0.14 0.33 0.04-0.1 0.09-0.209 0.14-0.33 0.12-0.304 0.3-0.651 0.53-1.044 0.11-0.197 0.23-0.406 0.36-0.623 0.15-0.209 0.3-0.429 0.47-0.658 0.31-0.465 0.73-0.916 1.17-1.396 0.23-0.23 0.48-0.457 0.73-0.695 0.26-0.228 0.55-0.437 0.84-0.662 0.58-0.425 1.23-0.82 1.93-1.154 0.36-0.148 0.72-0.32 1.09-0.442 0.38-0.114 0.75-0.253 1.14-0.332 0.77-0.19 1.57-0.269 2.35-0.295 0.39 0.005 0.78-0.001 1.15 0.046 0.19 0.019 0.38 0.038 0.57 0.056 0.18 0.033 0.36 0.065 0.54 0.097 1.44 0.269 2.7 0.809 3.67 1.387 0.98 0.58 1.69 1.202 2.14 1.673 0.45 0.472 0.66 0.79 0.66 0.79s-0.09-0.028-0.26-0.081c-0.16-0.056-0.4-0.122-0.7-0.212-0.6-0.175-1.46-0.406-2.46-0.605-0.5-0.098-1.03-0.195-1.59-0.258-0.56-0.076-1.15-0.116-1.75-0.132-0.6-0.027-1.21 0.019-1.82 0.06-0.31 0.044-0.62 0.068-0.92 0.127l-0.46 0.076-0.45 0.109c-0.61 0.126-1.2 0.338-1.79 0.537-0.28 0.127-0.57 0.234-0.85 0.355-0.28 0.133-0.56 0.265-0.83 0.394-0.27 0.144-0.54 0.285-0.8 0.423-0.25 0.151-0.5 0.305-0.75 0.446-0.25 0.142-0.48 0.31-0.71 0.453-0.12 0.073-0.23 0.145-0.35 0.216-0.1 0.077-0.21 0.153-0.31 0.227-0.22 0.146-0.43 0.287-0.62 0.42-0.2 0.142-0.38 0.276-0.55 0.402-0.35 0.25-0.67 0.469-0.92 0.663-0.17 0.129-0.32 0.236-0.45 0.323 0.07 0.167 0.1 0.258 0.1 0.258s-0.09-0.055-0.24-0.159c-0.15 0.104-0.24 0.159-0.24 0.159s0.03-0.091 0.1-0.258c-0.13-0.087-0.28-0.194-0.45-0.323-0.25-0.194-0.57-0.413-0.92-0.663-0.17-0.126-0.36-0.26-0.55-0.402-0.19-0.133-0.4-0.274-0.62-0.42-0.1-0.074-0.21-0.15-0.32-0.227-0.11-0.071-0.22-0.143-0.34-0.216-0.24-0.143-0.46-0.311-0.71-0.453-0.25-0.141-0.5-0.295-0.75-0.446-0.26-0.138-0.53-0.279-0.8-0.423-0.27-0.129-0.55-0.261-0.83-0.394-0.28-0.121-0.57-0.228-0.85-0.355-0.59-0.199-1.18-0.411-1.79-0.537l-0.45-0.109-0.46-0.076c-0.3-0.059-0.61-0.083-0.92-0.127-0.61-0.041-1.22-0.087-1.82-0.06-0.6 0.016-1.19 0.056-1.75 0.132-0.56 0.063-1.1 0.16-1.6 0.258-1 0.199-1.85 0.43-2.45 0.605-0.3 0.09-0.54 0.156-0.71 0.212-0.16 0.053-0.25 0.081-0.25 0.081s0.2-0.318 0.66-0.79m-250.62-10.395c0.45-0.471 1.16-1.092 2.14-1.672 0.97-0.578 2.22-1.119 3.67-1.388 0.18-0.032 0.36-0.064 0.54-0.096 0.19-0.019 0.38-0.038 0.56-0.057 0.38-0.047 0.77-0.04 1.16-0.045 0.78 0.026 1.57 0.104 2.35 0.295 0.39 0.079 0.76 0.218 1.14 0.332 0.37 0.122 0.73 0.293 1.08 0.442 0.7 0.334 1.35 0.728 1.94 1.153 0.29 0.226 0.57 0.435 0.83 0.662 0.26 0.238 0.5 0.465 0.74 0.695 0.44 0.481 0.85 0.931 1.17 1.396 0.16 0.23 0.32 0.45 0.46 0.659 0.14 0.216 0.26 0.425 0.37 0.623 0.23 0.393 0.41 0.74 0.53 1.043 0.05 0.122 0.1 0.231 0.14 0.331 0.04-0.1 0.08-0.209 0.14-0.331 0.12-0.303 0.3-0.65 0.53-1.043 0.11-0.198 0.23-0.407 0.36-0.623 0.15-0.209 0.3-0.429 0.46-0.659 0.32-0.465 0.74-0.915 1.18-1.396 0.23-0.23 0.48-0.457 0.73-0.695 0.26-0.227 0.55-0.436 0.83-0.662 0.59-0.425 1.24-0.819 1.94-1.153 0.36-0.149 0.71-0.32 1.09-0.442 0.38-0.114 0.75-0.253 1.14-0.332 0.77-0.191 1.57-0.269 2.35-0.295 0.39 0.005 0.77-0.002 1.15 0.045 0.19 0.019 0.38 0.038 0.56 0.057 0.19 0.032 0.37 0.064 0.55 0.096 1.44 0.269 2.69 0.81 3.67 1.388 0.98 0.58 1.69 1.201 2.14 1.672 0.45 0.473 0.66 0.791 0.66 0.791s-0.09-0.028-0.26-0.082c-0.16-0.055-0.4-0.121-0.7-0.212-0.61-0.175-1.46-0.405-2.46-0.605-0.5-0.097-1.03-0.194-1.6-0.258-0.56-0.075-1.14-0.115-1.74-0.132-0.6-0.026-1.21 0.02-1.83 0.06-0.3 0.044-0.61 0.068-0.91 0.127l-0.46 0.076-0.46 0.11c-0.6 0.125-1.19 0.337-1.78 0.536-0.28 0.128-0.57 0.234-0.85 0.355-0.28 0.134-0.56 0.265-0.83 0.395-0.27 0.143-0.54 0.285-0.8 0.423-0.25 0.151-0.5 0.305-0.75 0.445-0.25 0.143-0.48 0.311-0.71 0.454-0.12 0.073-0.23 0.145-0.35 0.215-0.11 0.077-0.21 0.153-0.32 0.228-0.21 0.146-0.42 0.286-0.61 0.42-0.2 0.142-0.38 0.276-0.55 0.402-0.36 0.25-0.67 0.469-0.92 0.663-0.17 0.128-0.32 0.235-0.45 0.323 0.06 0.167 0.09 0.258 0.09 0.258s-0.08-0.055-0.23-0.159c-0.15 0.104-0.24 0.159-0.24 0.159s0.03-0.091 0.09-0.258c-0.12-0.088-0.27-0.195-0.45-0.323-0.24-0.194-0.56-0.413-0.91-0.663-0.17-0.126-0.36-0.26-0.55-0.402-0.2-0.134-0.4-0.274-0.62-0.42-0.1-0.075-0.21-0.151-0.32-0.228-0.11-0.07-0.23-0.142-0.34-0.215-0.24-0.143-0.46-0.311-0.71-0.454-0.25-0.14-0.5-0.294-0.76-0.445-0.26-0.138-0.52-0.28-0.79-0.423-0.27-0.13-0.55-0.261-0.83-0.395-0.28-0.121-0.57-0.227-0.86-0.355-0.58-0.199-1.17-0.411-1.78-0.536l-0.45-0.11-0.46-0.076c-0.31-0.059-0.61-0.083-0.92-0.127-0.61-0.04-1.22-0.086-1.82-0.06-0.6 0.017-1.19 0.057-1.75 0.132-0.56 0.064-1.1 0.161-1.6 0.258-1 0.2-1.85 0.43-2.45 0.605-0.3 0.091-0.55 0.157-0.71 0.212-0.16 0.054-0.25 0.082-0.25 0.082s0.2-0.318 0.66-0.791m-185.95 131.66c0.453-0.47 1.163-1.09 2.141-1.67 0.974-0.58 2.225-1.12 3.668-1.39 0.181-0.03 0.364-0.06 0.547-0.09 0.186-0.02 0.374-0.04 0.562-0.06 0.377-0.05 0.765-0.04 1.154-0.05 0.778 0.03 1.575 0.11 2.347 0.3 0.391 0.08 0.764 0.22 1.142 0.33 0.374 0.12 0.729 0.29 1.087 0.44 0.7 0.34 1.348 0.73 1.937 1.16 0.284 0.22 0.571 0.43 0.833 0.66 0.251 0.24 0.499 0.46 0.731 0.69 0.443 0.48 0.858 0.93 1.176 1.4 0.161 0.23 0.315 0.45 0.461 0.66 0.135 0.21 0.257 0.42 0.368 0.62 0.225 0.39 0.406 0.74 0.529 1.04 0.053 0.13 0.097 0.23 0.139 0.33 0.04-0.1 0.085-0.2 0.137-0.33 0.123-0.3 0.305-0.65 0.53-1.04 0.111-0.2 0.233-0.41 0.368-0.62 0.146-0.21 0.3-0.43 0.46-0.66 0.319-0.47 0.734-0.92 1.177-1.4 0.231-0.23 0.48-0.45 0.732-0.69 0.261-0.23 0.548-0.44 0.832-0.66 0.588-0.43 1.237-0.82 1.937-1.16 0.358-0.15 0.712-0.32 1.087-0.44 0.378-0.11 0.751-0.25 1.142-0.33 0.772-0.19 1.568-0.27 2.347-0.3 0.389 0.01 0.776 0 1.154 0.05 0.189 0.02 0.376 0.04 0.562 0.06 0.184 0.03 0.366 0.06 0.546 0.09 1.444 0.27 2.694 0.81 3.666 1.39 0.98 0.58 1.69 1.2 2.14 1.67 0.46 0.47 0.66 0.79 0.66 0.79s-0.09-0.03-0.25-0.08c-0.16-0.06-0.41-0.12-0.71-0.21-0.6-0.18-1.45-0.41-2.452-0.61-0.501-0.09-1.036-0.19-1.599-0.25-0.561-0.08-1.149-0.12-1.747-0.14-0.6-0.02-1.21 0.02-1.824 0.06-0.304 0.05-0.613 0.07-0.917 0.13l-0.459 0.08-0.452 0.11c-0.61 0.12-1.197 0.33-1.784 0.53-0.283 0.13-0.573 0.24-0.856 0.36-0.28 0.13-0.557 0.26-0.828 0.39-0.27 0.15-0.536 0.29-0.796 0.42-0.255 0.16-0.503 0.31-0.754 0.45-0.249 0.14-0.475 0.31-0.709 0.45-0.117 0.08-0.232 0.15-0.345 0.22-0.108 0.08-0.215 0.15-0.32 0.23-0.215 0.14-0.421 0.28-0.617 0.42-0.194 0.14-0.378 0.27-0.55 0.4-0.352 0.25-0.666 0.47-0.915 0.66-0.175 0.13-0.326 0.24-0.45 0.32 0.063 0.17 0.094 0.26 0.094 0.26s-0.086-0.05-0.237-0.16c-0.152 0.11-0.238 0.16-0.238 0.16s0.031-0.09 0.094-0.26c-0.125-0.08-0.275-0.19-0.45-0.32-0.249-0.19-0.563-0.41-0.915-0.66-0.172-0.13-0.356-0.26-0.55-0.4-0.196-0.14-0.402-0.28-0.617-0.42-0.105-0.08-0.212-0.15-0.32-0.23-0.114-0.07-0.228-0.14-0.345-0.22-0.234-0.14-0.459-0.31-0.71-0.45s-0.498-0.29-0.754-0.45c-0.26-0.13-0.525-0.27-0.795-0.42-0.272-0.13-0.548-0.26-0.828-0.39-0.283-0.12-0.573-0.23-0.856-0.36-0.587-0.2-1.174-0.41-1.784-0.53l-0.453-0.11-0.458-0.08c-0.304-0.06-0.613-0.08-0.918-0.13-0.613-0.04-1.223-0.08-1.823-0.06-0.598 0.02-1.186 0.06-1.747 0.14-0.563 0.06-1.099 0.16-1.598 0.25-1 0.2-1.851 0.43-2.454 0.61-0.3 0.09-0.545 0.15-0.707 0.21-0.165 0.05-0.254 0.08-0.254 0.08s0.204-0.32 0.658-0.79" fill="#82CF9F"/>
 </g>
</svg>
