<svg xmlns="http://www.w3.org/2000/svg" width="600" height="337" viewBox="0 0 600 337">
  <g fill="none" fill-rule="evenodd">
    <path fill="#D69D4C" d="M170.567173,333.889485 C170.567173,333.889485 182.141233,329.122531 189.615962,315.059621 C197.09016,300.997763 243.386223,208.041187 309.452705,208.041187 C321.799267,208.041187 333.456108,211.28983 344.297727,216.661656 C345.946606,217.478547 347.574037,218.349934 349.185514,219.261096 C393.652956,244.420382 423.424423,304.025624 429.289448,315.059621 C436.764709,329.122531 448.337705,333.889485 448.337705,333.889485 L448.820741,336.273401 L309.452705,336.273401 L170.084137,336.273401 L170.567173,333.889485 Z"/>
    <path fill="#E7AA47" d="M0.406275783,333.564809 C0.406275783,333.564809 10.1607639,328.797685 16.4609405,314.735012 C22.7613105,300.673473 61.781391,207.716383 117.46613,207.716383 C173.151256,207.716383 212.171143,300.673473 218.471707,314.735012 C224.771883,328.797685 234.526758,333.564809 234.526758,333.564809 L234.932647,335.948597 L117.46613,335.948597 L0,335.948597 L0.406275783,333.564809 Z"/>
    <polygon fill="#377C75" points="234.977 264.194 239.135 264.268 238.925 255.902 235.756 255.976"/>
    <path fill="#59C093" d="M237.413666,230.640969 C237.413666,230.640969 217.71947,252.130095 236.902446,257.68336 L237.413666,230.640969 Z"/>
    <path fill="#5FCCA1" d="M237.41418,230.617166 C237.41418,230.617166 256.309639,252.832198 236.946743,257.703829 L237.41418,230.617166 Z"/>
    <path fill="#D38E45" d="M576.053501,332.911268 C576.053501,332.911268 568.437318,329.94088 563.518857,321.17848 C558.599834,312.416255 528.135852,254.494736 484.661179,254.494736 L484.661179,334.396638 L576.370241,334.396638 L576.053501,332.911268 Z"/>
    <path fill="#CB8337" d="M393.540099,333.911268 C393.540099,333.911268 401.15572,330.94088 406.074369,322.17848 C410.993391,313.416255 441.457186,255.494736 484.932046,255.494736 L484.932046,335.396638 L393.222797,335.396638 L393.540099,333.911268 Z"/>
    <g transform="translate(14.225 264.337)">
      <polygon fill="#B55B22" points="12.671 70.905 21.365 71.06 20.928 53.564 14.298 53.719"/>
      <path fill="#98B264" d="M18.8021447,0.737069466 C18.8021447,0.737069466 -22.3824295,45.6759836 17.7332626,57.289572 L18.8021447,0.737069466 Z"/>
      <path fill="#A3B77B" d="M17.7666154,0.687259817 C17.7666154,0.687259817 57.2821028,47.1448395 16.7893772,57.3318896 L17.7666154,0.687259817 Z"/>
      <polygon fill="#B55B22" points="561.97 70.799 570.664 70.953 570.227 53.458 563.597 53.612"/>
      <path fill="#98B264" d="M567.119638,1.04819277 C567.119638,1.04819277 525.935064,45.9871069 566.050756,57.6006953 L567.119638,1.04819277 Z"/>
      <path fill="#A3B77B" d="M567.093534,1.04819277 C567.093534,1.04819277 606.609021,47.5057725 566.116295,57.6928225 L567.093534,1.04819277 Z"/>
    </g>
    <path fill="#D69D4C" d="M507.237596,30.5917856 C506.832816,28.8388853 506.613167,27.0197386 506.613167,25.1505975 C506.613167,11.2601979 518.392176,0 532.921829,0 C542.915628,0 551.607476,5.32695941 556.060361,13.1726778 C558.72974,11.7657142 561.796777,10.9631722 565.060555,10.9631722 C575.370593,10.9631722 583.728246,18.953147 583.728246,28.8093221 C583.728246,29.069355 583.719114,29.3272209 583.707659,29.5846225 L583.768492,29.5846225 C592.569933,29.5846225 599.705199,36.4058423 599.705199,44.819454 C599.705199,53.23353 592.569933,60.0545951 583.768492,60.0545951 L512.936707,60.0545951 C504.135421,60.0545951 497,53.23353 497,44.819454 C497,38.3260614 501.251811,32.7847296 507.237596,30.5917856"/>
    <g fill="#D69D4C" transform="translate(78 5)">
      <path d="M66.5505324,26.4241275 C61.5085075,21.2934516 54.5000528,18.1111569 46.7490209,18.1111569 C31.3950752,18.1111569 18.9484977,30.5903481 18.9484977,45.9842802 C18.9484977,58.1812651 26.7651031,68.5413923 37.64738,72.3214106 C37.0690996,71.6891182 36.5195099,71.0300126 36.0006928,70.3461649 C36.3608633,70.7919938 36.7344654,71.2264692 37.1208781,71.6489732 C39.9733973,72.6399483 43.0338043,73.1852117 46.222519,73.1852117 C61.575975,73.1852117 74.0225525,60.7060205 74.0225525,45.3118428 C74.0225525,38.051198 71.2518172,31.4407693 66.7151375,26.4807382 C66.6603455,26.4617033 66.605477,26.4428328 66.5505324,26.4241275 Z"/>
      <path d="M0.0701826975,13.4912557 C0.0701826975,14.760256 1.04101577,15.7889618 2.23818745,15.7889618 C3.43535913,15.7889618 4.4061922,14.760256 4.4061922,13.4912557 L4.4061922,2.37193679 C4.4061922,1.10293651 3.43535913,0.0742306904 2.23818745,0.0742306904 C1.04101577,0.0742306904 0.0701826975,1.10293651 0.0701826975,2.37193679 L0.0701826975,13.4912557 Z" transform="translate(42.919 .076)"/>
      <path d="M40.9300594 88.9467791C40.9300594 90.2157794 41.9008925 91.2444852 43.0980642 91.2444852 44.2952359 91.2444852 45.2660689 90.2157794 45.2660689 88.9467791L45.2660689 77.8275855C45.2660689 76.5584599 44.2952359 75.5297541 43.0980642 75.5297541 41.9008925 75.5297541 40.9300594 76.5584599 40.9300594 77.8275855L40.9300594 88.9467791zM12.8107435 48.0211632C14.0079152 48.0211632 14.9783937 46.9920815 14.9783937 45.7230813 14.9783937 44.454081 14.0079152 43.4249993 12.8107435 43.4249993L2.32080593 43.4249993C1.12363425 43.4249993.153155753 44.454081.153155753 45.7230813.153155753 46.9920815 1.12363425 48.0211632 2.32080593 48.0211632L12.8107435 48.0211632zM88.9277989 48.0211632C90.1250888 48.0211632 91.0955673 46.9920815 91.0955673 45.7230813 91.0955673 44.454081 90.1250888 43.4249993 88.9277989 43.4249993L78.4378613 43.4249993C77.2406896 43.4249993 76.2702111 44.454081 76.2702111 45.7230813 76.2702111 46.9920815 77.2406896 48.0211632 78.4378613 48.0211632L88.9277989 48.0211632zM22.3230845 24.3661524C23.1694609 25.2634354 24.5422666 25.2631849 25.388643 24.3659018 26.2354922 23.4686188 26.2354922 22.013572 25.3891158 21.1161636L17.97171 13.2537241C17.1252154 12.3563158 15.7522915 12.356441 14.9059151 13.2538494 14.0591842 14.1512577 14.0591842 15.6063045 14.9055606 16.5037128L22.3230845 24.3661524zM75.4514209 77.9118263C76.2981519 78.8092347 77.670603 78.8089841 78.5172158 77.9117011 79.3639467 77.0141674 79.3641831 75.5591206 78.5174521 74.6618376L71.1000464 66.7992728C70.25367 65.902115 68.8806279 65.9022403 68.0342515 66.7996486 67.1878751 67.6968064 67.1875205 69.1519785 68.0338969 70.0493868L75.4514209 77.9118263zM23.2146843 70.0493492C24.0610607 69.1519409 24.0610607 67.6968941 23.2143297 66.7997363 22.3679533 65.9022027 20.9951476 65.9020774 20.148653 66.7993605L12.7312473 74.6618C11.8848709 75.5592083 11.8848709 77.0142551 12.7316018 77.9116635 13.5779782 78.8089465 14.9507839 78.8091971 15.7972785 77.9117888L23.2146843 70.0493492zM78.517393 16.7843124C79.364124 15.8869041 79.3638876 14.4318573 78.5171567 13.5345742 77.6706621 12.6370406 76.2982109 12.6369153 75.4513618 13.5343236L68.033956 21.3967632C67.1875796 22.2941715 67.1879342 23.7492183 68.0343106 24.6465014 68.880687 25.5437844 70.2536109 25.544035 71.0999873 24.6467519L78.517393 16.7843124z"/>
    </g>
    <path fill="#D69D4C" d="M425.6016 105.97959C426.017316 105.548683 426.666797 104.980637 427.562527 104.450039 428.455008 103.921493 429.60092 103.427488 430.921772 103.181597 431.087476 103.152357 431.254549 103.123117 431.42282 103.093534 431.593142 103.076264 431.764832 103.059164 431.93789 103.041723 432.283322 102.998803 432.637818 103.004446 432.994537 103 433.706949 103.023597 434.436803 103.095415 435.144255 103.26983 435.501829 103.342161 435.843328 103.46904 436.189274 103.573176 436.532654 103.685007 436.857224 103.841809 437.185213 103.977237 437.825802 104.282635 438.420049 104.643776 438.95906 105.032106 439.219331 105.238326 439.481826 105.429499 439.721234 105.6376 439.951751 105.854935 440.179189 106.062694 440.391578 106.273018 440.79635 106.712476 441.176839 107.124061 441.468746 107.549497 441.61564 107.759137 441.75672 107.960227 441.890789 108.1514 442.014256 108.349583 442.125581 108.540585 442.227158 108.721155 442.43305 109.080416 442.59961 109.397783 442.712474 109.675479 442.760184 109.786626 442.800884 109.885974 442.838505 109.977457 442.876127 109.885974 442.917339 109.786626 442.96505 109.675479 443.077401 109.397783 443.243961 109.080416 443.450365 108.721155 443.551943 108.540585 443.663268 108.349583 443.786734 108.1514 443.920803 107.960227 444.061712 107.759137 444.208435 107.549497 444.500172 107.124061 444.881003 106.712476 445.285945 106.273018 445.497993 106.062694 445.725773 105.854935 445.955776 105.6376 446.195185 105.429499 446.458192 105.238326 446.718464 105.032106 447.257475 104.643776 447.851721 104.282635 448.49231 103.977237 448.8203 103.841809 449.144528 103.685007 449.488421 103.573176 449.834366 103.46904 450.175695 103.342161 450.533439 103.26983 451.240892 103.095415 451.969891 103.023597 452.682987 103 453.039192 103.004446 453.39403 102.998803 453.739805 103.041723 453.91235 103.059164 454.08404 103.076264 454.254704 103.093534 454.422461 103.123117 454.589534 103.152357 454.755068 103.181597 456.076774 103.427488 457.222003 103.921493 458.114655 104.450039 459.010214 104.980637 459.660208 105.548683 460.075411 105.97959 460.490956 106.411353 460.677524 106.702216 460.677524 106.702216 460.677524 106.702216 460.596467 106.676567 460.445126 106.627833 460.297206 106.576876 460.072675 106.516515 459.798039 106.434095 459.246031 106.273702 458.466756 106.063036 457.551018 105.880926 457.093064 105.791496 456.602789 105.703091 456.087035 105.644782 455.573503 105.575871 455.034834 105.539449 454.48693 105.524059 453.93783 105.50012 453.378811 105.542185 452.817055 105.57912 452.538315 105.619133 452.255813 105.64102 451.976902 105.695225L451.557082 105.764649 451.142392 105.864853C450.584399 105.97959 450.046243 106.173157 449.509113 106.355267 449.249867 106.471714 448.983953 106.569353 448.724708 106.679986 448.468711 106.801735 448.21528 106.922116 447.966637 107.040615 447.719533 107.171939 447.476363 107.301041 447.238322 107.427235 447.004044 107.565228 446.77729 107.706299 446.547628 107.834546 446.31848 107.965015 446.112589 108.118569 445.897976 108.249209 445.790755 108.316068 445.685415 108.381901 445.581957 108.446366 445.482773 108.516987 445.384958 108.586411 445.289194 108.654467 445.092195 108.788186 444.903233 108.916603 444.723677 109.038693 444.546002 109.168137 444.378245 109.29074 444.219893 109.406162 443.897546 109.634612 443.610085 109.835018 443.382305 110.012169 443.22173 110.129813 443.083899 110.227794 442.969667 110.307648 443.027809 110.460347 443.056025 110.543622 443.056025 110.543622 443.056025 110.543622 442.977191 110.493349 442.838505 110.398276 442.699819 110.493349 442.621327 110.543622 442.621327 110.543622 442.621327 110.543622 442.649714 110.460347 442.707686 110.307648 442.593111 110.227794 442.455452 110.129813 442.29539 110.012169 442.067097 109.835018 441.779977 109.634612 441.457118 109.406162 441.29945 109.29074 441.131009 109.168137 440.953676 109.038693 440.77429 108.916603 440.585499 108.788186 440.388329 108.654467 440.292224 108.586411 440.194921 108.516987 440.095225 108.446366 439.991595 108.381901 439.886939 108.316068 439.779718 108.249209 439.564935 108.118569 439.35853 107.965015 439.129724 107.834546 438.899721 107.706299 438.672967 107.565228 438.43903 107.427235 438.201161 107.301041 437.958161 107.171939 437.710886 107.040615 437.461559 106.922116 437.208983 106.801735 436.952303 106.679986 436.692887 106.569353 436.427827 106.471714 436.168411 106.355267 435.63111 106.173157 435.093124 105.97959 434.53496 105.864853L434.12027 105.764649 433.699937 105.695225C433.42171 105.64102 433.139208 105.619133 432.859955 105.57912 432.298713 105.542185 431.739865 105.50012 431.190593 105.524059 430.642348 105.539449 430.10402 105.575871 429.590489 105.644782 429.074905 105.703091 428.583776 105.791496 428.126163 105.880926 427.210767 106.063036 426.431663 106.273702 425.879485 106.434095 425.604507 106.516515 425.380318 106.576876 425.232397 106.627833 425.080715 106.676567 425 106.702216 425 106.702216 425 106.702216 425.186397 106.411353 425.6016 105.97959M512.734172 147.143059C513.165092 146.669068 513.838329 146.044228 514.76682 145.460579 515.691944 144.879188 516.879768 144.335791 518.248929 144.065316 518.420695 144.033152 518.593879 144.000988 518.768303 143.968448 518.944855 143.949451 519.122825 143.930642 519.302212 143.911457 519.660279 143.864246 520.02774 143.870453 520.397506 143.865562 521.135974 143.891519 521.892523 143.970517 522.625851 144.162183 522.996503 144.241934 523.350492 144.381498 523.709091 144.496045 524.06503 144.619057 524.401471 144.791349 524.741457 144.940506 525.405476 145.276438 526.021457 145.673687 526.580182 146.100843 526.849973 146.327682 527.122068 146.537968 527.370233 146.766876 527.609181 147.00594 527.844937 147.234284 528.065095 147.465824 528.484671 147.94922 528.879076 148.401957 529.18166 148.869929 529.333927 149.100529 529.480167 149.321725 529.61914 149.532011 529.747122 149.750009 529.862519 149.960108 529.967812 150.158733 530.181233 150.553913 530.353885 150.902823 530.470877 151.208472 530.520333 151.330732 530.562521 151.440013 530.601519 151.540642 530.640516 151.440013 530.683236 151.330732 530.732691 151.208472 530.849152 150.902823 531.021804 150.553913 531.235757 150.158733 531.34105 149.960108 531.456447 149.750009 531.584429 149.532011 531.723402 149.321725 531.869464 149.100529 532.021554 148.869929 532.323961 148.401957 532.71872 147.94922 533.138474 147.465824 533.358277 147.234284 533.594388 147.00594 533.832804 146.766876 534.080969 146.537968 534.353596 146.327682 534.623387 146.100843 535.182112 145.673687 535.798093 145.276438 536.462112 144.940506 536.802098 144.791349 537.138184 144.619057 537.494655 144.496045 537.853254 144.381498 538.207066 144.241934 538.577896 144.162183 539.311223 143.970517 540.066886 143.891519 540.806063 143.865562 541.175297 143.870453 541.543113 143.864246 541.901534 143.911457 542.08039 143.930642 542.25836 143.949451 542.435266 143.968448 542.609158 144.000988 542.782342 144.033152 542.953931 144.065316 544.323979 144.335791 545.511093 144.879188 546.436394 145.460579 547.364709 146.044228 548.038477 146.669068 548.468865 147.143059 548.899609 147.617991 549.093 147.937935 549.093 147.937935 549.093 147.937935 549.008979 147.909721 548.852103 147.856115 548.698773 147.799875 548.466029 147.733667 548.181349 147.643007 547.609151 147.466577 546.801374 147.234848 545.852143 147.03453 545.377439 146.936158 544.869232 146.838915 544.334614 146.774776 543.8023 146.698975 543.243929 146.658911 542.675986 146.641983 542.106802 146.61565 541.527336 146.661921 540.945035 146.702549 540.6561 146.746562 540.363265 146.770638 540.074153 146.830263L539.638978 146.906628 539.209121 147.01685C538.630719 147.143059 538.07288 147.355979 537.516104 147.556297 537.247377 147.684387 536.971736 147.791787 536.703009 147.913483 536.43765 148.047404 536.17495 148.17982 535.917212 148.310168 535.661071 148.454622 535.409006 148.59682 535.162259 148.735443 534.919412 148.887233 534.684364 149.042409 534.446303 149.183477 534.208774 149.326991 533.995352 149.495898 533.77289 149.6396 533.661747 149.713144 533.552555 149.785559 533.445312 149.856469 533.342501 149.934151 533.241108 150.010516 533.141842 150.085377 532.937637 150.232465 532.741764 150.373909 532.555641 150.508019 532.371467 150.650216 532.197574 150.785266 532.033431 150.91204 531.699294 151.16333 531.401319 151.383962 531.165208 151.578825 530.99876 151.708232 530.855888 151.816008 530.737478 151.903847 530.797746 152.071813 530.826994 152.163413 530.826994 152.163413 530.826994 152.163413 530.745277 152.107926 530.601519 152.003536 530.45776 152.107926 530.376397 152.163413 530.376397 152.163413 530.376397 152.163413 530.405823 152.071813 530.465914 151.903847 530.347149 151.816008 530.204455 151.708232 530.038539 151.578825 529.801896 151.383962 529.504275 151.16333 529.169607 150.91204 529.006172 150.785266 528.83157 150.650216 528.647751 150.508019 528.461805 150.373909 528.266109 150.232465 528.061727 150.085377 527.962107 150.010516 527.861245 149.934151 527.757902 149.856469 527.650482 149.785559 527.541999 149.713144 527.430856 149.6396 527.208217 149.495898 526.994263 149.326991 526.757088 149.183477 526.518673 149.042409 526.283625 148.887233 526.041132 148.735443 525.794563 148.59682 525.542675 148.454622 525.286356 148.310168 525.02791 148.17982 524.766096 148.047404 524.500028 147.913483 524.231123 147.791787 523.956369 147.684387 523.687465 147.556297 523.130512 147.355979 522.57285 147.143059 521.994271 147.01685L521.564413 146.906628 521.128707 146.830263C520.840304 146.770638 520.547469 146.746562 520.258002 146.702549 519.676232 146.661921 519.096945 146.61565 518.527583 146.641983 517.959285 146.658911 517.401269 146.698975 516.868955 146.774776 516.334514 146.838915 515.825421 146.936158 515.351071 147.03453 514.402195 147.234848 513.594595 147.466577 513.02222 147.643007 512.737185 147.733667 512.504796 147.799875 512.351466 147.856115 512.194236 147.909721 512.110568 147.937935 512.110568 147.937935 512.110568 147.937935 512.303783 147.617991 512.734172 147.143059M206.601771 62.9795904C207.017487 62.5486826 207.666968 61.9806367 208.56304 61.4500388 209.455179 60.9214928 210.60092 60.4274879 211.922114 60.1815968 212.087819 60.1523567 212.254892 60.1231165 212.422991 60.0935343 212.593484 60.0762638 212.765003 60.0591643 212.93789 60.0417228 213.283322 59.998803 213.637989 60.0044459 213.994537 60 214.707291 60.0235973 215.436803 60.0954153 216.144255 60.2698303 216.502 60.3421613 216.843328 60.4690397 217.189274 60.5731757 217.532654 60.6850065 217.857224 60.8418091 218.185213 60.9772372 218.825802 61.2826346 219.42022 61.6437763 219.95906 62.0321063 220.219502 62.2383264 220.482168 62.429499 220.721405 62.6376001 220.951922 62.8549349 221.17936 63.062694 221.391578 63.273018 221.796521 63.7124755 222.177181 64.1240609 222.468917 64.5494968 222.615811 64.7591368 222.756891 64.9602271 222.89096 65.1513997 223.014427 65.349583 223.125581 65.5405846 223.227158 65.7211555 223.433392 66.0804163 223.599781 66.3977833 223.712474 66.6754794 223.760184 66.7866262 223.801226 66.8859744 223.838847 66.9774568 223.876469 66.8859744 223.91751 66.7866262 223.965221 66.6754794 224.077743 66.3977833 224.244303 66.0804163 224.450536 65.7211555 224.552114 65.5405846 224.663268 65.349583 224.786905 65.1513997 224.920803 64.9602271 225.061883 64.7591368 225.208777 64.5494968 225.500514 64.1240609 225.881003 63.7124755 226.285945 63.273018 226.498335 63.062694 226.725773 62.8549349 226.956118 62.6376001 227.195527 62.429499 227.458192 62.2383264 227.718464 62.0321063 228.257646 61.6437763 228.851721 61.2826346 229.49231 60.9772372 229.8203 60.8418091 230.14487 60.6850065 230.488421 60.5731757 230.834366 60.4690397 231.175866 60.3421613 231.533439 60.2698303 232.240892 60.0954153 232.970233 60.0235973 233.682987 60 234.039534 60.0044459 234.394201 59.998803 234.739805 60.0417228 234.912692 60.0591643 235.084382 60.0762638 235.254704 60.0935343 235.422803 60.1231165 235.589876 60.1523567 235.75541 60.1815968 237.076945 60.4274879 238.222345 60.9214928 239.114997 61.4500388 240.010556 61.9806367 240.660379 62.5486826 241.075753 62.9795904 241.490956 63.4113531 241.677524 63.7022158 241.677524 63.7022158 241.677524 63.7022158 241.596638 63.6765666 241.445297 63.627833 241.297377 63.5768764 241.072846 63.5165151 240.798039 63.4340955 240.246031 63.273702 239.466756 63.063036 238.551189 62.8809262 238.093406 62.7914957 237.602789 62.7030912 237.087035 62.6447819 236.573674 62.5758708 236.035176 62.5394489 235.487101 62.5240593 234.93783 62.50012 234.378982 62.5421848 233.817397 62.5791197 233.538486 62.6191326 233.255813 62.64102 232.977244 62.6952254L232.557253 62.7646495 232.142392 62.8648526C231.58457 62.9795904 231.046243 63.1731569 230.509284 63.3552667 230.249867 63.4717144 229.984295 63.5693526 229.72505 63.6799865 229.468711 63.801735 229.215622 63.9221156 228.966808 64.0406152 228.719533 64.1719395 228.476534 64.3012118 228.238493 64.4272352 228.004386 64.5652283 227.777632 64.7062993 227.547799 64.8345457 227.318822 64.965015 227.112589 65.1185686 226.897976 65.2492089 226.790755 65.316068 226.685586 65.3819011 226.582299 65.4463663 226.482773 65.5169873 226.384958 65.5864113 226.289194 65.6544674 226.092195 65.7881856 225.903404 65.9166029 225.723677 66.0386935 225.546344 66.1681368 225.378245 66.2907403 225.220235 66.406162 224.897546 66.6346115 224.610085 66.8350178 224.382305 67.0121688 224.222072 67.1298135 224.08407 67.2277937 223.969838 67.3076484 224.027809 67.4603471 224.056025 67.5436217 224.056025 67.5436217 224.056025 67.5436217 223.977533 67.4933491 223.838847 67.3982759 223.69999 67.4933491 223.621498 67.5436217 223.621498 67.5436217 223.621498 67.5436217 223.649714 67.4603471 223.707686 67.3076484 223.593453 67.2277937 223.455794 67.1298135 223.29539 67.0121688 223.067439 66.8350178 222.779977 66.6346115 222.45746 66.406162 222.29945 66.2907403 222.131351 66.1681368 221.953847 66.0386935 221.774461 65.9166029 221.585499 65.7881856 221.3885 65.6544674 221.292566 65.5864113 221.194921 65.5169873 221.095567 65.4463663 220.991937 65.3819011 220.886939 65.316068 220.779718 65.2492089 220.564935 65.1185686 220.358701 64.965015 220.129895 64.8345457 219.900063 64.7062993 219.673138 64.5652283 219.439201 64.4272352 219.201161 64.3012118 218.958161 64.1719395 218.710886 64.0406152 218.461901 63.9221156 218.208983 63.801735 217.952645 63.6799865 217.693229 63.5693526 217.427827 63.4717144 217.168411 63.3552667 216.631281 63.1731569 216.093295 62.9795904 215.535131 62.8648526L215.12027 62.7646495 214.700279 62.6952254C214.42171 62.64102 214.139379 62.6191326 213.860297 62.5791197 213.298713 62.5421848 212.739865 62.50012 212.190593 62.5240593 211.642519 62.5394489 211.104191 62.5758708 210.59066 62.6447819 210.074905 62.7030912 209.58446 62.7914957 209.126163 62.8809262 208.210938 63.063036 207.431663 63.273702 206.879656 63.4340955 206.604507 63.5165151 206.380489 63.5768764 206.232568 63.627833 206.081228 63.6765666 206 63.7022158 206 63.7022158 206 63.7022158 206.186568 63.4113531 206.601771 62.9795904M26.6021126 92.9795904C27.0173155 92.5486826 27.6673098 91.9806367 28.562527 91.4500388 29.455008 90.9214928 30.6009201 90.4274879 31.9217715 90.1815968 32.0879895 90.1523567 32.2550625 90.1231165 32.4228195 90.0935343 32.5936547 90.0762638 32.7651738 90.0591643 32.93789 90.0417228 33.2833224 89.998803 33.6383312 90.0044459 33.9945369 90 34.7071195 90.0237683 35.4368027 90.0954153 36.1442551 90.2698303 36.5018289 90.3421613 36.8433282 90.4690397 37.1892736 90.5731757 37.5326539 90.6850065 37.8572236 90.8418091 38.1852134 90.9772372 38.8258024 91.2826346 39.4200487 91.6437763 39.95906 92.0321063 40.2193314 92.2383264 40.4823388 92.429499 40.7215764 92.6376001 40.9517507 92.8549349 41.1791888 93.062694 41.3915784 93.273018 41.796692 93.7124755 42.1773517 94.1240609 42.4687461 94.5494968 42.6158114 94.7591368 42.7567204 94.9602271 42.8907893 95.1513997 43.0142557 95.349583 43.1255807 95.5405846 43.2271583 95.7211555 43.4335627 96.0804163 43.5996097 96.3977833 43.7124738 96.6754794 43.7601845 96.7866262 43.8008839 96.8859744 43.8390183 96.9774568 43.8761266 96.8859744 43.9173391 96.7866262 43.9652208 96.6754794 44.0774008 96.3977833 44.2444738 96.0804163 44.4503652 95.7211555 44.5519429 95.5405846 44.6632679 95.349583 44.7867343 95.1513997 44.9208031 94.9602271 45.0617122 94.7591368 45.2084354 94.5494968 45.5006849 94.1240609 45.8810026 93.7124755 46.2859451 93.273018 46.4979927 93.062694 46.7257729 92.8549349 46.9562892 92.6376001 47.1956978 92.429499 47.4581922 92.2383264 47.7184635 92.0321063 48.2574749 91.6437763 48.8517212 91.2826346 49.4923102 90.9772372 49.8203 90.8418091 50.1450406 90.6850065 50.488421 90.5731757 50.8343664 90.4690397 51.1756946 90.3421613 51.5334395 90.2698303 52.2408919 90.0954153 52.969891 90.0237683 53.6829866 90 54.0397054 90.0044459 54.3942011 89.998803 54.7398046 90.0417228 54.9128628 90.0591643 55.0845529 90.0762638 55.254704 90.0935343 55.4229741 90.1231165 55.5900471 90.1523567 55.755068 90.1815968 57.0767744 90.4274879 58.2223446 90.9214928 59.1148256 91.4500388 60.0105557 91.9806367 60.6602081 92.5486826 61.075753 92.9795904 61.4909559 93.4113531 61.6775236 93.7023868 61.6775236 93.7023868 61.6775236 93.7023868 61.5966377 93.6765666 61.4451262 93.627833 61.2972059 93.5768764 61.0728459 93.5165151 60.798039 93.4342664 60.2460312 93.273702 59.4667562 93.063036 58.5511894 92.8810972 58.0930639 92.7914957 57.6027893 92.7030912 57.0870348 92.6447819 56.5735034 92.5758708 56.0353471 92.5394489 55.4869304 92.5240593 54.9378297 92.50012 54.3788106 92.5421848 53.8170554 92.5791197 53.5383154 92.6193036 53.2558133 92.64102 52.9774153 92.6952254L52.5570822 92.7646495 52.1425633 92.8648526C51.5843993 92.9795904 51.046243 93.1733279 50.5091127 93.3552667 50.2498674 93.4717144 49.9844659 93.5693526 49.7247075 93.6799865 49.4687114 93.801735 49.2152803 93.9221156 48.9666373 94.0406152 48.7195335 94.1719395 48.4763627 94.3012118 48.2383222 94.4272352 48.0045568 94.5652283 47.7772896 94.7062993 47.5476284 94.8345457 47.3189932 94.965015 47.1125888 95.1185686 46.8979761 95.2492089 46.7907552 95.316068 46.6854155 95.3819011 46.5824698 95.4463663 46.4827732 95.5171583 46.3849577 95.5864113 46.2891942 95.6544674 46.0921952 95.7881856 45.9032334 95.9167739 45.7236769 96.0386935 45.5460016 96.1681368 45.3782445 96.2907403 45.2204059 96.406162 44.8975463 96.6346115 44.610085 96.8351888 44.3823048 97.0121688 44.222243 97.1298135 44.0838991 97.2277937 43.969838 97.3076484 44.0278091 97.4603471 44.0560251 97.5436217 44.0560251 97.5436217 44.0560251 97.5436217 43.9771913 97.4933491 43.8390183 97.3982759 43.6998193 97.4933491 43.6213275 97.5436217 43.6213275 97.5436217 43.6213275 97.5436217 43.6497145 97.4603471 43.7076856 97.3076484 43.5931115 97.2277937 43.4559645 97.1298135 43.2953898 97.0121688 43.0670966 96.8351888 42.7799773 96.6346115 42.4576307 96.406162 42.29945 96.2907403 42.13118 96.1681368 41.9536756 96.0386935 41.7742902 95.9167739 41.5854994 95.7881856 41.3883293 95.6544674 41.2922239 95.5864113 41.1949214 95.5171583 41.0957378 95.4463663 40.9915951 95.3819011 40.8869393 95.316068 40.7797185 95.2492089 40.5649348 95.1185686 40.3588724 94.965015 40.1297242 94.8345457 39.8997209 94.7062993 39.6734798 94.5652283 39.4390304 94.4272352 39.2011608 94.3012118 38.9581611 94.1719395 38.7108862 94.0406152 38.4617303 93.9221156 38.2089832 93.801735 37.952303 93.6799865 37.6933997 93.5693526 37.4278272 93.4717144 37.1684109 93.3552667 36.6311096 93.1733279 36.0931243 92.9795904 35.5349602 92.8648526L35.1204414 92.7646495 34.7004503 92.6952254C34.4218813 92.64102 34.1392081 92.6193036 33.8599551 92.5791197 33.298713 92.5421848 32.7398649 92.50012 32.1905932 92.5240593 31.6426895 92.5394489 31.1040202 92.5758708 30.5904888 92.6447819 30.0749053 92.7030912 29.5839466 92.7914957 29.1266762 92.8810972 28.2107674 93.063036 27.4316634 93.273702 26.8794846 93.4342664 26.6050197 93.5165151 26.3804887 93.5768764 26.2323973 93.627833 26.0807149 93.6765666 26 93.7023868 26 93.7023868 26 93.7023868 26.1863967 93.4113531 26.6021126 92.9795904"/>
    <g transform="translate(440.42 214.373)">
      <polygon fill="#C46528" points="0 121.716 90.081 121.716 90.081 0 0 0"/>
      <polygon fill="#B55B21" points="45.948 121.716 90.982 121.716 90.982 0 45.948 0"/>
      <polygon fill="#DB7F44" points="11.782 73.759 42.661 73.759 42.661 55.994 11.782 55.994"/>
      <polygon fill="#DB7F44" points="48.305 73.759 79.184 73.759 79.184 55.994 48.305 55.994"/>
      <polygon fill="#DB7F44" points="11.782 49.931 42.661 49.931 42.661 32.167 11.782 32.167"/>
      <polygon fill="#DB7F44" points="48.305 49.931 79.184 49.931 79.184 32.167 48.305 32.167"/>
      <polygon fill="#DB7F44" points="11.782 26.104 42.661 26.104 42.661 8.34 11.782 8.34"/>
      <polygon fill="#DB7F44" points="48.305 26.104 79.184 26.104 79.184 8.34 48.305 8.34"/>
      <polygon fill="#DB7F44" points="12.96 97.586 25.446 97.586 25.446 79.822 12.96 79.822"/>
      <polygon fill="#DB7F44" points="30.632 97.586 43.118 97.586 43.118 79.822 30.632 79.822"/>
      <polygon fill="#DB7F44" points="48.305 97.586 60.791 97.586 60.791 79.822 48.305 79.822"/>
      <polygon fill="#DB7F44" points="64.799 97.586 77.285 97.586 77.285 79.822 64.799 79.822"/>
      <path fill="#DB7F44" d="M28.7589549,120.895199 L14.1379541,120.895199 L14.1379541,109.850032 C14.1379541,105.767216 17.4108905,102.457597 21.4484545,102.457597 C25.4860186,102.457597 28.7589549,105.767216 28.7589549,109.850032 L28.7589549,120.895199 Z"/>
    </g>
    <polygon fill="#DB7F44" points="195.431 336.28 293.787 336.28 293.787 221.462 195.431 221.462"/>
    <polygon fill="#C16A32" points="202.334 187.28 277.854 187.28 289.106 221.955 191.081 221.955"/>
    <polygon fill="#B55B22" points="191.081 336.232 231.623 336.232 231.623 221.232 191.081 221.232"/>
    <polygon fill="#EFC050" points="271.552 256.611 280.22 256.611 280.22 241.614 271.552 241.614"/>
    <polygon fill="#EFC050" points="257.04 256.611 265.708 256.611 265.708 241.614 257.04 241.614"/>
    <polygon fill="#EFC050" points="243.564 256.611 252.232 256.611 252.232 241.614 243.564 241.614"/>
    <polygon fill="#EFC050" points="271.552 278.623 280.22 278.623 280.22 263.627 271.552 263.627"/>
    <polygon fill="#EFC050" points="257.04 278.623 265.708 278.623 265.708 263.627 257.04 263.627"/>
    <polygon fill="#EFC050" points="243.564 278.623 252.232 278.623 252.232 263.627 243.564 263.627"/>
    <polygon fill="#EFC050" points="271.552 299.587 280.22 299.587 280.22 284.59 271.552 284.59"/>
    <polygon fill="#EFC050" points="257.04 299.587 265.708 299.587 265.708 284.59 257.04 284.59"/>
    <polygon fill="#EFC050" points="243.564 299.587 252.232 299.587 252.232 284.59 243.564 284.59"/>
    <polygon fill="#DB7F44" points="212.65 250.813 222.25 250.813 222.25 242.663 212.65 242.663"/>
    <polygon fill="#DB7F44" points="198.138 250.813 207.738 250.813 207.738 242.663 198.138 242.663"/>
    <polygon fill="#DB7F44" points="212.65 262.344 222.25 262.344 222.25 254.193 212.65 254.193"/>
    <polygon fill="#DB7F44" points="198.138 262.344 207.738 262.344 207.738 254.193 198.138 254.193"/>
    <polygon fill="#DB7F44" points="212.65 273.874 222.25 273.874 222.25 265.723 212.65 265.723"/>
    <polygon fill="#DB7F44" points="198.138 273.874 207.738 273.874 207.738 265.723 198.138 265.723"/>
    <polygon fill="#DB7F44" points="212.65 285.404 222.25 285.404 222.25 277.253 212.65 277.253"/>
    <polygon fill="#DB7F44" points="198.138 285.404 207.738 285.404 207.738 277.253 198.138 277.253"/>
    <polygon fill="#DB7F44" points="212.65 296.934 222.25 296.934 222.25 288.783 212.65 288.783"/>
    <polygon fill="#DB7F44" points="198.138 296.934 207.738 296.934 207.738 288.783 198.138 288.783"/>
    <polygon fill="#EFC050" points="253.93 330.248 269.03 330.248 269.03 307.651 253.93 307.651"/>
    <g transform="translate(306.725 113.544)">
      <polygon fill="#E6A545" points="21.46 64.734 91.679 64.734 91.679 17.836 21.46 17.836"/>
      <polygon fill="#D37030" points="21.46 17.619 56.57 0 91.679 17.619"/>
      <polygon fill="#DE8E3C" points="0 221.215 113.275 221.215 113.275 38.416 0 38.416"/>
      <polygon fill="#D69D4C" points="14.307 81.462 29.15 81.462 29.15 67.228 14.307 67.228"/>
      <polygon fill="#D69D4C" points="38.628 81.462 53.471 81.462 53.471 67.228 38.628 67.228"/>
      <polygon fill="#D69D4C" points="61.518 81.462 76.361 81.462 76.361 67.228 61.518 67.228"/>
      <polygon fill="#D69D4C" points="85.84 81.462 100.683 81.462 100.683 67.228 85.84 67.228"/>
      <polygon fill="#D69D4C" points="14.307 106.158 29.15 106.158 29.15 91.924 14.307 91.924"/>
      <polygon fill="#D69D4C" points="38.628 106.158 53.471 106.158 53.471 91.924 38.628 91.924"/>
      <polygon fill="#D69D4C" points="61.518 106.158 76.361 106.158 76.361 91.924 61.518 91.924"/>
      <polygon fill="#D69D4C" points="85.84 106.158 100.683 106.158 100.683 91.924 85.84 91.924"/>
      <polygon fill="#D69D4C" points="14.307 163.8 38.133 163.8 38.133 133.084 14.307 133.084"/>
      <polygon fill="#D69D4C" points="47.212 163.8 71.038 163.8 71.038 133.084 47.212 133.084"/>
      <polygon fill="#D69D4C" points="80.117 163.8 103.945 163.8 103.945 133.084 80.117 133.084"/>
      <path fill="#D69D4C" d="M71.8333681,221.53782 L34.3358063,221.53782 L34.3358063,192.225092 C34.3358063,182.294574 42.7294803,174.243692 53.0845872,174.243692 C63.4396941,174.243692 71.8333681,182.294574 71.8333681,192.225092 L71.8333681,221.53782 Z"/>
    </g>
    <g transform="translate(55.944 296.12)">
      <path fill="#DF864D" d="M84.3646692,14.699541 C84.3646692,22.3073241 78.77131,28.4748904 58.9478481,28.4748904 C39.1254228,28.4748904 23.0553993,14.699541 23.0553993,14.699541 C23.0553993,14.699541 39.1254228,0.924191566 58.9478481,0.924191566 C78.77131,0.924191566 84.3646692,7.09175783 84.3646692,14.699541"/>
      <path fill="#DF864D" d="M89.4528016,32.1301482 L5.40833049,32.1301482 C2.71841815,32.1301482 0.516732679,29.9048349 0.516732679,27.1847747 C0.516732679,20.2708952 6.1111284,14.6137988 12.9483776,14.6137988 L89.4528016,14.6137988 C92.1427139,14.6137988 94.3433628,16.8401602 94.3433628,19.5602205 L94.3433628,27.1847747 C94.3433628,29.9048349 92.1427139,32.1301482 89.4528016,32.1301482"/>
      <path fill="#F6DEA2" d="M32.3236245,30.612994 C32.3236245,36.0971386 27.9275095,40.5425241 22.5041487,40.5425241 C17.0807879,40.5425241 12.6836364,36.0971386 12.6836364,30.612994 C12.6836364,25.1288494 17.0807879,20.6834639 22.5041487,20.6834639 C27.9275095,20.6834639 32.3236245,25.1288494 32.3236245,30.612994"/>
      <path fill="#F1C853" d="M27.6596585,30.612994 C27.6596585,33.4923795 25.3512058,35.8267048 22.5037341,35.8267048 C19.6562623,35.8267048 17.3478096,33.4923795 17.3478096,30.612994 C17.3478096,27.7336084 19.6562623,25.3992831 22.5037341,25.3992831 C25.3512058,25.3992831 27.6596585,27.7336084 27.6596585,30.612994"/>
      <path fill="#F6DEA2" d="M89.0599396,30.612994 C89.0599396,36.0971386 84.6638247,40.5425241 79.2404639,40.5425241 C73.8171031,40.5425241 69.4199516,36.0971386 69.4199516,30.612994 C69.4199516,25.1288494 73.8171031,20.6834639 79.2404639,20.6834639 C84.6638247,20.6834639 89.0599396,25.1288494 89.0599396,30.612994"/>
      <path fill="#F1C853" d="M84.3959737,30.612994 C84.3959737,33.4923795 82.087521,35.8267048 79.2400493,35.8267048 C76.3925775,35.8267048 74.0841248,33.4923795 74.0841248,30.612994 C74.0841248,27.7336084 76.3925775,25.3992831 79.2400493,25.3992831 C82.087521,25.3992831 84.3959737,27.7336084 84.3959737,30.612994"/>
      <path fill="#F6DEA2" d="M34.5686388,13.8337337 C34.5686388,17.282288 44.3715293,16.1753964 56.4631777,16.1753964 C68.554826,16.1753964 78.3577165,17.282288 78.3577165,13.8337337 C78.3577165,10.3851795 72.682468,3.68722771 60.5908196,3.68722771 C48.4991713,3.68722771 34.5686388,10.3851795 34.5686388,13.8337337"/>
    </g>
  </g>
</svg>
