<svg width="1100" height="244" viewBox="0 0 1100 244" xmlns="http://www.w3.org/2000/svg"><title>Group 22</title><g fill="none" fill-rule="evenodd"><path d="M652.072 240.262s11.166-4.547 18.377-17.964C677.66 208.883 722.32 120.2 786.056 120.2c11.91 0 23.157 3.1 33.616 8.224 1.59.78 3.16 1.61 4.715 2.48 42.9 24.003 71.62 80.868 77.278 91.394 7.21 13.417 18.376 17.964 18.376 17.964l.466 2.275H651.606l.466-2.275z" fill="#D69D4C"/><path d="M447.53 240.45s8.622-3.513 14.19-13.874c5.57-10.36 40.06-78.846 89.28-78.846 49.222 0 83.712 68.486 89.28 78.846 5.57 10.36 14.192 13.873 14.192 13.873l.36 1.755H447.17l.358-1.756z" fill="#E7AA47"/><path d="M95.112 241.628s10.318-4.202 16.98-16.6c6.665-12.397 47.936-94.347 106.834-94.347 58.897 0 100.168 81.95 106.832 94.348 6.663 12.398 16.98 16.6 16.98 16.6l.43 2.102H94.683l.43-2.102z" fill="#E6A645"/><path fill="#B55B22" d="M137.036 88.75l2.736 105.51h-5.45V88.75"/><path d="M104.99 37.978c1.46-.918 2.956.665 3.85 1.61 1.016 1.078 2.33 2.683 3.904 4.774 3.242 4.305 7.264 10.227 11.324 16.676 4.028 6.397 7.612 12.548 10.09 17.318 1.223 2.352 2.117 4.254 2.657 5.654.182.473.41 1.068.54 1.674.44-.11.878-.18 1.245-.238 1.483-.236 3.577-.418 6.225-.54 5.37-.252 12.488-.24 20.044.032 7.218.26 14.09.734 19.346 1.333 8.707.995 9.37 1.875 9.81 2.458.252.336.377.728.363 1.133-.063 1.732-2.234 2.076-3.53 2.282-1.483.235-3.577.417-6.225.54-5.37.252-12.49.24-20.044-.033-7.218-.26-14.09-.734-19.346-1.333-4.703-.537-7.057-1.04-8.298-1.482-.55 1.352-1.627 3.357-3.553 6.475-2.81 4.55-6.78 10.353-11.184 16.343-4.48 6.092-8.89 11.68-12.42 15.733-1.74 2-3.183 3.527-4.288 4.543-.967.888-2.585 2.376-3.98 1.35-.135-.1-.255-.218-.357-.353-.738-.98-.883-2.17 3.642-9.5 2.81-4.55 6.78-10.353 11.184-16.344 4.478-6.09 8.89-11.678 12.42-15.732 1.74-1.998 3.183-3.526 4.288-4.542.2-.182.425-.388.67-.594-.22-.214-.424-.427-.602-.616-1.017-1.077-2.33-2.683-3.905-4.773v-.002c-3.242-4.304-7.263-10.225-11.323-16.674-4.028-6.4-7.61-12.55-10.09-17.32-1.222-2.35-2.116-4.254-2.657-5.654-.473-1.225-1.264-3.275.2-4.198" fill="#B55B22"/><path d="M127.833 87.205c0 4.178 3.388 7.566 7.568 7.566s7.568-3.387 7.568-7.565c0-4.18-3.388-7.567-7.567-7.567-4.18 0-7.567 3.388-7.567 7.567" fill="#D69D4C"/><path d="M131.453 87.205c0 2.18 1.767 3.947 3.948 3.947 2.18 0 3.95-1.767 3.95-3.947s-1.77-3.948-3.95-3.948-3.947 1.767-3.947 3.948" fill="#C46529"/><path fill="#377C75" d="M727.716 178.542l4.01.07-.2-7.98-3.06.07"/><path d="M730.066 146.53s-19 20.502-.493 25.8l.493-25.8z" fill="#59C093"/><path d="M730.067 146.508s18.228 21.194-.45 25.842l.45-25.842z" fill="#5FCCA1"/><path d="M1056.757 240.283s-7.347-2.834-12.092-11.193c-4.746-8.36-34.135-63.618-76.075-63.618V241.7h88.473l-.306-1.417z" fill="#D38E45"/><path d="M880.684 240.283s7.347-2.834 12.092-11.193c4.745-8.36 34.134-63.618 76.075-63.618V241.7H880.38l.306-1.417z" fill="#CB8337"/><path fill="#B55B22" d="M650.224 239.645l8.387.147-.42-16.69-6.396.147"/><path d="M656.14 172.703s-39.733 42.873-1.032 53.953l1.03-53.953z" fill="#98B264"/><path d="M655.14 172.656s38.12 44.32-.943 54.04l.943-54.04z" fill="#A3B77B"/><path fill="#B55B22" d="M1054 239.544l8.388.147-.423-16.69-6.395.147"/><path d="M1058.968 173s-39.73 42.873-1.03 53.952l1.03-53.952z" fill="#98B264"/><path d="M1058.943 173s38.12 44.322-.943 54.04l.943-54.04z" fill="#A3B77B"/><path fill="#B55B22" d="M226.72 144.203l7.354.12-.37-13.504-5.608.118"/><path d="M231.076 90.37s-34.838 34.683-.904 43.646l.904-43.647z" fill="#D27438"/><path d="M231.054 90.37s33.426 35.855-.827 43.717l.827-43.718z" fill="#DC8B57"/><path fill="#B55B22" d="M540.387 244.617l10.87.19-.546-21.63-8.288.19"/><path d="M548.675 157.176S497.18 212.74 547.34 227.1l1.335-69.924z" fill="#98B264"/><path d="M548.61 157.176s49.406 57.443-1.223 70.04l1.222-70.04z" fill="#A3B77B"/><path fill="#B55B22" d="M241.387 244.617l10.87.19-.546-21.63-8.288.19"/><path d="M249.675 157.176S198.18 212.74 248.34 227.1l1.335-69.924z" fill="#98B264"/><path d="M249.61 157.176s49.406 57.443-1.223 70.04l1.222-70.04z" fill="#A3B77B"/><path d="M191.07 243.085s-4.585-1.866-7.546-7.374c-2.96-5.507-21.296-41.916-47.462-41.916v50.225h55.198l-.19-.935z" fill="#98B264"/><path d="M82.613 243.085s4.584-1.866 7.544-7.374c2.96-5.507 21.297-41.916 47.463-41.916v50.225H82.422l.19-.935z" fill="#A3B77B"/><path d="M1007.286 31.302c-.405-1.753-.625-3.572-.625-5.44 0-13.89 11.78-25.15 26.31-25.15 9.994 0 18.685 5.326 23.138 13.17 2.67-1.406 5.737-2.208 9-2.208 10.31 0 18.668 7.99 18.668 17.846 0 .26-.01.518-.02.775h.06c8.802 0 15.937 6.82 15.937 15.235 0 8.414-7.135 15.235-15.937 15.235h-70.83c-8.803 0-15.938-6.82-15.938-15.235 0-6.493 4.252-12.035 10.238-14.228M8.592 35.843c-.327-1.415-.504-2.883-.504-4.392 0-11.213 9.51-20.303 21.24-20.303 8.067 0 15.084 4.3 18.68 10.634 2.153-1.135 4.63-1.783 7.264-1.783 8.323 0 15.07 6.45 15.07 14.407 0 .21-.006.42-.016.626h.05c7.104 0 12.865 5.507 12.865 12.3 0 6.792-5.76 12.298-12.865 12.298H13.193c-7.105 0-12.866-5.506-12.866-12.3 0-5.24 3.433-9.714 8.265-11.485" fill="#D69D4C"/><g fill="#D69D4C"><path d="M505.422 57.42c-5.042-5.132-12.05-8.314-19.802-8.314-15.354 0-27.8 12.48-27.8 27.873 0 12.196 7.816 22.556 18.7 26.336-.58-.632-1.13-1.29-1.648-1.975.36.447.734.88 1.12 1.304 2.853.99 5.913 1.536 9.102 1.536 15.353 0 27.8-12.48 27.8-27.873 0-7.26-2.77-13.872-7.307-18.832-.055-.02-.11-.037-.165-.056zM481.86 44.562c0 1.27.97 2.298 2.168 2.298 1.197 0 2.168-1.03 2.168-2.298v-11.12c0-1.268-.97-2.297-2.168-2.297-1.197 0-2.168 1.03-2.168 2.298v11.12zM479.8 119.94c0 1.27.972 2.3 2.17 2.3 1.197 0 2.167-1.03 2.167-2.3v-11.118c0-1.27-.97-2.298-2.168-2.298-1.198 0-2.17 1.03-2.17 2.298v11.12zM451.682 79.016c1.197 0 2.168-1.03 2.168-2.298 0-1.27-.97-2.298-2.168-2.298h-10.49c-1.197 0-2.167 1.03-2.167 2.298 0 1.27.97 2.298 2.167 2.298h10.49zM527.8 79.016c1.196 0 2.167-1.03 2.167-2.298 0-1.27-.97-2.298-2.168-2.298h-10.49c-1.198 0-2.168 1.03-2.168 2.298 0 1.27.97 2.298 2.167 2.298h10.49z"/><path d="M461.194 55.36c.847.898 2.22.898 3.066 0 .847-.897.847-2.352 0-3.25l-7.417-7.862c-.846-.897-2.22-.897-3.066 0-.846.898-.846 2.353 0 3.25l7.417 7.863zM514.323 108.907c.847.897 2.22.897 3.066 0 .845-.898.846-2.353 0-3.25l-7.42-7.863c-.845-.897-2.218-.897-3.064 0-.847.897-.847 2.353 0 3.25l7.417 7.863zM462.086 101.044c.846-.897.846-2.352 0-3.25-.847-.897-2.22-.897-3.066 0l-7.417 7.862c-.847.898-.847 2.353 0 3.25.846.898 2.22.898 3.066 0l7.416-7.862zM517.39 47.78c.845-.898.845-2.353 0-3.25-.848-.898-2.22-.898-3.067 0l-7.418 7.86c-.846.9-.846 2.354 0 3.25.847.898 2.22.9 3.066 0l7.42-7.86z"/></g><path d="M254.824 55.156c-.226-.98-.35-2-.35-3.045 0-7.772 6.593-14.074 14.724-14.074 5.593 0 10.457 2.982 12.95 7.372 1.492-.787 3.21-1.236 5.035-1.236 5.77 0 10.447 4.47 10.447 9.987 0 .144-.005.29-.012.433h.034c4.926 0 8.92 3.817 8.92 8.525 0 4.71-3.994 8.526-8.92 8.526h-39.638c-4.925 0-8.92-3.817-8.92-8.526 0-3.633 2.38-6.734 5.73-7.962M869.848 50.275c.416-.43 1.065-1 1.96-1.53.893-.528 2.04-1.022 3.36-1.268.166-.03.333-.06.5-.088.17-.02.343-.036.516-.053.346-.043.7-.037 1.057-.042.713.024 1.443.096 2.15.27.358.072.7.2 1.046.303.343.112.667.27.995.404.642.306 1.236.667 1.775 1.055.26.207.523.398.762.606.23.217.458.425.67.635.406.44.786.85 1.078 1.277l.422.602c.124.198.235.39.336.57.206.36.373.676.486.954l.125.303.126-.302c.114-.277.28-.594.487-.954.1-.18.213-.37.336-.57l.422-.6c.292-.427.672-.838 1.077-1.278.212-.21.44-.418.67-.635.24-.208.502-.4.763-.606.54-.388 1.133-.75 1.774-1.055.327-.135.65-.292.995-.404.346-.104.687-.23 1.045-.303.707-.174 1.436-.246 2.15-.27.355.005.71 0 1.056.042l.515.052c.17.028.336.058.5.087 1.323.246 2.468.74 3.36 1.268.897.53 1.547 1.1 1.962 1.53.415.432.602.722.602.722l-.232-.074c-.148-.05-.373-.11-.648-.194-.552-.16-1.33-.372-2.247-.554-.458-.09-.948-.178-1.464-.236-.513-.07-1.052-.105-1.6-.12-.55-.025-1.108.017-1.67.054-.278.04-.56.062-.84.116l-.42.07-.414.1c-.56.115-1.098.308-1.634.49-.26.117-.526.215-.785.325l-.757.36-.728.387c-.235.138-.46.28-.69.408-.23.13-.436.284-.65.414l-.317.198-.293.208-.565.384-.504.367c-.322.23-.61.43-.837.607-.162.118-.3.216-.414.296.058.153.086.236.086.236s-.08-.052-.217-.147l-.217.146s.028-.084.086-.237c-.115-.08-.252-.178-.412-.296-.23-.177-.516-.377-.838-.606l-.504-.366-.565-.384-.294-.208-.314-.198c-.215-.13-.42-.284-.65-.414-.23-.128-.457-.27-.69-.408l-.73-.386c-.248-.12-.5-.24-.757-.36-.26-.11-.526-.21-.785-.326-.537-.182-1.075-.375-1.634-.49l-.413-.1-.42-.07c-.28-.054-.56-.076-.84-.116-.562-.037-1.12-.08-1.67-.055-.548.015-1.087.05-1.6.12-.516.058-1.007.147-1.465.236-.915.182-1.694.393-2.246.553-.275.082-.5.142-.647.193-.153.05-.234.074-.234.074s.187-.29.602-.722M791.917 65.933c.416-.43 1.065-.998 1.96-1.53.894-.528 2.04-1.022 3.36-1.268l.5-.088.516-.05c.346-.044.7-.04 1.057-.043.713.023 1.442.095 2.15.27.357.072.7.2 1.045.303.343.112.668.27.996.404.64.307 1.236.668 1.775 1.056.26.206.522.397.762.605.23.22.458.427.67.637.405.44.785.85 1.077 1.276l.422.602c.124.198.235.39.337.57.206.36.372.677.485.954.048.11.088.21.126.3l.127-.3c.113-.278.28-.596.486-.955.102-.18.213-.372.336-.57l.422-.602c.292-.425.673-.837 1.078-1.276.212-.21.44-.418.67-.636.24-.207.502-.398.762-.604.54-.388 1.133-.75 1.774-1.055.328-.134.652-.29.996-.403.346-.104.687-.23 1.045-.303.706-.175 1.435-.247 2.15-.27.355.004.71 0 1.055.042l.515.05.5.09c1.322.245 2.468.74 3.36 1.268.896.53 1.546 1.1 1.96 1.53.417.43.603.722.603.722l-.232-.074c-.147-.05-.372-.112-.646-.194-.552-.16-1.332-.37-2.247-.553-.458-.09-.95-.178-1.464-.236-.514-.07-1.053-.107-1.6-.122-.55-.024-1.11.018-1.67.055-.28.04-.562.062-.84.116l-.42.07-.415.1c-.558.113-1.096.307-1.633.49-.26.116-.525.213-.785.324l-.758.36-.728.387c-.234.14-.46.28-.69.408-.23.13-.436.284-.65.415l-.316.197-.293.208-.566.385-.505.367c-.322.228-.61.43-.837.606-.16.118-.3.216-.413.296.058.152.087.236.087.236s-.08-.05-.218-.146l-.217.146s.028-.084.086-.236c-.114-.08-.252-.178-.412-.296-.227-.177-.514-.378-.837-.606l-.504-.367c-.18-.123-.37-.25-.566-.385l-.293-.208-.315-.197c-.214-.13-.42-.284-.65-.415-.23-.128-.456-.27-.69-.407l-.73-.386-.757-.36c-.26-.11-.525-.208-.784-.325-.537-.183-1.075-.377-1.633-.49l-.414-.1-.42-.07c-.28-.055-.56-.077-.84-.117-.562-.037-1.12-.08-1.67-.055-.548.015-1.086.052-1.6.12-.516.06-1.007.147-1.464.237-.916.182-1.695.393-2.247.553-.275.082-.5.143-.647.194l-.232.074s.186-.29.6-.723M823.878 84.047c.415-.43 1.065-1 1.96-1.53.893-.528 2.04-1.022 3.36-1.268l.5-.09.516-.05c.345-.044.7-.038 1.057-.043.713.024 1.443.096 2.15.27.358.072.7.2 1.045.303.344.112.668.27.996.404.642.306 1.236.667 1.775 1.055.26.206.523.397.762.605.23.217.458.425.67.635.405.44.786.85 1.078 1.277l.422.602c.123.197.235.388.336.568.206.36.373.677.485.955.048.11.09.21.127.302.037-.092.078-.19.126-.302.113-.278.28-.595.486-.955.102-.18.213-.37.337-.57l.42-.6c.293-.427.674-.838 1.08-1.278.21-.21.44-.418.67-.635.238-.208.5-.4.76-.606.54-.39 1.135-.75 1.775-1.056.328-.135.653-.292.996-.404.346-.104.688-.23 1.045-.303.707-.174 1.436-.246 2.15-.27.355.005.71 0 1.056.042l.515.05.5.09c1.323.245 2.468.74 3.36 1.267.896.53 1.546 1.1 1.96 1.53.417.432.604.722.604.722l-.233-.075c-.147-.05-.37-.11-.646-.194-.552-.16-1.33-.37-2.247-.552-.458-.09-.948-.178-1.464-.236-.513-.07-1.052-.105-1.6-.12-.55-.025-1.108.017-1.67.054-.28.04-.56.062-.84.116l-.42.07-.415.1c-.558.115-1.096.308-1.633.49-.26.117-.525.215-.784.325l-.757.36-.73.387c-.233.138-.46.28-.69.408-.228.13-.434.284-.65.414l-.315.198-.293.208-.565.384-.504.367c-.322.23-.61.43-.838.606-.16.117-.298.215-.412.295.058.153.086.236.086.236s-.08-.05-.217-.144l-.218.145.087-.235c-.115-.08-.253-.178-.413-.296-.227-.178-.514-.378-.837-.607l-.503-.367-.566-.384-.293-.208-.314-.198c-.215-.13-.42-.284-.65-.414-.23-.128-.457-.27-.69-.408l-.73-.386c-.248-.12-.5-.24-.758-.36-.26-.11-.524-.21-.784-.325-.537-.183-1.075-.376-1.633-.49l-.414-.1-.42-.07c-.278-.055-.56-.077-.84-.117-.56-.037-1.12-.08-1.67-.055-.548.017-1.086.053-1.6.122-.515.058-1.006.147-1.464.236-.915.182-1.694.393-2.246.553-.275.084-.5.144-.648.195-.15.05-.232.074-.232.074s.186-.29.602-.723M630.803 33.83c.415-.43 1.065-.998 1.96-1.528.893-.53 2.04-1.023 3.36-1.27l.5-.087.516-.052c.344-.043.7-.037 1.055-.04.713.022 1.443.094 2.15.268.358.074.7.2 1.045.305.343.112.668.268.996.404.64.304 1.235.665 1.774 1.054.26.206.523.397.762.605.23.217.458.424.67.635.405.44.786.85 1.078 1.276l.422.603c.123.198.234.39.336.57.206.36.373.676.485.954.048.11.09.21.127.302.037-.092.078-.192.126-.303.113-.278.28-.595.485-.954.103-.18.214-.372.338-.57l.422-.602c.29-.424.672-.836 1.077-1.275.212-.21.44-.418.67-.636.24-.21.502-.4.762-.606.538-.39 1.133-.75 1.773-1.055.328-.137.653-.293.996-.405.345-.104.687-.23 1.044-.304.708-.173 1.437-.245 2.15-.268.356.004.71-.002 1.057.04.174.02.345.036.516.053.168.03.335.06.5.088 1.322.246 2.467.74 3.36 1.27.895.53 1.545 1.097 1.96 1.528.416.433.602.724.602.724l-.232-.075c-.148-.052-.372-.112-.647-.194-.553-.16-1.332-.37-2.248-.553-.458-.09-.948-.178-1.464-.237-.514-.07-1.052-.105-1.6-.12-.55-.024-1.108.018-1.67.055-.28.04-.56.063-.84.117l-.42.07-.415.1c-.558.114-1.096.308-1.633.49-.26.116-.525.214-.784.325-.256.12-.51.242-.758.36l-.73.387c-.233.137-.46.278-.69.406-.228.13-.435.284-.65.415-.106.068-.212.133-.315.198l-.293.208-.566.384-.503.368c-.322.228-.61.43-.837.606-.16.117-.298.215-.412.295.06.152.087.235.087.235s-.08-.05-.217-.145c-.14.095-.218.145-.218.145l.087-.236c-.116-.08-.253-.18-.414-.296-.228-.177-.515-.378-.838-.606l-.503-.368-.566-.384-.294-.208-.315-.197c-.214-.13-.42-.283-.65-.414-.23-.128-.456-.27-.69-.407l-.728-.388c-.25-.118-.502-.24-.76-.36-.258-.11-.523-.21-.783-.325-.538-.182-1.076-.376-1.634-.49l-.415-.1-.42-.07c-.277-.054-.56-.076-.84-.116-.56-.036-1.12-.078-1.67-.054-.547.015-1.085.05-1.6.12-.514.06-1.005.147-1.463.237-.915.182-1.695.392-2.247.553-.275.082-.5.142-.647.193l-.232.074s.187-.29.603-.723M562.88 39.48c.417-.43 1.067-.998 1.962-1.53.892-.527 2.038-1.02 3.36-1.267.165-.03.332-.06.5-.088l.515-.052c.346-.043.7-.037 1.057-.042.712.025 1.442.097 2.15.27.357.073.7.2 1.044.304.344.112.668.27.996.404.64.306 1.235.667 1.774 1.055.26.206.524.398.763.606.23.216.458.424.67.634.406.44.787.85 1.078 1.277l.422.603c.123.198.235.39.336.57.207.36.373.676.486.954.047.11.088.21.126.302.037-.093.08-.192.126-.303.113-.278.28-.595.486-.955.1-.18.212-.37.336-.57l.422-.6c.292-.427.672-.838 1.077-1.278.212-.21.44-.418.67-.635.24-.21.502-.4.763-.607.54-.388 1.133-.75 1.774-1.055.328-.135.652-.292.996-.404.346-.104.687-.23 1.045-.303.707-.173 1.436-.245 2.15-.27.356.006.71 0 1.056.043l.514.052c.168.03.335.06.5.088 1.322.246 2.468.74 3.36 1.268.896.532 1.545 1.1 1.96 1.53.416.433.603.724.603.724l-.233-.075c-.148-.052-.372-.112-.647-.195-.552-.16-1.33-.37-2.247-.553-.458-.09-.948-.178-1.464-.236-.513-.07-1.05-.105-1.6-.12-.55-.025-1.108.017-1.67.054-.278.04-.56.062-.84.116l-.42.07-.414.1c-.558.115-1.097.308-1.634.49-.26.117-.524.215-.784.325l-.758.362-.728.386c-.234.138-.46.28-.69.408-.23.13-.436.284-.65.414l-.316.198-.294.208-.565.384-.503.367c-.323.23-.61.43-.838.606-.16.118-.3.216-.413.296.057.152.085.235.085.235s-.08-.05-.217-.146c-.14.095-.217.145-.217.145l.087-.236c-.115-.08-.252-.18-.412-.297-.23-.177-.516-.377-.838-.606l-.504-.367-.565-.384-.293-.208c-.104-.065-.21-.13-.316-.198-.216-.13-.422-.284-.65-.414-.23-.13-.457-.27-.692-.408l-.728-.386c-.25-.12-.502-.24-.758-.36-.26-.11-.525-.21-.784-.326-.538-.182-1.076-.375-1.634-.49l-.414-.1-.42-.07c-.28-.054-.562-.076-.84-.116-.562-.037-1.12-.08-1.67-.055-.548.016-1.087.052-1.6.12-.516.06-1.007.148-1.464.237-.916.182-1.695.393-2.247.553-.276.083-.5.143-.648.194l-.233.074s.186-.29.6-.723" fill="#D69D4C"/><g><path fill="#F1C753" d="M275.757 243.563h145.107v-84.69H275.757"/><path fill="#DB9A3C" d="M420.36 161.044h-144.1l-7.968-11.4H428.33"/><path fill="#F1C753" d="M262.204 151.815h172.212v-22.548H262.204"/><path fill="#E6A645" d="M329.25 240.64h38.12v-30.207h-38.12"/><path fill="#EAB44B" d="M285.278 173.404h56.86v-5.727h-56.86M285.278 184.134h56.86v-5.727h-56.86M285.278 194.865h56.86v-5.727h-56.86M354.484 173.404h56.86v-5.727h-56.86M354.484 184.134h56.86v-5.727h-56.86M354.484 194.865h56.86v-5.727h-56.86"/></g><g><path fill="#C46529" d="M883 241.165h76.46V139H883"/><path fill="#B55B22" d="M922 241.165h38.224V139H922"/><path fill="#DB7F44" d="M893 200.91h26.21V186H893M924 200.91h26.21V186H924M893 180.91h26.21V166H893M924 180.91h26.21V166H924M893 160.91h26.21V146H893M924 160.91h26.21V146H924M894 220.91h10.598V206H894M909 220.91h10.598V206H909M924 220.91h10.598V206H924M938 220.91h10.598V206H938M907.41 240.476H895v-9.27c0-3.428 2.778-6.206 6.205-6.206s6.205 2.778 6.205 6.205v9.27z"/></g><path fill="#DB7F44" d="M694 243.308h90.45V150H694"/><path fill="#C06A33" d="M700.348 120h69.45l10.348 30.516H690"/><path fill="#B55B22" d="M690 241.84h37.283V149H690"/><path fill="#EFC050" d="M763 171.307h8.362V157H763M749 171.307h8.362V157H749M736 171.307h8.362V157H736M763 192.307h8.362V178H763M749 192.307h8.362V178H749M736 192.307h8.362V178H736M763 212.307h8.362V198H763M749 212.307h8.362V198H749M736 212.307h8.362V198H736"/><path fill="#DB7F44" d="M711 165.776h9.26V158H711M697 165.776h9.26V158H697M711 176.776h9.26V169H711M697 176.776h9.26V169H697M711 187.776h9.26V180H711M697 187.776h9.26V180H697M711 198.776h9.26V191H711M697 198.776h9.26V191H697M711 209.776h9.26V202H711M697 209.776h9.26V202H697"/><path fill="#EFC050" d="M746 241.558h14.567V220H746"/><g><path fill="#E6A545" d="M802 129.182h49.082V95H802"/><path fill="#D37030" d="M802 94.842L826.54 82l24.542 12.842"/><path fill="#DE8E3C" d="M787 243.236h79.177V110H787"/><path fill="#D69D4C" d="M797 141.375h10.375V131H797M814 141.375h10.375V131H814M830 141.375h10.375V131H830M847 141.375h10.375V131H847M797 159.375h10.375V149H797M814 159.375h10.375V149H814M830 159.375h10.375V149H830M847 159.375h10.375V149H847M797 201.388h16.654V179H797M820 201.388h16.654V179H820M843 201.388h16.655V179H843M837.21 243.47H811v-21.364c0-7.238 5.867-13.106 13.105-13.106s13.105 5.868 13.105 13.106v21.365z"/></g><g><path d="M508.388 218.024c0 7.258-5.396 13.142-24.52 13.142-19.123 0-34.626-13.142-34.626-13.142s15.503-13.142 34.626-13.142c19.124 0 24.52 5.884 24.52 13.142" fill="#DF864D"/><path d="M513.297 234.653h-81.08c-2.594 0-4.718-2.123-4.718-4.718 0-6.596 5.396-11.993 11.992-11.993h73.805c2.595 0 4.718 2.124 4.718 4.72v7.273c0 2.595-2.123 4.718-4.718 4.718" fill="#DF864D"/><path d="M458.183 233.206c0 5.232-4.24 9.473-9.473 9.473-5.232-.002-9.474-4.243-9.474-9.475 0-5.232 4.242-9.473 9.474-9.473s9.473 4.24 9.473 9.473" fill="#F5DEA2"/><path d="M453.684 233.206c0 2.747-2.227 4.974-4.974 4.974-2.747 0-4.974-2.228-4.974-4.975 0-2.747 2.227-4.974 4.974-4.974 2.747.002 4.974 2.23 4.974 4.976" fill="#F1C853"/><path d="M512.918 233.206c0 5.232-4.24 9.473-9.473 9.473-5.232-.002-9.474-4.243-9.474-9.475 0-5.232 4.242-9.473 9.474-9.473s9.473 4.24 9.473 9.473" fill="#F5DEA2"/><path d="M508.418 233.206c0 2.747-2.227 4.974-4.974 4.974-2.747 0-4.974-2.228-4.974-4.975 0-2.747 2.227-4.974 4.974-4.974 2.747.002 4.974 2.23 4.974 4.976" fill="#F1C853"/><path d="M460.35 217.198c0 3.29 9.456 2.234 21.12 2.234 11.666 0 21.123 1.056 21.123-2.234s-5.475-9.68-17.14-9.68c-11.665 0-25.104 6.39-25.104 9.68" fill="#F5DEA2"/></g></g></svg>