<svg width="1100" height="253" viewBox="0 0 1100 253" xmlns="http://www.w3.org/2000/svg"><title>Group 30</title><g fill="none" fill-rule="evenodd"><path d="M693.072 249.262s11.166-4.547 18.377-17.964C718.66 217.883 763.32 129.2 827.056 129.2c11.91 0 23.157 3.1 33.616 8.224 1.59.78 3.16 1.61 4.715 2.48 42.9 24.003 71.62 80.868 77.278 91.394 7.21 13.417 18.376 17.964 18.376 17.964l.466 2.275H692.606l.466-2.275z" fill="#C46745"/><path d="M447.53 249.45s8.622-3.513 14.19-13.874c5.57-10.36 40.06-78.846 89.28-78.846 49.222 0 83.712 68.486 89.28 78.846 5.57 10.36 14.192 13.873 14.192 13.873l.36 1.755H447.17l.358-1.756z" fill="#9B3925"/><path d="M85.112 249.628s10.318-4.202 16.98-16.6c6.665-12.397 47.936-94.347 106.834-94.347 58.897 0 100.168 81.95 106.832 94.348 6.663 12.398 16.98 16.6 16.98 16.6l.43 2.102H84.683l.43-2.102z" fill="#A63A25"/><path fill="#377C75" d="M727.716 184.542l4.01.07-.2-7.98-3.06.07"/><path d="M730.066 152.53s-19 20.502-.493 25.8l.493-25.8z" fill="#59C093"/><path d="M730.067 152.508s18.228 21.194-.45 25.842l.45-25.842z" fill="#5FCCA1"/><path d="M1097.757 249.283s-7.347-2.834-12.092-11.193c-4.746-8.36-34.135-63.618-76.075-63.618V250.7h88.473l-.306-1.417z" fill="#DB6E4A"/><path d="M921.684 249.283s7.347-2.834 12.092-11.193c4.745-8.36 34.134-63.618 76.075-63.618V250.7H921.38l.306-1.417z" fill="#E37953"/><path d="M468.168 250.81s-7.348-2.833-12.093-11.192C451.33 231.258 421.94 176 380 176v76.228h88.473l-.305-1.417z" fill="#C46745"/><path d="M292.306 250.81s7.347-2.833 12.092-11.192c4.746-8.36 34.134-63.618 76.075-63.618v76.228H292l.306-1.417z" fill="#E47B54"/><path fill="#B55B22" d="M650.224 245.645l8.387.147-.42-16.69-6.396.147"/><path d="M656.14 178.703s-39.733 42.873-1.032 53.953l1.03-53.953z" fill="#DB6E4A"/><path d="M655.14 178.656s38.12 44.32-.943 54.04l.943-54.04z" fill="#E37953"/><path fill="#B55B22" d="M540.387 250.617l10.87.19-.546-21.63-8.288.19"/><path d="M548.675 163.176S497.18 218.74 547.34 233.1l1.335-69.924z" fill="#DB6E4A"/><path d="M548.61 163.176s49.406 57.443-1.223 70.04l1.222-70.04z" fill="#E37953"/><path fill="#B55B22" d="M205.387 154.617l10.87.19-.546-21.63-8.288.19"/><path d="M213.675 67.176S162.18 122.74 212.34 137.1l1.335-69.924z" fill="#DB6E4A"/><path d="M213.61 67.176s49.406 57.443-1.223 70.04l1.222-70.04z" fill="#E37953"/><path d="M1007.286 37.302c-.405-1.753-.625-3.572-.625-5.44 0-13.89 11.78-25.15 26.31-25.15 9.994 0 18.685 5.326 23.138 13.17 2.67-1.406 5.737-2.208 9-2.208 10.31 0 18.668 7.99 18.668 17.846 0 .26-.01.518-.02.775h.06c8.802 0 15.937 6.82 15.937 15.235 0 8.414-7.135 15.235-15.937 15.235h-70.83c-8.803 0-15.938-6.82-15.938-15.235 0-6.493 4.252-12.035 10.238-14.228" fill="#C7623B"/><path d="M478.238 78.592c-.405-1.753-.625-3.572-.625-5.44 0-13.892 11.78-25.152 26.31-25.152 9.993 0 18.684 5.327 23.137 13.173 2.67-1.407 5.737-2.21 9-2.21 10.31 0 18.668 7.99 18.668 17.846 0 .26-.01.517-.02.775h.06c8.802 0 15.937 6.82 15.937 15.234s-7.135 15.235-15.937 15.235h-70.83c-8.803 0-15.938-6.82-15.938-15.236 0-6.494 4.252-12.035 10.238-14.228M927.238 37.302c-.405-1.753-.625-3.572-.625-5.44 0-13.89 11.78-25.15 26.31-25.15 9.993 0 18.684 5.326 23.137 13.17 2.67-1.406 5.737-2.208 9-2.208 10.31 0 18.668 7.99 18.668 17.846 0 .26-.01.518-.02.775h.06c8.802 0 15.937 6.82 15.937 15.235 0 8.414-7.135 15.235-15.937 15.235h-70.83c-8.803 0-15.938-6.82-15.938-15.235 0-6.493 4.252-12.035 10.238-14.228" fill="#BB4129"/><path d="M8.592 41.843c-.327-1.415-.504-2.883-.504-4.392 0-11.213 9.51-20.303 21.24-20.303 8.067 0 15.084 4.3 18.68 10.634 2.153-1.135 4.63-1.783 7.264-1.783 8.323 0 15.07 6.45 15.07 14.407 0 .21-.006.42-.016.626h.05c7.104 0 12.865 5.507 12.865 12.3 0 6.792-5.76 12.298-12.865 12.298H13.193c-7.105 0-12.866-5.506-12.866-12.3 0-5.24 3.433-9.714 8.265-11.485M414.265 94.696c-.327-1.414-.504-2.883-.504-4.392C413.76 79.09 423.27 70 435 70c8.068 0 15.085 4.3 18.68 10.634 2.154-1.136 4.63-1.783 7.265-1.783 8.323 0 15.07 6.45 15.07 14.407 0 .21-.006.42-.016.626h.048c7.105 0 12.866 5.507 12.866 12.3 0 6.792-5.76 12.3-12.866 12.3h-57.182c-7.105 0-12.866-5.508-12.866-12.3 0-5.243 3.433-9.716 8.265-11.487" fill="#C7623B"/><path d="M505.422 63.42c-5.042-5.132-12.05-8.314-19.802-8.314-15.354 0-27.8 12.48-27.8 27.873 0 12.196 7.816 22.556 18.7 26.336-.58-.632-1.13-1.29-1.648-1.975.36.447.734.88 1.12 1.304 2.853.99 5.913 1.536 9.102 1.536 15.353 0 27.8-12.48 27.8-27.873 0-7.26-2.77-13.872-7.307-18.832-.055-.02-.11-.037-.165-.056z" fill="#E67E57"/><path d="M481.86 50.562c0 1.27.97 2.298 2.168 2.298 1.197 0 2.168-1.03 2.168-2.298v-11.12c0-1.268-.97-2.297-2.168-2.297-1.197 0-2.168 1.03-2.168 2.298v11.12z" fill="#E88159"/><path d="M479.8 125.94c0 1.27.972 2.3 2.17 2.3 1.197 0 2.167-1.03 2.167-2.3v-11.118c0-1.27-.97-2.298-2.168-2.298-1.198 0-2.17 1.03-2.17 2.298v11.12zM451.682 85.016c1.197 0 2.168-1.03 2.168-2.298 0-1.27-.97-2.298-2.168-2.298h-10.49c-1.197 0-2.167 1.03-2.167 2.298 0 1.27.97 2.298 2.167 2.298h10.49zM527.8 85.016c1.196 0 2.167-1.03 2.167-2.298 0-1.27-.97-2.298-2.168-2.298h-10.49c-1.198 0-2.168 1.03-2.168 2.298 0 1.27.97 2.298 2.167 2.298h10.49zM461.194 61.36c.847.898 2.22.898 3.066 0 .847-.897.847-2.352 0-3.25l-7.417-7.862c-.846-.897-2.22-.897-3.066 0-.846.898-.846 2.353 0 3.25l7.417 7.863zM514.323 114.907c.847.897 2.22.897 3.066 0 .845-.898.846-2.353 0-3.25l-7.42-7.863c-.845-.897-2.218-.897-3.064 0-.847.897-.847 2.353 0 3.25l7.417 7.863zM462.086 107.044c.846-.897.846-2.352 0-3.25-.847-.897-2.22-.897-3.066 0l-7.417 7.862c-.847.898-.847 2.353 0 3.25.846.898 2.22.898 3.066 0l7.416-7.862zM517.39 53.78c.845-.898.845-2.353 0-3.25-.848-.898-2.22-.898-3.067 0l-7.418 7.86c-.846.9-.846 2.354 0 3.25.847.898 2.22.9 3.066 0l7.42-7.86z" fill="#E67E57"/><path d="M254.824 61.156c-.226-.98-.35-2-.35-3.045 0-7.772 6.593-14.074 14.724-14.074 5.593 0 10.457 2.982 12.95 7.372 1.492-.787 3.21-1.236 5.035-1.236 5.77 0 10.447 4.47 10.447 9.987 0 .144-.005.29-.012.433h.034c4.926 0 8.92 3.817 8.92 8.525 0 4.71-3.994 8.526-8.92 8.526h-39.638c-4.925 0-8.92-3.817-8.92-8.526 0-3.633 2.38-6.734 5.73-7.962" fill="#C7623B"/><path d="M284.73 87.12c-.227-.98-.35-2-.35-3.045 0-7.773 6.59-14.075 14.723-14.075 5.593 0 10.456 2.98 12.95 7.372 1.492-.788 3.21-1.237 5.035-1.237 5.77 0 10.447 4.472 10.447 9.987 0 .146-.005.29-.012.434h.034c4.926 0 8.92 3.817 8.92 8.526 0 4.71-3.994 8.526-8.92 8.526H287.92c-4.927 0-8.92-3.817-8.92-8.526 0-3.634 2.38-6.735 5.73-7.962" fill="#BB4129"/><path d="M167.73 17.12c-.227-.98-.35-2-.35-3.045C167.38 6.302 173.97 0 182.103 0c5.593 0 10.456 2.98 12.95 7.372 1.492-.788 3.21-1.237 5.035-1.237 5.77 0 10.447 4.472 10.447 9.987 0 .146-.005.29-.012.434h.034c4.926 0 8.92 3.817 8.92 8.526 0 4.71-3.994 8.526-8.92 8.526H170.92c-4.927 0-8.92-3.817-8.92-8.526 0-3.634 2.38-6.735 5.73-7.962" fill="#DB6E4A"/><path d="M997.602 85.98c.415-.43 1.065-1 1.96-1.53.893-.53 2.04-1.023 3.36-1.268.166-.03.333-.06.5-.088l.516-.052c.345-.043.7-.038 1.057-.042.712.024 1.442.095 2.15.27.357.072.698.2 1.044.303.343.112.667.27.995.404.64.306 1.235.667 1.774 1.055.26.206.522.397.76.606.232.217.46.425.672.635.405.44.785.85 1.077 1.276l.42.6c.124.2.236.39.337.57.206.36.373.678.485.955.048.112.09.21.127.302.036-.09.078-.19.125-.302.113-.277.28-.595.486-.954.102-.18.213-.37.337-.57l.422-.6c.29-.426.67-.838 1.076-1.277.212-.21.44-.418.67-.635.24-.21.502-.4.762-.606.54-.388 1.134-.75 1.774-1.055.328-.135.653-.292.996-.404.346-.104.688-.23 1.045-.303.708-.175 1.437-.246 2.15-.27.357.004.71 0 1.057.042l.515.052.5.088c1.322.245 2.467.74 3.36 1.268.896.53 1.545 1.1 1.96 1.53.416.43.603.722.603.722l-.233-.074c-.148-.05-.372-.11-.647-.194-.552-.16-1.33-.37-2.247-.553-.457-.09-.947-.177-1.463-.235-.513-.07-1.052-.106-1.6-.12-.55-.025-1.108.017-1.67.054-.28.04-.56.06-.84.115l-.42.07-.415.1c-.557.115-1.096.308-1.633.49-.26.117-.526.214-.785.325l-.758.36-.73.387c-.233.138-.46.28-.69.408-.228.13-.434.284-.65.414-.106.066-.21.132-.315.196l-.293.208-.566.385c-.178.128-.346.25-.504.366-.322.23-.61.43-.838.606-.16.118-.298.216-.412.296.058.152.086.236.086.236s-.078-.05-.217-.146c-.14.095-.22.146-.22.146s.03-.084.088-.236c-.115-.08-.252-.178-.413-.296-.228-.177-.515-.377-.838-.606l-.503-.367-.565-.386-.294-.208-.316-.197c-.215-.13-.42-.285-.65-.415-.23-.13-.457-.27-.69-.408l-.73-.386-.757-.36c-.26-.11-.525-.208-.785-.325-.537-.182-1.075-.375-1.633-.49l-.415-.1-.42-.07c-.278-.054-.56-.076-.84-.116-.56-.038-1.12-.08-1.67-.056-.547.015-1.086.052-1.6.12-.515.06-1.006.147-1.464.237-.915.183-1.694.394-2.246.554-.275.083-.5.143-.647.194-.152.05-.233.074-.233.074s.187-.29.602-.722M562.88 45.48c.417-.43 1.067-.998 1.962-1.53.892-.527 2.038-1.02 3.36-1.267.165-.03.332-.06.5-.088l.515-.052c.346-.043.7-.037 1.057-.042.712.025 1.442.097 2.15.27.357.073.7.2 1.044.304.344.112.668.27.996.404.64.306 1.235.667 1.774 1.055.26.206.524.398.763.606.23.216.458.424.67.634.406.44.787.85 1.078 1.277l.422.603c.123.198.235.39.336.57.207.36.373.676.486.954.047.11.088.21.126.302.037-.093.08-.192.126-.303.113-.278.28-.595.486-.955.1-.18.212-.37.336-.57l.422-.6c.292-.427.672-.838 1.077-1.278.212-.21.44-.418.67-.635.24-.21.502-.4.763-.607.54-.388 1.133-.75 1.774-1.055.328-.135.652-.292.996-.404.346-.104.687-.23 1.045-.303.707-.173 1.436-.245 2.15-.27.356.006.71 0 1.056.043l.514.052c.168.03.335.06.5.088 1.322.246 2.468.74 3.36 1.268.896.532 1.545 1.1 1.96 1.53.416.433.603.724.603.724l-.233-.075c-.148-.052-.372-.112-.647-.195-.552-.16-1.33-.37-2.247-.553-.458-.09-.948-.178-1.464-.236-.513-.07-1.05-.105-1.6-.12-.55-.025-1.108.017-1.67.054-.278.04-.56.062-.84.116l-.42.07-.414.1c-.558.115-1.097.308-1.634.49-.26.117-.524.215-.784.325l-.758.362-.728.386c-.234.138-.46.28-.69.408-.23.13-.436.284-.65.414l-.316.198-.294.208-.565.384-.503.367c-.323.23-.61.43-.838.606-.16.118-.3.216-.413.296.057.152.085.235.085.235s-.08-.05-.217-.146c-.14.095-.217.145-.217.145l.087-.236c-.115-.08-.252-.18-.412-.297-.23-.177-.516-.377-.838-.606l-.504-.367-.565-.384-.293-.208c-.104-.065-.21-.13-.316-.198-.216-.13-.422-.284-.65-.414-.23-.13-.457-.27-.692-.408l-.728-.386c-.25-.12-.502-.24-.758-.36-.26-.11-.525-.21-.784-.326-.538-.182-1.076-.375-1.634-.49l-.414-.1-.42-.07c-.28-.054-.562-.076-.84-.116-.562-.037-1.12-.08-1.67-.055-.548.016-1.087.052-1.6.12-.516.06-1.007.148-1.464.237-.916.182-1.695.393-2.247.553-.276.083-.5.143-.648.194l-.233.074s.186-.29.6-.723" fill="#BB4129"/><path fill="#893221" d="M47.757 249.563h145.107v-84.69H47.757"/><path fill="#AD4D30" d="M192.36 171.044H48.26l-7.968-11.4H200.33"/><path fill="#893221" d="M34.204 161.815h172.212v-22.548H34.204"/><path fill="#AD4D30" d="M101.25 250.64h38.12v-30.207h-38.12M57.278 183.404h56.86v-5.727h-56.86M57.278 194.134h56.86v-5.727h-56.86M57.278 204.865h56.86v-5.727h-56.86M126.484 183.404h56.86v-5.727h-56.86M126.484 194.134h56.86v-5.727h-56.86M126.484 204.865h56.86v-5.727h-56.86"/><path fill="#A63A25" d="M883 247.165h76.46V145H883"/><path fill="#AD4D30" d="M922 247.165h38.224V145H922"/><path fill="#DB7F44" d="M893 206.91h26.21V192H893M924 206.91h26.21V192H924M893 186.91h26.21V172H893M924 186.91h26.21V172H924M893 166.91h26.21V152H893M924 166.91h26.21V152H924M894 226.91h10.598V212H894M909 226.91h10.598V212H909M924 226.91h10.598V212H924M938 226.91h10.598V212H938M907.41 246.476H895v-9.27c0-3.428 2.778-6.206 6.205-6.206s6.205 2.778 6.205 6.205v9.27z"/><path fill="#AD4D30" d="M694 249.308h90.45V156H694"/><path fill="#C06A33" d="M700.348 126h69.45l10.348 30.516H690"/><path fill="#A63A25" d="M690 247.84h37.283V155H690"/><path fill="#E47B54" d="M763 177.307h8.362V163H763M749 177.307h8.362V163H749M736 177.307h8.362V163H736M763 198.307h8.362V184H763M749 198.307h8.362V184H749M736 198.307h8.362V184H736M763 218.307h8.362V204H763M749 218.307h8.362V204H749M736 218.307h8.362V204H736"/><path fill="#DB7F44" d="M711 171.776h9.26V164H711M697 171.776h9.26V164H697M711 182.776h9.26V175H711M697 182.776h9.26V175H697M711 193.776h9.26V186H711M697 193.776h9.26V186H697M711 204.776h9.26V197H711M697 204.776h9.26V197H697M711 215.776h9.26V208H711M697 215.776h9.26V208H697"/><path fill="#E47B54" d="M746 247.558h14.567V226H746"/><g><path fill="#DB6E4A" d="M787 249.236h79.177V116H787"/><path fill="#AD4D30" d="M797 147.375h10.375V137H797M814 147.375h10.375V137H814M830 147.375h10.375V137H830M847 147.375h10.375V137H847M797 165.375h10.375V155H797M814 165.375h10.375V155H814M830 165.375h10.375V155H830M847 165.375h10.375V155H847M797 207.388h16.654V185H797M820 207.388h16.654V185H820M843 207.388h16.655V185H843M837.21 249.47H811v-21.364c0-7.238 5.867-13.106 13.105-13.106s13.105 5.868 13.105 13.106v21.365z"/></g><g><path d="M508.388 224.024c0 7.258-5.396 13.142-24.52 13.142-19.123 0-34.626-13.142-34.626-13.142s15.503-13.142 34.626-13.142c19.124 0 24.52 5.884 24.52 13.142" fill="#DF864D"/><path d="M513.297 240.653h-81.08c-2.594 0-4.718-2.123-4.718-4.718 0-6.596 5.396-11.993 11.992-11.993h73.805c2.595 0 4.718 2.124 4.718 4.72v7.273c0 2.595-2.123 4.718-4.718 4.718" fill="#DF864D"/><path d="M458.183 239.206c0 5.232-4.24 9.473-9.473 9.473-5.232-.002-9.474-4.243-9.474-9.475 0-5.232 4.242-9.473 9.474-9.473s9.473 4.24 9.473 9.473" fill="#F5DEA2"/><path d="M453.684 239.206c0 2.747-2.227 4.974-4.974 4.974-2.747 0-4.974-2.228-4.974-4.975 0-2.747 2.227-4.974 4.974-4.974 2.747.002 4.974 2.23 4.974 4.976" fill="#F1C853"/><path d="M512.918 239.206c0 5.232-4.24 9.473-9.473 9.473-5.232-.002-9.474-4.243-9.474-9.475 0-5.232 4.242-9.473 9.474-9.473s9.473 4.24 9.473 9.473" fill="#F5DEA2"/><path d="M508.418 239.206c0 2.747-2.227 4.974-4.974 4.974-2.747 0-4.974-2.228-4.974-4.975 0-2.747 2.227-4.974 4.974-4.974 2.747.002 4.974 2.23 4.974 4.976" fill="#F1C853"/><path d="M460.35 223.198c0 3.29 9.456 2.234 21.12 2.234 11.666 0 21.123 1.056 21.123-2.234s-5.475-9.68-17.14-9.68c-11.665 0-25.104 6.39-25.104 9.68" fill="#F5DEA2"/></g><path d="M378.65 152.078c-6.802-3.142-12.855-16.925-12.855-16.925-9.798-5.657-11.795-11.48-11.795-11.48 1.747 3.645 10.734 9.175 10.734 9.175l-.874-2.57c-6.762-4.71-8.75-9.016-9.322-10.892 1.43 3.606 9.197 9.272 9.197 9.272-1.186-1.382-1.56-8.21-1.56-8.21-6.615-4.4-6.552-9.008-6.552-9.008.686 3.1 7.176 7.583 7.176 7.583 1.122-1.173-.355-4.825-.355-4.825s2.643.444 1.32 5.988c-1.32 5.545 6.61 18.52 6.61 18.52 3.632-2.662.824-11.312.824-11.312 5.616 5.546.825 12.865.825 12.865 2.313 5.763 8.966 8.854 8.968 8.855.144-2.63.303-12.426-4.508-21.166-6.406-11.64 0-25.95 0-25.95-1.702 4-1.976 8.274-1.602 12.162 1.894-.488 3.036-4.163 3.036-4.163 0 2.648-2.253 4.944-2.877 5.53.926 6.788 3.635 12.086 3.635 12.086s3.01 4.525 4.853 10.415c1.2-1.184 3.89-4.437 4.003-9.822-4.408-3.274-4.81-6.142-4.81-6.142.35 1.51 3.703 4.306 4.802 5.19-.004-.11-.005-.216-.012-.326-.42-7.797.026-8.843.026-8.843s.093 4.622.812 8.682c.325 1.835.317 3.705-.202 5.733 3.87-1.444 6.068-6.016 6.068-6.016-.61 1.806-1.424 3.195-2.28 4.258 2.454-.28 5.094-1.485 5.094-1.485-2.132 1.464-4.91 2.164-5.893 2.38-1.407 1.414-2.785 2.043-3.428 2.28-.692 1.908-1.838 3.97-3.576 6.283.873 3.587 1.184 7.507.112 11.145-.448 1.52-.784 3.122-1.032 4.754 8.877-4.016 9.506-14.503 9.506-14.503 1.377-6.834 5.028-8.522 5.028-8.522-2.596 3.56-2.976 5.705-3.288 8.456 1.015-.293 2.782-1.175 4.366-3.833 0 0-.64 3.786-4.476 4.826-.176 1.585-.405 3.417-1.032 5.825-1.487 5.714-7.804 10.14-10.553 11.832-.607 8.503.655 16.56.655 16.56h-7.267c-.147-4.776.216-9.092.798-12.8-1.084-.94-3.938-3.69-5.96-8.093-3.458-.625-5.81-2.917-5.81-2.917 1.376 1.286 4.322 1.706 5.335 1.815-.68-1.702-1.225-3.622-1.503-5.754 0 0 2.355 9.223 8.477 11.967.237-1.17.493-2.26.752-3.264-.176.22-.125.11.06-.227.144-.553.29-1.078.435-1.575.146-1.693-.09-3.817-.09-3.817M1011.65 157.707c-6.802-3.142-12.855-16.925-12.855-16.925-9.798-5.657-11.795-11.48-11.795-11.48 1.747 3.645 10.734 9.175 10.734 9.175l-.874-2.57c-6.762-4.71-8.75-9.016-9.322-10.892 1.43 3.606 9.197 9.273 9.197 9.273-1.186-1.383-1.56-8.21-1.56-8.21-6.615-4.4-6.552-9.01-6.552-9.01.686 3.102 7.176 7.585 7.176 7.585 1.122-1.174-.355-4.826-.355-4.826s2.643.444 1.32 5.988c-1.32 5.545 6.61 18.52 6.61 18.52 3.632-2.662.824-11.312.824-11.312 5.616 5.546.825 12.865.825 12.865 2.313 5.764 8.966 8.855 8.968 8.856.144-2.63.303-12.426-4.508-21.166-6.406-11.64 0-25.95 0-25.95-1.702 4-1.976 8.275-1.602 12.163 1.894-.487 3.036-4.16 3.036-4.16 0 2.647-2.253 4.943-2.877 5.528.926 6.79 3.635 12.087 3.635 12.087s3.01 4.525 4.853 10.415c1.2-1.185 3.89-4.438 4.003-9.823-4.408-3.274-4.81-6.142-4.81-6.142.35 1.51 3.703 4.306 4.802 5.19-.004-.11-.005-.216-.012-.326-.42-7.798.026-8.843.026-8.843s.093 4.62.812 8.68c.325 1.837.317 3.707-.202 5.735 3.87-1.444 6.068-6.016 6.068-6.016-.61 1.806-1.424 3.195-2.28 4.258 2.454-.28 5.094-1.485 5.094-1.485-2.132 1.463-4.91 2.163-5.893 2.378-1.407 1.415-2.785 2.044-3.428 2.28-.692 1.91-1.838 3.972-3.576 6.284.873 3.587 1.184 7.507.112 11.145-.448 1.52-.784 3.123-1.032 4.755 8.877-4.017 9.506-14.504 9.506-14.504 1.377-6.833 5.028-8.52 5.028-8.52-2.596 3.558-2.976 5.704-3.288 8.455 1.015-.293 2.782-1.175 4.366-3.833 0 0-.64 3.785-4.476 4.825-.176 1.585-.405 3.417-1.032 5.826-1.487 5.713-7.804 10.14-10.553 11.83-.607 8.504.655 16.56.655 16.56h-7.267c-.147-4.775.216-9.09.798-12.8-1.084-.94-3.938-3.688-5.96-8.092-3.458-.624-5.81-2.916-5.81-2.916 1.376 1.286 4.322 1.706 5.335 1.815-.68-1.702-1.225-3.622-1.503-5.754 0 0 2.355 9.223 8.477 11.967.237-1.17.493-2.26.752-3.265-.176.22-.125.11.06-.227.144-.552.29-1.077.435-1.574.146-1.693-.09-3.817-.09-3.817" fill="#7F3121"/></g></svg>